<?xml version="1.0" encoding="utf-8"?>
<!-- Generator: Adobe Illustrator 20.0.0, SVG Export Plug-In . SVG Version: 6.00 Build 0)  -->
<!DOCTYPE svg PUBLIC "-//W3C//DTD SVG 1.1//EN" "http://www.w3.org/Graphics/SVG/1.1/DTD/svg11.dtd">
<svg version="1.1" id="Layer_1" xmlns="http://www.w3.org/2000/svg" xmlns:xlink="http://www.w3.org/1999/xlink" x="0px" y="0px"
	 viewBox="0 0 825 1167" style="enable-background:new 0 0 825 1167;" xml:space="preserve">
<style type="text/css">
	.st0{fill:#FFFFFF;}
	.st1{fill:#231F20;}
</style>
<g>
	<g>
		<path class="st0" d="M275.2,193h37.4v5.2h-15.7v42h-5.9v-42h-15.7V193z"/>
		<path class="st0" d="M307.5,223.2c0-9.9,6.5-18,16.2-18c10.2,0,15.7,7.9,15.7,19.2H313c0.4,6.9,4.2,12.2,11,12.2
			c5,0,8.3-2.4,9.4-7h5.2c-1.6,7.3-6.9,11.5-14.7,11.5C313.6,241.1,307.5,233.1,307.5,223.2z M313.2,220.4h20.5
			c-0.3-6.8-3.8-11-10-11C317.4,209.4,314,214.2,313.2,220.4z"/>
		<path class="st0" d="M341.9,223.2c0-9.9,6.3-18,16.5-18c8.1,0,13.4,4.6,14.6,11.9h-5.4c-0.8-4.6-4-7.5-9.2-7.5
			c-7.3,0-11,6-11,13.5s3.8,13.5,11,13.5c5.5,0,8.9-3.2,9.3-8.5h5.3c-0.7,8.2-6.1,12.9-14.6,12.9
			C348.3,241.1,341.9,233.1,341.9,223.2z"/>
		<path class="st0" d="M382.7,210.5h0.1c2.4-3.2,5.9-5.3,10.8-5.3c7.1,0,11.5,3.9,11.5,11v24h-5.4v-23.5c0-4.4-2.9-6.9-7.7-6.9
			c-5.4,0-9.4,3.8-9.4,9.4v21h-5.4V193h5.4V210.5z"/>
		<path class="st0" d="M416.5,210.5h0.1c2.4-3.2,5.9-5.3,10.8-5.3c7.1,0,11.5,3.9,11.5,11v24h-5.4v-23.5c0-4.4-2.9-6.9-7.7-6.9
			c-5.4,0-9.4,3.8-9.4,9.4v21h-5.4v-34.2h5.4V210.5z"/>
		<path class="st0" d="M443.2,223.2c0-9.9,6.3-18,16.5-18c10.2,0,16.4,8.1,16.4,18s-6.2,18-16.4,18
			C449.5,241.1,443.2,233.1,443.2,223.2z M470.7,223.2c0-7.5-3.7-13.5-11-13.5c-7.3,0-11,6-11,13.5s3.8,13.5,11,13.5
			C467,236.6,470.7,230.7,470.7,223.2z"/>
		<path class="st0" d="M480.7,193h5.4v47.2h-5.4V193z"/>
		<path class="st0" d="M490.5,223.2c0-9.9,6.3-18,16.5-18c10.2,0,16.4,8.1,16.4,18s-6.2,18-16.4,18
			C496.8,241.1,490.5,233.1,490.5,223.2z M518,223.2c0-7.5-3.7-13.5-11-13.5c-7.3,0-11,6-11,13.5s3.8,13.5,11,13.5
			C514.3,236.6,518,230.7,518,223.2z"/>
		<path class="st0" d="M527.1,242.1h5c0.5,3.8,4.1,5.2,9.4,5.2c6.3,0,9.8-2.8,9.8-8.8v-4.8H551c-2.5,3.2-5.2,5.3-10.1,5.3
			c-8.9,0-14.9-7.1-14.9-16.9c0-10.6,6.7-16.8,14.6-16.8c5,0,8.1,1.9,10.4,5.2h0.1v-4.4h5.4v32.3c0,9-5.9,13.2-15,13.2
			C532.7,251.6,527.7,248,527.1,242.1z M551.6,221.8c0-7.5-3.2-12.1-10.4-12.1c-6.4,0-9.6,5-9.6,12.4c0,7.5,3.4,12.4,9.7,12.4
			C549.1,234.5,551.6,229,551.6,221.8z"/>
		<path class="st0" d="M562.2,250.8V246h0.3c0.7,0.4,1.8,0.7,3.6,0.7c2.2,0,3.8-0.9,5.1-4.2l1.3-3.4l-13.3-33.2h5.8l8.1,21.3
			c1.1,2.8,2.3,6.7,2.3,6.7h0.1c0,0,1.2-3.8,2.2-6.7l7.8-21.3h5.7L576.6,243c-2.8,7.1-5.4,8.5-9.6,8.5
			C565,251.5,563.7,251.4,562.2,250.8z"/>
		<path class="st0" d="M606.3,193h22.1c8.3,0,13.9,5.2,13.9,12.9c0,5.7-2.5,9.8-8.2,11.7v0.2c4.8,1.7,6.3,5,6.8,12
			c0.5,7.6,1.3,9.5,2.2,10.1v0.3h-6.4c-1-0.9-1.2-2.6-1.7-10.6c-0.5-6.9-3.2-9.4-9.6-9.4h-13.1v19.9h-5.9V193z M612.2,215.4h14
			c6.6,0,9.9-3.3,9.9-8.7c0-5.7-2.6-8.7-9.6-8.7h-14.3V215.4z"/>
		<path class="st0" d="M645.8,223.2c0-9.9,6.5-18,16.2-18c10.2,0,15.7,7.9,15.7,19.2h-26.4c0.4,6.9,4.2,12.2,11,12.2
			c5,0,8.3-2.4,9.4-7h5.2c-1.6,7.3-6.9,11.5-14.7,11.5C651.9,241.1,645.8,233.1,645.8,223.2z M651.4,220.4H672
			c-0.3-6.8-3.8-11-10-11C655.7,209.4,652.2,214.2,651.4,220.4z"/>
		<path class="st0" d="M677.2,206.1h5.7l7.1,21.7c1,3,2.2,7.2,2.2,7.2h0.1c0,0,1.3-4.2,2.2-7.2l7.2-21.7h5.5l-12.3,34.2h-5.9
			L677.2,206.1z"/>
		<path class="st0" d="M710.1,193h5.4v6.6h-5.4V193z M710.1,206.1h5.4v34.2h-5.4V206.1z"/>
		<path class="st0" d="M719.8,223.2c0-9.9,6.5-18,16.2-18c10.2,0,15.7,7.9,15.7,19.2h-26.4c0.4,6.9,4.2,12.2,11,12.2
			c5,0,8.3-2.4,9.4-7h5.2c-1.6,7.3-6.9,11.5-14.7,11.5C725.9,241.1,719.8,233.1,719.8,223.2z M725.4,220.4H746
			c-0.3-6.8-3.8-11-10-11C729.6,209.4,726.2,214.2,725.4,220.4z"/>
		<path class="st0" d="M751.5,206.1h5.7l6,21.1c0.8,2.8,1.8,7.3,1.8,7.3h0.1c0,0,1-4.5,1.7-7.2l5.7-21.2h5.6l5.5,21.2
			c0.7,2.8,1.7,7.2,1.7,7.2h0.1c0,0,1.1-4.5,1.9-7.3l6.3-21.1h5.5l-11.2,34.2h-5.5l-5.7-20.7c-0.8-2.8-1.7-7.1-1.7-7.1h-0.1
			c0,0-0.9,4.3-1.7,7.1l-5.7,20.7h-5.5L751.5,206.1z"/>
	</g>
	<g>
		<path class="st0" d="M275.2,193h37.4v5.2h-15.7v42h-5.9v-42h-15.7V193z"/>
		<path class="st0" d="M307.5,223.2c0-9.9,6.5-18,16.2-18c10.2,0,15.7,7.9,15.7,19.2H313c0.4,6.9,4.2,12.2,11,12.2
			c5,0,8.3-2.4,9.4-7h5.2c-1.6,7.3-6.9,11.5-14.7,11.5C313.6,241.1,307.5,233.1,307.5,223.2z M313.2,220.4h20.5
			c-0.3-6.8-3.8-11-10-11C317.4,209.4,314,214.2,313.2,220.4z"/>
		<path class="st0" d="M341.9,223.2c0-9.9,6.3-18,16.5-18c8.1,0,13.4,4.6,14.6,11.9h-5.4c-0.8-4.6-4-7.5-9.2-7.5
			c-7.3,0-11,6-11,13.5s3.8,13.5,11,13.5c5.5,0,8.9-3.2,9.3-8.5h5.3c-0.7,8.2-6.1,12.9-14.6,12.9
			C348.3,241.1,341.9,233.1,341.9,223.2z"/>
		<path class="st0" d="M382.7,210.5h0.1c2.4-3.2,5.9-5.3,10.8-5.3c7.1,0,11.5,3.9,11.5,11v24h-5.4v-23.5c0-4.4-2.9-6.9-7.7-6.9
			c-5.4,0-9.4,3.8-9.4,9.4v21h-5.4V193h5.4V210.5z"/>
		<path class="st0" d="M416.5,210.5h0.1c2.4-3.2,5.9-5.3,10.8-5.3c7.1,0,11.5,3.9,11.5,11v24h-5.4v-23.5c0-4.4-2.9-6.9-7.7-6.9
			c-5.4,0-9.4,3.8-9.4,9.4v21h-5.4v-34.2h5.4V210.5z"/>
		<path class="st0" d="M443.2,223.2c0-9.9,6.3-18,16.5-18c10.2,0,16.4,8.1,16.4,18s-6.2,18-16.4,18
			C449.5,241.1,443.2,233.1,443.2,223.2z M470.7,223.2c0-7.5-3.7-13.5-11-13.5c-7.3,0-11,6-11,13.5s3.8,13.5,11,13.5
			C467,236.6,470.7,230.7,470.7,223.2z"/>
		<path class="st0" d="M480.7,193h5.4v47.2h-5.4V193z"/>
		<path class="st0" d="M490.5,223.2c0-9.9,6.3-18,16.5-18c10.2,0,16.4,8.1,16.4,18s-6.2,18-16.4,18
			C496.8,241.1,490.5,233.1,490.5,223.2z M518,223.2c0-7.5-3.7-13.5-11-13.5c-7.3,0-11,6-11,13.5s3.8,13.5,11,13.5
			C514.3,236.6,518,230.7,518,223.2z"/>
		<path class="st0" d="M527.1,242.1h5c0.5,3.8,4.1,5.2,9.4,5.2c6.3,0,9.8-2.8,9.8-8.8v-4.8H551c-2.5,3.2-5.2,5.3-10.1,5.3
			c-8.9,0-14.9-7.1-14.9-16.9c0-10.6,6.7-16.8,14.6-16.8c5,0,8.1,1.9,10.4,5.2h0.1v-4.4h5.4v32.3c0,9-5.9,13.2-15,13.2
			C532.7,251.6,527.7,248,527.1,242.1z M551.6,221.8c0-7.5-3.2-12.1-10.4-12.1c-6.4,0-9.6,5-9.6,12.4c0,7.5,3.4,12.4,9.7,12.4
			C549.1,234.5,551.6,229,551.6,221.8z"/>
		<path class="st0" d="M562.2,250.8V246h0.3c0.7,0.4,1.8,0.7,3.6,0.7c2.2,0,3.8-0.9,5.1-4.2l1.3-3.4l-13.3-33.2h5.8l8.1,21.3
			c1.1,2.8,2.3,6.7,2.3,6.7h0.1c0,0,1.2-3.8,2.2-6.7l7.8-21.3h5.7L576.6,243c-2.8,7.1-5.4,8.5-9.6,8.5
			C565,251.5,563.7,251.4,562.2,250.8z"/>
		<path class="st0" d="M606.3,193h22.1c8.3,0,13.9,5.2,13.9,12.9c0,5.7-2.5,9.8-8.2,11.7v0.2c4.8,1.7,6.3,5,6.8,12
			c0.5,7.6,1.3,9.5,2.2,10.1v0.3h-6.4c-1-0.9-1.2-2.6-1.7-10.6c-0.5-6.9-3.2-9.4-9.6-9.4h-13.1v19.9h-5.9V193z M612.2,215.4h14
			c6.6,0,9.9-3.3,9.9-8.7c0-5.7-2.6-8.7-9.6-8.7h-14.3V215.4z"/>
		<path class="st0" d="M645.8,223.2c0-9.9,6.5-18,16.2-18c10.2,0,15.7,7.9,15.7,19.2h-26.4c0.4,6.9,4.2,12.2,11,12.2
			c5,0,8.3-2.4,9.4-7h5.2c-1.6,7.3-6.9,11.5-14.7,11.5C651.9,241.1,645.8,233.1,645.8,223.2z M651.4,220.4H672
			c-0.3-6.8-3.8-11-10-11C655.7,209.4,652.2,214.2,651.4,220.4z"/>
		<path class="st0" d="M677.2,206.1h5.7l7.1,21.7c1,3,2.2,7.2,2.2,7.2h0.1c0,0,1.3-4.2,2.2-7.2l7.2-21.7h5.5l-12.3,34.2h-5.9
			L677.2,206.1z"/>
		<path class="st0" d="M710.1,193h5.4v6.6h-5.4V193z M710.1,206.1h5.4v34.2h-5.4V206.1z"/>
		<path class="st0" d="M719.8,223.2c0-9.9,6.5-18,16.2-18c10.2,0,15.7,7.9,15.7,19.2h-26.4c0.4,6.9,4.2,12.2,11,12.2
			c5,0,8.3-2.4,9.4-7h5.2c-1.6,7.3-6.9,11.5-14.7,11.5C725.9,241.1,719.8,233.1,719.8,223.2z M725.4,220.4H746
			c-0.3-6.8-3.8-11-10-11C729.6,209.4,726.2,214.2,725.4,220.4z"/>
		<path class="st0" d="M751.5,206.1h5.7l6,21.1c0.8,2.8,1.8,7.3,1.8,7.3h0.1c0,0,1-4.5,1.7-7.2l5.7-21.2h5.6l5.5,21.2
			c0.7,2.8,1.7,7.2,1.7,7.2h0.1c0,0,1.1-4.5,1.9-7.3l6.3-21.1h5.5l-11.2,34.2h-5.5l-5.7-20.7c-0.8-2.8-1.7-7.1-1.7-7.1h-0.1
			c0,0-0.9,4.3-1.7,7.1l-5.7,20.7h-5.5L751.5,206.1z"/>
	</g>
</g>
<g>
	<path class="st1" d="M33.1,32.1c0-1.4,0.8-1.9,1.7-2v0.7C34.4,31,34,31.3,34,32v0.1h0.8v1.7h-1.6V32.1z M35.6,32.1
		c0-1.4,0.8-1.9,1.6-2v0.7c-0.4,0.1-0.8,0.5-0.8,1.2v0.1h0.7v1.7h-1.6V32.1z"/>
	<path class="st1" d="M38.1,35c0-2.9,1.8-5,4.8-5c2.9,0,4.8,2.1,4.8,5c0,2.9-1.8,5-4.8,5C40,40.1,38.1,37.9,38.1,35z M45.8,35
		c0-2-1-3.6-2.9-3.6C41,31.5,40,33,40,35c0,2,1,3.5,2.9,3.5C44.8,38.5,45.8,37,45.8,35z"/>
	<path class="st1" d="M50.3,33.9L50.3,33.9c0.5-0.8,1.2-1.2,2.2-1.2c1.5,0,2.4,0.9,2.4,2.4v4.7h-1.7v-4.4c0-0.8-0.5-1.3-1.3-1.3
		c-0.9,0-1.6,0.7-1.6,1.7v4.1h-1.7v-6.9h1.6V33.9z"/>
	<path class="st1" d="M58.7,32.9h1.1v-2.2h1.6v2.2h1.4V34h-1.4v3.9c0,0.5,0.3,0.6,0.7,0.6c0.2,0,0.4,0,0.5-0.1h0.1v1.3
		c-0.3,0.1-0.7,0.1-1.1,0.1c-1.1,0-1.9-0.4-1.9-1.6V34h-1.1V32.9z"/>
	<path class="st1" d="M65.2,33.9L65.2,33.9c0.5-0.7,1.2-1.2,2.2-1.2c1.5,0,2.4,0.9,2.4,2.4v4.7h-1.7v-4.4c0-0.8-0.5-1.3-1.3-1.3
		c-0.9,0-1.6,0.7-1.6,1.7v4.1h-1.7v-9.7h1.7v2.6C65.3,33,65.2,33.5,65.2,33.9z"/>
	<path class="st1" d="M70.7,36.4c0-2.1,1.4-3.7,3.4-3.7c1,0,1.8,0.4,2.4,1c0.7,0.7,1,1.8,1,3.1h-5.2c0.1,1.2,0.8,2,1.9,2
		c0.8,0,1.3-0.3,1.5-0.9h1.6C77,39.1,75.9,40,74.2,40C72,40,70.7,38.4,70.7,36.4z M72.3,35.7h3.5c-0.1-1.1-0.7-1.8-1.7-1.8
		C73,33.9,72.5,34.6,72.3,35.7z"/>
	<path class="st1" d="M81.6,30.2h7.1v1.5h-5.3v2.4H88v1.4h-4.7v2.7h5.4v1.6h-7.2V30.2z"/>
	<path class="st1" d="M89.4,37.7H91c0.1,0.8,0.8,1.2,1.7,1.2c0.9,0,1.3-0.4,1.3-0.9c0-0.7-0.7-0.8-1.8-1c-1.3-0.3-2.5-0.6-2.5-2.1
		c0-1.3,1.1-2.1,2.7-2.1c1.8,0,2.8,0.8,2.9,2h-1.6c-0.1-0.6-0.6-0.9-1.4-0.9c-0.8,0-1.2,0.4-1.2,0.8c0,0.6,0.7,0.7,1.8,0.9
		c1.3,0.2,2.6,0.6,2.6,2.2c0,1.5-1.2,2.2-3,2.2C90.6,40.1,89.5,39.1,89.4,37.7z"/>
	<path class="st1" d="M96.1,36.4c0-2.1,1.4-3.7,3.5-3.7c1.8,0,2.9,1,3.1,2.5h-1.6c-0.2-0.8-0.7-1.2-1.5-1.2c-1.2,0-1.8,1-1.8,2.4
		c0,1.4,0.6,2.4,1.8,2.4c0.9,0,1.5-0.5,1.5-1.4h1.6c-0.1,1.6-1.3,2.7-3.1,2.7C97.5,40,96.1,38.4,96.1,36.4z"/>
	<path class="st1" d="M107.8,38.9L107.8,38.9c-0.5,0.6-1.1,1.1-2.2,1.1c-1.4,0-2.4-0.7-2.4-2.1c0-1.6,1.2-2,2.8-2.1
		c1.1-0.1,1.7-0.3,1.7-0.9c0-0.6-0.4-1-1.2-1c-0.9,0-1.4,0.4-1.4,1.1h-1.6c0.1-1.2,1-2.3,3-2.3c0.8,0,1.4,0.1,1.9,0.4
		c0.7,0.4,1,1.1,1,2v3.7c0,0.6,0.1,0.9,0.3,1v0.1h-1.6C108,39.7,107.9,39.4,107.8,38.9z M107.9,37.3v-1c-0.3,0.2-0.8,0.4-1.4,0.5
		c-1,0.2-1.6,0.4-1.6,1.2c0,0.7,0.6,1,1.2,1C107.2,38.9,107.9,38.1,107.9,37.3z"/>
	<path class="st1" d="M110.7,32.9h1.6v1h0c0.5-0.8,1.2-1.2,2.2-1.2c1.8,0,3,1.5,3,3.7c0,2.2-1.2,3.7-3,3.7c-0.9,0-1.7-0.4-2.1-1.1h0
		c0,0.3,0.1,0.7,0.1,1.4v1.9h-1.7V32.9z M115.8,36.4c0-1.4-0.6-2.4-1.7-2.4c-1.2,0-1.8,1.1-1.8,2.4c0,1.3,0.6,2.3,1.8,2.3
		C115.2,38.7,115.8,37.8,115.8,36.4z"/>
	<path class="st1" d="M118.1,36.4c0-2.1,1.4-3.7,3.4-3.7c1,0,1.8,0.4,2.4,1c0.7,0.7,1,1.8,1,3.1h-5.2c0.1,1.2,0.8,2,1.9,2
		c0.8,0,1.3-0.3,1.5-0.9h1.6c-0.3,1.2-1.5,2.2-3.2,2.2C119.4,40,118.1,38.4,118.1,36.4z M119.7,35.7h3.5c-0.1-1.1-0.7-1.8-1.7-1.8
		C120.4,33.9,119.9,34.6,119.7,35.7z"/>
	<path class="st1" d="M128.5,36.4c0-2.1,1.4-3.7,3.5-3.7s3.5,1.6,3.5,3.7c0,2.1-1.4,3.7-3.5,3.7S128.5,38.4,128.5,36.4z M133.9,36.4
		c0-1.4-0.7-2.4-1.9-2.4c-1.2,0-1.9,1-1.9,2.4c0,1.4,0.6,2.4,1.9,2.4C133.2,38.8,133.9,37.8,133.9,36.4z"/>
	<path class="st1" d="M135.8,32.9h1.1v-0.8c0-0.7,0.2-1.2,0.5-1.5c0.4-0.4,1-0.5,1.8-0.5c0.2,0,0.5,0,0.7,0v1.2
		c-1.1-0.1-1.4,0.1-1.4,0.8v0.7h1.4V34h-1.4v5.8h-1.7V34h-1.1V32.9z"/>
	<path class="st1" d="M143.4,30.2h7.9v1.5h-3v8.1h-1.8v-8.1h-3V30.2z"/>
	<path class="st1" d="M152,30.2h1.7v1.6H152V30.2z M152.1,32.9h1.7v6.9h-1.7V32.9z"/>
	<path class="st1" d="M154.8,40.2h1.6c0.1,0.6,0.6,0.9,1.6,0.9c1.1,0,1.7-0.5,1.7-1.5v-0.2c0-0.4,0-0.7,0-1h0c-0.4,0.7-1,1.1-2,1.1
		c-1.7,0-3-1.3-3-3.3c0-2.1,1.3-3.4,2.9-3.4c1,0,1.6,0.3,2.1,1.1h0v-0.9h1.6v6.5c0,1-0.3,1.7-0.9,2.2c-0.6,0.5-1.4,0.7-2.4,0.7
		C156.1,42.3,155,41.5,154.8,40.2z M159.7,36.1c0-1.2-0.6-2.1-1.8-2.1c-1.1,0-1.7,0.8-1.7,2.1s0.6,2.1,1.7,2.1
		C159.2,38.2,159.7,37.3,159.7,36.1z"/>
	<path class="st1" d="M162.2,36.4c0-2.1,1.4-3.7,3.4-3.7c1,0,1.8,0.4,2.4,1c0.7,0.7,1,1.8,1,3.1h-5.2c0.1,1.2,0.8,2,1.9,2
		c0.8,0,1.3-0.3,1.5-0.9h1.6c-0.3,1.2-1.5,2.2-3.2,2.2C163.5,40,162.2,38.4,162.2,36.4z M163.8,35.7h3.5c-0.1-1.1-0.7-1.8-1.7-1.8
		C164.5,33.9,164,34.6,163.8,35.7z"/>
	<path class="st1" d="M171.5,34.1L171.5,34.1c0.5-0.9,1.1-1.4,2-1.4c0.2,0,0.3,0,0.4,0.1v1.5h-0.1c-0.2,0-0.3-0.1-0.5-0.1
		c-1.1,0-1.9,0.7-1.9,2.1v3.5h-1.7v-6.9h1.6V34.1z"/>
	<path class="st1" d="M174.3,37.7h1.6c0.1,0.8,0.8,1.2,1.7,1.2c0.9,0,1.3-0.4,1.3-0.9c0-0.7-0.7-0.8-1.8-1c-1.3-0.3-2.5-0.6-2.5-2.1
		c0-1.3,1.1-2.1,2.7-2.1c1.8,0,2.8,0.8,2.9,2h-1.6c-0.1-0.6-0.6-0.9-1.4-0.9c-0.8,0-1.2,0.4-1.2,0.8c0,0.6,0.7,0.7,1.8,0.9
		c1.3,0.2,2.6,0.6,2.6,2.2c0,1.5-1.2,2.2-3,2.2C175.5,40.1,174.4,39.1,174.3,37.7z"/>
	<path class="st1" d="M181.4,41.2c0.5-0.1,0.8-0.5,0.8-1.3v-0.1h-0.8V38h1.8v1.8c0,1.4-0.7,2.1-1.8,2.2V41.2z"/>
	<path class="st1" d="M185.5,31.8c0,1.4-0.8,1.9-1.7,2v-0.7c0.4-0.1,0.8-0.5,0.8-1.2v-0.1h-0.7v-1.7h1.6V31.8z M187.9,31.8
		c0,1.4-0.8,1.9-1.7,2v-0.7c0.4-0.1,0.8-0.5,0.8-1.2v-0.1h-0.7v-1.7h1.6V31.8z"/>
	<path class="st1" d="M37.7,47.4h1.8l1.1,4.7c0.3,1.2,0.5,3.2,0.5,3.2h0c0,0,0.3-2.1,0.6-3.2l1.2-4.6h1.8l1.2,4.6
		c0.3,1.2,0.6,3.2,0.6,3.2h0c0,0,0.3-2,0.6-3.2l1.1-4.7h1.8l-2.7,9.7h-1.8L44.4,52c-0.3-1-0.5-2.9-0.5-2.9h0c0,0-0.3,1.9-0.5,2.9
		l-1.3,5.1h-1.8L37.7,47.4z"/>
	<path class="st1" d="M50.8,47.4h1.7V49h-1.7V47.4z M50.8,50.2h1.7v6.9h-1.7V50.2z"/>
	<path class="st1" d="M53.7,47.4h1.7v9.7h-1.7V47.4z"/>
	<path class="st1" d="M56.6,47.4h1.7v9.7h-1.7V47.4z"/>
	<path class="st1" d="M59.5,47.4h1.7V49h-1.7V47.4z M59.6,50.2h1.7v6.9h-1.7V50.2z"/>
	<path class="st1" d="M66.7,56.2L66.7,56.2c-0.5,0.6-1.1,1.1-2.2,1.1c-1.4,0-2.4-0.7-2.4-2.1c0-1.6,1.2-2,2.8-2.1
		c1.1-0.1,1.7-0.3,1.7-0.9c0-0.6-0.4-1-1.2-1c-0.9,0-1.4,0.4-1.4,1.1h-1.6c0.1-1.2,1-2.3,3-2.3c0.8,0,1.4,0.1,1.9,0.4
		c0.7,0.4,1,1.1,1,2V56c0,0.6,0.1,0.9,0.3,1v0.1h-1.6C66.8,56.9,66.7,56.7,66.7,56.2z M66.7,54.6v-1c-0.3,0.2-0.8,0.4-1.4,0.5
		c-1,0.2-1.6,0.4-1.6,1.2c0,0.7,0.6,1,1.2,1C66.1,56.1,66.7,55.4,66.7,54.6z"/>
	<path class="st1" d="M69.5,50.2h1.6v1.1h0c0.4-0.8,1.1-1.2,2.1-1.2c0.9,0,1.5,0.4,1.8,1.3h0c0.5-0.9,1.3-1.3,2.2-1.3
		c1.4,0,2.2,0.9,2.2,2.4v4.7h-1.7v-4.5c0-0.8-0.5-1.3-1.1-1.3c-0.8,0-1.4,0.7-1.4,1.7v4.1h-1.7v-4.5c0-0.8-0.4-1.3-1.1-1.3
		c-0.8,0-1.4,0.7-1.4,1.7v4.1h-1.7V50.2z"/>
	<path class="st1" d="M83.9,47.4h1.8v3.9H90v-3.9h1.8v9.7H90v-4.3h-4.3v4.3h-1.8V47.4z"/>
	<path class="st1" d="M97.5,56.2L97.5,56.2c-0.5,0.6-1.1,1.1-2.2,1.1c-1.4,0-2.4-0.7-2.4-2.1c0-1.6,1.2-2,2.8-2.1
		c1.1-0.1,1.7-0.3,1.7-0.9c0-0.6-0.4-1-1.2-1c-0.9,0-1.4,0.4-1.4,1.1h-1.6c0.1-1.2,1-2.3,3-2.3c0.8,0,1.4,0.1,1.9,0.4
		c0.7,0.4,1,1.1,1,2V56c0,0.6,0.1,0.9,0.3,1v0.1h-1.6C97.6,56.9,97.5,56.7,97.5,56.2z M97.5,54.6v-1c-0.3,0.2-0.8,0.4-1.4,0.5
		c-1,0.2-1.6,0.4-1.6,1.2c0,0.7,0.6,1,1.2,1C96.9,56.1,97.5,55.4,97.5,54.6z"/>
	<path class="st1" d="M99.9,53.6c0-2.2,1.2-3.7,3-3.7c1,0,1.7,0.5,2.1,1.2h0c0-0.4-0.1-0.9-0.1-1.4v-2.3h1.7v9.7h-1.6v-1h0
		c-0.4,0.8-1.2,1.2-2.1,1.2C101.1,57.3,99.9,55.9,99.9,53.6z M105.1,53.6c0-1.4-0.6-2.4-1.8-2.4c-1.1,0-1.7,1-1.7,2.4
		c0,1.4,0.6,2.3,1.7,2.3C104.5,56,105.1,55,105.1,53.6z"/>
	<path class="st1" d="M107.7,53.6c0-2.2,1.2-3.7,3-3.7c1,0,1.7,0.5,2.1,1.2h0c0-0.4-0.1-0.9-0.1-1.4v-2.3h1.7v9.7h-1.6v-1h0
		c-0.4,0.8-1.2,1.2-2.1,1.2C108.8,57.3,107.7,55.9,107.7,53.6z M112.8,53.6c0-1.4-0.6-2.4-1.8-2.4c-1.1,0-1.7,1-1.7,2.4
		c0,1.4,0.6,2.3,1.7,2.3C112.2,56,112.8,55,112.8,53.6z"/>
	<path class="st1" d="M115.3,53.6c0-2.1,1.4-3.7,3.5-3.7s3.5,1.6,3.5,3.7c0,2.1-1.4,3.7-3.5,3.7S115.3,55.7,115.3,53.6z M120.7,53.6
		c0-1.4-0.6-2.4-1.9-2.4c-1.2,0-1.9,1-1.9,2.4c0,1.4,0.6,2.4,1.9,2.4C120.1,56.1,120.7,55,120.7,53.6z"/>
	<path class="st1" d="M124.9,51.2L124.9,51.2c0.5-0.8,1.2-1.2,2.2-1.2c1.5,0,2.4,0.9,2.4,2.4v4.7h-1.7v-4.4c0-0.8-0.5-1.3-1.3-1.3
		c-0.9,0-1.6,0.7-1.6,1.7v4.1h-1.7v-6.9h1.6V51.2z"/>
	<path class="st1" d="M130.8,58.5c0.5-0.1,0.8-0.5,0.8-1.3v-0.1h-0.8v-1.8h1.8v1.8c0,1.4-0.7,2.1-1.8,2.2V58.5z"/>
	<path class="st1" d="M136.3,54.2v-0.5h1.7v0.4c0,1.3,0.5,1.7,1.4,1.7c0.8,0,1.3-0.5,1.3-1.4v-6.9h1.8v7c0,0.8-0.2,1.4-0.7,1.9
		c-0.5,0.6-1.3,0.9-2.4,0.9C137.4,57.3,136.3,56.2,136.3,54.2z"/>
	<path class="st1" d="M145.4,51.4L145.4,51.4c0.5-0.9,1.1-1.4,2-1.4c0.2,0,0.3,0,0.4,0.1v1.5h-0.1c-0.2,0-0.3-0.1-0.5-0.1
		c-1.1,0-1.9,0.7-1.9,2.1v3.5h-1.7v-6.9h1.6V51.4z"/>
	<path class="st1" d="M147.7,55.3h1.8v1.8h-1.8V55.3z"/>
	<path class="st1" d="M150.7,58.5c0.5-0.1,0.8-0.5,0.8-1.3v-0.1h-0.8v-1.8h1.8v1.8c0,1.4-0.7,2.1-1.8,2.2V58.5z"/>
	<path class="st1" d="M156.8,47.4h2.4l1.6,4.6c0.4,1.1,0.8,3.2,0.8,3.2h0c0,0,0.5-2.1,0.8-3.2l1.6-4.6h2.4v9.7h-1.7v-5
		c0-1.1,0.1-3,0.1-3h0c0,0-0.4,1.8-0.7,2.7l-1.8,5.3h-1.5l-1.8-5.3c-0.3-1-0.7-2.7-0.7-2.7h0c0,0,0.1,2,0.1,3v5h-1.6V47.4z"/>
	<path class="st1" d="M168,55.3h1.8v1.8H168V55.3z"/>
	<path class="st1" d="M171.2,47.4h3.8c2.8,0,4.4,1.9,4.4,4.9c0,2.9-1.6,4.8-4.5,4.8h-3.7V47.4z M174.8,55.6c1.9,0,2.8-1.2,2.8-3.2
		c0-2-0.8-3.4-2.7-3.4H173v6.6H174.8z"/>
	<path class="st1" d="M180,55.3h1.8v1.8H180V55.3z"/>
	<path class="st1" d="M183.7,53h7.8v1.4h-7.8V53z"/>
	<path class="st1" d="M197.9,56.2L197.9,56.2c-0.5,0.6-1.1,1.1-2.2,1.1c-1.4,0-2.4-0.7-2.4-2.1c0-1.6,1.2-2,2.8-2.1
		c1.1-0.1,1.7-0.3,1.7-0.9c0-0.6-0.4-1-1.2-1c-0.9,0-1.4,0.4-1.4,1.1h-1.6c0.1-1.2,1-2.3,3-2.3c0.8,0,1.4,0.1,1.9,0.4
		c0.7,0.4,1,1.1,1,2V56c0,0.6,0.1,0.9,0.3,1v0.1h-1.6C198.1,56.9,198,56.7,197.9,56.2z M198,54.6v-1c-0.3,0.2-0.8,0.4-1.4,0.5
		c-1,0.2-1.6,0.4-1.6,1.2c0,0.7,0.6,1,1.2,1C197.4,56.1,198,55.4,198,54.6z"/>
	<path class="st1" d="M202.4,51.2L202.4,51.2c0.5-0.8,1.2-1.2,2.2-1.2c1.5,0,2.4,0.9,2.4,2.4v4.7h-1.7v-4.4c0-0.8-0.5-1.3-1.3-1.3
		c-0.9,0-1.6,0.7-1.6,1.7v4.1h-1.7v-6.9h1.6V51.2z"/>
	<path class="st1" d="M38,70.9c0-2.1,1.4-3.7,3.4-3.7c1,0,1.8,0.4,2.4,1c0.7,0.7,1,1.8,1,3.1h-5.2c0.1,1.2,0.8,2,1.9,2
		c0.8,0,1.3-0.3,1.5-0.9h1.6c-0.3,1.2-1.5,2.2-3.2,2.2C39.3,74.6,38,73,38,70.9z M39.6,70.3h3.5c-0.1-1.1-0.7-1.8-1.7-1.8
		C40.3,68.4,39.8,69.2,39.6,70.3z"/>
	<path class="st1" d="M45.2,72.2h1.6c0.1,0.8,0.8,1.2,1.7,1.2c0.9,0,1.3-0.4,1.3-0.9c0-0.7-0.7-0.8-1.8-1c-1.3-0.3-2.5-0.6-2.5-2.1
		c0-1.3,1.1-2.1,2.7-2.1c1.8,0,2.8,0.8,2.9,2h-1.6c-0.1-0.6-0.6-0.9-1.4-0.9c-0.8,0-1.2,0.4-1.2,0.8c0,0.6,0.7,0.7,1.8,0.9
		c1.3,0.2,2.6,0.6,2.6,2.2c0,1.5-1.2,2.2-3,2.2C46.5,74.6,45.3,73.6,45.2,72.2z"/>
	<path class="st1" d="M51.9,72.2h1.6c0.1,0.8,0.8,1.2,1.7,1.2c0.9,0,1.3-0.4,1.3-0.9c0-0.7-0.7-0.8-1.8-1c-1.3-0.3-2.5-0.6-2.5-2.1
		c0-1.3,1.1-2.1,2.7-2.1c1.8,0,2.8,0.8,2.9,2h-1.6c-0.1-0.6-0.6-0.9-1.4-0.9c-0.8,0-1.2,0.4-1.2,0.8c0,0.6,0.7,0.7,1.8,0.9
		c1.3,0.2,2.6,0.6,2.6,2.2c0,1.5-1.2,2.2-3,2.2C53.1,74.6,52,73.6,51.9,72.2z"/>
	<path class="st1" d="M63.2,73.5L63.2,73.5c-0.5,0.6-1.1,1.1-2.2,1.1c-1.4,0-2.4-0.7-2.4-2.1c0-1.6,1.2-2,2.8-2.1
		c1.1-0.1,1.7-0.3,1.7-0.9c0-0.6-0.4-1-1.2-1c-0.9,0-1.4,0.4-1.4,1.1H59c0.1-1.2,1-2.3,3-2.3c0.8,0,1.4,0.1,1.9,0.4
		c0.7,0.4,1,1.1,1,2v3.7c0,0.6,0.1,0.9,0.3,1v0.1h-1.6C63.3,74.2,63.2,73.9,63.2,73.5z M63.2,71.9v-1c-0.3,0.2-0.8,0.4-1.4,0.5
		c-1,0.2-1.6,0.4-1.6,1.2c0,0.7,0.6,1,1.2,1C62.6,73.4,63.2,72.6,63.2,71.9z"/>
	<path class="st1" d="M65.7,76.7v-1.3h0.1c0.1,0,0.5,0.1,0.7,0.1c0.6,0,0.9-0.2,1-0.8c0-0.1,0.1-0.8-0.1-1.2l-2.4-6h1.8l1.1,3.2
		c0.3,0.9,0.6,2.2,0.6,2.2h0c0,0,0.3-1.3,0.6-2.2l1.1-3.2h1.7l-2.7,7.3c-0.6,1.5-1.2,2-2.3,2C66.7,76.7,65.8,76.7,65.7,76.7z"/>
	<path class="st1" d="M75.2,70.9c0-2.1,1.4-3.7,3.5-3.7s3.5,1.6,3.5,3.7c0,2.1-1.4,3.7-3.5,3.7S75.2,73,75.2,70.9z M80.6,70.9
		c0-1.4-0.7-2.4-1.9-2.4c-1.2,0-1.9,1-1.9,2.4c0,1.4,0.6,2.4,1.9,2.4C79.9,73.3,80.6,72.3,80.6,70.9z"/>
	<path class="st1" d="M84.8,68.4L84.8,68.4c0.5-0.8,1.2-1.2,2.2-1.2c1.5,0,2.4,0.9,2.4,2.4v4.7h-1.7v-4.4c0-0.8-0.5-1.3-1.3-1.3
		c-0.9,0-1.6,0.7-1.6,1.7v4.1h-1.7v-6.9h1.6V68.4z"/>
	<path class="st1" d="M93.1,72.2h1.6c0.1,0.8,0.8,1.2,1.7,1.2c0.9,0,1.3-0.4,1.3-0.9c0-0.7-0.7-0.8-1.8-1c-1.3-0.3-2.5-0.6-2.5-2.1
		c0-1.3,1.1-2.1,2.7-2.1c1.8,0,2.8,0.8,2.9,2h-1.6c-0.1-0.6-0.6-0.9-1.4-0.9c-0.8,0-1.2,0.4-1.2,0.8c0,0.6,0.7,0.7,1.8,0.9
		c1.3,0.2,2.6,0.6,2.6,2.2c0,1.5-1.2,2.2-3,2.2C94.4,74.6,93.2,73.6,93.1,72.2z"/>
	<path class="st1" d="M99.6,67.4h1.1v-2.2h1.6v2.2h1.4v1.1h-1.4v3.9c0,0.5,0.3,0.6,0.7,0.6c0.2,0,0.4,0,0.5-0.1h0.1v1.3
		c-0.3,0.1-0.7,0.1-1.1,0.1c-1.1,0-1.9-0.4-1.9-1.6v-4.3h-1.1V67.4z"/>
	<path class="st1" d="M106.1,68.7L106.1,68.7c0.5-0.9,1.1-1.4,2-1.4c0.2,0,0.3,0,0.4,0.1v1.5h-0.1c-0.2,0-0.3-0.1-0.5-0.1
		c-1.1,0-1.9,0.7-1.9,2.1v3.5h-1.7v-6.9h1.6V68.7z"/>
	<path class="st1" d="M113.4,73.5L113.4,73.5c-0.5,0.6-1.1,1.1-2.2,1.1c-1.4,0-2.4-0.7-2.4-2.1c0-1.6,1.2-2,2.8-2.1
		c1.1-0.1,1.7-0.3,1.7-0.9c0-0.6-0.4-1-1.2-1c-0.9,0-1.4,0.4-1.4,1.1h-1.6c0.1-1.2,1-2.3,3-2.3c0.8,0,1.4,0.1,1.9,0.4
		c0.7,0.4,1,1.1,1,2v3.7c0,0.6,0.1,0.9,0.3,1v0.1h-1.6C113.5,74.2,113.5,73.9,113.4,73.5z M113.5,71.9v-1c-0.3,0.2-0.8,0.4-1.4,0.5
		c-1,0.2-1.6,0.4-1.6,1.2c0,0.7,0.6,1,1.2,1C112.8,73.4,113.5,72.6,113.5,71.9z"/>
	<path class="st1" d="M115.6,67.4h1.1v-2.2h1.6v2.2h1.4v1.1h-1.4v3.9c0,0.5,0.3,0.6,0.7,0.6c0.2,0,0.4,0,0.5-0.1h0.1v1.3
		c-0.3,0.1-0.7,0.1-1.1,0.1c-1.1,0-1.9-0.4-1.9-1.6v-4.3h-1.1V67.4z"/>
	<path class="st1" d="M120,70.9c0-2.1,1.4-3.7,3.4-3.7c1,0,1.8,0.4,2.4,1c0.7,0.7,1,1.8,1,3.1h-5.2c0.1,1.2,0.8,2,1.9,2
		c0.8,0,1.3-0.3,1.5-0.9h1.6c-0.3,1.2-1.5,2.2-3.2,2.2C121.3,74.6,120,73,120,70.9z M121.6,70.3h3.5c-0.1-1.1-0.7-1.8-1.7-1.8
		C122.3,68.4,121.8,69.2,121.6,70.3z"/>
	<path class="st1" d="M127.6,74.7h1.6c0.1,0.6,0.6,0.9,1.6,0.9c1.1,0,1.7-0.5,1.7-1.5v-0.2c0-0.4,0-0.7,0-1h0c-0.4,0.7-1,1.1-2,1.1
		c-1.7,0-3-1.3-3-3.3c0-2.1,1.3-3.4,2.9-3.4c1,0,1.6,0.3,2.1,1.1h0v-0.9h1.6v6.5c0,1-0.3,1.7-0.9,2.2c-0.6,0.5-1.4,0.7-2.4,0.7
		C128.9,76.8,127.7,76,127.6,74.7z M132.5,70.6c0-1.2-0.6-2.1-1.8-2.1c-1.1,0-1.7,0.8-1.7,2.1s0.6,2.1,1.7,2.1
		C132,72.7,132.5,71.8,132.5,70.6z"/>
	<path class="st1" d="M135.2,64.7h1.7v1.6h-1.7V64.7z M135.3,67.4h1.7v6.9h-1.7V67.4z"/>
	<path class="st1" d="M137.8,70.9c0-2.1,1.4-3.7,3.4-3.7c1,0,1.8,0.4,2.4,1c0.7,0.7,1,1.8,1,3.1h-5.2c0.1,1.2,0.8,2,1.9,2
		c0.8,0,1.3-0.3,1.5-0.9h1.6c-0.3,1.2-1.5,2.2-3.2,2.2C139.1,74.6,137.8,73,137.8,70.9z M139.5,70.3h3.5c-0.1-1.1-0.7-1.8-1.7-1.8
		C140.2,68.4,139.6,69.2,139.5,70.3z"/>
	<path class="st1" d="M145.1,72.2h1.6c0.1,0.8,0.8,1.2,1.7,1.2c0.9,0,1.3-0.4,1.3-0.9c0-0.7-0.7-0.8-1.8-1c-1.3-0.3-2.5-0.6-2.5-2.1
		c0-1.3,1.1-2.1,2.7-2.1c1.8,0,2.8,0.8,2.9,2h-1.6c-0.1-0.6-0.6-0.9-1.4-0.9c-0.8,0-1.2,0.4-1.2,0.8c0,0.6,0.7,0.7,1.8,0.9
		c1.3,0.2,2.6,0.6,2.6,2.2c0,1.5-1.2,2.2-3,2.2C146.3,74.6,145.2,73.6,145.1,72.2z"/>
	<path class="st1" d="M154.7,67.4h1.1v-0.8c0-0.7,0.2-1.2,0.5-1.5c0.4-0.4,1-0.5,1.8-0.5c0.2,0,0.5,0,0.7,0V66
		c-1.1-0.1-1.4,0.1-1.4,0.8v0.7h1.4v1.1h-1.4v5.8h-1.7v-5.8h-1.1V67.4z"/>
	<path class="st1" d="M159.1,70.9c0-2.1,1.4-3.7,3.5-3.7s3.5,1.6,3.5,3.7c0,2.1-1.4,3.7-3.5,3.7S159.1,73,159.1,70.9z M164.5,70.9
		c0-1.4-0.7-2.4-1.9-2.4c-1.2,0-1.9,1-1.9,2.4c0,1.4,0.6,2.4,1.9,2.4C163.9,73.3,164.5,72.3,164.5,70.9z"/>
	<path class="st1" d="M168.7,68.7L168.7,68.7c0.5-0.9,1.1-1.4,2-1.4c0.2,0,0.3,0,0.4,0.1v1.5h-0.1c-0.2,0-0.3-0.1-0.5-0.1
		c-1.1,0-1.9,0.7-1.9,2.1v3.5h-1.7v-6.9h1.6V68.7z"/>
	<path class="st1" d="M176.6,68.7L176.6,68.7c0.5-0.9,1.1-1.4,2-1.4c0.2,0,0.3,0,0.4,0.1v1.5H179c-0.2,0-0.3-0.1-0.5-0.1
		c-1.1,0-1.9,0.7-1.9,2.1v3.5H175v-6.9h1.6V68.7z"/>
	<path class="st1" d="M179.4,70.9c0-2.1,1.4-3.7,3.4-3.7c1,0,1.8,0.4,2.4,1c0.7,0.7,1,1.8,1,3.1H181c0.1,1.2,0.8,2,1.9,2
		c0.8,0,1.3-0.3,1.5-0.9h1.6c-0.3,1.2-1.5,2.2-3.2,2.2C180.7,74.6,179.4,73,179.4,70.9z M181,70.3h3.5c-0.1-1.1-0.7-1.8-1.7-1.8
		C181.7,68.4,181.2,69.2,181,70.3z"/>
	<path class="st1" d="M186.8,70.9c0-2.2,1.2-3.7,3-3.7c1,0,1.7,0.5,2.1,1.2h0c0-0.4-0.1-0.9-0.1-1.4v-2.3h1.7v9.7h-1.6v-1h0
		c-0.4,0.8-1.2,1.2-2.1,1.2C187.9,74.6,186.8,73.2,186.8,70.9z M192,70.9c0-1.4-0.6-2.4-1.8-2.4c-1.1,0-1.7,1-1.7,2.4
		c0,1.4,0.6,2.3,1.7,2.3C191.3,73.2,192,72.3,192,70.9z"/>
	<path class="st1" d="M199.3,74.4v-1h0c-0.5,0.8-1.1,1.2-2.1,1.2c-1.5,0-2.4-0.9-2.4-2.4v-4.7h1.7v4.4c0,0.8,0.5,1.3,1.3,1.3
		c0.9,0,1.5-0.7,1.5-1.7v-4.1h1.6v6.9H199.3z"/>
	<path class="st1" d="M201.8,70.9c0-2.1,1.4-3.7,3.5-3.7c1.8,0,2.9,1,3.1,2.5h-1.6c-0.2-0.8-0.7-1.2-1.5-1.2c-1.2,0-1.8,1-1.8,2.4
		c0,1.4,0.6,2.4,1.8,2.4c0.9,0,1.5-0.5,1.5-1.4h1.6c-0.1,1.6-1.3,2.7-3.1,2.7C203.2,74.6,201.8,73,201.8,70.9z"/>
	<path class="st1" d="M209.3,64.7h1.7v1.6h-1.7V64.7z M209.3,67.4h1.7v6.9h-1.7V67.4z"/>
	<path class="st1" d="M213.8,68.4L213.8,68.4c0.5-0.8,1.2-1.2,2.2-1.2c1.5,0,2.4,0.9,2.4,2.4v4.7h-1.7v-4.4c0-0.8-0.5-1.3-1.3-1.3
		c-0.9,0-1.6,0.7-1.6,1.7v4.1h-1.7v-6.9h1.6V68.4z"/>
	<path class="st1" d="M219.5,74.7h1.6c0.1,0.6,0.6,0.9,1.6,0.9c1.1,0,1.7-0.5,1.7-1.5v-0.2c0-0.4,0-0.7,0-1h0c-0.4,0.7-1,1.1-2,1.1
		c-1.7,0-3-1.3-3-3.3c0-2.1,1.3-3.4,2.9-3.4c1,0,1.6,0.3,2.1,1.1h0v-0.9h1.6v6.5c0,1-0.3,1.7-0.9,2.2c-0.6,0.5-1.4,0.7-2.4,0.7
		C220.8,76.8,219.6,76,219.5,74.7z M224.4,70.6c0-1.2-0.6-2.1-1.8-2.1c-1.1,0-1.7,0.8-1.7,2.1s0.6,2.1,1.7,2.1
		C223.9,72.7,224.4,71.8,224.4,70.6z"/>
	<path class="st1" d="M37.9,84.7H39v-2.2h1.6v2.2H42v1.1h-1.4v3.9c0,0.5,0.3,0.6,0.7,0.6c0.2,0,0.4,0,0.5-0.1h0.1v1.3
		c-0.3,0.1-0.7,0.1-1.1,0.1c-1.1,0-1.9-0.4-1.9-1.6v-4.3h-1.1V84.7z"/>
	<path class="st1" d="M44.4,85.7L44.4,85.7c0.5-0.7,1.2-1.2,2.2-1.2c1.5,0,2.4,0.9,2.4,2.4v4.7h-1.7v-4.4c0-0.8-0.5-1.3-1.3-1.3
		c-0.9,0-1.6,0.7-1.6,1.7v4.1h-1.7V82h1.7v2.6C44.4,84.8,44.4,85.3,44.4,85.7z"/>
	<path class="st1" d="M49.8,88.2c0-2.1,1.4-3.7,3.4-3.7c1,0,1.8,0.4,2.4,1c0.7,0.7,1,1.8,1,3.1h-5.2c0.1,1.2,0.8,2,1.9,2
		c0.8,0,1.3-0.3,1.5-0.9h1.6c-0.3,1.2-1.5,2.2-3.2,2.2C51.2,91.9,49.8,90.2,49.8,88.2z M51.5,87.6H55c-0.1-1.1-0.7-1.8-1.7-1.8
		C52.2,85.7,51.6,86.5,51.5,87.6z"/>
	<path class="st1" d="M60.2,88.2c0-2.1,1.4-3.7,3.4-3.7c1,0,1.8,0.4,2.4,1c0.7,0.7,1,1.8,1,3.1h-5.2c0.1,1.2,0.8,2,1.9,2
		c0.8,0,1.3-0.3,1.5-0.9h1.6c-0.3,1.2-1.5,2.2-3.2,2.2C61.6,91.9,60.2,90.2,60.2,88.2z M61.9,87.6h3.5c-0.1-1.1-0.7-1.8-1.7-1.8
		C62.6,85.7,62,86.5,61.9,87.6z"/>
	<path class="st1" d="M67.6,88.2c0-2.1,1.4-3.7,3.5-3.7c1.8,0,2.9,1,3.1,2.5h-1.6c-0.2-0.8-0.7-1.2-1.5-1.2c-1.2,0-1.8,1-1.8,2.4
		c0,1.4,0.6,2.4,1.8,2.4c0.9,0,1.5-0.5,1.5-1.4h1.6c-0.1,1.6-1.3,2.7-3.1,2.7C69,91.9,67.6,90.2,67.6,88.2z"/>
	<path class="st1" d="M74.7,88.2c0-2.1,1.4-3.7,3.5-3.7s3.5,1.6,3.5,3.7c0,2.1-1.4,3.7-3.5,3.7S74.7,90.2,74.7,88.2z M80.1,88.2
		c0-1.4-0.6-2.4-1.9-2.4c-1.2,0-1.9,1-1.9,2.4c0,1.4,0.6,2.4,1.9,2.4C79.5,90.6,80.1,89.6,80.1,88.2z"/>
	<path class="st1" d="M82.7,82h1.7v9.7h-1.7V82z"/>
	<path class="st1" d="M85.3,88.2c0-2.1,1.4-3.7,3.5-3.7s3.5,1.6,3.5,3.7c0,2.1-1.4,3.7-3.5,3.7S85.3,90.2,85.3,88.2z M90.7,88.2
		c0-1.4-0.6-2.4-1.9-2.4c-1.2,0-1.9,1-1.9,2.4c0,1.4,0.6,2.4,1.9,2.4C90,90.6,90.7,89.6,90.7,88.2z"/>
	<path class="st1" d="M93.1,92h1.6c0.1,0.6,0.6,0.9,1.6,0.9c1.1,0,1.7-0.5,1.7-1.5v-0.2c0-0.4,0-0.7,0-1h0c-0.4,0.7-1,1.1-2,1.1
		c-1.7,0-3-1.3-3-3.3c0-2.1,1.3-3.4,2.9-3.4c1,0,1.6,0.3,2.1,1.1h0v-0.9h1.6v6.5c0,1-0.3,1.7-0.9,2.2c-0.6,0.5-1.4,0.7-2.4,0.7
		C94.4,94.1,93.3,93.3,93.1,92z M98,87.9c0-1.2-0.6-2.1-1.8-2.1c-1.1,0-1.7,0.8-1.7,2.1s0.6,2.1,1.7,2.1C97.5,90,98,89.1,98,87.9z"
		/>
	<path class="st1" d="M100.8,82h1.7v1.6h-1.7V82z M100.8,84.7h1.7v6.9h-1.7V84.7z"/>
	<path class="st1" d="M103.4,88.2c0-2.1,1.4-3.7,3.5-3.7c1.8,0,2.9,1,3.1,2.5h-1.6c-0.2-0.8-0.7-1.2-1.5-1.2c-1.2,0-1.8,1-1.8,2.4
		c0,1.4,0.6,2.4,1.8,2.4c0.9,0,1.5-0.5,1.5-1.4h1.6c-0.1,1.6-1.3,2.7-3.1,2.7C104.8,91.9,103.4,90.2,103.4,88.2z"/>
	<path class="st1" d="M113.5,88.2c0-2.2,1.2-3.7,3-3.7c1,0,1.7,0.5,2.1,1.2h0c0-0.4-0.1-0.9-0.1-1.4V82h1.7v9.7h-1.6v-1h0
		c-0.4,0.8-1.2,1.2-2.1,1.2C114.7,91.9,113.5,90.5,113.5,88.2z M118.7,88.2c0-1.4-0.6-2.4-1.8-2.4c-1.1,0-1.7,1-1.7,2.4
		c0,1.4,0.6,2.3,1.7,2.3C118.1,90.5,118.7,89.6,118.7,88.2z"/>
	<path class="st1" d="M125.8,90.8L125.8,90.8c-0.5,0.6-1.1,1.1-2.2,1.1c-1.4,0-2.4-0.7-2.4-2.1c0-1.6,1.2-2,2.8-2.1
		c1.1-0.1,1.7-0.3,1.7-0.9c0-0.6-0.4-1-1.2-1c-0.9,0-1.4,0.4-1.4,1.1h-1.6c0.1-1.2,1-2.3,3-2.3c0.8,0,1.4,0.1,1.9,0.4
		c0.7,0.4,1,1.1,1,2v3.7c0,0.6,0.1,0.9,0.3,1v0.1H126C125.9,91.5,125.8,91.2,125.8,90.8z M125.8,89.1v-1c-0.3,0.2-0.8,0.4-1.4,0.5
		c-1,0.2-1.6,0.4-1.6,1.2c0,0.7,0.6,1,1.2,1C125.2,90.7,125.8,89.9,125.8,89.1z"/>
	<path class="st1" d="M128.6,84.7h1.6v1.1h0c0.4-0.8,1.1-1.2,2.1-1.2c0.9,0,1.5,0.4,1.8,1.3h0c0.5-0.9,1.3-1.3,2.2-1.3
		c1.4,0,2.2,0.9,2.2,2.4v4.7H137v-4.5c0-0.8-0.5-1.3-1.1-1.3c-0.8,0-1.4,0.7-1.4,1.7v4.1h-1.7v-4.5c0-0.8-0.4-1.3-1.1-1.3
		c-0.8,0-1.4,0.7-1.4,1.7v4.1h-1.7V84.7z"/>
	<path class="st1" d="M144.1,90.8L144.1,90.8c-0.5,0.6-1.1,1.1-2.2,1.1c-1.4,0-2.4-0.7-2.4-2.1c0-1.6,1.2-2,2.8-2.1
		c1.1-0.1,1.7-0.3,1.7-0.9c0-0.6-0.4-1-1.2-1c-0.9,0-1.4,0.4-1.4,1.1h-1.6c0.1-1.2,1-2.3,3-2.3c0.8,0,1.4,0.1,1.9,0.4
		c0.7,0.4,1,1.1,1,2v3.7c0,0.6,0.1,0.9,0.3,1v0.1h-1.6C144.2,91.5,144.2,91.2,144.1,90.8z M144.2,89.1v-1c-0.3,0.2-0.8,0.4-1.4,0.5
		c-1,0.2-1.6,0.4-1.6,1.2c0,0.7,0.6,1,1.2,1C143.5,90.7,144.2,89.9,144.2,89.1z"/>
	<path class="st1" d="M146.8,92h1.6c0.1,0.6,0.6,0.9,1.6,0.9c1.1,0,1.7-0.5,1.7-1.5v-0.2c0-0.4,0-0.7,0-1h0c-0.4,0.7-1,1.1-2,1.1
		c-1.7,0-3-1.3-3-3.3c0-2.1,1.3-3.4,2.9-3.4c1,0,1.6,0.3,2.1,1.1h0v-0.9h1.6v6.5c0,1-0.3,1.7-0.9,2.2c-0.6,0.5-1.4,0.7-2.4,0.7
		C148.1,94.1,146.9,93.3,146.8,92z M151.7,87.9c0-1.2-0.6-2.1-1.8-2.1c-1.1,0-1.7,0.8-1.7,2.1s0.6,2.1,1.7,2.1
		C151.2,90,151.7,89.1,151.7,87.9z"/>
	<path class="st1" d="M154.1,88.2c0-2.1,1.4-3.7,3.4-3.7c1,0,1.8,0.4,2.4,1c0.7,0.7,1,1.8,1,3.1h-5.2c0.1,1.2,0.8,2,1.9,2
		c0.8,0,1.3-0.3,1.5-0.9h1.6c-0.3,1.2-1.5,2.2-3.2,2.2C155.5,91.9,154.1,90.2,154.1,88.2z M155.8,87.6h3.5c-0.1-1.1-0.7-1.8-1.7-1.8
		C156.5,85.7,155.9,86.5,155.8,87.6z"/>
	<path class="st1" d="M164.4,84.7h1.1v-0.8c0-0.7,0.2-1.2,0.5-1.5c0.4-0.4,1-0.5,1.8-0.5c0.2,0,0.5,0,0.7,0v1.2
		c-1.1-0.1-1.4,0.1-1.4,0.8v0.7h1.4v1.1h-1.4v5.8h-1.7v-5.8h-1.1V84.7z"/>
	<path class="st1" d="M170.9,86L170.9,86c0.5-0.9,1.1-1.4,2-1.4c0.2,0,0.3,0,0.4,0.1v1.5h-0.1c-0.2,0-0.3-0.1-0.5-0.1
		c-1.1,0-1.9,0.7-1.9,2.1v3.5h-1.7v-6.9h1.6V86z"/>
	<path class="st1" d="M173.6,88.2c0-2.1,1.4-3.7,3.5-3.7s3.5,1.6,3.5,3.7c0,2.1-1.4,3.7-3.5,3.7S173.6,90.2,173.6,88.2z M179,88.2
		c0-1.4-0.6-2.4-1.9-2.4c-1.2,0-1.9,1-1.9,2.4c0,1.4,0.6,2.4,1.9,2.4C178.4,90.6,179,89.6,179,88.2z"/>
	<path class="st1" d="M181.6,84.7h1.6v1.1h0c0.4-0.8,1.1-1.2,2.1-1.2c0.9,0,1.5,0.4,1.8,1.3h0c0.5-0.9,1.3-1.3,2.2-1.3
		c1.4,0,2.2,0.9,2.2,2.4v4.7H190v-4.5c0-0.8-0.5-1.3-1.1-1.3c-0.8,0-1.4,0.7-1.4,1.7v4.1h-1.7v-4.5c0-0.8-0.4-1.3-1.1-1.3
		c-0.8,0-1.4,0.7-1.4,1.7v4.1h-1.7V84.7z"/>
	<path class="st1" d="M38,105.5c0-2.1,1.4-3.7,3.4-3.7c1,0,1.8,0.4,2.4,1c0.7,0.7,1,1.8,1,3.1h-5.2c0.1,1.2,0.8,2,1.9,2
		c0.8,0,1.3-0.3,1.5-0.9h1.6c-0.3,1.2-1.5,2.2-3.2,2.2C39.3,109.1,38,107.5,38,105.5z M39.6,104.8h3.5c-0.1-1.1-0.7-1.8-1.7-1.8
		C40.3,103,39.8,103.7,39.6,104.8z"/>
	<path class="st1" d="M47.3,103L47.3,103c0.5-0.8,1.2-1.2,2.2-1.2c1.5,0,2.4,0.9,2.4,2.4v4.7h-1.7v-4.4c0-0.8-0.5-1.3-1.3-1.3
		c-0.9,0-1.6,0.7-1.6,1.7v4.1h-1.7V102h1.6V103z"/>
	<path class="st1" d="M52.8,105.5c0-2.1,1.4-3.7,3.4-3.7c1,0,1.8,0.4,2.4,1c0.7,0.7,1,1.8,1,3.1h-5.2c0.1,1.2,0.8,2,1.9,2
		c0.8,0,1.3-0.3,1.5-0.9h1.6c-0.3,1.2-1.5,2.2-3.2,2.2C54.1,109.1,52.8,107.5,52.8,105.5z M54.4,104.8h3.5c-0.1-1.1-0.7-1.8-1.7-1.8
		C55.1,103,54.6,103.7,54.4,104.8z"/>
	<path class="st1" d="M62.1,103.2L62.1,103.2c0.5-0.9,1.1-1.4,2-1.4c0.2,0,0.3,0,0.4,0.1v1.5h-0.1c-0.2,0-0.3-0.1-0.5-0.1
		c-1.1,0-1.9,0.7-1.9,2.1v3.5h-1.7V102h1.6V103.2z"/>
	<path class="st1" d="M65.1,109.3h1.6c0.1,0.6,0.6,0.9,1.6,0.9c1.1,0,1.7-0.5,1.7-1.5v-0.2c0-0.4,0-0.7,0-1h0c-0.4,0.7-1,1.1-2,1.1
		c-1.7,0-3-1.3-3-3.3c0-2.1,1.3-3.4,2.9-3.4c1,0,1.6,0.3,2.1,1.1h0V102h1.6v6.5c0,1-0.3,1.7-0.9,2.2c-0.6,0.5-1.4,0.7-2.4,0.7
		C66.4,111.3,65.3,110.6,65.1,109.3z M70,105.2c0-1.2-0.6-2.1-1.8-2.1c-1.1,0-1.7,0.8-1.7,2.1s0.6,2.1,1.7,2.1
		C69.5,107.3,70,106.4,70,105.2z"/>
	<path class="st1" d="M72.8,111.2v-1.3h0.1c0.1,0,0.5,0.1,0.7,0.1c0.6,0,0.9-0.2,1-0.8c0-0.1,0.1-0.8-0.1-1.2l-2.4-6h1.8l1.1,3.2
		c0.3,0.9,0.6,2.2,0.6,2.2h0c0,0,0.3-1.3,0.6-2.2l1.1-3.2H79l-2.7,7.3c-0.6,1.5-1.2,2-2.3,2C73.8,111.3,72.9,111.2,72.8,111.2z"/>
	<path class="st1" d="M82.1,102h1.1v-2.2h1.6v2.2h1.4v1.1h-1.4v3.9c0,0.5,0.3,0.6,0.7,0.6c0.2,0,0.4,0,0.5-0.1h0.1v1.3
		c-0.3,0.1-0.7,0.1-1.1,0.1c-1.1,0-1.9-0.4-1.9-1.6v-4.3h-1.1V102z"/>
	<path class="st1" d="M88.6,103.2L88.6,103.2c0.5-0.9,1.1-1.4,2-1.4c0.2,0,0.3,0,0.4,0.1v1.5H91c-0.2,0-0.3-0.1-0.5-0.1
		c-1.1,0-1.9,0.7-1.9,2.1v3.5H87V102h1.6V103.2z"/>
	<path class="st1" d="M96,108L96,108c-0.5,0.6-1.1,1.1-2.2,1.1c-1.4,0-2.4-0.7-2.4-2.1c0-1.6,1.2-2,2.8-2.1c1.1-0.1,1.7-0.3,1.7-0.9
		c0-0.6-0.4-1-1.2-1c-0.9,0-1.4,0.4-1.4,1.1h-1.6c0.1-1.2,1-2.3,3-2.3c0.8,0,1.4,0.1,1.9,0.4c0.7,0.4,1,1.1,1,2v3.7
		c0,0.6,0.1,0.9,0.3,1v0.1h-1.6C96.1,108.8,96,108.5,96,108z M96,106.4v-1c-0.3,0.2-0.8,0.4-1.4,0.5c-1,0.2-1.6,0.4-1.6,1.2
		c0,0.7,0.6,1,1.2,1C95.4,108,96,107.2,96,106.4z"/>
	<path class="st1" d="M100.4,103L100.4,103c0.5-0.8,1.2-1.2,2.2-1.2c1.5,0,2.4,0.9,2.4,2.4v4.7h-1.7v-4.4c0-0.8-0.5-1.3-1.3-1.3
		c-0.9,0-1.6,0.7-1.6,1.7v4.1h-1.7V102h1.6V103z"/>
	<path class="st1" d="M105.8,106.8h1.6c0.1,0.8,0.8,1.2,1.7,1.2c0.9,0,1.3-0.4,1.3-0.9c0-0.7-0.7-0.8-1.8-1
		c-1.3-0.3-2.5-0.6-2.5-2.1c0-1.3,1.1-2.1,2.7-2.1c1.8,0,2.8,0.8,2.9,2h-1.6c-0.1-0.6-0.6-0.9-1.4-0.9c-0.8,0-1.2,0.4-1.2,0.8
		c0,0.6,0.7,0.7,1.8,0.9c1.3,0.2,2.6,0.6,2.6,2.2c0,1.5-1.2,2.2-3,2.2C107,109.1,105.9,108.2,105.8,106.8z"/>
	<path class="st1" d="M112.3,102h1.1v-0.8c0-0.7,0.2-1.2,0.5-1.5c0.4-0.4,1-0.5,1.8-0.5c0.2,0,0.5,0,0.7,0v1.2
		c-1.1-0.1-1.4,0.1-1.4,0.8v0.7h1.4v1.1H115v5.8h-1.7v-5.8h-1.1V102z"/>
	<path class="st1" d="M116.7,105.5c0-2.1,1.4-3.7,3.4-3.7c1,0,1.8,0.4,2.4,1c0.7,0.7,1,1.8,1,3.1h-5.2c0.1,1.2,0.8,2,1.9,2
		c0.8,0,1.3-0.3,1.5-0.9h1.6c-0.3,1.2-1.5,2.2-3.2,2.2C118,109.1,116.7,107.5,116.7,105.5z M118.3,104.8h3.5
		c-0.1-1.1-0.7-1.8-1.7-1.8C119,103,118.5,103.7,118.3,104.8z"/>
	<path class="st1" d="M126,103.2L126,103.2c0.5-0.9,1.1-1.4,2-1.4c0.2,0,0.3,0,0.4,0.1v1.5h-0.1c-0.2,0-0.3-0.1-0.5-0.1
		c-1.1,0-1.9,0.7-1.9,2.1v3.5h-1.7V102h1.6V103.2z"/>
	<path class="st1" d="M132.3,102h1.6v1h0c0.5-0.8,1.2-1.2,2.2-1.2c1.8,0,3,1.5,3,3.7c0,2.2-1.2,3.7-3,3.7c-0.9,0-1.7-0.4-2.1-1.1h0
		c0,0.3,0.1,0.7,0.1,1.4v1.9h-1.7V102z M137.4,105.5c0-1.4-0.6-2.4-1.7-2.4c-1.2,0-1.8,1.1-1.8,2.4c0,1.3,0.6,2.3,1.8,2.3
		C136.8,107.8,137.4,106.9,137.4,105.5z"/>
	<path class="st1" d="M141.7,103L141.7,103c0.5-0.7,1.2-1.2,2.2-1.2c1.5,0,2.4,0.9,2.4,2.4v4.7h-1.7v-4.4c0-0.8-0.5-1.3-1.3-1.3
		c-0.9,0-1.6,0.7-1.6,1.7v4.1h-1.7v-9.7h1.7v2.6C141.7,102,141.7,102.6,141.7,103z"/>
	<path class="st1" d="M147.1,105.5c0-2.1,1.4-3.7,3.4-3.7c1,0,1.8,0.4,2.4,1c0.7,0.7,1,1.8,1,3.1h-5.2c0.1,1.2,0.8,2,1.9,2
		c0.8,0,1.3-0.3,1.5-0.9h1.6c-0.3,1.2-1.5,2.2-3.2,2.2C148.5,109.1,147.1,107.5,147.1,105.5z M148.8,104.8h3.5
		c-0.1-1.1-0.7-1.8-1.7-1.8C149.5,103,148.9,103.7,148.8,104.8z"/>
	<path class="st1" d="M156.5,103L156.5,103c0.5-0.8,1.2-1.2,2.2-1.2c1.5,0,2.4,0.9,2.4,2.4v4.7h-1.7v-4.4c0-0.8-0.5-1.3-1.3-1.3
		c-0.9,0-1.6,0.7-1.6,1.7v4.1h-1.7V102h1.6V103z"/>
	<path class="st1" d="M161.9,105.5c0-2.1,1.4-3.7,3.5-3.7s3.5,1.6,3.5,3.7c0,2.1-1.4,3.7-3.5,3.7S161.9,107.5,161.9,105.5z
		 M167.3,105.5c0-1.4-0.6-2.4-1.9-2.4c-1.2,0-1.9,1-1.9,2.4c0,1.4,0.6,2.4,1.9,2.4C166.7,107.9,167.3,106.9,167.3,105.5z"/>
	<path class="st1" d="M169.9,102h1.6v1.1h0c0.4-0.8,1.1-1.2,2.1-1.2c0.9,0,1.5,0.4,1.8,1.3h0c0.5-0.9,1.3-1.3,2.2-1.3
		c1.4,0,2.2,0.9,2.2,2.4v4.7h-1.7v-4.5c0-0.8-0.5-1.3-1.1-1.3c-0.8,0-1.4,0.7-1.4,1.7v4.1h-1.7v-4.5c0-0.8-0.4-1.3-1.1-1.3
		c-0.8,0-1.4,0.7-1.4,1.7v4.1h-1.7V102z"/>
	<path class="st1" d="M180.8,105.5c0-2.1,1.4-3.7,3.4-3.7c1,0,1.8,0.4,2.4,1c0.7,0.7,1,1.8,1,3.1h-5.2c0.1,1.2,0.8,2,1.9,2
		c0.8,0,1.3-0.3,1.5-0.9h1.6c-0.3,1.2-1.5,2.2-3.2,2.2C182.1,109.1,180.8,107.5,180.8,105.5z M182.5,104.8h3.5
		c-0.1-1.1-0.7-1.8-1.7-1.8C183.2,103,182.6,103.7,182.5,104.8z"/>
	<path class="st1" d="M190.1,103L190.1,103c0.5-0.8,1.2-1.2,2.2-1.2c1.5,0,2.4,0.9,2.4,2.4v4.7h-1.7v-4.4c0-0.8-0.5-1.3-1.3-1.3
		c-0.9,0-1.6,0.7-1.6,1.7v4.1h-1.7V102h1.6V103z"/>
	<path class="st1" d="M200.2,108L200.2,108c-0.5,0.6-1.1,1.1-2.2,1.1c-1.4,0-2.4-0.7-2.4-2.1c0-1.6,1.2-2,2.8-2.1
		c1.1-0.1,1.7-0.3,1.7-0.9c0-0.6-0.4-1-1.2-1c-0.9,0-1.4,0.4-1.4,1.1h-1.6c0.1-1.2,1-2.3,3-2.3c0.8,0,1.4,0.1,1.9,0.4
		c0.7,0.4,1,1.1,1,2v3.7c0,0.6,0.1,0.9,0.3,1v0.1h-1.6C200.3,108.8,200.2,108.5,200.2,108z M200.2,106.4v-1
		c-0.3,0.2-0.8,0.4-1.4,0.5c-1,0.2-1.6,0.4-1.6,1.2c0,0.7,0.6,1,1.2,1C199.6,108,200.2,107.2,200.2,106.4z"/>
</g>
<g>
	<path class="st1" d="M293.1,30.2h7.1v1.5h-5.3v2.4h4.7v1.4h-4.7v2.7h5.4v1.6h-7.2V30.2z"/>
	<path class="st1" d="M300.9,36.4c0-2.2,1.2-3.7,3-3.7c1,0,1.7,0.5,2.1,1.2h0c0-0.4-0.1-0.9-0.1-1.4v-2.3h1.7v9.7h-1.6v-1h0
		c-0.4,0.8-1.2,1.2-2.1,1.2C302.1,40.1,300.9,38.6,300.9,36.4z M306.1,36.4c0-1.4-0.6-2.4-1.8-2.4c-1.1,0-1.7,1-1.7,2.4
		c0,1.4,0.6,2.3,1.7,2.3C305.5,38.7,306.1,37.7,306.1,36.4z"/>
	<path class="st1" d="M308.9,30.2h1.7v1.6h-1.7V30.2z M308.9,32.9h1.7v6.9h-1.7V32.9z"/>
	<path class="st1" d="M311.2,32.9h1.1v-2.2h1.6v2.2h1.4V34h-1.4v3.9c0,0.5,0.3,0.6,0.7,0.6c0.2,0,0.4,0,0.5-0.1h0.1v1.3
		c-0.3,0.1-0.7,0.1-1.1,0.1c-1.1,0-1.9-0.4-1.9-1.6V34h-1.1V32.9z"/>
	<path class="st1" d="M315.6,36.4c0-2.1,1.4-3.7,3.4-3.7c1,0,1.8,0.4,2.4,1c0.7,0.7,1,1.8,1,3.1h-5.2c0.1,1.2,0.8,2,1.9,2
		c0.8,0,1.3-0.3,1.5-0.9h1.6c-0.3,1.2-1.5,2.2-3.2,2.2C316.9,40,315.6,38.4,315.6,36.4z M317.3,35.7h3.5c-0.1-1.1-0.7-1.8-1.7-1.8
		C318,33.9,317.4,34.6,317.3,35.7z"/>
	<path class="st1" d="M323,36.4c0-2.2,1.2-3.7,3-3.7c1,0,1.7,0.5,2.1,1.2h0c0-0.4-0.1-0.9-0.1-1.4v-2.3h1.7v9.7h-1.6v-1h0
		c-0.4,0.8-1.2,1.2-2.1,1.2C324.2,40.1,323,38.6,323,36.4z M328.2,36.4c0-1.4-0.6-2.4-1.8-2.4c-1.1,0-1.7,1-1.7,2.4
		c0,1.4,0.6,2.3,1.7,2.3C327.6,38.7,328.2,37.7,328.2,36.4z"/>
	<path class="st1" d="M338.3,38.9L338.3,38.9c-0.5,0.6-1.1,1.1-2.2,1.1c-1.4,0-2.4-0.7-2.4-2.1c0-1.6,1.2-2,2.8-2.1
		c1.1-0.1,1.7-0.3,1.7-0.9c0-0.6-0.4-1-1.2-1c-0.9,0-1.4,0.4-1.4,1.1h-1.6c0.1-1.2,1-2.3,3-2.3c0.8,0,1.4,0.1,1.9,0.4
		c0.7,0.4,1,1.1,1,2v3.7c0,0.6,0.1,0.9,0.3,1v0.1h-1.6C338.4,39.7,338.3,39.4,338.3,38.9z M338.3,37.3v-1c-0.3,0.2-0.8,0.4-1.4,0.5
		c-1,0.2-1.6,0.4-1.6,1.2c0,0.7,0.6,1,1.2,1C337.7,38.9,338.3,38.1,338.3,37.3z"/>
	<path class="st1" d="M340.5,32.9h1.1v-2.2h1.6v2.2h1.4V34h-1.4v3.9c0,0.5,0.3,0.6,0.7,0.6c0.2,0,0.4,0,0.5-0.1h0.1v1.3
		c-0.3,0.1-0.7,0.1-1.1,0.1c-1.1,0-1.9-0.4-1.9-1.6V34h-1.1V32.9z"/>
	<path class="st1" d="M348.1,32.9h1.1v-2.2h1.6v2.2h1.4V34h-1.4v3.9c0,0.5,0.3,0.6,0.7,0.6c0.2,0,0.4,0,0.5-0.1h0.1v1.3
		c-0.3,0.1-0.7,0.1-1.1,0.1c-1.1,0-1.9-0.4-1.9-1.6V34h-1.1V32.9z"/>
	<path class="st1" d="M354.6,33.9L354.6,33.9c0.5-0.7,1.2-1.2,2.2-1.2c1.5,0,2.4,0.9,2.4,2.4v4.7h-1.7v-4.4c0-0.8-0.5-1.3-1.3-1.3
		c-0.9,0-1.6,0.7-1.6,1.7v4.1H353v-9.7h1.7v2.6C354.6,33,354.6,33.5,354.6,33.9z"/>
	<path class="st1" d="M360,36.4c0-2.1,1.4-3.7,3.4-3.7c1,0,1.8,0.4,2.4,1c0.7,0.7,1,1.8,1,3.1h-5.2c0.1,1.2,0.8,2,1.9,2
		c0.8,0,1.3-0.3,1.5-0.9h1.6c-0.3,1.2-1.5,2.2-3.2,2.2C361.4,40,360,38.4,360,36.4z M361.7,35.7h3.5c-0.1-1.1-0.7-1.8-1.7-1.8
		C362.4,33.9,361.8,34.6,361.7,35.7z"/>
	<path class="st1" d="M293.1,47.4h2.4l1.6,4.6c0.4,1.1,0.8,3.2,0.8,3.2h0c0,0,0.5-2.1,0.8-3.2l1.6-4.6h2.4v9.7h-1.7v-5
		c0-1.1,0.1-3,0.1-3h0c0,0-0.4,1.8-0.7,2.7l-1.8,5.3h-1.5l-1.8-5.3c-0.3-1-0.7-2.7-0.7-2.7h0c0,0,0.1,2,0.1,3v5h-1.6V47.4z"/>
	<path class="st1" d="M308.5,56.2L308.5,56.2c-0.5,0.6-1.1,1.1-2.2,1.1c-1.4,0-2.4-0.7-2.4-2.1c0-1.6,1.2-2,2.8-2.1
		c1.1-0.1,1.7-0.3,1.7-0.9c0-0.6-0.4-1-1.2-1c-0.9,0-1.4,0.4-1.4,1.1h-1.6c0.1-1.2,1-2.3,3-2.3c0.8,0,1.4,0.1,1.9,0.4
		c0.7,0.4,1,1.1,1,2V56c0,0.6,0.1,0.9,0.3,1v0.1h-1.6C308.6,56.9,308.5,56.7,308.5,56.2z M308.5,54.6v-1c-0.3,0.2-0.8,0.4-1.4,0.5
		c-1,0.2-1.6,0.4-1.6,1.2c0,0.7,0.6,1,1.2,1C307.9,56.1,308.5,55.4,308.5,54.6z"/>
	<path class="st1" d="M310.8,55h1.6c0.1,0.8,0.8,1.2,1.7,1.2c0.9,0,1.3-0.4,1.3-0.9c0-0.7-0.7-0.8-1.8-1c-1.3-0.3-2.5-0.6-2.5-2.1
		c0-1.3,1.1-2.1,2.7-2.1c1.8,0,2.8,0.8,2.9,2h-1.6c-0.1-0.6-0.6-0.9-1.4-0.9c-0.8,0-1.2,0.4-1.2,0.8c0,0.6,0.7,0.7,1.8,0.9
		c1.3,0.2,2.6,0.6,2.6,2.2c0,1.5-1.2,2.2-3,2.2C312.1,57.3,310.9,56.4,310.8,55z"/>
	<path class="st1" d="M317.5,55h1.6c0.1,0.8,0.8,1.2,1.7,1.2c0.9,0,1.3-0.4,1.3-0.9c0-0.7-0.7-0.8-1.8-1c-1.3-0.3-2.5-0.6-2.5-2.1
		c0-1.3,1.1-2.1,2.7-2.1c1.8,0,2.8,0.8,2.9,2h-1.6c-0.1-0.6-0.6-0.9-1.4-0.9c-0.8,0-1.2,0.4-1.2,0.8c0,0.6,0.7,0.7,1.8,0.9
		c1.3,0.2,2.6,0.6,2.6,2.2c0,1.5-1.2,2.2-3,2.2C318.8,57.3,317.6,56.4,317.5,55z"/>
	<path class="st1" d="M328.8,56.2L328.8,56.2c-0.5,0.6-1.1,1.1-2.2,1.1c-1.4,0-2.4-0.7-2.4-2.1c0-1.6,1.2-2,2.8-2.1
		c1.1-0.1,1.7-0.3,1.7-0.9c0-0.6-0.4-1-1.2-1c-0.9,0-1.4,0.4-1.4,1.1h-1.6c0.1-1.2,1-2.3,3-2.3c0.8,0,1.4,0.1,1.9,0.4
		c0.7,0.4,1,1.1,1,2V56c0,0.6,0.1,0.9,0.3,1v0.1h-1.6C328.9,56.9,328.9,56.7,328.8,56.2z M328.9,54.6v-1c-0.3,0.2-0.8,0.4-1.4,0.5
		c-1,0.2-1.6,0.4-1.6,1.2c0,0.7,0.6,1,1.2,1C328.2,56.1,328.9,55.4,328.9,54.6z"/>
	<path class="st1" d="M331.3,53.6c0-2.1,1.4-3.7,3.5-3.7c1.8,0,2.9,1,3.1,2.5h-1.6c-0.2-0.8-0.7-1.2-1.5-1.2c-1.2,0-1.8,1-1.8,2.4
		c0,1.4,0.6,2.4,1.8,2.4c0.9,0,1.5-0.5,1.5-1.4h1.6c-0.1,1.6-1.3,2.7-3.1,2.7C332.7,57.3,331.3,55.7,331.3,53.6z"/>
	<path class="st1" d="M340.4,51.2L340.4,51.2c0.5-0.7,1.2-1.2,2.2-1.2c1.5,0,2.4,0.9,2.4,2.4v4.7h-1.7v-4.4c0-0.8-0.5-1.3-1.3-1.3
		c-0.9,0-1.6,0.7-1.6,1.7v4.1h-1.7v-9.7h1.7V50C340.5,50.2,340.4,50.8,340.4,51.2z"/>
	<path class="st1" d="M350.7,57.1v-1h0c-0.5,0.8-1.1,1.2-2.1,1.2c-1.5,0-2.4-0.9-2.4-2.4v-4.7h1.7v4.4c0,0.8,0.5,1.3,1.3,1.3
		c0.9,0,1.5-0.7,1.5-1.7v-4.1h1.6v6.9H350.7z"/>
	<path class="st1" d="M353.1,55h1.6c0.1,0.8,0.8,1.2,1.7,1.2c0.9,0,1.3-0.4,1.3-0.9c0-0.7-0.7-0.8-1.8-1c-1.3-0.3-2.5-0.6-2.5-2.1
		c0-1.3,1.1-2.1,2.7-2.1c1.8,0,2.8,0.8,2.9,2h-1.6c-0.1-0.6-0.6-0.9-1.4-0.9c-0.8,0-1.2,0.4-1.2,0.8c0,0.6,0.7,0.7,1.8,0.9
		c1.3,0.2,2.6,0.6,2.6,2.2c0,1.5-1.2,2.2-3,2.2C354.4,57.3,353.2,56.4,353.1,55z"/>
	<path class="st1" d="M359.8,53.6c0-2.1,1.4-3.7,3.4-3.7c1,0,1.8,0.4,2.4,1c0.7,0.7,1,1.8,1,3.1h-5.2c0.1,1.2,0.8,2,1.9,2
		c0.8,0,1.3-0.3,1.5-0.9h1.6c-0.3,1.2-1.5,2.2-3.2,2.2C361.1,57.3,359.8,55.7,359.8,53.6z M361.5,53h3.5c-0.1-1.1-0.7-1.8-1.7-1.8
		C362.2,51.2,361.6,51.9,361.5,53z"/>
	<path class="st1" d="M366.8,50.2h1.1V48h1.6v2.2h1.4v1.1h-1.4v3.9c0,0.5,0.3,0.6,0.7,0.6c0.2,0,0.4,0,0.5-0.1h0.1v1.3
		c-0.3,0.1-0.7,0.1-1.1,0.1c-1.1,0-1.9-0.4-1.9-1.6v-4.3h-1.1V50.2z"/>
	<path class="st1" d="M371.4,50.2h1.1V48h1.6v2.2h1.4v1.1h-1.4v3.9c0,0.5,0.3,0.6,0.7,0.6c0.2,0,0.4,0,0.5-0.1h0.1v1.3
		c-0.3,0.1-0.7,0.1-1.1,0.1c-1.1,0-1.9-0.4-1.9-1.6v-4.3h-1.1V50.2z"/>
	<path class="st1" d="M375.9,55h1.6c0.1,0.8,0.8,1.2,1.7,1.2c0.9,0,1.3-0.4,1.3-0.9c0-0.7-0.7-0.8-1.8-1c-1.3-0.3-2.5-0.6-2.5-2.1
		c0-1.3,1.1-2.1,2.7-2.1c1.8,0,2.8,0.8,2.9,2h-1.6c-0.1-0.6-0.6-0.9-1.4-0.9c-0.8,0-1.2,0.4-1.2,0.8c0,0.6,0.7,0.7,1.8,0.9
		c1.3,0.2,2.6,0.6,2.6,2.2c0,1.5-1.2,2.2-3,2.2C377.1,57.3,376,56.4,375.9,55z"/>
	<path class="st1" d="M386.2,47.4h1.8v9.7h-1.8V47.4z"/>
	<path class="st1" d="M391,51.2L391,51.2c0.5-0.8,1.2-1.2,2.2-1.2c1.5,0,2.4,0.9,2.4,2.4v4.7h-1.7v-4.4c0-0.8-0.5-1.3-1.3-1.3
		c-0.9,0-1.6,0.7-1.6,1.7v4.1h-1.7v-6.9h1.6V51.2z"/>
	<path class="st1" d="M396.4,55h1.6c0.1,0.8,0.8,1.2,1.7,1.2c0.9,0,1.3-0.4,1.3-0.9c0-0.7-0.7-0.8-1.8-1c-1.3-0.3-2.5-0.6-2.5-2.1
		c0-1.3,1.1-2.1,2.7-2.1c1.8,0,2.8,0.8,2.9,2h-1.6c-0.1-0.6-0.6-0.9-1.4-0.9c-0.8,0-1.2,0.4-1.2,0.8c0,0.6,0.7,0.7,1.8,0.9
		c1.3,0.2,2.6,0.6,2.6,2.2c0,1.5-1.2,2.2-3,2.2C397.6,57.3,396.5,56.4,396.4,55z"/>
	<path class="st1" d="M402.9,50.2h1.1V48h1.6v2.2h1.4v1.1h-1.4v3.9c0,0.5,0.3,0.6,0.7,0.6c0.2,0,0.4,0,0.5-0.1h0.1v1.3
		c-0.3,0.1-0.7,0.1-1.1,0.1c-1.1,0-1.9-0.4-1.9-1.6v-4.3h-1.1V50.2z"/>
	<path class="st1" d="M407.7,47.4h1.7V49h-1.7V47.4z M407.7,50.2h1.7v6.9h-1.7V50.2z"/>
	<path class="st1" d="M410,50.2h1.1V48h1.6v2.2h1.4v1.1h-1.4v3.9c0,0.5,0.3,0.6,0.7,0.6c0.2,0,0.4,0,0.5-0.1h0.1v1.3
		c-0.3,0.1-0.7,0.1-1.1,0.1c-1.1,0-1.9-0.4-1.9-1.6v-4.3H410V50.2z"/>
	<path class="st1" d="M419.3,57.1v-1h0c-0.5,0.8-1.1,1.2-2.1,1.2c-1.5,0-2.4-0.9-2.4-2.4v-4.7h1.7v4.4c0,0.8,0.5,1.3,1.3,1.3
		c0.9,0,1.5-0.7,1.5-1.7v-4.1h1.6v6.9H419.3z"/>
	<path class="st1" d="M421.6,50.2h1.1V48h1.6v2.2h1.4v1.1h-1.4v3.9c0,0.5,0.3,0.6,0.7,0.6c0.2,0,0.4,0,0.5-0.1h0.1v1.3
		c-0.3,0.1-0.7,0.1-1.1,0.1c-1.1,0-1.9-0.4-1.9-1.6v-4.3h-1.1V50.2z"/>
	<path class="st1" d="M425.9,53.6c0-2.1,1.4-3.7,3.4-3.7c1,0,1.8,0.4,2.4,1c0.7,0.7,1,1.8,1,3.1h-5.2c0.1,1.2,0.8,2,1.9,2
		c0.8,0,1.3-0.3,1.5-0.9h1.6c-0.3,1.2-1.5,2.2-3.2,2.2C427.3,57.3,425.9,55.7,425.9,53.6z M427.6,53h3.5c-0.1-1.1-0.7-1.8-1.7-1.8
		C428.3,51.2,427.8,51.9,427.6,53z"/>
	<path class="st1" d="M436.3,53.6c0-2.1,1.4-3.7,3.5-3.7s3.5,1.6,3.5,3.7c0,2.1-1.4,3.7-3.5,3.7S436.3,55.7,436.3,53.6z M441.7,53.6
		c0-1.4-0.6-2.4-1.9-2.4c-1.2,0-1.9,1-1.9,2.4c0,1.4,0.6,2.4,1.9,2.4C441.1,56.1,441.7,55,441.7,53.6z"/>
	<path class="st1" d="M443.6,50.2h1.1v-0.8c0-0.7,0.2-1.2,0.5-1.5c0.4-0.4,1-0.5,1.8-0.5c0.2,0,0.5,0,0.7,0v1.2
		c-1.1-0.1-1.4,0.1-1.4,0.8v0.7h1.4v1.1h-1.4v5.8h-1.7v-5.8h-1.1V50.2z"/>
	<path class="st1" d="M451.3,47.4h7.9V49h-3v8.1h-1.8V49h-3V47.4z"/>
	<path class="st1" d="M458.4,53.6c0-2.1,1.4-3.7,3.4-3.7c1,0,1.8,0.4,2.4,1c0.7,0.7,1,1.8,1,3.1H460c0.1,1.2,0.8,2,1.9,2
		c0.8,0,1.3-0.3,1.5-0.9h1.6c-0.3,1.2-1.5,2.2-3.2,2.2C459.7,57.3,458.4,55.7,458.4,53.6z M460.1,53h3.5c-0.1-1.1-0.7-1.8-1.7-1.8
		C460.8,51.2,460.2,51.9,460.1,53z"/>
	<path class="st1" d="M465.8,53.6c0-2.1,1.4-3.7,3.5-3.7c1.8,0,2.9,1,3.1,2.5h-1.6c-0.2-0.8-0.7-1.2-1.5-1.2c-1.2,0-1.8,1-1.8,2.4
		c0,1.4,0.6,2.4,1.8,2.4c0.9,0,1.5-0.5,1.5-1.4h1.6c-0.1,1.6-1.3,2.7-3.1,2.7C467.1,57.3,465.8,55.7,465.8,53.6z"/>
	<path class="st1" d="M474.9,51.2L474.9,51.2c0.5-0.7,1.2-1.2,2.2-1.2c1.5,0,2.4,0.9,2.4,2.4v4.7h-1.7v-4.4c0-0.8-0.5-1.3-1.3-1.3
		c-0.9,0-1.6,0.7-1.6,1.7v4.1h-1.7v-9.7h1.7V50C474.9,50.2,474.9,50.8,474.9,51.2z"/>
	<path class="st1" d="M482.3,51.2L482.3,51.2c0.5-0.8,1.2-1.2,2.2-1.2c1.5,0,2.4,0.9,2.4,2.4v4.7h-1.7v-4.4c0-0.8-0.5-1.3-1.3-1.3
		c-0.9,0-1.6,0.7-1.6,1.7v4.1h-1.7v-6.9h1.6V51.2z"/>
	<path class="st1" d="M487.8,53.6c0-2.1,1.4-3.7,3.5-3.7s3.5,1.6,3.5,3.7c0,2.1-1.4,3.7-3.5,3.7S487.8,55.7,487.8,53.6z M493.2,53.6
		c0-1.4-0.7-2.4-1.9-2.4c-1.2,0-1.9,1-1.9,2.4c0,1.4,0.6,2.4,1.9,2.4C492.5,56.1,493.2,55,493.2,53.6z"/>
	<path class="st1" d="M495.8,47.4h1.7v9.7h-1.7V47.4z"/>
	<path class="st1" d="M498.4,53.6c0-2.1,1.4-3.7,3.5-3.7s3.5,1.6,3.5,3.7c0,2.1-1.4,3.7-3.5,3.7S498.4,55.7,498.4,53.6z M503.8,53.6
		c0-1.4-0.7-2.4-1.9-2.4c-1.2,0-1.9,1-1.9,2.4c0,1.4,0.6,2.4,1.9,2.4C503.1,56.1,503.8,55,503.8,53.6z"/>
	<path class="st1" d="M506.2,57.5h1.6c0.1,0.6,0.6,0.9,1.6,0.9c1.1,0,1.7-0.5,1.7-1.5v-0.2c0-0.4,0-0.7,0-1h0c-0.4,0.7-1,1.1-2,1.1
		c-1.7,0-3-1.3-3-3.3c0-2.1,1.3-3.4,2.9-3.4c1,0,1.6,0.3,2.1,1.1h0v-0.9h1.6v6.5c0,1-0.3,1.7-0.9,2.2c-0.6,0.5-1.4,0.7-2.4,0.7
		C507.5,59.5,506.4,58.8,506.2,57.5z M511.1,53.3c0-1.2-0.6-2.1-1.8-2.1c-1.1,0-1.7,0.8-1.7,2.1s0.6,2.1,1.7,2.1
		C510.6,55.5,511.1,54.5,511.1,53.3z"/>
	<path class="st1" d="M513.8,59.4v-1.3h0.1c0.1,0,0.5,0.1,0.7,0.1c0.6,0,0.9-0.2,1-0.8c0-0.1,0.1-0.8-0.1-1.2l-2.4-6h1.8l1.1,3.2
		c0.3,0.9,0.6,2.2,0.6,2.2h0c0,0,0.3-1.3,0.6-2.2l1.1-3.2h1.7l-2.7,7.3c-0.6,1.5-1.2,2-2.3,2C514.8,59.5,514,59.4,513.8,59.4z"/>
	<path class="st1" d="M293.1,64.7h2.4l1.6,4.6c0.4,1.1,0.8,3.2,0.8,3.2h0c0,0,0.5-2.1,0.8-3.2l1.6-4.6h2.4v9.7h-1.7v-5
		c0-1.1,0.1-3,0.1-3h0c0,0-0.4,1.8-0.7,2.7l-1.8,5.3h-1.5l-1.8-5.3c-0.3-1-0.7-2.7-0.7-2.7h0c0,0,0.1,2,0.1,3v5h-1.6V64.7z"/>
	<path class="st1" d="M308.5,73.5L308.5,73.5c-0.5,0.6-1.1,1.1-2.2,1.1c-1.4,0-2.4-0.7-2.4-2.1c0-1.6,1.2-2,2.8-2.1
		c1.1-0.1,1.7-0.3,1.7-0.9c0-0.6-0.4-1-1.2-1c-0.9,0-1.4,0.4-1.4,1.1h-1.6c0.1-1.2,1-2.3,3-2.3c0.8,0,1.4,0.1,1.9,0.4
		c0.7,0.4,1,1.1,1,2v3.7c0,0.6,0.1,0.9,0.3,1v0.1h-1.6C308.6,74.2,308.5,73.9,308.5,73.5z M308.5,71.9v-1c-0.3,0.2-0.8,0.4-1.4,0.5
		c-1,0.2-1.6,0.4-1.6,1.2c0,0.7,0.6,1,1.2,1C307.9,73.4,308.5,72.6,308.5,71.9z"/>
	<path class="st1" d="M311,76.7v-1.3h0.1c0.1,0,0.5,0.1,0.7,0.1c0.6,0,0.9-0.2,1-0.8c0-0.1,0.1-0.8-0.1-1.2l-2.4-6h1.8l1.1,3.2
		c0.3,0.9,0.6,2.2,0.6,2.2h0c0,0,0.3-1.3,0.6-2.2l1.1-3.2h1.7l-2.7,7.3c-0.6,1.5-1.2,2-2.3,2C312,76.7,311.1,76.7,311,76.7z"/>
	<path class="st1" d="M317,75.8c0.5-0.1,0.8-0.5,0.8-1.3v-0.1H317v-1.8h1.8v1.8c0,1.4-0.7,2.1-1.8,2.2V75.8z"/>
	<path class="st1" d="M324.8,68h-2.1v-1.1c1.3,0,2.3-0.5,2.5-1.9h1.3v9.3h-1.7V68z"/>
	<path class="st1" d="M328,72.1h1.7c0.1,0.6,0.6,1.2,1.6,1.2c0.6,0,1.1-0.2,1.5-0.7c0.4-0.5,0.6-1.3,0.6-2.4h0
		c-0.6,0.7-1.3,1.2-2.4,1.2c-1.8,0-3.2-1.4-3.2-3.2c0-1.8,1.5-3.2,3.5-3.2c1,0,1.8,0.3,2.4,0.8c1,0.8,1.3,2.1,1.3,4
		c0,1.7-0.3,3.1-1.2,3.9c-0.6,0.6-1.4,1-2.5,1C329.5,74.6,328.2,73.5,328,72.1z M333.3,68.1c0-1.1-0.8-1.9-1.9-1.9
		c-1.1,0-1.9,0.8-1.9,1.9c0,1.1,0.8,1.9,1.9,1.9C332.5,70,333.3,69.3,333.3,68.1z"/>
	<path class="st1" d="M340.5,66.6L340.5,66.6c0,0-1,0-2,0h-3v-1.5h6.7v1.3c-1.8,1.7-3.4,4.5-3.6,7.9h-1.8
		C337,71.1,338.7,68.1,340.5,66.6z"/>
	<path class="st1" d="M342.5,69.7c0-3,1.5-4.8,3.8-4.8c2.3,0,3.8,1.8,3.8,4.8c0,3-1.5,4.8-3.9,4.8C344,74.6,342.5,72.7,342.5,69.7z
		 M348.4,69.7c0-2.1-0.6-3.5-2.1-3.5c-1.4,0-2.1,1.4-2.1,3.5c0,2.1,0.6,3.4,2.1,3.4C347.8,73.2,348.4,71.9,348.4,69.7z"/>
	<path class="st1" d="M351,72.6h1.8v1.8H351V72.6z"/>
	<path class="st1" d="M357.1,64.7h4.2c1.1,0,1.9,0.3,2.5,0.9c0.5,0.6,0.8,1.3,0.8,2.1c0,1.8-1.2,3-3.2,3h-2.4v3.6h-1.8V64.7z
		 M358.9,69.3h2.2c1.1,0,1.7-0.6,1.7-1.5c0-1-0.6-1.5-1.7-1.5h-2.2V69.3z"/>
	<path class="st1" d="M366.9,68.7L366.9,68.7c0.5-0.9,1.1-1.4,2-1.4c0.2,0,0.3,0,0.4,0.1v1.5h-0.1c-0.2,0-0.3-0.1-0.5-0.1
		c-1.1,0-1.9,0.7-1.9,2.1v3.5h-1.7v-6.9h1.6V68.7z"/>
	<path class="st1" d="M370,64.7h1.7v1.6H370V64.7z M370,67.4h1.7v6.9H370V67.4z"/>
	<path class="st1" d="M372.5,70.9c0-2.1,1.4-3.7,3.5-3.7c1.8,0,2.9,1,3.1,2.5h-1.6c-0.2-0.8-0.7-1.2-1.5-1.2c-1.2,0-1.8,1-1.8,2.4
		c0,1.4,0.6,2.4,1.8,2.4c0.9,0,1.5-0.5,1.5-1.4h1.6c-0.1,1.6-1.3,2.7-3.1,2.7C373.9,74.6,372.5,73,372.5,70.9z"/>
	<path class="st1" d="M379.7,70.9c0-2.1,1.4-3.7,3.4-3.7c1,0,1.8,0.4,2.4,1c0.7,0.7,1,1.8,1,3.1h-5.2c0.1,1.2,0.8,2,1.9,2
		c0.8,0,1.3-0.3,1.5-0.9h1.6c-0.3,1.2-1.5,2.2-3.2,2.2C381,74.6,379.7,73,379.7,70.9z M381.3,70.3h3.5c-0.1-1.1-0.7-1.8-1.7-1.8
		C382,68.4,381.5,69.2,381.3,70.3z"/>
	<path class="st1" d="M387.3,75.8c0.5-0.1,0.8-0.5,0.8-1.3v-0.1h-0.8v-1.8h1.8v1.8c0,1.4-0.7,2.1-1.8,2.2V75.8z"/>
	<path class="st1" d="M396.4,74.5c-2.3-0.2-3.4-1.4-3.5-3h1.7c0.1,1,0.7,1.6,1.8,1.7v-2.8c0,0,0,0,0,0c-1.8-0.4-3.1-0.8-3.1-2.7
		c0-1.6,1.3-2.5,3.2-2.6v-1h0.8v1c1.9,0.1,2.9,1.1,3.1,2.6h-1.6c-0.1-0.7-0.6-1.1-1.4-1.3v2.6c1.8,0.4,3.3,0.9,3.3,2.8
		c0,1.7-1.4,2.7-3.3,2.8v1.4h-0.8V74.5z M396.4,68.7v-2.5c-0.9,0.1-1.5,0.5-1.5,1.2C394.9,68.2,395.4,68.5,396.4,68.7z M397.2,70.5
		v2.7c0.9-0.1,1.6-0.6,1.6-1.4C398.7,71,398.2,70.8,397.2,70.5z"/>
	<path class="st1" d="M403.2,68h-2.1v-1.1c1.3,0,2.3-0.5,2.5-1.9h1.3v9.3h-1.7V68z"/>
	<path class="st1" d="M406.5,72.6h1.8v1.8h-1.8V72.6z"/>
	<path class="st1" d="M410.4,71.8c0.8-0.9,1.9-1.5,2.8-2.1c0.9-0.5,1.4-1,1.4-1.8c0-0.9-0.6-1.5-1.6-1.5c-0.5,0-0.9,0.2-1.2,0.5
		c-0.3,0.4-0.5,0.8-0.5,1.5h-1.7c0-1,0.2-1.7,0.7-2.3c0.6-0.7,1.5-1.1,2.7-1.1c2,0,3.2,1.2,3.2,2.9c0,1.4-0.8,2-1.8,2.7
		c-1,0.7-2.3,1.4-2.9,2.3v0.1h4.6v1.5h-6.8C409.5,73.2,409.8,72.5,410.4,71.8z"/>
	<path class="st1" d="M416.9,71.8h1.7c0.2,0.8,0.8,1.4,1.8,1.4c1.1,0,1.8-0.8,1.8-1.9c0-1.2-0.8-1.8-1.8-1.8c-0.8,0-1.4,0.3-1.7,0.7
		h-1.6l1-5.1h5.3v1.4h-4.1l-0.5,2.4h0c0.5-0.5,1.1-0.8,2-0.8c1.6,0,3.1,1.2,3.1,3.2c0,2-1.5,3.3-3.5,3.3
		C418.5,74.6,417,73.5,416.9,71.8z"/>
</g>
<g>
	<path class="st1" d="M287.5,94.3c0-1.4,0.8-1.9,1.7-2V93c-0.4,0.1-0.8,0.5-0.8,1.2v0.1h0.8v1.7h-1.6V94.3z M290,94.3
		c0-1.4,0.8-1.9,1.6-2V93c-0.4,0.1-0.8,0.5-0.8,1.2v0.1h0.7v1.7H290V94.3z"/>
	<path class="st1" d="M293.2,92.3h2.4l1.6,4.6c0.4,1.1,0.8,3.2,0.8,3.2h0c0,0,0.5-2.1,0.8-3.2l1.6-4.6h2.4v9.7h-1.7v-5
		c0-1.1,0.1-3,0.1-3h0c0,0-0.4,1.8-0.7,2.7l-1.8,5.3h-1.5l-1.8-5.3c-0.3-1-0.7-2.7-0.7-2.7h0c0,0,0.1,2,0.1,3v5h-1.6V92.3z"/>
	<path class="st1" d="M304.3,98.5c0-2.1,1.4-3.7,3.4-3.7c1,0,1.8,0.4,2.4,1c0.7,0.7,1,1.8,1,3.1h-5.2c0.1,1.2,0.8,2,1.9,2
		c0.8,0,1.3-0.3,1.5-0.9h1.6c-0.3,1.2-1.5,2.2-3.2,2.2C305.6,102.2,304.3,100.6,304.3,98.5z M305.9,97.9h3.5
		c-0.1-1.1-0.7-1.8-1.7-1.8C306.6,96,306.1,96.8,305.9,97.9z"/>
	<path class="st1" d="M312.2,95h1.6v1.1h0c0.4-0.8,1.1-1.2,2.1-1.2c0.9,0,1.5,0.4,1.8,1.3h0c0.5-0.9,1.3-1.3,2.2-1.3
		c1.4,0,2.2,0.9,2.2,2.4v4.7h-1.7v-4.5c0-0.8-0.5-1.3-1.1-1.3c-0.8,0-1.4,0.7-1.4,1.7v4.1h-1.7v-4.5c0-0.8-0.4-1.3-1.1-1.3
		c-0.8,0-1.4,0.7-1.4,1.7v4.1h-1.7V95z"/>
	<path class="st1" d="M323.4,98.5c0-2.1,1.4-3.7,3.5-3.7s3.5,1.6,3.5,3.7c0,2.1-1.4,3.7-3.5,3.7S323.4,100.6,323.4,98.5z
		 M328.8,98.5c0-1.4-0.7-2.4-1.9-2.4c-1.2,0-1.9,1-1.9,2.4c0,1.4,0.6,2.4,1.9,2.4C328.2,100.9,328.8,99.9,328.8,98.5z"/>
	<path class="st1" d="M333.3,96.3L333.3,96.3c0.5-0.9,1.1-1.4,2-1.4c0.2,0,0.3,0,0.4,0.1v1.5h-0.1c-0.2,0-0.3-0.1-0.5-0.1
		c-1.1,0-1.9,0.7-1.9,2.1v3.5h-1.7V95h1.6V96.3z"/>
	<path class="st1" d="M336.6,92.3h1.7v1.6h-1.7V92.3z M336.6,95h1.7v6.9h-1.7V95z"/>
	<path class="st1" d="M344,101.1L344,101.1c-0.5,0.6-1.1,1.1-2.2,1.1c-1.4,0-2.4-0.7-2.4-2.1c0-1.6,1.2-2,2.8-2.1
		c1.1-0.1,1.7-0.3,1.7-0.9c0-0.6-0.4-1-1.2-1c-0.9,0-1.4,0.4-1.4,1.1h-1.6c0.1-1.2,1-2.3,3-2.3c0.8,0,1.4,0.1,1.9,0.4
		c0.7,0.4,1,1.1,1,2v3.7c0,0.6,0.1,0.9,0.3,1v0.1h-1.6C344.2,101.8,344.1,101.5,344,101.1z M344.1,99.4v-1c-0.3,0.2-0.8,0.4-1.4,0.5
		c-1,0.2-1.6,0.4-1.6,1.2c0,0.7,0.6,1,1.2,1C343.4,101,344.1,100.2,344.1,99.4z"/>
	<path class="st1" d="M347.1,95h1.6v1.1h0c0.4-0.8,1.1-1.2,2.1-1.2c0.9,0,1.5,0.4,1.8,1.3h0c0.5-0.9,1.3-1.3,2.2-1.3
		c1.4,0,2.2,0.9,2.2,2.4v4.7h-1.7v-4.5c0-0.8-0.5-1.3-1.1-1.3c-0.8,0-1.4,0.7-1.4,1.7v4.1h-1.7v-4.5c0-0.8-0.4-1.3-1.1-1.3
		c-0.8,0-1.4,0.7-1.4,1.7v4.1h-1.7V95z"/>
	<path class="st1" d="M361.5,95h1.1v-2.2h1.6V95h1.4v1.1h-1.4v3.9c0,0.5,0.3,0.6,0.7,0.6c0.2,0,0.4,0,0.5-0.1h0.1v1.3
		c-0.3,0.1-0.7,0.1-1.1,0.1c-1.1,0-1.9-0.4-1.9-1.6v-4.3h-1.1V95z"/>
	<path class="st1" d="M366.1,98.5c0-2.1,1.4-3.7,3.5-3.7s3.5,1.6,3.5,3.7c0,2.1-1.4,3.7-3.5,3.7S366.1,100.6,366.1,98.5z
		 M371.5,98.5c0-1.4-0.7-2.4-1.9-2.4c-1.2,0-1.9,1-1.9,2.4c0,1.4,0.6,2.4,1.9,2.4C370.8,100.9,371.5,99.9,371.5,98.5z"/>
	<path class="st1" d="M381.9,101.1L381.9,101.1c-0.5,0.6-1.1,1.1-2.2,1.1c-1.4,0-2.4-0.7-2.4-2.1c0-1.6,1.2-2,2.8-2.1
		c1.1-0.1,1.7-0.3,1.7-0.9c0-0.6-0.4-1-1.2-1c-0.9,0-1.4,0.4-1.4,1.1h-1.6c0.1-1.2,1-2.3,3-2.3c0.8,0,1.4,0.1,1.9,0.4
		c0.7,0.4,1,1.1,1,2v3.7c0,0.6,0.1,0.9,0.3,1v0.1h-1.6C382,101.8,381.9,101.5,381.9,101.1z M381.9,99.4v-1c-0.3,0.2-0.8,0.4-1.4,0.5
		c-1,0.2-1.6,0.4-1.6,1.2c0,0.7,0.6,1,1.2,1C381.3,101,381.9,100.2,381.9,99.4z"/>
	<path class="st1" d="M387.7,92.3h1.9l1.8,5.5c0.3,0.9,0.6,2.5,0.6,2.5h0c0,0,0.3-1.6,0.6-2.5l1.7-5.5h1.8l-3.3,9.7h-1.9L387.7,92.3
		z"/>
	<path class="st1" d="M397.1,92.3h1.7v1.6h-1.7V92.3z M397.1,95h1.7v6.9h-1.7V95z"/>
	<path class="st1" d="M399.9,98.5c0-2.1,1.4-3.7,3.4-3.7c1,0,1.8,0.4,2.4,1c0.7,0.7,1,1.8,1,3.1h-5.2c0.1,1.2,0.8,2,1.9,2
		c0.8,0,1.3-0.3,1.5-0.9h1.6c-0.3,1.2-1.5,2.2-3.2,2.2C401.2,102.2,399.9,100.6,399.9,98.5z M401.5,97.9h3.5
		c-0.1-1.1-0.7-1.8-1.7-1.8C402.3,96,401.7,96.8,401.5,97.9z"/>
	<path class="st1" d="M407.2,95h1.1v-2.2h1.6V95h1.4v1.1h-1.4v3.9c0,0.5,0.3,0.6,0.7,0.6c0.2,0,0.4,0,0.5-0.1h0.1v1.3
		c-0.3,0.1-0.6,0.1-1.1,0.1c-1.1,0-1.9-0.4-1.9-1.6v-4.3h-1.1V95z"/>
	<path class="st1" d="M413.9,96L413.9,96c0.5-0.8,1.2-1.2,2.2-1.2c1.5,0,2.4,0.9,2.4,2.4v4.7h-1.7v-4.4c0-0.8-0.5-1.3-1.3-1.3
		c-0.9,0-1.6,0.7-1.6,1.7v4.1h-1.7V95h1.6V96z"/>
	<path class="st1" d="M424.2,101.1L424.2,101.1c-0.5,0.6-1.1,1.1-2.2,1.1c-1.4,0-2.4-0.7-2.4-2.1c0-1.6,1.2-2,2.8-2.1
		c1.1-0.1,1.7-0.3,1.7-0.9c0-0.6-0.4-1-1.2-1c-0.9,0-1.4,0.4-1.4,1.1H420c0.1-1.2,1-2.3,3-2.3c0.8,0,1.4,0.1,1.9,0.4
		c0.6,0.4,1,1.1,1,2v3.7c0,0.6,0.1,0.9,0.3,1v0.1h-1.6C424.3,101.8,424.2,101.5,424.2,101.1z M424.2,99.4v-1
		c-0.3,0.2-0.8,0.4-1.4,0.5c-1,0.2-1.6,0.4-1.6,1.2c0,0.7,0.6,1,1.2,1C423.6,101,424.2,100.2,424.2,99.4z"/>
	<path class="st1" d="M427.3,95h1.6v1.1h0c0.4-0.8,1.1-1.2,2.1-1.2c0.9,0,1.5,0.4,1.8,1.3h0c0.5-0.9,1.3-1.3,2.2-1.3
		c1.4,0,2.2,0.9,2.2,2.4v4.7h-1.7v-4.5c0-0.8-0.5-1.3-1.1-1.3c-0.8,0-1.4,0.7-1.4,1.7v4.1h-1.7v-4.5c0-0.8-0.4-1.3-1.1-1.3
		c-0.8,0-1.4,0.7-1.4,1.7v4.1h-1.7V95z"/>
	<path class="st1" d="M442.2,92.3h1.8l3.2,5.1c0.5,0.8,1.2,2.2,1.2,2.2h0c0,0-0.1-1.5-0.1-2.5v-4.8h1.7v9.7h-1.8l-3.2-5
		c-0.5-0.9-1.2-2.3-1.2-2.3h0c0,0,0.1,1.5,0.1,2.5v4.8h-1.7V92.3z"/>
	<path class="st1" d="M451.5,98.5c0-2.1,1.4-3.7,3.4-3.7c1,0,1.8,0.4,2.4,1c0.7,0.7,1,1.8,1,3.1h-5.2c0.1,1.2,0.8,2,1.9,2
		c0.8,0,1.3-0.3,1.5-0.9h1.6c-0.3,1.2-1.5,2.2-3.2,2.2C452.8,102.2,451.5,100.6,451.5,98.5z M453.1,97.9h3.5
		c-0.1-1.1-0.7-1.8-1.7-1.8C453.8,96,453.3,96.8,453.1,97.9z"/>
	<path class="st1" d="M459.3,102.3h1.6c0.1,0.6,0.7,0.9,1.6,0.9c1.1,0,1.7-0.5,1.7-1.5v-0.2c0-0.4,0-0.7,0-1h0c-0.4,0.7-1,1.1-2,1.1
		c-1.7,0-3-1.3-3-3.3c0-2.1,1.3-3.4,2.9-3.4c1,0,1.6,0.3,2.1,1.1h0V95h1.6v6.5c0,1-0.3,1.7-0.9,2.2c-0.6,0.5-1.4,0.7-2.4,0.7
		C460.6,104.4,459.5,103.6,459.3,102.3z M464.2,98.2c0-1.2-0.6-2.1-1.8-2.1c-1.1,0-1.7,0.8-1.7,2.1s0.6,2.1,1.7,2.1
		C463.7,100.3,464.2,99.4,464.2,98.2z"/>
	<path class="st1" d="M466.9,98.5c0-2.1,1.4-3.7,3.5-3.7s3.5,1.6,3.5,3.7c0,2.1-1.4,3.7-3.5,3.7S466.9,100.6,466.9,98.5z
		 M472.3,98.5c0-1.4-0.6-2.4-1.9-2.4c-1.2,0-1.9,1-1.9,2.4c0,1.4,0.6,2.4,1.9,2.4C471.7,100.9,472.3,99.9,472.3,98.5z"/>
	<path class="st1" d="M474.5,95h1.1v-2.2h1.6V95h1.4v1.1h-1.4v3.9c0,0.5,0.3,0.6,0.7,0.6c0.2,0,0.4,0,0.5-0.1h0.1v1.3
		c-0.3,0.1-0.6,0.1-1.1,0.1c-1.1,0-1.9-0.4-1.9-1.6v-4.3h-1.1V95z"/>
	<path class="st1" d="M479.5,92.3h1.7v1.6h-1.7V92.3z M479.6,95h1.7v6.9h-1.7V95z"/>
	<path class="st1" d="M487,101.1L487,101.1c-0.5,0.6-1.1,1.1-2.2,1.1c-1.4,0-2.4-0.7-2.4-2.1c0-1.6,1.2-2,2.8-2.1
		c1.1-0.1,1.7-0.3,1.7-0.9c0-0.6-0.4-1-1.2-1c-0.9,0-1.4,0.4-1.4,1.1h-1.6c0.1-1.2,1-2.3,3-2.3c0.8,0,1.4,0.1,1.9,0.4
		c0.6,0.4,1,1.1,1,2v3.7c0,0.6,0.1,0.9,0.3,1v0.1h-1.6C487.1,101.8,487,101.5,487,101.1z M487,99.4v-1c-0.3,0.2-0.8,0.4-1.4,0.5
		c-1,0.2-1.6,0.4-1.6,1.2c0,0.7,0.6,1,1.2,1C486.4,101,487,100.2,487,99.4z"/>
	<path class="st1" d="M489.4,95h1.1v-2.2h1.6V95h1.4v1.1h-1.4v3.9c0,0.5,0.3,0.6,0.7,0.6c0.2,0,0.4,0,0.5-0.1h0.1v1.3
		c-0.3,0.1-0.6,0.1-1.1,0.1c-1.1,0-1.9-0.4-1.9-1.6v-4.3h-1.1V95z"/>
	<path class="st1" d="M494,98.5c0-2.1,1.4-3.7,3.5-3.7s3.5,1.6,3.5,3.7c0,2.1-1.4,3.7-3.5,3.7S494,100.6,494,98.5z M499.4,98.5
		c0-1.4-0.6-2.4-1.9-2.4c-1.2,0-1.9,1-1.9,2.4c0,1.4,0.6,2.4,1.9,2.4C498.8,100.9,499.4,99.9,499.4,98.5z"/>
	<path class="st1" d="M503.9,96.3L503.9,96.3c0.5-0.9,1.1-1.4,2-1.4c0.2,0,0.3,0,0.4,0.1v1.5h-0.1c-0.2,0-0.3-0.1-0.5-0.1
		c-1.1,0-1.9,0.7-1.9,2.1v3.5h-1.7V95h1.6V96.3z"/>
	<path class="st1" d="M506.4,103.4c0.5-0.1,0.8-0.5,0.8-1.3V102h-0.8v-1.8h1.8v1.8c0,1.4-0.7,2.1-1.8,2.2V103.4z"/>
	<path class="st1" d="M510.7,93.9c0,1.4-0.8,1.9-1.7,2v-0.7c0.4-0.1,0.8-0.5,0.8-1.2V94h-0.7v-1.7h1.6V93.9z M513.2,93.9
		c0,1.4-0.8,1.9-1.7,2v-0.7c0.4-0.1,0.8-0.5,0.8-1.2V94h-0.7v-1.7h1.6V93.9z"/>
	<path class="st1" d="M517.4,99v-0.5h1.7V99c0,1.3,0.5,1.7,1.4,1.7c0.8,0,1.3-0.5,1.3-1.4v-6.9h1.8v7c0,0.8-0.2,1.4-0.6,1.9
		c-0.5,0.6-1.3,0.9-2.4,0.9C518.5,102.1,517.4,101,517.4,99z"/>
	<path class="st1" d="M524.8,98.5c0-2.1,1.4-3.7,3.4-3.7c1,0,1.8,0.4,2.4,1c0.7,0.7,1,1.8,1,3.1h-5.2c0.1,1.2,0.8,2,1.9,2
		c0.8,0,1.3-0.3,1.5-0.9h1.6c-0.3,1.2-1.5,2.2-3.2,2.2C526.1,102.2,524.8,100.6,524.8,98.5z M526.5,97.9h3.5
		c-0.1-1.1-0.7-1.8-1.7-1.8C527.2,96,526.6,96.8,526.5,97.9z"/>
	<path class="st1" d="M534.4,96.3L534.4,96.3c0.5-0.9,1.1-1.4,2-1.4c0.2,0,0.3,0,0.4,0.1v1.5h-0.1c-0.2,0-0.3-0.1-0.5-0.1
		c-1.1,0-1.9,0.7-1.9,2.1v3.5h-1.7V95h1.6V96.3z"/>
	<path class="st1" d="M537.4,98.5c0-2.1,1.4-3.7,3.5-3.7s3.5,1.6,3.5,3.7c0,2.1-1.4,3.7-3.5,3.7S537.4,100.6,537.4,98.5z
		 M542.8,98.5c0-1.4-0.6-2.4-1.9-2.4c-1.2,0-1.9,1-1.9,2.4c0,1.4,0.6,2.4,1.9,2.4C542.2,100.9,542.8,99.9,542.8,98.5z"/>
	<path class="st1" d="M545.6,95h1.6v1.1h0c0.4-0.8,1.1-1.2,2.1-1.2c0.9,0,1.5,0.4,1.8,1.3h0c0.5-0.9,1.3-1.3,2.2-1.3
		c1.4,0,2.2,0.9,2.2,2.4v4.7H554v-4.5c0-0.8-0.5-1.3-1.1-1.3c-0.8,0-1.4,0.7-1.4,1.7v4.1h-1.7v-4.5c0-0.8-0.4-1.3-1.1-1.3
		c-0.8,0-1.4,0.7-1.4,1.7v4.1h-1.7V95z"/>
	<path class="st1" d="M556.8,98.5c0-2.1,1.4-3.7,3.4-3.7c1,0,1.8,0.4,2.4,1c0.7,0.7,1,1.8,1,3.1h-5.2c0.1,1.2,0.8,2,1.9,2
		c0.8,0,1.3-0.3,1.5-0.9h1.6c-0.3,1.2-1.5,2.2-3.2,2.2C558.1,102.2,556.8,100.6,556.8,98.5z M558.5,97.9h3.5
		c-0.1-1.1-0.7-1.8-1.7-1.8C559.2,96,558.6,96.8,558.5,97.9z"/>
	<path class="st1" d="M568.2,92.3h4.4c1,0,1.8,0.2,2.3,0.7c0.5,0.4,0.7,1,0.7,1.8c0,1-0.5,1.7-1.6,2v0c1.2,0.3,2,1.1,2,2.3
		c0,0.9-0.3,1.5-0.9,2c-0.6,0.5-1.4,0.8-2.4,0.8h-4.5V92.3z M572.4,96.3c0.9,0,1.5-0.5,1.5-1.3c0-0.8-0.5-1.3-1.4-1.3H570v2.5H572.4
		z M572.6,100.5c0.5,0,1-0.2,1.2-0.4c0.2-0.2,0.4-0.6,0.4-1c0-1-0.7-1.5-1.7-1.5H570v2.9H572.6z"/>
	<path class="st1" d="M577.2,100.2h1.8v1.8h-1.8V100.2z"/>
	<path class="st1" d="M583.1,92.3h1.8l1.1,4.7c0.3,1.2,0.5,3.2,0.5,3.2h0c0,0,0.3-2.1,0.6-3.2l1.2-4.6h1.8l1.2,4.6
		c0.3,1.2,0.6,3.2,0.6,3.2h0c0,0,0.3-2,0.6-3.2l1.1-4.7h1.8l-2.7,9.7h-1.8l-1.2-5.1c-0.3-1-0.5-2.9-0.5-2.9h0c0,0-0.3,1.9-0.5,2.9
		l-1.3,5.1h-1.8L583.1,92.3z"/>
	<path class="st1" d="M596.4,92.3h1.7v1.6h-1.7V92.3z M596.5,95h1.7v6.9h-1.7V95z"/>
	<path class="st1" d="M599.3,98.5c0-2.1,1.4-3.7,3.4-3.7c1,0,1.8,0.4,2.4,1c0.7,0.7,1,1.8,1,3.1h-5.2c0.1,1.2,0.8,2,1.9,2
		c0.8,0,1.3-0.3,1.5-0.9h1.6c-0.3,1.2-1.5,2.2-3.2,2.2C600.6,102.2,599.3,100.6,599.3,98.5z M600.9,97.9h3.5
		c-0.1-1.1-0.7-1.8-1.7-1.8C601.6,96,601.1,96.8,600.9,97.9z"/>
	<path class="st1" d="M606.8,99.8h1.6c0.1,0.8,0.8,1.2,1.7,1.2c0.9,0,1.3-0.4,1.3-0.9c0-0.7-0.7-0.8-1.8-1c-1.3-0.3-2.5-0.6-2.5-2.1
		c0-1.3,1.1-2.1,2.7-2.1c1.8,0,2.8,0.8,2.9,2h-1.6c-0.1-0.6-0.6-0.9-1.4-0.9c-0.8,0-1.2,0.4-1.2,0.8c0,0.6,0.7,0.7,1.8,0.9
		c1.3,0.2,2.6,0.6,2.6,2.2c0,1.5-1.2,2.2-3,2.2C608,102.2,606.9,101.2,606.8,99.8z"/>
	<path class="st1" d="M615.8,96L615.8,96c0.5-0.8,1.2-1.2,2.2-1.2c1.5,0,2.4,0.9,2.4,2.4v4.7h-1.7v-4.4c0-0.8-0.5-1.3-1.3-1.3
		c-0.9,0-1.6,0.7-1.6,1.7v4.1h-1.7V95h1.6V96z"/>
	<path class="st1" d="M621.5,98.5c0-2.1,1.4-3.7,3.4-3.7c1,0,1.8,0.4,2.4,1c0.7,0.7,1,1.8,1,3.1h-5.2c0.1,1.2,0.8,2,1.9,2
		c0.8,0,1.3-0.3,1.5-0.9h1.6c-0.3,1.2-1.5,2.2-3.2,2.2C622.8,102.2,621.5,100.6,621.5,98.5z M623.1,97.9h3.5
		c-0.1-1.1-0.7-1.8-1.7-1.8C623.8,96,623.3,96.8,623.1,97.9z"/>
	<path class="st1" d="M628.8,95h1.1v-2.2h1.6V95h1.4v1.1h-1.4v3.9c0,0.5,0.3,0.6,0.7,0.6c0.2,0,0.4,0,0.5-0.1h0.1v1.3
		c-0.3,0.1-0.6,0.1-1.1,0.1c-1.1,0-1.9-0.4-1.9-1.6v-4.3h-1.1V95z"/>
	<path class="st1" d="M287.5,111.5c0-1.4,0.8-1.9,1.7-2v0.7c-0.4,0.1-0.8,0.5-0.8,1.2v0.1h0.8v1.7h-1.6V111.5z M290,111.5
		c0-1.4,0.8-1.9,1.6-2v0.7c-0.4,0.1-0.8,0.5-0.8,1.2v0.1h0.7v1.7H290V111.5z"/>
	<path class="st1" d="M292.6,109.6h7.9v1.5h-3v8.1h-1.8v-8.1h-3V109.6z"/>
	<path class="st1" d="M299.9,115.8c0-2.1,1.4-3.7,3.5-3.7s3.5,1.6,3.5,3.7c0,2.1-1.4,3.7-3.5,3.7S299.9,117.8,299.9,115.8z
		 M305.3,115.8c0-1.4-0.7-2.4-1.9-2.4c-1.2,0-1.9,1-1.9,2.4c0,1.4,0.6,2.4,1.9,2.4C304.7,118.2,305.3,117.2,305.3,115.8z"/>
	<path class="st1" d="M311,116.1h1.8c0.1,1.2,0.9,1.9,2.4,1.9c1.1,0,1.9-0.5,1.9-1.4c0-1-1-1.3-2.5-1.6c-1.8-0.4-3.3-0.9-3.3-2.8
		c0-1.8,1.5-2.8,3.6-2.8c2.2,0,3.5,1.1,3.7,2.9h-1.8c-0.1-0.9-0.9-1.5-2-1.5c-1.1,0-1.8,0.5-1.8,1.2c0,0.9,0.9,1.1,2.4,1.4
		c1.8,0.4,3.4,0.9,3.4,3c0,1.9-1.6,3-3.8,3C312.6,119.5,311.1,118.1,311,116.1z"/>
	<path class="st1" d="M319.9,115.8c0-2.1,1.4-3.7,3.4-3.7c1,0,1.8,0.4,2.4,1c0.7,0.7,1,1.8,1,3.1h-5.2c0.1,1.2,0.8,2,1.9,2
		c0.8,0,1.3-0.3,1.5-0.9h1.6c-0.3,1.2-1.5,2.2-3.2,2.2C321.3,119.4,319.9,117.8,319.9,115.8z M321.6,115.1h3.5
		c-0.1-1.1-0.7-1.8-1.7-1.8C322.3,113.3,321.8,114,321.6,115.1z"/>
	<path class="st1" d="M328,109.6h1.7v9.7H328V109.6z"/>
	<path class="st1" d="M330.8,115.8c0-2.1,1.4-3.7,3.4-3.7c1,0,1.8,0.4,2.4,1c0.7,0.7,1,1.8,1,3.1h-5.2c0.1,1.2,0.8,2,1.9,2
		c0.8,0,1.3-0.3,1.5-0.9h1.6c-0.3,1.2-1.5,2.2-3.2,2.2C332.1,119.4,330.8,117.8,330.8,115.8z M332.5,115.1h3.5
		c-0.1-1.1-0.7-1.8-1.7-1.8C333.2,113.3,332.6,114,332.5,115.1z"/>
	<path class="st1" d="M338.4,115.8c0-2.1,1.4-3.7,3.5-3.7c1.8,0,2.9,1,3.1,2.5h-1.6c-0.2-0.8-0.7-1.2-1.5-1.2c-1.2,0-1.8,1-1.8,2.4
		c0,1.4,0.6,2.4,1.8,2.4c0.9,0,1.5-0.5,1.5-1.4h1.6c-0.1,1.6-1.3,2.7-3.1,2.7C339.8,119.4,338.4,117.8,338.4,115.8z"/>
	<path class="st1" d="M345.6,112.3h1.1v-2.2h1.6v2.2h1.4v1.1h-1.4v3.9c0,0.5,0.3,0.6,0.7,0.6c0.2,0,0.4,0,0.5-0.1h0.1v1.3
		c-0.3,0.1-0.7,0.1-1.1,0.1c-1.1,0-1.9-0.4-1.9-1.6v-4.3h-1.1V112.3z"/>
	<path class="st1" d="M358.4,118.3L358.4,118.3c-0.5,0.6-1.1,1.1-2.2,1.1c-1.4,0-2.4-0.7-2.4-2.1c0-1.6,1.2-2,2.8-2.1
		c1.1-0.1,1.7-0.3,1.7-0.9c0-0.6-0.4-1-1.2-1c-0.9,0-1.4,0.4-1.4,1.1h-1.6c0.1-1.2,1-2.3,3-2.3c0.8,0,1.4,0.1,1.9,0.4
		c0.7,0.4,1,1.1,1,2v3.7c0,0.6,0.1,0.9,0.3,1v0.1h-1.6C358.5,119.1,358.4,118.8,358.4,118.3z M358.4,116.7v-1
		c-0.3,0.2-0.8,0.4-1.4,0.5c-1,0.2-1.6,0.4-1.6,1.2c0,0.7,0.6,1,1.2,1C357.8,118.3,358.4,117.5,358.4,116.7z"/>
	<path class="st1" d="M365,109.6h1.8v8.1h4.7v1.6H365V109.6z"/>
	<path class="st1" d="M372.1,115.8c0-2.1,1.4-3.7,3.4-3.7c1,0,1.8,0.4,2.4,1c0.7,0.7,1,1.8,1,3.1h-5.2c0.1,1.2,0.8,2,1.9,2
		c0.8,0,1.3-0.3,1.5-0.9h1.6c-0.3,1.2-1.5,2.2-3.2,2.2C373.5,119.4,372.1,117.8,372.1,115.8z M373.8,115.1h3.5
		c-0.1-1.1-0.7-1.8-1.7-1.8C374.5,113.3,374,114,373.8,115.1z"/>
	<path class="st1" d="M384.3,118.3L384.3,118.3c-0.5,0.6-1.1,1.1-2.2,1.1c-1.4,0-2.4-0.7-2.4-2.1c0-1.6,1.2-2,2.8-2.1
		c1.1-0.1,1.7-0.3,1.7-0.9c0-0.6-0.4-1-1.2-1c-0.9,0-1.4,0.4-1.4,1.1h-1.6c0.1-1.2,1-2.3,3-2.3c0.8,0,1.4,0.1,1.9,0.4
		c0.7,0.4,1,1.1,1,2v3.7c0,0.6,0.1,0.9,0.3,1v0.1h-1.6C384.5,119.1,384.4,118.8,384.3,118.3z M384.4,116.7v-1
		c-0.3,0.2-0.8,0.4-1.4,0.5c-1,0.2-1.6,0.4-1.6,1.2c0,0.7,0.6,1,1.2,1C383.7,118.3,384.4,117.5,384.4,116.7z"/>
	<path class="st1" d="M387.1,115.8c0-2.2,1.2-3.7,3-3.7c1,0,1.7,0.5,2.1,1.2h0c0-0.4-0.1-0.9-0.1-1.4v-2.3h1.7v9.7h-1.6v-1h0
		c-0.4,0.8-1.2,1.2-2.1,1.2C388.3,119.5,387.1,118,387.1,115.8z M392.3,115.8c0-1.4-0.6-2.4-1.8-2.4c-1.1,0-1.7,1-1.7,2.4
		c0,1.4,0.6,2.3,1.7,2.3C391.7,118.1,392.3,117.1,392.3,115.8z"/>
	<path class="st1" d="M395,115.8c0-2.1,1.4-3.7,3.4-3.7c1,0,1.8,0.4,2.4,1c0.7,0.7,1,1.8,1,3.1h-5.2c0.1,1.2,0.8,2,1.9,2
		c0.8,0,1.3-0.3,1.5-0.9h1.6c-0.3,1.2-1.5,2.2-3.2,2.2C396.4,119.4,395,117.8,395,115.8z M396.7,115.1h3.5c-0.1-1.1-0.7-1.8-1.7-1.8
		C397.4,113.3,396.8,114,396.7,115.1z"/>
	<path class="st1" d="M404.6,113.5L404.6,113.5c0.5-0.9,1.1-1.4,2-1.4c0.2,0,0.3,0,0.4,0.1v1.5H407c-0.2,0-0.3-0.1-0.5-0.1
		c-1.1,0-1.9,0.7-1.9,2.1v3.5H403v-6.9h1.6V113.5z"/>
	<path class="st1" d="M407.2,120.6c0.5-0.1,0.8-0.5,0.8-1.3v-0.1h-0.8v-1.8h1.8v1.8c0,1.4-0.7,2.1-1.8,2.2V120.6z"/>
	<path class="st1" d="M411.5,111.2c0,1.4-0.8,1.9-1.7,2v-0.7c0.4-0.1,0.8-0.5,0.8-1.2v-0.1h-0.7v-1.7h1.6V111.2z M414,111.2
		c0,1.4-0.8,1.9-1.7,2v-0.7c0.4-0.1,0.8-0.5,0.8-1.2v-0.1h-0.7v-1.7h1.6V111.2z"/>
	<path class="st1" d="M418.8,109.6h1.8v3.9h4.3v-3.9h1.8v9.7h-1.8v-4.3h-4.3v4.3h-1.8V109.6z"/>
	<path class="st1" d="M429.9,113.5L429.9,113.5c0.5-0.9,1.1-1.4,2-1.4c0.2,0,0.3,0,0.4,0.1v1.5h-0.1c-0.2,0-0.3-0.1-0.5-0.1
		c-1.1,0-1.9,0.7-1.9,2.1v3.5h-1.7v-6.9h1.6V113.5z"/>
	<path class="st1" d="M437.5,118.3L437.5,118.3c-0.5,0.6-1.1,1.1-2.2,1.1c-1.4,0-2.4-0.7-2.4-2.1c0-1.6,1.2-2,2.8-2.1
		c1.1-0.1,1.7-0.3,1.7-0.9c0-0.6-0.4-1-1.2-1c-0.9,0-1.4,0.4-1.4,1.1h-1.6c0.1-1.2,1-2.3,3-2.3c0.8,0,1.4,0.1,1.9,0.4
		c0.6,0.4,1,1.1,1,2v3.7c0,0.6,0.1,0.9,0.3,1v0.1h-1.6C437.6,119.1,437.6,118.8,437.5,118.3z M437.6,116.7v-1
		c-0.3,0.2-0.8,0.4-1.4,0.5c-1,0.2-1.6,0.4-1.6,1.2c0,0.7,0.6,1,1.2,1C436.9,118.3,437.6,117.5,437.6,116.7z"/>
	<path class="st1" d="M442.2,113.3L442.2,113.3c0.5-0.8,1.2-1.2,2.2-1.2c1.5,0,2.4,0.9,2.4,2.4v4.7h-1.7v-4.4c0-0.8-0.5-1.3-1.3-1.3
		c-0.9,0-1.6,0.7-1.6,1.7v4.1h-1.7v-6.9h1.6V113.3z"/>
	<path class="st1" d="M448,115.8c0-2.2,1.2-3.7,3-3.7c1,0,1.7,0.5,2.1,1.2h0c0-0.4-0.1-0.9-0.1-1.4v-2.3h1.7v9.7h-1.6v-1h0
		c-0.4,0.8-1.2,1.2-2.1,1.2C449.2,119.5,448,118,448,115.8z M453.2,115.8c0-1.4-0.6-2.4-1.8-2.4c-1.1,0-1.7,1-1.7,2.4
		c0,1.4,0.6,2.3,1.7,2.3C452.6,118.1,453.2,117.1,453.2,115.8z"/>
	<path class="st1" d="M459.2,116.1h1.8c0.1,1.2,0.9,1.9,2.4,1.9c1.1,0,1.9-0.5,1.9-1.4c0-1-1-1.3-2.5-1.6c-1.8-0.4-3.3-0.9-3.3-2.8
		c0-1.8,1.5-2.8,3.6-2.8c2.2,0,3.5,1.1,3.7,2.9h-1.8c-0.1-0.9-0.9-1.5-2-1.5c-1.1,0-1.8,0.5-1.8,1.2c0,0.9,0.9,1.1,2.4,1.4
		c1.8,0.4,3.4,0.9,3.4,3c0,1.9-1.6,3-3.8,3C460.7,119.5,459.2,118.1,459.2,116.1z"/>
	<path class="st1" d="M472.6,118.3L472.6,118.3c-0.5,0.6-1.1,1.1-2.2,1.1c-1.4,0-2.4-0.7-2.4-2.1c0-1.6,1.2-2,2.8-2.1
		c1.1-0.1,1.7-0.3,1.7-0.9c0-0.6-0.4-1-1.2-1c-0.9,0-1.4,0.4-1.4,1.1h-1.6c0.1-1.2,1-2.3,3-2.3c0.8,0,1.4,0.1,1.9,0.4
		c0.6,0.4,1,1.1,1,2v3.7c0,0.6,0.1,0.9,0.3,1v0.1h-1.6C472.8,119.1,472.7,118.8,472.6,118.3z M472.7,116.7v-1
		c-0.3,0.2-0.8,0.4-1.4,0.5c-1,0.2-1.6,0.4-1.6,1.2c0,0.7,0.6,1,1.2,1C472,118.3,472.7,117.5,472.7,116.7z"/>
	<path class="st1" d="M477.8,115.6l-2.2-3.3h1.9l0.7,1.1c0.3,0.5,0.7,1.2,0.7,1.2h0c0,0,0.4-0.8,0.6-1.2l0.7-1.1h1.8l-2.2,3.2
		l2.5,3.7h-1.9l-0.9-1.4c-0.3-0.5-0.7-1.3-0.7-1.3h0c0,0-0.4,0.8-0.7,1.3l-0.9,1.4h-1.8L477.8,115.6z"/>
	<path class="st1" d="M482.4,115.8c0-2.1,1.4-3.7,3.4-3.7c1,0,1.8,0.4,2.4,1c0.7,0.7,1,1.8,1,3.1h-5.2c0.1,1.2,0.8,2,1.9,2
		c0.8,0,1.3-0.3,1.5-0.9h1.6c-0.3,1.2-1.5,2.2-3.2,2.2C483.8,119.4,482.4,117.8,482.4,115.8z M484.1,115.1h3.5
		c-0.1-1.1-0.7-1.8-1.7-1.8C484.8,113.3,484.2,114,484.1,115.1z"/>
	<path class="st1" d="M492,113.3L492,113.3c0.5-0.8,1.2-1.2,2.2-1.2c1.5,0,2.4,0.9,2.4,2.4v4.7H495v-4.4c0-0.8-0.5-1.3-1.3-1.3
		c-0.9,0-1.6,0.7-1.6,1.7v4.1h-1.7v-6.9h1.6V113.3z"/>
	<path class="st1" d="M498.1,109.6h1.7v1.6h-1.7V109.6z M498.1,112.3h1.7v6.9h-1.7V112.3z"/>
	<path class="st1" d="M505.5,118.3L505.5,118.3c-0.5,0.6-1.1,1.1-2.2,1.1c-1.4,0-2.4-0.7-2.4-2.1c0-1.6,1.2-2,2.8-2.1
		c1.1-0.1,1.7-0.3,1.7-0.9c0-0.6-0.4-1-1.2-1c-0.9,0-1.4,0.4-1.4,1.1h-1.6c0.1-1.2,1-2.3,3-2.3c0.8,0,1.4,0.1,1.9,0.4
		c0.6,0.4,1,1.1,1,2v3.7c0,0.6,0.1,0.9,0.3,1v0.1h-1.6C505.6,119.1,505.5,118.8,505.5,118.3z M505.5,116.7v-1
		c-0.3,0.2-0.8,0.4-1.4,0.5c-1,0.2-1.6,0.4-1.6,1.2c0,0.7,0.6,1,1.2,1C504.9,118.3,505.5,117.5,505.5,116.7z"/>
	<path class="st1" d="M510.2,113.3L510.2,113.3c0.5-0.8,1.2-1.2,2.2-1.2c1.5,0,2.4,0.9,2.4,2.4v4.7h-1.7v-4.4c0-0.8-0.5-1.3-1.3-1.3
		c-0.9,0-1.6,0.7-1.6,1.7v4.1h-1.7v-6.9h1.6V113.3z"/>
	<path class="st1" d="M287.5,128.8c0-1.4,0.8-1.9,1.7-2v0.7c-0.4,0.1-0.8,0.5-0.8,1.2v0.1h0.8v1.7h-1.6V128.8z M290,128.8
		c0-1.4,0.8-1.9,1.6-2v0.7c-0.4,0.1-0.8,0.5-0.8,1.2v0.1h0.7v1.7H290V128.8z"/>
	<path class="st1" d="M293.2,126.8h1.8v9.7h-1.8V126.8z"/>
	<path class="st1" d="M298.3,130.6L298.3,130.6c0.5-0.8,1.2-1.2,2.2-1.2c1.5,0,2.4,0.9,2.4,2.4v4.7h-1.7v-4.4c0-0.8-0.5-1.3-1.3-1.3
		c-0.9,0-1.6,0.7-1.6,1.7v4.1h-1.7v-6.9h1.6V130.6z"/>
	<path class="st1" d="M304.1,133c0-2.2,1.2-3.7,3-3.7c1,0,1.7,0.5,2.1,1.2h0c0-0.4-0.1-0.9-0.1-1.4v-2.3h1.7v9.7h-1.6v-1h0
		c-0.4,0.8-1.2,1.2-2.1,1.2C305.3,136.7,304.1,135.3,304.1,133z M309.3,133c0-1.4-0.6-2.4-1.8-2.4c-1.1,0-1.7,1-1.7,2.4
		c0,1.4,0.6,2.3,1.7,2.3C308.7,135.4,309.3,134.4,309.3,133z"/>
	<path class="st1" d="M316.9,136.5v-1h0c-0.5,0.8-1.1,1.2-2.1,1.2c-1.5,0-2.4-0.9-2.4-2.4v-4.7h1.7v4.4c0,0.8,0.5,1.3,1.3,1.3
		c0.9,0,1.5-0.7,1.5-1.7v-4.1h1.6v6.9H316.9z"/>
	<path class="st1" d="M319.5,134.4h1.6c0.1,0.8,0.8,1.2,1.7,1.2c0.9,0,1.3-0.4,1.3-0.9c0-0.7-0.7-0.8-1.8-1
		c-1.3-0.3-2.5-0.6-2.5-2.1c0-1.3,1.1-2.1,2.7-2.1c1.8,0,2.8,0.8,2.9,2h-1.6c-0.1-0.6-0.6-0.9-1.4-0.9c-0.8,0-1.2,0.4-1.2,0.8
		c0,0.6,0.7,0.7,1.8,0.9c1.3,0.2,2.6,0.6,2.6,2.2c0,1.5-1.2,2.2-3,2.2C320.8,136.7,319.7,135.8,319.5,134.4z"/>
	<path class="st1" d="M326.3,129.6h1.1v-2.2h1.6v2.2h1.4v1.1H329v3.9c0,0.5,0.3,0.6,0.7,0.6c0.2,0,0.4,0,0.5-0.1h0.1v1.3
		c-0.3,0.1-0.7,0.1-1.1,0.1c-1.1,0-1.9-0.4-1.9-1.6v-4.3h-1.1V129.6z"/>
	<path class="st1" d="M333,130.8L333,130.8c0.5-0.9,1.1-1.4,2-1.4c0.2,0,0.3,0,0.4,0.1v1.5h-0.1c-0.2,0-0.3-0.1-0.5-0.1
		c-1.1,0-1.9,0.7-1.9,2.1v3.5h-1.7v-6.9h1.6V130.8z"/>
	<path class="st1" d="M336.4,126.8h1.7v1.6h-1.7V126.8z M336.4,129.6h1.7v6.9h-1.7V129.6z"/>
	<path class="st1" d="M343.8,135.6L343.8,135.6c-0.5,0.6-1.1,1.1-2.2,1.1c-1.4,0-2.4-0.7-2.4-2.1c0-1.6,1.2-2,2.8-2.1
		c1.1-0.1,1.7-0.3,1.7-0.9c0-0.6-0.4-1-1.2-1c-0.9,0-1.4,0.4-1.4,1.1h-1.6c0.1-1.2,1-2.3,3-2.3c0.8,0,1.4,0.1,1.9,0.4
		c0.7,0.4,1,1.1,1,2v3.7c0,0.6,0.1,0.9,0.3,1v0.1H344C343.9,136.3,343.8,136.1,343.8,135.6z M343.8,134v-1c-0.3,0.2-0.8,0.4-1.4,0.5
		c-1,0.2-1.6,0.4-1.6,1.2c0,0.7,0.6,1,1.2,1C343.2,135.5,343.8,134.8,343.8,134z"/>
	<path class="st1" d="M346.9,126.8h1.7v9.7h-1.7V126.8z"/>
	<path class="st1" d="M350.1,126.8h1.7v1.6h-1.7V126.8z M350.1,129.6h1.7v6.9h-1.7V129.6z"/>
	<path class="st1" d="M352.8,135.3l2.8-3.4c0.4-0.4,1-1,1-1v0c0,0-0.9,0.1-1.4,0.1H353v-1.3h5.4v1.1l-2.8,3.4
		c-0.4,0.4-1.1,1.1-1.1,1.1v0c0,0,0.9-0.1,1.5-0.1h2.5v1.4h-5.9V135.3z"/>
	<path class="st1" d="M359.3,133c0-2.1,1.4-3.7,3.4-3.7c1,0,1.8,0.4,2.4,1c0.7,0.7,1,1.8,1,3.1h-5.2c0.1,1.2,0.8,2,1.9,2
		c0.8,0,1.3-0.3,1.5-0.9h1.6c-0.3,1.2-1.5,2.2-3.2,2.2C360.6,136.7,359.3,135.1,359.3,133z M360.9,132.4h3.5
		c-0.1-1.1-0.7-1.8-1.7-1.8C361.6,130.6,361.1,131.3,360.9,132.4z"/>
	<path class="st1" d="M366.9,133c0-2.2,1.2-3.7,3-3.7c1,0,1.7,0.5,2.1,1.2h0c0-0.4-0.1-0.9-0.1-1.4v-2.3h1.7v9.7h-1.6v-1h0
		c-0.4,0.8-1.2,1.2-2.1,1.2C368.1,136.7,366.9,135.3,366.9,133z M372.1,133c0-1.4-0.6-2.4-1.8-2.4c-1.1,0-1.7,1-1.7,2.4
		c0,1.4,0.6,2.3,1.7,2.3C371.5,135.4,372.1,134.4,372.1,133z"/>
	<path class="st1" d="M378.6,126.8h4.4c1,0,1.8,0.2,2.3,0.7c0.5,0.4,0.7,1,0.7,1.8c0,1-0.5,1.7-1.6,2v0c1.2,0.3,2,1.1,2,2.3
		c0,0.9-0.3,1.5-0.9,2c-0.6,0.5-1.4,0.8-2.4,0.8h-4.5V126.8z M382.8,130.8c0.9,0,1.5-0.5,1.5-1.3c0-0.8-0.5-1.3-1.4-1.3h-2.4v2.5
		H382.8z M383,135c0.5,0,1-0.2,1.2-0.4c0.2-0.2,0.4-0.6,0.4-1c0-1-0.7-1.5-1.7-1.5h-2.5v2.9H383z"/>
	<path class="st1" d="M392.1,136.5v-1h0c-0.5,0.8-1.1,1.2-2.1,1.2c-1.5,0-2.4-0.9-2.4-2.4v-4.7h1.7v4.4c0,0.8,0.5,1.3,1.3,1.3
		c0.9,0,1.5-0.7,1.5-1.7v-4.1h1.6v6.9H392.1z"/>
	<path class="st1" d="M395.2,126.8h1.7v1.6h-1.7V126.8z M395.3,129.6h1.7v6.9h-1.7V129.6z"/>
	<path class="st1" d="M398.4,126.8h1.7v9.7h-1.7V126.8z"/>
	<path class="st1" d="M401.3,133c0-2.2,1.2-3.7,3-3.7c1,0,1.7,0.5,2.1,1.2h0c0-0.4-0.1-0.9-0.1-1.4v-2.3h1.7v9.7h-1.6v-1h0
		c-0.4,0.8-1.2,1.2-2.1,1.2C402.5,136.7,401.3,135.3,401.3,133z M406.5,133c0-1.4-0.6-2.4-1.8-2.4c-1.1,0-1.7,1-1.7,2.4
		c0,1.4,0.6,2.3,1.7,2.3C405.9,135.4,406.5,134.4,406.5,133z"/>
	<path class="st1" d="M409.6,126.8h1.7v1.6h-1.7V126.8z M409.6,129.6h1.7v6.9h-1.7V129.6z"/>
	<path class="st1" d="M414.3,130.6L414.3,130.6c0.5-0.8,1.2-1.2,2.2-1.2c1.5,0,2.4,0.9,2.4,2.4v4.7h-1.7v-4.4c0-0.8-0.5-1.3-1.3-1.3
		c-0.9,0-1.6,0.7-1.6,1.7v4.1h-1.7v-6.9h1.6V130.6z"/>
	<path class="st1" d="M420.3,136.9h1.6c0.1,0.6,0.7,0.9,1.6,0.9c1.1,0,1.7-0.5,1.7-1.5V136c0-0.4,0-0.7,0-1h0c-0.4,0.7-1,1.1-2,1.1
		c-1.7,0-3-1.3-3-3.3c0-2.1,1.3-3.4,2.9-3.4c1,0,1.6,0.3,2.1,1.1h0v-0.9h1.6v6.5c0,1-0.3,1.7-0.9,2.2c-0.6,0.5-1.4,0.7-2.4,0.7
		C421.6,138.9,420.4,138.2,420.3,136.9z M425.1,132.7c0-1.2-0.6-2.1-1.8-2.1c-1.1,0-1.7,0.8-1.7,2.1s0.6,2.1,1.7,2.1
		C424.7,134.9,425.1,133.9,425.1,132.7z"/>
	<path class="st1" d="M428.2,137.9c0.5-0.1,0.8-0.5,0.8-1.3v-0.1h-0.8v-1.8h1.8v1.8c0,1.4-0.7,2.1-1.8,2.2V137.9z"/>
	<path class="st1" d="M432.5,128.4c0,1.4-0.8,1.9-1.7,2v-0.7c0.4-0.1,0.8-0.5,0.8-1.2v-0.1h-0.7v-1.7h1.6V128.4z M435,128.4
		c0,1.4-0.8,1.9-1.7,2v-0.7c0.4-0.1,0.8-0.5,0.8-1.2v-0.1h-0.7v-1.7h1.6V128.4z"/>
	<path class="st1" d="M439.2,133.6v-0.5h1.7v0.4c0,1.3,0.5,1.7,1.4,1.7c0.8,0,1.3-0.5,1.3-1.4v-6.9h1.8v7c0,0.8-0.2,1.4-0.6,1.9
		c-0.5,0.6-1.3,0.9-2.4,0.9C440.3,136.7,439.2,135.6,439.2,133.6z"/>
	<path class="st1" d="M446.8,134.7h1.8v1.8h-1.8V134.7z"/>
	<path class="st1" d="M453.5,126.8h1.8v2.2c0,0.8,0,1.5-0.1,2.1l4.1-4.3h2.2l-3.8,3.9l4.1,5.8h-2.1l-3.2-4.6l-1.1,1.2v3.5h-1.8
		V126.8z"/>
	<path class="st1" d="M466.7,135.6L466.7,135.6c-0.5,0.6-1.1,1.1-2.2,1.1c-1.4,0-2.4-0.7-2.4-2.1c0-1.6,1.2-2,2.8-2.1
		c1.1-0.1,1.7-0.3,1.7-0.9c0-0.6-0.4-1-1.2-1c-0.9,0-1.4,0.4-1.4,1.1h-1.6c0.1-1.2,1-2.3,3-2.3c0.8,0,1.4,0.1,1.9,0.4
		c0.6,0.4,1,1.1,1,2v3.7c0,0.6,0.1,0.9,0.3,1v0.1H467C466.8,136.3,466.7,136.1,466.7,135.6z M466.7,134v-1c-0.3,0.2-0.8,0.4-1.4,0.5
		c-1,0.2-1.6,0.4-1.6,1.2c0,0.7,0.6,1,1.2,1C466.1,135.5,466.7,134.8,466.7,134z"/>
	<path class="st1" d="M471.4,130.8L471.4,130.8c0.5-0.9,1.1-1.4,2-1.4c0.2,0,0.3,0,0.4,0.1v1.5h-0.1c-0.2,0-0.3-0.1-0.5-0.1
		c-1.1,0-1.9,0.7-1.9,2.1v3.5h-1.7v-6.9h1.6V130.8z"/>
	<path class="st1" d="M474.8,126.8h1.7v9.7h-1.7V126.8z"/>
	<path class="st1" d="M480.9,133.6v-0.5h1.7v0.4c0,1.3,0.5,1.7,1.4,1.7c0.8,0,1.3-0.5,1.3-1.4v-6.9h1.8v7c0,0.8-0.2,1.4-0.6,1.9
		c-0.5,0.6-1.3,0.9-2.4,0.9C482,136.7,480.9,135.6,480.9,133.6z"/>
	<path class="st1" d="M493.1,136.5v-1h0c-0.5,0.8-1.1,1.2-2.1,1.2c-1.5,0-2.4-0.9-2.4-2.4v-4.7h1.7v4.4c0,0.8,0.5,1.3,1.3,1.3
		c0.9,0,1.5-0.7,1.5-1.7v-4.1h1.6v6.9H493.1z"/>
	<path class="st1" d="M495.8,134.4h1.6c0.1,0.8,0.8,1.2,1.7,1.2c0.9,0,1.3-0.4,1.3-0.9c0-0.7-0.7-0.8-1.8-1
		c-1.3-0.3-2.5-0.6-2.5-2.1c0-1.3,1.1-2.1,2.7-2.1c1.8,0,2.8,0.8,2.9,2h-1.6c-0.1-0.6-0.6-0.9-1.4-0.9c-0.8,0-1.2,0.4-1.2,0.8
		c0,0.6,0.7,0.7,1.8,0.9c1.3,0.2,2.6,0.6,2.6,2.2c0,1.5-1.2,2.2-3,2.2C497.1,136.7,495.9,135.8,495.8,134.4z"/>
	<path class="st1" d="M502.6,129.6h1.1v-2.2h1.6v2.2h1.4v1.1h-1.4v3.9c0,0.5,0.3,0.6,0.7,0.6c0.2,0,0.4,0,0.5-0.1h0.1v1.3
		c-0.3,0.1-0.6,0.1-1.1,0.1c-1.1,0-1.9-0.4-1.9-1.6v-4.3h-1.1V129.6z"/>
	<path class="st1" d="M507.7,126.8h1.7v1.6h-1.7V126.8z M507.7,129.6h1.7v6.9h-1.7V129.6z"/>
	<path class="st1" d="M512.4,130.6L512.4,130.6c0.5-0.8,1.2-1.2,2.2-1.2c1.5,0,2.4,0.9,2.4,2.4v4.7h-1.7v-4.4c0-0.8-0.5-1.3-1.3-1.3
		c-0.9,0-1.6,0.7-1.6,1.7v4.1h-1.7v-6.9h1.6V130.6z"/>
	<path class="st1" d="M287.5,146.1c0-1.4,0.8-1.9,1.7-2v0.7c-0.4,0.1-0.8,0.5-0.8,1.2v0.1h0.8v1.7h-1.6V146.1z M290,146.1
		c0-1.4,0.8-1.9,1.6-2v0.7c-0.4,0.1-0.8,0.5-0.8,1.2v0.1h0.7v1.7H290V146.1z"/>
	<path class="st1" d="M293.2,144.1h4.6c1.8,0,3.1,1,3.1,2.7c0,1.2-0.5,2-1.8,2.4v0c1,0.3,1.4,0.9,1.5,2.1c0.2,1.4,0.2,2.2,0.4,2.3
		v0.1h-1.8c-0.2-0.2-0.2-0.9-0.4-2.2c-0.1-1.1-0.6-1.6-1.8-1.6H295v3.8h-1.8V144.1z M295,148.5h2.3c1.1,0,1.7-0.6,1.7-1.5
		c0-1-0.5-1.5-1.7-1.5H295V148.5z"/>
	<path class="st1" d="M301.9,150.3c0-2.1,1.4-3.7,3.4-3.7c1,0,1.8,0.4,2.4,1c0.7,0.7,1,1.8,1,3.1h-5.2c0.1,1.2,0.8,2,1.9,2
		c0.8,0,1.3-0.3,1.5-0.9h1.6c-0.3,1.2-1.5,2.2-3.2,2.2C303.2,154,301.9,152.4,301.9,150.3z M303.5,149.7h3.5
		c-0.1-1.1-0.7-1.8-1.7-1.8C304.3,147.8,303.7,148.6,303.5,149.7z"/>
	<path class="st1" d="M309.9,144.1h1.7v9.7h-1.7V144.1z"/>
	<path class="st1" d="M313.1,144.1h1.7v1.6h-1.7V144.1z M313.1,146.8h1.7v6.9h-1.7V146.8z"/>
	<path class="st1" d="M320.5,152.9L320.5,152.9c-0.5,0.6-1.1,1.1-2.2,1.1c-1.4,0-2.4-0.7-2.4-2.1c0-1.6,1.2-2,2.8-2.1
		c1.1-0.1,1.7-0.3,1.7-0.9c0-0.6-0.4-1-1.2-1c-0.9,0-1.4,0.4-1.4,1.1h-1.6c0.1-1.2,1-2.3,3-2.3c0.8,0,1.4,0.1,1.9,0.4
		c0.7,0.4,1,1.1,1,2v3.7c0,0.6,0.1,0.9,0.3,1v0.1h-1.6C320.6,153.6,320.5,153.3,320.5,152.9z M320.5,151.3v-1
		c-0.3,0.2-0.8,0.4-1.4,0.5c-1,0.2-1.6,0.4-1.6,1.2c0,0.7,0.6,1,1.2,1C319.9,152.8,320.5,152,320.5,151.3z"/>
	<path class="st1" d="M325.2,152.8L325.2,152.8l0,1h-1.6v-9.7h1.7v2.3c0,0.5,0,1.1-0.1,1.5h0c0.5-0.7,1.2-1.2,2.1-1.2
		c1.8,0,3,1.5,3,3.7c0,2.3-1.1,3.7-3,3.7C326.4,154,325.6,153.6,325.2,152.8z M328.7,150.3c0-1.4-0.6-2.4-1.7-2.4
		c-1.3,0-1.8,1.1-1.8,2.4c0,1.4,0.6,2.3,1.8,2.3C328.1,152.6,328.7,151.7,328.7,150.3z"/>
	<path class="st1" d="M331.5,144.1h1.7v1.6h-1.7V144.1z M331.5,146.8h1.7v6.9h-1.7V146.8z"/>
	<path class="st1" d="M334.7,144.1h1.7v9.7h-1.7V144.1z"/>
	<path class="st1" d="M337.8,144.1h1.7v1.6h-1.7V144.1z M337.9,146.8h1.7v6.9h-1.7V146.8z"/>
	<path class="st1" d="M340.4,146.8h1.1v-2.2h1.6v2.2h1.4v1.1h-1.4v3.9c0,0.5,0.3,0.6,0.7,0.6c0.2,0,0.4,0,0.5-0.1h0.1v1.3
		c-0.3,0.1-0.7,0.1-1.1,0.1c-1.1,0-1.9-0.4-1.9-1.6V148h-1.1V146.8z"/>
	<path class="st1" d="M345.8,156.1v-1.3h0.1c0.1,0,0.5,0.1,0.7,0.1c0.6,0,0.9-0.2,1-0.8c0-0.1,0.1-0.8-0.1-1.2l-2.4-6h1.8l1.1,3.2
		c0.3,0.9,0.6,2.2,0.6,2.2h0c0,0,0.3-1.3,0.6-2.2l1.1-3.2h1.7l-2.7,7.3c-0.6,1.5-1.2,2-2.3,2C346.8,156.1,345.9,156.1,345.8,156.1z"
		/>
	<path class="st1" d="M352.7,147.8h1.8v1.8h-1.8V147.8z M352.7,152h1.8v1.8h-1.8V152z"/>
	<path class="st1" d="M359.3,144.1h1.8v3.9h4.3v-3.9h1.8v9.7h-1.8v-4.3h-4.3v4.3h-1.8V144.1z"/>
	<path class="st1" d="M368.6,150.3c0-2.1,1.4-3.7,3.5-3.7s3.5,1.6,3.5,3.7c0,2.1-1.4,3.7-3.5,3.7S368.6,152.4,368.6,150.3z
		 M374,150.3c0-1.4-0.6-2.4-1.9-2.4c-1.2,0-1.9,1-1.9,2.4c0,1.4,0.6,2.4,1.9,2.4C373.3,152.7,374,151.7,374,150.3z"/>
	<path class="st1" d="M375.9,146.8h1.7l0.9,3.2c0.2,0.8,0.4,2.1,0.4,2.1h0c0,0,0.2-1.3,0.5-2.1l0.9-3.2h1.5l0.9,3.2
		c0.2,0.8,0.4,2.1,0.4,2.1h0c0,0,0.2-1.3,0.4-2.1l0.9-3.2h1.7l-2.2,6.9h-1.6l-0.9-3.3c-0.2-0.7-0.4-2-0.4-2h0c0,0-0.3,1.3-0.4,2
		l-0.9,3.3h-1.6L375.9,146.8z"/>
	<path class="st1" d="M389.9,146.8h1.1v-2.2h1.6v2.2h1.4v1.1h-1.4v3.9c0,0.5,0.3,0.6,0.7,0.6c0.2,0,0.4,0,0.5-0.1h0.1v1.3
		c-0.3,0.1-0.7,0.1-1.1,0.1c-1.1,0-1.9-0.4-1.9-1.6V148h-1.1V146.8z"/>
	<path class="st1" d="M394.5,150.3c0-2.1,1.4-3.7,3.5-3.7s3.5,1.6,3.5,3.7c0,2.1-1.4,3.7-3.5,3.7S394.5,152.4,394.5,150.3z
		 M399.9,150.3c0-1.4-0.6-2.4-1.9-2.4c-1.2,0-1.9,1-1.9,2.4c0,1.4,0.6,2.4,1.9,2.4C399.2,152.7,399.9,151.7,399.9,150.3z"/>
	<path class="st1" d="M405.8,149c0-2.9,1.8-5,4.7-5c1.1,0,2,0.3,2.7,0.8c0.8,0.6,1.2,1.5,1.4,2.5h-1.8c-0.2-1-1-1.8-2.3-1.8
		c-1.8,0-2.8,1.5-2.8,3.5c0,2.1,1.1,3.5,2.8,3.5c1.4,0,2.2-1,2.3-2.1h1.8c0,1-0.5,1.9-1.2,2.6c-0.7,0.7-1.7,1.1-3,1.1
		C407.6,154,405.8,151.9,405.8,149z"/>
	<path class="st1" d="M415.5,150.3c0-2.1,1.4-3.7,3.5-3.7s3.5,1.6,3.5,3.7c0,2.1-1.4,3.7-3.5,3.7S415.5,152.4,415.5,150.3z
		 M420.9,150.3c0-1.4-0.6-2.4-1.9-2.4c-1.2,0-1.9,1-1.9,2.4c0,1.4,0.6,2.4,1.9,2.4C420.2,152.7,420.9,151.7,420.9,150.3z"/>
	<path class="st1" d="M423.7,146.8h1.6v1.1h0c0.4-0.8,1.1-1.2,2.1-1.2c0.9,0,1.5,0.4,1.8,1.3h0c0.5-0.9,1.3-1.3,2.2-1.3
		c1.4,0,2.2,0.9,2.2,2.4v4.7h-1.7v-4.5c0-0.8-0.5-1.3-1.1-1.3c-0.8,0-1.4,0.7-1.4,1.7v4.1h-1.7v-4.5c0-0.8-0.4-1.3-1.1-1.3
		c-0.8,0-1.4,0.7-1.4,1.7v4.1h-1.7V146.8z"/>
	<path class="st1" d="M435.2,146.8h1.6v1.1h0c0.4-0.8,1.1-1.2,2.1-1.2c0.9,0,1.5,0.4,1.8,1.3h0c0.5-0.9,1.3-1.3,2.2-1.3
		c1.4,0,2.2,0.9,2.2,2.4v4.7h-1.7v-4.5c0-0.8-0.5-1.3-1.1-1.3c-0.8,0-1.4,0.7-1.4,1.7v4.1h-1.7v-4.5c0-0.8-0.4-1.3-1.1-1.3
		c-0.8,0-1.4,0.7-1.4,1.7v4.1h-1.7V146.8z"/>
	<path class="st1" d="M451,152.9L451,152.9c-0.5,0.6-1.1,1.1-2.2,1.1c-1.4,0-2.4-0.7-2.4-2.1c0-1.6,1.2-2,2.8-2.1
		c1.1-0.1,1.7-0.3,1.7-0.9c0-0.6-0.4-1-1.2-1c-0.9,0-1.4,0.4-1.4,1.1h-1.6c0.1-1.2,1-2.3,3-2.3c0.8,0,1.4,0.1,1.9,0.4
		c0.6,0.4,1,1.1,1,2v3.7c0,0.6,0.1,0.9,0.3,1v0.1h-1.6C451.1,153.6,451,153.3,451,152.9z M451,151.3v-1c-0.3,0.2-0.8,0.4-1.4,0.5
		c-1,0.2-1.6,0.4-1.6,1.2c0,0.7,0.6,1,1.2,1C450.4,152.8,451,152,451,151.3z"/>
	<path class="st1" d="M455.7,147.8L455.7,147.8c0.5-0.8,1.2-1.2,2.2-1.2c1.5,0,2.4,0.9,2.4,2.4v4.7h-1.7v-4.4c0-0.8-0.5-1.3-1.3-1.3
		c-0.9,0-1.6,0.7-1.6,1.7v4.1h-1.7v-6.9h1.6V147.8z"/>
	<path class="st1" d="M461.4,150.3c0-2.2,1.2-3.7,3-3.7c1,0,1.7,0.5,2.1,1.2h0c0-0.4-0.1-0.9-0.1-1.4v-2.3h1.7v9.7h-1.6v-1h0
		c-0.4,0.8-1.2,1.2-2.1,1.2C462.6,154,461.4,152.6,461.4,150.3z M466.6,150.3c0-1.4-0.6-2.4-1.8-2.4c-1.1,0-1.7,1-1.7,2.4
		c0,1.4,0.6,2.3,1.7,2.3C466,152.6,466.6,151.7,466.6,150.3z"/>
	<path class="st1" d="M472.6,150.7h1.8c0.1,1.2,0.9,1.9,2.4,1.9c1.1,0,1.9-0.5,1.9-1.4c0-1-1-1.3-2.5-1.6c-1.8-0.4-3.3-0.9-3.3-2.8
		c0-1.8,1.5-2.8,3.6-2.8c2.2,0,3.5,1.1,3.7,2.9h-1.8c-0.1-0.9-0.9-1.5-2-1.5c-1.1,0-1.8,0.5-1.8,1.2c0,0.9,0.9,1.1,2.4,1.4
		c1.8,0.4,3.4,0.9,3.4,3c0,1.9-1.6,3-3.8,3C474.2,154,472.7,152.7,472.6,150.7z"/>
	<path class="st1" d="M486.4,153.8v-1h0c-0.5,0.8-1.1,1.2-2.1,1.2c-1.5,0-2.4-0.9-2.4-2.4v-4.7h1.7v4.4c0,0.8,0.5,1.3,1.3,1.3
		c0.9,0,1.5-0.7,1.5-1.7v-4.1h1.6v6.9H486.4z"/>
	<path class="st1" d="M489.1,150.3c0-2.1,1.4-3.7,3.5-3.7c1.8,0,2.9,1,3.1,2.5h-1.6c-0.2-0.8-0.7-1.2-1.5-1.2c-1.2,0-1.8,1-1.8,2.4
		c0,1.4,0.6,2.4,1.8,2.4c0.9,0,1.5-0.5,1.5-1.4h1.6c-0.1,1.6-1.3,2.7-3.1,2.7C490.5,154,489.1,152.4,489.1,150.3z"/>
	<path class="st1" d="M496.5,150.3c0-2.1,1.4-3.7,3.5-3.7c1.8,0,2.9,1,3.1,2.5h-1.6c-0.2-0.8-0.7-1.2-1.5-1.2c-1.2,0-1.8,1-1.8,2.4
		c0,1.4,0.6,2.4,1.8,2.4c0.9,0,1.5-0.5,1.5-1.4h1.6c-0.1,1.6-1.3,2.7-3.1,2.7C497.9,154,496.5,152.4,496.5,150.3z"/>
	<path class="st1" d="M503.9,150.3c0-2.1,1.4-3.7,3.4-3.7c1,0,1.8,0.4,2.4,1c0.7,0.7,1,1.8,1,3.1h-5.2c0.1,1.2,0.8,2,1.9,2
		c0.8,0,1.3-0.3,1.5-0.9h1.6c-0.3,1.2-1.5,2.2-3.2,2.2C505.2,154,503.9,152.4,503.9,150.3z M505.6,149.7h3.5
		c-0.1-1.1-0.7-1.8-1.7-1.8C506.3,147.8,505.7,148.6,505.6,149.7z"/>
	<path class="st1" d="M511.4,151.6h1.6c0.1,0.8,0.8,1.2,1.7,1.2c0.9,0,1.3-0.4,1.3-0.9c0-0.7-0.7-0.8-1.8-1
		c-1.3-0.3-2.5-0.6-2.5-2.1c0-1.3,1.1-2.1,2.7-2.1c1.8,0,2.8,0.8,2.9,2h-1.6c-0.1-0.6-0.6-0.9-1.4-0.9c-0.8,0-1.2,0.4-1.2,0.8
		c0,0.6,0.7,0.7,1.8,0.9c1.3,0.2,2.6,0.6,2.6,2.2c0,1.5-1.2,2.2-3,2.2C512.7,154,511.5,153,511.4,151.6z"/>
	<path class="st1" d="M518.4,151.6h1.6c0.1,0.8,0.8,1.2,1.7,1.2c0.9,0,1.3-0.4,1.3-0.9c0-0.7-0.7-0.8-1.8-1
		c-1.3-0.3-2.5-0.6-2.5-2.1c0-1.3,1.1-2.1,2.7-2.1c1.8,0,2.8,0.8,2.9,2h-1.6c-0.1-0.6-0.6-0.9-1.4-0.9c-0.8,0-1.2,0.4-1.2,0.8
		c0,0.6,0.7,0.7,1.8,0.9c1.3,0.2,2.6,0.6,2.6,2.2c0,1.5-1.2,2.2-3,2.2C519.6,154,518.5,153,518.4,151.6z"/>
	<path class="st1" d="M525.8,155.2c0.5-0.1,0.8-0.5,0.8-1.3v-0.1h-0.8V152h1.8v1.8c0,1.4-0.7,2.1-1.8,2.2V155.2z"/>
	<path class="st1" d="M530.1,145.7c0,1.4-0.8,1.9-1.7,2V147c0.4-0.1,0.8-0.5,0.8-1.2v-0.1h-0.7v-1.7h1.6V145.7z M532.5,145.7
		c0,1.4-0.8,1.9-1.7,2V147c0.4-0.1,0.8-0.5,0.8-1.2v-0.1h-0.7v-1.7h1.6V145.7z"/>
	<path class="st1" d="M536.6,144.1h1.8l1.1,4.7c0.3,1.2,0.5,3.2,0.5,3.2h0c0,0,0.3-2.1,0.6-3.2l1.2-4.6h1.8l1.2,4.6
		c0.3,1.2,0.6,3.2,0.6,3.2h0c0,0,0.3-2,0.6-3.2l1.1-4.7h1.8l-2.7,9.7h-1.8l-1.2-5.1c-0.3-1-0.5-2.9-0.5-2.9h0c0,0-0.3,1.9-0.5,2.9
		l-1.3,5.1h-1.8L536.6,144.1z"/>
	<path class="st1" d="M549.9,144.1h1.7v1.6h-1.7V144.1z M549.9,146.8h1.7v6.9h-1.7V146.8z"/>
	<path class="st1" d="M553.1,144.1h1.7v9.7h-1.7V144.1z"/>
	<path class="st1" d="M556.3,144.1h1.7v9.7h-1.7V144.1z"/>
	<path class="st1" d="M559.5,144.1h1.7v1.6h-1.7V144.1z M559.5,146.8h1.7v6.9h-1.7V146.8z"/>
	<path class="st1" d="M566.9,152.9L566.9,152.9c-0.5,0.6-1.1,1.1-2.2,1.1c-1.4,0-2.4-0.7-2.4-2.1c0-1.6,1.2-2,2.8-2.1
		c1.1-0.1,1.7-0.3,1.7-0.9c0-0.6-0.4-1-1.2-1c-0.9,0-1.4,0.4-1.4,1.1h-1.6c0.1-1.2,1-2.3,3-2.3c0.8,0,1.4,0.1,1.9,0.4
		c0.6,0.4,1,1.1,1,2v3.7c0,0.6,0.1,0.9,0.3,1v0.1h-1.6C567,153.6,566.9,153.3,566.9,152.9z M566.9,151.3v-1
		c-0.3,0.2-0.8,0.4-1.4,0.5c-1,0.2-1.6,0.4-1.6,1.2c0,0.7,0.6,1,1.2,1C566.3,152.8,566.9,152,566.9,151.3z"/>
	<path class="st1" d="M570,146.8h1.6v1.1h0c0.4-0.8,1.1-1.2,2.1-1.2c0.9,0,1.5,0.4,1.8,1.3h0c0.5-0.9,1.3-1.3,2.2-1.3
		c1.4,0,2.2,0.9,2.2,2.4v4.7h-1.7v-4.5c0-0.8-0.5-1.3-1.1-1.3c-0.8,0-1.4,0.7-1.4,1.7v4.1h-1.7v-4.5c0-0.8-0.4-1.3-1.1-1.3
		c-0.8,0-1.4,0.7-1.4,1.7v4.1H570V146.8z"/>
	<path class="st1" d="M592,152.4L592,152.4c-0.7,1.1-1.7,1.5-2.9,1.5c-1.4,0-2.5-0.5-3.3-1.4c-0.8-0.9-1.3-2.2-1.3-3.6
		c0-1.6,0.5-2.9,1.5-3.8c0.8-0.8,1.8-1.2,3.2-1.2c2.4,0,3.7,1.3,4.1,3.1h-1.8c-0.3-0.9-1-1.6-2.2-1.6c-2,0-2.9,1.5-2.9,3.5
		c0,2.1,1.1,3.5,2.9,3.5c1.6,0,2.5-1.1,2.5-2.3V150h-2.3v-1.4h4.1v5.1h-1.2L592,152.4z"/>
	<path class="st1" d="M595.1,152h1.8v1.8h-1.8V152z"/>
	<path class="st1" d="M601.7,144.1h3.8c2.8,0,4.4,2,4.4,4.9c0,2.9-1.6,4.8-4.5,4.8h-3.7V144.1z M605.3,152.2c1.9,0,2.8-1.2,2.8-3.2
		c0-2-0.8-3.4-2.7-3.4h-1.8v6.6H605.3z"/>
	<path class="st1" d="M610.9,150.3c0-2.1,1.4-3.7,3.4-3.7c1,0,1.8,0.4,2.4,1c0.7,0.7,1,1.8,1,3.1h-5.2c0.1,1.2,0.8,2,1.9,2
		c0.8,0,1.3-0.3,1.5-0.9h1.6c-0.3,1.2-1.5,2.2-3.2,2.2C612.2,154,610.9,152.4,610.9,150.3z M612.5,149.7h3.5
		c-0.1-1.1-0.7-1.8-1.7-1.8C613.2,147.8,612.7,148.6,612.5,149.7z"/>
	<path class="st1" d="M620.5,147.8L620.5,147.8c0.5-0.8,1.2-1.2,2.2-1.2c1.5,0,2.4,0.9,2.4,2.4v4.7h-1.7v-4.4c0-0.8-0.5-1.3-1.3-1.3
		c-0.9,0-1.6,0.7-1.6,1.7v4.1h-1.7v-6.9h1.6V147.8z"/>
	<path class="st1" d="M628.2,147.8L628.2,147.8c0.5-0.7,1.2-1.2,2.2-1.2c1.5,0,2.4,0.9,2.4,2.4v4.7h-1.7v-4.4c0-0.8-0.5-1.3-1.3-1.3
		c-0.9,0-1.6,0.7-1.6,1.7v4.1h-1.7v-9.7h1.7v2.6C628.2,146.9,628.2,147.4,628.2,147.8z"/>
	<path class="st1" d="M638.4,152.9L638.4,152.9c-0.5,0.6-1.1,1.1-2.2,1.1c-1.4,0-2.4-0.7-2.4-2.1c0-1.6,1.2-2,2.8-2.1
		c1.1-0.1,1.7-0.3,1.7-0.9c0-0.6-0.4-1-1.2-1c-0.9,0-1.4,0.4-1.4,1.1h-1.6c0.1-1.2,1-2.3,3-2.3c0.8,0,1.4,0.1,1.9,0.4
		c0.6,0.4,1,1.1,1,2v3.7c0,0.6,0.1,0.9,0.3,1v0.1h-1.6C638.6,153.6,638.5,153.3,638.4,152.9z M638.5,151.3v-1
		c-0.3,0.2-0.8,0.4-1.4,0.5c-1,0.2-1.6,0.4-1.6,1.2c0,0.7,0.6,1,1.2,1C637.9,152.8,638.5,152,638.5,151.3z"/>
	<path class="st1" d="M643.1,148.1L643.1,148.1c0.5-0.9,1.1-1.4,2-1.4c0.2,0,0.3,0,0.4,0.1v1.5h-0.1c-0.2,0-0.3-0.1-0.5-0.1
		c-1.1,0-1.9,0.7-1.9,2.1v3.5h-1.7v-6.9h1.6V148.1z"/>
	<path class="st1" d="M646.2,150.3c0-2.2,1.2-3.7,3-3.7c1,0,1.7,0.5,2.1,1.2h0c0-0.4-0.1-0.9-0.1-1.4v-2.3h1.7v9.7h-1.6v-1h0
		c-0.4,0.8-1.2,1.2-2.1,1.2C647.4,154,646.2,152.6,646.2,150.3z M651.4,150.3c0-1.4-0.6-2.4-1.8-2.4c-1.1,0-1.7,1-1.7,2.4
		c0,1.4,0.6,2.3,1.7,2.3C650.8,152.6,651.4,151.7,651.4,150.3z"/>
</g>
<path class="st0" d="M25.4,214H8l5-7h12.3c3.2,0,5.8-2.6,5.8-5.8v-10h7v10C38.2,208.3,32.5,214,25.4,214z"/>
<path class="st0" d="M38.2,237.8h-7v-18c0-7.1,5.8-12.8,12.8-12.8h9l-4,7h-5c-3.2,0-5.8,2.6-5.8,5.8V237.8z"/>
</svg>
