<?xml version="1.0" encoding="utf-8"?>
<!-- Generator: Adobe Illustrator 20.0.0, SVG Export Plug-In . SVG Version: 6.00 Build 0)  -->
<!DOCTYPE svg PUBLIC "-//W3C//DTD SVG 1.1//EN" "http://www.w3.org/Graphics/SVG/1.1/DTD/svg11.dtd">
<svg version="1.1" id="Layer_1" xmlns="http://www.w3.org/2000/svg" xmlns:xlink="http://www.w3.org/1999/xlink" x="0px" y="0px"
	 viewBox="0 0 791.1 60.4" style="enable-background:new 0 0 791.1 60.4;" xml:space="preserve">
<style type="text/css">
	.st0{fill:#FFFFFF;}
</style>
<g>
	<g>
		<g>
			<path class="st0" d="M267.2,1.8h37.4V7h-15.7v42H283V7h-15.7L267.2,1.8L267.2,1.8z"/>
			<path class="st0" d="M299.5,32c0-9.9,6.5-18,16.2-18c10.2,0,15.7,7.9,15.7,19.2H305c0.4,6.9,4.2,12.2,11,12.2c5,0,8.3-2.4,9.4-7
				h5.2c-1.6,7.3-6.9,11.5-14.7,11.5C305.6,49.9,299.5,41.9,299.5,32z M305.2,29.2h20.5c-0.3-6.8-3.8-11-10-11
				C309.4,18.2,306,23,305.2,29.2z"/>
			<path class="st0" d="M333.9,32c0-9.9,6.3-18,16.5-18c8.1,0,13.4,4.6,14.6,11.9h-5.4c-0.8-4.6-4-7.5-9.2-7.5c-7.3,0-11,6-11,13.5
				s3.8,13.5,11,13.5c5.5,0,8.9-3.2,9.3-8.5h5.3c-0.7,8.2-6.1,12.9-14.6,12.9C340.3,49.9,333.9,41.9,333.9,32z"/>
			<path class="st0" d="M374.7,19.3h0.1c2.4-3.2,5.9-5.3,10.8-5.3c7.1,0,11.5,3.9,11.5,11v24h-5.4V25.5c0-4.4-2.9-6.9-7.7-6.9
				c-5.4,0-9.4,3.8-9.4,9.4v21h-5.4V1.8h5.4v17.5H374.7z"/>
			<path class="st0" d="M408.5,19.3h0.1c2.4-3.2,5.9-5.3,10.8-5.3c7.1,0,11.5,3.9,11.5,11v24h-5.4V25.5c0-4.4-2.9-6.9-7.7-6.9
				c-5.4,0-9.4,3.8-9.4,9.4v21H403V14.8h5.4v4.5H408.5z"/>
			<path class="st0" d="M435.2,32c0-9.9,6.3-18,16.5-18s16.4,8.1,16.4,18s-6.2,18-16.4,18C441.5,49.9,435.2,41.9,435.2,32z
				 M462.7,32c0-7.5-3.7-13.5-11-13.5s-11,6-11,13.5s3.8,13.5,11,13.5C459,45.4,462.7,39.5,462.7,32z"/>
			<path class="st0" d="M472.7,1.8h5.4V49h-5.4V1.8z"/>
			<path class="st0" d="M482.5,32c0-9.9,6.3-18,16.5-18s16.4,8.1,16.4,18s-6.2,18-16.4,18C488.8,49.9,482.5,41.9,482.5,32z M510,32
				c0-7.5-3.7-13.5-11-13.5s-11,6-11,13.5s3.8,13.5,11,13.5C506.3,45.4,510,39.5,510,32z"/>
			<path class="st0" d="M519.1,50.9h5c0.5,3.8,4.1,5.2,9.4,5.2c6.3,0,9.8-2.8,9.8-8.8v-4.8H543c-2.5,3.2-5.2,5.3-10.1,5.3
				c-8.9,0-14.9-7.1-14.9-16.9c0-10.6,6.7-16.8,14.6-16.8c5,0,8.1,1.9,10.4,5.2h0.1v-4.4h5.4v32.3c0,9-5.9,13.2-15,13.2
				C524.7,60.4,519.7,56.8,519.1,50.9z M543.6,30.6c0-7.5-3.2-12.1-10.4-12.1c-6.4,0-9.6,5-9.6,12.4c0,7.5,3.4,12.4,9.7,12.4
				C541.1,43.3,543.6,37.8,543.6,30.6z"/>
			<path class="st0" d="M554.2,59.6v-4.8h0.3c0.7,0.4,1.8,0.7,3.6,0.7c2.2,0,3.8-0.9,5.1-4.2l1.3-3.4l-13.3-33.2h5.8l8.1,21.3
				c1.1,2.8,2.3,6.7,2.3,6.7h0.1c0,0,1.2-3.8,2.2-6.7l7.8-21.3h5.7l-14.6,37.1c-2.8,7.1-5.4,8.5-9.6,8.5
				C557,60.3,555.7,60.2,554.2,59.6z"/>
			<path class="st0" d="M598.3,1.8h22.1c8.3,0,13.9,5.2,13.9,12.9c0,5.7-2.5,9.8-8.2,11.7v0.2c4.8,1.7,6.3,5,6.8,12
				c0.5,7.6,1.3,9.5,2.2,10.1V49h-6.4c-1-0.9-1.2-2.6-1.7-10.6c-0.5-6.9-3.2-9.4-9.6-9.4h-13.1v19.9h-5.9L598.3,1.8L598.3,1.8z
				 M604.2,24.2h14c6.6,0,9.9-3.3,9.9-8.7c0-5.7-2.6-8.7-9.6-8.7h-14.3L604.2,24.2L604.2,24.2z"/>
			<path class="st0" d="M637.8,32c0-9.9,6.5-18,16.2-18c10.2,0,15.7,7.9,15.7,19.2h-26.4c0.4,6.9,4.2,12.2,11,12.2
				c5,0,8.3-2.4,9.4-7h5.2c-1.6,7.3-6.9,11.5-14.7,11.5C643.9,49.9,637.8,41.9,637.8,32z M643.4,29.2H664c-0.3-6.8-3.8-11-10-11
				C647.7,18.2,644.2,23,643.4,29.2z"/>
			<path class="st0" d="M669.2,14.9h5.7l7.1,21.7c1,3,2.2,7.2,2.2,7.2h0.1c0,0,1.3-4.2,2.2-7.2l7.2-21.7h5.5l-12.3,34.2H681
				L669.2,14.9z"/>
			<path class="st0" d="M702.1,1.8h5.4v6.6h-5.4V1.8z M702.1,14.9h5.4v34.2h-5.4V14.9z"/>
			<path class="st0" d="M711.8,32c0-9.9,6.5-18,16.2-18c10.2,0,15.7,7.9,15.7,19.2h-26.4c0.4,6.9,4.2,12.2,11,12.2
				c5,0,8.3-2.4,9.4-7h5.2c-1.6,7.3-6.9,11.5-14.7,11.5C717.9,49.9,711.8,41.9,711.8,32z M717.4,29.2H738c-0.3-6.8-3.8-11-10-11
				C721.6,18.2,718.2,23,717.4,29.2z"/>
			<path class="st0" d="M743.5,14.9h5.7l6,21.1c0.8,2.8,1.8,7.3,1.8,7.3h0.1c0,0,1-4.5,1.7-7.2l5.7-21.2h5.6l5.5,21.2
				c0.7,2.8,1.7,7.2,1.7,7.2h0.1c0,0,1.1-4.5,1.9-7.3l6.3-21.1h5.5l-11.2,34.2h-5.5l-5.7-20.7c-0.8-2.8-1.7-7.1-1.7-7.1h-0.1
				c0,0-0.9,4.3-1.7,7.1l-5.7,20.7H754L743.5,14.9z"/>
		</g>
		<g>
			<path class="st0" d="M267.2,1.8h37.4V7h-15.7v42H283V7h-15.7L267.2,1.8L267.2,1.8z"/>
			<path class="st0" d="M299.5,32c0-9.9,6.5-18,16.2-18c10.2,0,15.7,7.9,15.7,19.2H305c0.4,6.9,4.2,12.2,11,12.2c5,0,8.3-2.4,9.4-7
				h5.2c-1.6,7.3-6.9,11.5-14.7,11.5C305.6,49.9,299.5,41.9,299.5,32z M305.2,29.2h20.5c-0.3-6.8-3.8-11-10-11
				C309.4,18.2,306,23,305.2,29.2z"/>
			<path class="st0" d="M333.9,32c0-9.9,6.3-18,16.5-18c8.1,0,13.4,4.6,14.6,11.9h-5.4c-0.8-4.6-4-7.5-9.2-7.5c-7.3,0-11,6-11,13.5
				s3.8,13.5,11,13.5c5.5,0,8.9-3.2,9.3-8.5h5.3c-0.7,8.2-6.1,12.9-14.6,12.9C340.3,49.9,333.9,41.9,333.9,32z"/>
			<path class="st0" d="M374.7,19.3h0.1c2.4-3.2,5.9-5.3,10.8-5.3c7.1,0,11.5,3.9,11.5,11v24h-5.4V25.5c0-4.4-2.9-6.9-7.7-6.9
				c-5.4,0-9.4,3.8-9.4,9.4v21h-5.4V1.8h5.4v17.5H374.7z"/>
			<path class="st0" d="M408.5,19.3h0.1c2.4-3.2,5.9-5.3,10.8-5.3c7.1,0,11.5,3.9,11.5,11v24h-5.4V25.5c0-4.4-2.9-6.9-7.7-6.9
				c-5.4,0-9.4,3.8-9.4,9.4v21H403V14.8h5.4v4.5H408.5z"/>
			<path class="st0" d="M435.2,32c0-9.9,6.3-18,16.5-18s16.4,8.1,16.4,18s-6.2,18-16.4,18C441.5,49.9,435.2,41.9,435.2,32z
				 M462.7,32c0-7.5-3.7-13.5-11-13.5s-11,6-11,13.5s3.8,13.5,11,13.5C459,45.4,462.7,39.5,462.7,32z"/>
			<path class="st0" d="M472.7,1.8h5.4V49h-5.4V1.8z"/>
			<path class="st0" d="M482.5,32c0-9.9,6.3-18,16.5-18s16.4,8.1,16.4,18s-6.2,18-16.4,18C488.8,49.9,482.5,41.9,482.5,32z M510,32
				c0-7.5-3.7-13.5-11-13.5s-11,6-11,13.5s3.8,13.5,11,13.5C506.3,45.4,510,39.5,510,32z"/>
			<path class="st0" d="M519.1,50.9h5c0.5,3.8,4.1,5.2,9.4,5.2c6.3,0,9.8-2.8,9.8-8.8v-4.8H543c-2.5,3.2-5.2,5.3-10.1,5.3
				c-8.9,0-14.9-7.1-14.9-16.9c0-10.6,6.7-16.8,14.6-16.8c5,0,8.1,1.9,10.4,5.2h0.1v-4.4h5.4v32.3c0,9-5.9,13.2-15,13.2
				C524.7,60.4,519.7,56.8,519.1,50.9z M543.6,30.6c0-7.5-3.2-12.1-10.4-12.1c-6.4,0-9.6,5-9.6,12.4c0,7.5,3.4,12.4,9.7,12.4
				C541.1,43.3,543.6,37.8,543.6,30.6z"/>
			<path class="st0" d="M554.2,59.6v-4.8h0.3c0.7,0.4,1.8,0.7,3.6,0.7c2.2,0,3.8-0.9,5.1-4.2l1.3-3.4l-13.3-33.2h5.8l8.1,21.3
				c1.1,2.8,2.3,6.7,2.3,6.7h0.1c0,0,1.2-3.8,2.2-6.7l7.8-21.3h5.7l-14.6,37.1c-2.8,7.1-5.4,8.5-9.6,8.5
				C557,60.3,555.7,60.2,554.2,59.6z"/>
			<path class="st0" d="M598.3,1.8h22.1c8.3,0,13.9,5.2,13.9,12.9c0,5.7-2.5,9.8-8.2,11.7v0.2c4.8,1.7,6.3,5,6.8,12
				c0.5,7.6,1.3,9.5,2.2,10.1V49h-6.4c-1-0.9-1.2-2.6-1.7-10.6c-0.5-6.9-3.2-9.4-9.6-9.4h-13.1v19.9h-5.9L598.3,1.8L598.3,1.8z
				 M604.2,24.2h14c6.6,0,9.9-3.3,9.9-8.7c0-5.7-2.6-8.7-9.6-8.7h-14.3L604.2,24.2L604.2,24.2z"/>
			<path class="st0" d="M637.8,32c0-9.9,6.5-18,16.2-18c10.2,0,15.7,7.9,15.7,19.2h-26.4c0.4,6.9,4.2,12.2,11,12.2
				c5,0,8.3-2.4,9.4-7h5.2c-1.6,7.3-6.9,11.5-14.7,11.5C643.9,49.9,637.8,41.9,637.8,32z M643.4,29.2H664c-0.3-6.8-3.8-11-10-11
				C647.7,18.2,644.2,23,643.4,29.2z"/>
			<path class="st0" d="M669.2,14.9h5.7l7.1,21.7c1,3,2.2,7.2,2.2,7.2h0.1c0,0,1.3-4.2,2.2-7.2l7.2-21.7h5.5l-12.3,34.2H681
				L669.2,14.9z"/>
			<path class="st0" d="M702.1,1.8h5.4v6.6h-5.4V1.8z M702.1,14.9h5.4v34.2h-5.4V14.9z"/>
			<path class="st0" d="M711.8,32c0-9.9,6.5-18,16.2-18c10.2,0,15.7,7.9,15.7,19.2h-26.4c0.4,6.9,4.2,12.2,11,12.2
				c5,0,8.3-2.4,9.4-7h5.2c-1.6,7.3-6.9,11.5-14.7,11.5C717.9,49.9,711.8,41.9,711.8,32z M717.4,29.2H738c-0.3-6.8-3.8-11-10-11
				C721.6,18.2,718.2,23,717.4,29.2z"/>
			<path class="st0" d="M743.5,14.9h5.7l6,21.1c0.8,2.8,1.8,7.3,1.8,7.3h0.1c0,0,1-4.5,1.7-7.2l5.7-21.2h5.6l5.5,21.2
				c0.7,2.8,1.7,7.2,1.7,7.2h0.1c0,0,1.1-4.5,1.9-7.3l6.3-21.1h5.5l-11.2,34.2h-5.5l-5.7-20.7c-0.8-2.8-1.7-7.1-1.7-7.1h-0.1
				c0,0-0.9,4.3-1.7,7.1l-5.7,20.7H754L743.5,14.9z"/>
		</g>
	</g>
	<path class="st0" d="M17.4,22.8H0l5-7h12.3c3.2,0,5.8-2.6,5.8-5.8V0h7v10C30.2,17.1,24.5,22.8,17.4,22.8z"/>
	<path class="st0" d="M30.2,46.6h-7v-18c0-7.1,5.8-12.8,12.8-12.8h9l-4,7h-5c-3.2,0-5.8,2.6-5.8,5.8V46.6z"/>
</g>
</svg>
