<?xml version="1.0" encoding="utf-8"?>
<!-- Generator: Adobe Illustrator 20.0.0, SVG Export Plug-In . SVG Version: 6.00 Build 0)  -->
<!DOCTYPE svg PUBLIC "-//W3C//DTD SVG 1.1//EN" "http://www.w3.org/Graphics/SVG/1.1/DTD/svg11.dtd">
<svg version="1.1" id="Layer_1" xmlns="http://www.w3.org/2000/svg" xmlns:xlink="http://www.w3.org/1999/xlink" x="0px" y="0px"
	 viewBox="0 0 825 1167" style="enable-background:new 0 0 825 1167;" xml:space="preserve">
<style type="text/css">
	.st0{fill:#FFFFFF;}
</style>
<g>
	<g>
		<path class="st0" d="M22.1,170.8h52.2v7.3h-22v58.7H44v-58.7h-22V170.8z"/>
		<path class="st0" d="M67.1,213c0-13.8,9-25.1,22.6-25.1c14.3,0,22,11.1,22,26.8H74.7c0.6,9.7,5.8,17.1,15.4,17.1
			c6.9,0,11.5-3.3,13.2-9.8h7.3c-2.2,10.2-9.7,16-20.5,16C75.5,238.1,67.1,226.8,67.1,213z M74.9,209.1h28.7
			c-0.5-9.5-5.3-15.3-13.9-15.3C80.8,193.8,76,200.4,74.9,209.1z"/>
		<path class="st0" d="M114.9,213c0-13.8,8.9-25.1,23.1-25.1c11.3,0,18.7,6.5,20.4,16.6h-7.6c-1.1-6.5-5.6-10.4-12.8-10.4
			c-10.1,0-15.4,8.4-15.4,18.9s5.3,18.8,15.4,18.8c7.7,0,12.4-4.4,13-11.8h7.4c-1,11.4-8.5,18.1-20.4,18.1
			C123.8,238.1,114.9,226.8,114.9,213z"/>
		<path class="st0" d="M171.7,195.4h0.2c3.4-4.5,8.2-7.4,15.1-7.4c10,0,16,5.4,16,15.3v33.5h-7.5v-32.8c0-6.2-4.1-9.7-10.8-9.7
			c-7.6,0-13.1,5.3-13.1,13.2v29.3h-7.5v-66h7.5V195.4z"/>
		<path class="st0" d="M218.9,195.4h0.2c3.4-4.5,8.2-7.4,15.1-7.4c10,0,16,5.4,16,15.3v33.5h-7.5v-32.8c0-6.2-4.1-9.7-10.8-9.7
			c-7.6,0-13.1,5.3-13.1,13.2v29.3h-7.5v-47.7h7.5V195.4z"/>
		<path class="st0" d="M255.9,213c0-13.8,8.9-25.1,23.1-25.1c14.3,0,23,11.3,23,25.1s-8.7,25.1-23,25.1
			C264.8,238.1,255.9,226.8,255.9,213z M294.3,213c0-10.5-5.2-18.9-15.3-18.9s-15.4,8.4-15.4,18.9s5.3,18.8,15.4,18.8
			S294.3,223.5,294.3,213z"/>
		<path class="st0" d="M308.2,170.8h7.5v66h-7.5V170.8z"/>
		<path class="st0" d="M321.7,213c0-13.8,8.9-25.1,23.1-25.1c14.3,0,23,11.3,23,25.1s-8.7,25.1-23,25.1
			C330.6,238.1,321.7,226.8,321.7,213z M360.1,213c0-10.5-5.2-18.9-15.3-18.9s-15.4,8.4-15.4,18.9s5.3,18.8,15.4,18.8
			S360.1,223.5,360.1,213z"/>
		<path class="st0" d="M372.7,239.5h6.9c0.7,5.3,5.7,7.3,13.1,7.3c8.8,0,13.7-4,13.7-12.3v-6.7h-0.2c-3.5,4.5-7.3,7.4-14.1,7.4
			c-12.4,0-20.8-9.9-20.8-23.6c0-14.9,9.3-23.5,20.4-23.5c6.9,0,11.3,2.7,14.6,7.2h0.2v-6.1h7.5v45.1c0,12.5-8.3,18.4-20.9,18.4
			C380.5,252.7,373.5,247.7,372.7,239.5z M406.9,211.1c0-10.4-4.4-16.9-14.6-16.9c-8.9,0-13.5,7-13.5,17.3
			c0,10.4,4.7,17.2,13.6,17.2C403.4,228.9,406.9,221.2,406.9,211.1z"/>
		<path class="st0" d="M421.7,251.5v-6.6h0.4c1,0.6,2.6,1,5.1,1c3.1,0,5.3-1.2,7.1-5.8l1.8-4.7l-18.6-46.3h8.1l11.3,29.7
			c1.5,4,3.2,9.3,3.2,9.3h0.2c0,0,1.7-5.3,3.1-9.3l10.9-29.7h7.9l-20.4,51.6c-3.9,9.9-7.6,11.9-13.4,11.9
			C425.5,252.6,423.7,252.4,421.7,251.5z"/>
		<path class="st0" d="M483.2,170.8H514c11.6,0,19.5,7.3,19.5,18.1c0,8-3.5,13.7-11.4,16.3v0.3c6.7,2.4,8.9,7,9.5,16.8
			c0.7,10.6,1.8,13.3,3,14.1v0.4h-8.9c-1.4-1.2-1.7-3.7-2.4-14.8c-0.6-9.7-4.5-13.1-13.4-13.1h-18.4v27.9h-8.3V170.8z M491.5,202.2
			H511c9.2,0,13.8-4.6,13.8-12.1c0-8-3.7-12.1-13.4-12.1h-20V202.2z"/>
		<path class="st0" d="M538.2,213c0-13.8,9-25.1,22.6-25.1c14.3,0,22,11.1,22,26.8h-36.9c0.6,9.7,5.8,17.1,15.4,17.1
			c6.9,0,11.5-3.3,13.2-9.8h7.3c-2.2,10.2-9.7,16-20.5,16C546.7,238.1,538.2,226.8,538.2,213z M546.1,209.1h28.7
			c-0.5-9.5-5.3-15.3-13.9-15.3C552,193.8,547.2,200.4,546.1,209.1z"/>
		<path class="st0" d="M581.9,189.1h8l9.9,30.3c1.4,4.2,3.1,10.1,3.1,10.1h0.2c0,0,1.8-5.9,3.1-10.1l10.1-30.3h7.7l-17.2,47.7h-8.3
			L581.9,189.1z"/>
		<path class="st0" d="M627.7,170.8h7.5v9.2h-7.5V170.8z M627.7,189.1h7.5v47.7h-7.5V189.1z"/>
		<path class="st0" d="M641.1,213c0-13.8,9-25.1,22.6-25.1c14.3,0,22,11.1,22,26.8h-36.9c0.6,9.7,5.8,17.1,15.4,17.1
			c6.9,0,11.5-3.3,13.2-9.8h7.3c-2.2,10.2-9.7,16-20.5,16C649.6,238.1,641.1,226.8,641.1,213z M649,209.1h28.7
			c-0.5-9.5-5.3-15.3-13.9-15.3C654.9,193.8,650.1,200.4,649,209.1z"/>
		<path class="st0" d="M685.2,189.1h8l8.4,29.4c1.1,4,2.6,10.2,2.6,10.2h0.2c0,0,1.4-6.3,2.4-10.1l8-29.6h7.8l7.7,29.6
			c1,3.9,2.3,10.1,2.3,10.1h0.2c0,0,1.5-6.3,2.7-10.2l8.9-29.4h7.7l-15.6,47.7H729l-7.9-28.9c-1.1-4-2.3-10-2.3-10h-0.2
			c0,0-1.3,6-2.4,10l-8,28.9h-7.7L685.2,189.1z"/>
	</g>
	<g>
		<path class="st0" d="M22.1,170.8h52.2v7.3h-22v58.7H44v-58.7h-22V170.8z"/>
		<path class="st0" d="M67.1,213c0-13.8,9-25.1,22.6-25.1c14.3,0,22,11.1,22,26.8H74.7c0.6,9.7,5.8,17.1,15.4,17.1
			c6.9,0,11.5-3.3,13.2-9.8h7.3c-2.2,10.2-9.7,16-20.5,16C75.5,238.1,67.1,226.8,67.1,213z M74.9,209.1h28.7
			c-0.5-9.5-5.3-15.3-13.9-15.3C80.8,193.8,76,200.4,74.9,209.1z"/>
		<path class="st0" d="M114.9,213c0-13.8,8.9-25.1,23.1-25.1c11.3,0,18.7,6.5,20.4,16.6h-7.6c-1.1-6.5-5.6-10.4-12.8-10.4
			c-10.1,0-15.4,8.4-15.4,18.9s5.3,18.8,15.4,18.8c7.7,0,12.4-4.4,13-11.8h7.4c-1,11.4-8.5,18.1-20.4,18.1
			C123.8,238.1,114.9,226.8,114.9,213z"/>
		<path class="st0" d="M171.7,195.4h0.2c3.4-4.5,8.2-7.4,15.1-7.4c10,0,16,5.4,16,15.3v33.5h-7.5v-32.8c0-6.2-4.1-9.7-10.8-9.7
			c-7.6,0-13.1,5.3-13.1,13.2v29.3h-7.5v-66h7.5V195.4z"/>
		<path class="st0" d="M218.9,195.4h0.2c3.4-4.5,8.2-7.4,15.1-7.4c10,0,16,5.4,16,15.3v33.5h-7.5v-32.8c0-6.2-4.1-9.7-10.8-9.7
			c-7.6,0-13.1,5.3-13.1,13.2v29.3h-7.5v-47.7h7.5V195.4z"/>
		<path class="st0" d="M255.9,213c0-13.8,8.9-25.1,23.1-25.1c14.3,0,23,11.3,23,25.1s-8.7,25.1-23,25.1
			C264.8,238.1,255.9,226.8,255.9,213z M294.3,213c0-10.5-5.2-18.9-15.3-18.9s-15.4,8.4-15.4,18.9s5.3,18.8,15.4,18.8
			S294.3,223.5,294.3,213z"/>
		<path class="st0" d="M308.2,170.8h7.5v66h-7.5V170.8z"/>
		<path class="st0" d="M321.7,213c0-13.8,8.9-25.1,23.1-25.1c14.3,0,23,11.3,23,25.1s-8.7,25.1-23,25.1
			C330.6,238.1,321.7,226.8,321.7,213z M360.1,213c0-10.5-5.2-18.9-15.3-18.9s-15.4,8.4-15.4,18.9s5.3,18.8,15.4,18.8
			S360.1,223.5,360.1,213z"/>
		<path class="st0" d="M372.7,239.5h6.9c0.7,5.3,5.7,7.3,13.1,7.3c8.8,0,13.7-4,13.7-12.3v-6.7h-0.2c-3.5,4.5-7.3,7.4-14.1,7.4
			c-12.4,0-20.8-9.9-20.8-23.6c0-14.9,9.3-23.5,20.4-23.5c6.9,0,11.3,2.7,14.6,7.2h0.2v-6.1h7.5v45.1c0,12.5-8.3,18.4-20.9,18.4
			C380.5,252.7,373.5,247.7,372.7,239.5z M406.9,211.1c0-10.4-4.4-16.9-14.6-16.9c-8.9,0-13.5,7-13.5,17.3
			c0,10.4,4.7,17.2,13.6,17.2C403.4,228.9,406.9,221.2,406.9,211.1z"/>
		<path class="st0" d="M421.7,251.5v-6.6h0.4c1,0.6,2.6,1,5.1,1c3.1,0,5.3-1.2,7.1-5.8l1.8-4.7l-18.6-46.3h8.1l11.3,29.7
			c1.5,4,3.2,9.3,3.2,9.3h0.2c0,0,1.7-5.3,3.1-9.3l10.9-29.7h7.9l-20.4,51.6c-3.9,9.9-7.6,11.9-13.4,11.9
			C425.5,252.6,423.7,252.4,421.7,251.5z"/>
		<path class="st0" d="M483.2,170.8H514c11.6,0,19.5,7.3,19.5,18.1c0,8-3.5,13.7-11.4,16.3v0.3c6.7,2.4,8.9,7,9.5,16.8
			c0.7,10.6,1.8,13.3,3,14.1v0.4h-8.9c-1.4-1.2-1.7-3.7-2.4-14.8c-0.6-9.7-4.5-13.1-13.4-13.1h-18.4v27.9h-8.3V170.8z M491.5,202.2
			H511c9.2,0,13.8-4.6,13.8-12.1c0-8-3.7-12.1-13.4-12.1h-20V202.2z"/>
		<path class="st0" d="M538.2,213c0-13.8,9-25.1,22.6-25.1c14.3,0,22,11.1,22,26.8h-36.9c0.6,9.7,5.8,17.1,15.4,17.1
			c6.9,0,11.5-3.3,13.2-9.8h7.3c-2.2,10.2-9.7,16-20.5,16C546.7,238.1,538.2,226.8,538.2,213z M546.1,209.1h28.7
			c-0.5-9.5-5.3-15.3-13.9-15.3C552,193.8,547.2,200.4,546.1,209.1z"/>
		<path class="st0" d="M581.9,189.1h8l9.9,30.3c1.4,4.2,3.1,10.1,3.1,10.1h0.2c0,0,1.8-5.9,3.1-10.1l10.1-30.3h7.7l-17.2,47.7h-8.3
			L581.9,189.1z"/>
		<path class="st0" d="M627.7,170.8h7.5v9.2h-7.5V170.8z M627.7,189.1h7.5v47.7h-7.5V189.1z"/>
		<path class="st0" d="M641.1,213c0-13.8,9-25.1,22.6-25.1c14.3,0,22,11.1,22,26.8h-36.9c0.6,9.7,5.8,17.1,15.4,17.1
			c6.9,0,11.5-3.3,13.2-9.8h7.3c-2.2,10.2-9.7,16-20.5,16C649.6,238.1,641.1,226.8,641.1,213z M649,209.1h28.7
			c-0.5-9.5-5.3-15.3-13.9-15.3C654.9,193.8,650.1,200.4,649,209.1z"/>
		<path class="st0" d="M685.2,189.1h8l8.4,29.4c1.1,4,2.6,10.2,2.6,10.2h0.2c0,0,1.4-6.3,2.4-10.1l8-29.6h7.8l7.7,29.6
			c1,3.9,2.3,10.1,2.3,10.1h0.2c0,0,1.5-6.3,2.7-10.2l8.9-29.4h7.7l-15.6,47.7H729l-7.9-28.9c-1.1-4-2.3-10-2.3-10h-0.2
			c0,0-1.3,6-2.4,10l-8,28.9h-7.7L685.2,189.1z"/>
	</g>
</g>
<g>
	<path class="st0" d="M449.7,26.8h12.5v1.7h-5.2v14h-2v-14h-5.2V26.8z"/>
	<path class="st0" d="M460.5,36.8c0-3.3,2.2-6,5.4-6c3.4,0,5.2,2.6,5.2,6.4h-8.8c0.1,2.3,1.4,4.1,3.7,4.1c1.7,0,2.8-0.8,3.1-2.3h1.7
		c-0.5,2.4-2.3,3.8-4.9,3.8C462.5,42.8,460.5,40.1,460.5,36.8z M462.3,35.9h6.8c-0.1-2.3-1.3-3.7-3.3-3.7
		C463.7,32.2,462.6,33.8,462.3,35.9z"/>
	<path class="st0" d="M471.7,36.8c0-3.3,2.1-6,5.5-6c2.7,0,4.5,1.5,4.9,4h-1.8c-0.3-1.5-1.3-2.5-3.1-2.5c-2.4,0-3.7,2-3.7,4.5
		s1.3,4.5,3.7,4.5c1.8,0,2.9-1.1,3.1-2.8h1.8c-0.2,2.7-2,4.3-4.9,4.3C473.8,42.8,471.7,40.1,471.7,36.8z"/>
	<path class="st0" d="M485.1,32.6L485.1,32.6c0.9-1.1,2-1.8,3.7-1.8c2.4,0,3.8,1.3,3.8,3.7v8h-1.8v-7.8c0-1.5-1-2.3-2.6-2.3
		c-1.8,0-3.1,1.3-3.1,3.1v7h-1.8V26.8h1.8V32.6z"/>
	<path class="st0" d="M496.2,32.6L496.2,32.6c0.9-1.1,2-1.8,3.7-1.8c2.4,0,3.8,1.3,3.8,3.7v8h-1.8v-7.8c0-1.5-1-2.3-2.6-2.3
		c-1.8,0-3.1,1.3-3.1,3.1v7h-1.8V31.1h1.8V32.6z"/>
	<path class="st0" d="M504.8,36.8c0-3.3,2.1-6,5.5-6c3.4,0,5.5,2.7,5.5,6s-2.1,6-5.5,6C506.9,42.8,504.8,40.1,504.8,36.8z M514,36.8
		c0-2.5-1.2-4.5-3.7-4.5c-2.4,0-3.7,2-3.7,4.5s1.3,4.5,3.7,4.5C512.8,41.3,514,39.3,514,36.8z"/>
	<path class="st0" d="M517.1,26.8h1.8v15.7h-1.8V26.8z"/>
	<path class="st0" d="M520.2,36.8c0-3.3,2.1-6,5.5-6c3.4,0,5.5,2.7,5.5,6s-2.1,6-5.5,6C522.3,42.8,520.2,40.1,520.2,36.8z
		 M529.4,36.8c0-2.5-1.2-4.5-3.7-4.5c-2.4,0-3.7,2-3.7,4.5s1.3,4.5,3.7,4.5C528.1,41.3,529.4,39.3,529.4,36.8z"/>
	<path class="st0" d="M532.2,43.1h1.6c0.2,1.3,1.4,1.7,3.1,1.7c2.1,0,3.3-0.9,3.3-2.9v-1.6h0c-0.8,1.1-1.7,1.8-3.4,1.8
		c-2.9,0-5-2.4-5-5.6c0-3.5,2.2-5.6,4.9-5.6c1.7,0,2.7,0.6,3.5,1.7h0v-1.5h1.8v10.8c0,3-2,4.4-5,4.4
		C534.1,46.3,532.4,45.1,532.2,43.1z M540.4,36.4c0-2.5-1.1-4-3.5-4c-2.1,0-3.2,1.7-3.2,4.1c0,2.5,1.1,4.1,3.2,4.1
		C539.5,40.6,540.4,38.8,540.4,36.4z"/>
	<path class="st0" d="M543.7,46v-1.6h0.1c0.2,0.1,0.6,0.2,1.2,0.2c0.7,0,1.3-0.3,1.7-1.4l0.4-1.1l-4.4-11h1.9l2.7,7.1
		c0.4,0.9,0.8,2.2,0.8,2.2h0c0,0,0.4-1.3,0.7-2.2l2.6-7.1h1.9l-4.9,12.3c-0.9,2.4-1.8,2.8-3.2,2.8C544.6,46.3,544.2,46.2,543.7,46z"
		/>
	<path class="st0" d="M564.2,40.9L564.2,40.9c-0.7,0.9-1.9,1.8-3.8,1.8c-2.2,0-3.8-1-3.8-3.2c0-2.7,2.1-3.2,5-3.7
		c1.6-0.2,2.7-0.4,2.7-1.6c0-1.3-0.9-2-2.6-2c-1.8,0-2.8,0.8-2.8,2.5h-1.7c0.1-2.2,1.5-3.9,4.5-3.9c2.4,0,4.2,0.9,4.2,3.6v5.4
		c0,0.9,0.2,1.4,1.2,1.2h0.1v1.3c-0.2,0.1-0.5,0.2-1,0.2C565,42.6,564.4,42.1,564.2,40.9z M564.3,38.3v-1.9
		c-0.6,0.4-1.6,0.7-2.6,0.8c-1.8,0.3-3.2,0.6-3.2,2.3c0,1.5,1.2,1.8,2.4,1.8C563.2,41.4,564.3,39.6,564.3,38.3z"/>
	<path class="st0" d="M569.8,32.6L569.8,32.6c0.9-1.1,2-1.8,3.7-1.8c2.4,0,3.8,1.3,3.8,3.7v8h-1.8v-7.8c0-1.5-1-2.3-2.6-2.3
		c-1.8,0-3.1,1.3-3.1,3.1v7H568V31.1h1.8V32.6z"/>
	<path class="st0" d="M578.5,36.8c0-3.8,2.2-6,5-6c1.6,0,2.8,0.8,3.6,1.9h0v-6h1.8v15.7h-1.8v-1.4h0c-0.9,1.1-1.9,1.7-3.5,1.7
		C580.4,42.8,578.5,40.5,578.5,36.8z M587.2,36.9c0-2.6-1.3-4.5-3.6-4.5c-2.2,0-3.3,1.9-3.3,4.5c0,2.6,1.1,4.5,3.3,4.5
		C586.1,41.3,587.2,39.4,587.2,36.9z"/>
	<path class="st0" d="M449.7,52.4h1.7v-3.6h1.8v3.6h2.2v1.5h-2.2v7.4c0,0.8,0.4,1.1,1.1,1.1c0.4,0,0.7-0.1,0.9-0.2h0.1v1.5
		c-0.4,0.1-0.9,0.2-1.4,0.2c-1.5,0-2.5-0.6-2.5-2.2v-7.8h-1.7V52.4z"/>
	<path class="st0" d="M458.1,53.9L458.1,53.9c0.9-1.1,2-1.8,3.7-1.8c2.4,0,3.8,1.3,3.8,3.7v8h-1.8v-7.8c0-1.5-1-2.3-2.6-2.3
		c-1.8,0-3.1,1.3-3.1,3.1v7h-1.8V48h1.8V53.9z"/>
	<path class="st0" d="M466.8,58.1c0-3.3,2.2-6,5.4-6c3.4,0,5.2,2.6,5.2,6.4h-8.8c0.1,2.3,1.4,4.1,3.7,4.1c1.7,0,2.8-0.8,3.1-2.3h1.7
		c-0.5,2.4-2.3,3.8-4.9,3.8C468.8,64.1,466.8,61.4,466.8,58.1z M468.7,57.2h6.8c-0.1-2.3-1.3-3.7-3.3-3.7
		C470.1,53.5,468.9,55.1,468.7,57.2z"/>
	<path class="st0" d="M482.1,48h7.3c2.8,0,4.6,1.7,4.6,4.3c0,1.9-0.8,3.3-2.7,3.9v0.1c1.6,0.6,2.1,1.7,2.3,4
		c0.2,2.5,0.4,3.2,0.7,3.4v0.1h-2.1c-0.3-0.3-0.4-0.9-0.6-3.5c-0.2-2.3-1.1-3.1-3.2-3.1H484v6.6h-2V48z M484,55.5h4.7
		c2.2,0,3.3-1.1,3.3-2.9c0-1.9-0.9-2.9-3.2-2.9H484V55.5z"/>
	<path class="st0" d="M502.7,62.2L502.7,62.2c-0.7,0.9-1.9,1.8-3.8,1.8c-2.2,0-3.9-1-3.9-3.2c0-2.7,2.1-3.2,5-3.7
		c1.6-0.2,2.7-0.4,2.7-1.6c0-1.3-0.9-2-2.6-2c-1.8,0-2.8,0.8-2.8,2.5h-1.7c0.1-2.2,1.5-3.9,4.5-3.9c2.4,0,4.2,0.9,4.2,3.6v5.4
		c0,0.9,0.2,1.4,1.2,1.2h0.1v1.3c-0.2,0.1-0.5,0.2-1,0.2C503.5,63.9,502.9,63.4,502.7,62.2z M502.8,59.6v-1.9
		c-0.6,0.4-1.6,0.7-2.6,0.8c-1.8,0.3-3.2,0.6-3.2,2.3c0,1.5,1.2,1.8,2.4,1.8C501.7,62.6,502.8,60.9,502.8,59.6z"/>
	<path class="st0" d="M506.5,48h1.8v2.2h-1.8V48z M506.5,52.4h1.8v11.4h-1.8V52.4z"/>
	<path class="st0" d="M510.1,48h1.8v15.7h-1.8V48z"/>
	<path class="st0" d="M515.5,54.3L515.5,54.3c0.7-1.1,1.9-2,3.4-2c0.3,0,0.5,0,0.7,0.1v1.7h-0.1c-0.3-0.1-0.4-0.1-0.8-0.1
		c-1.8,0-3.3,1.3-3.3,3.5v6.3h-1.8V52.4h1.8V54.3z"/>
	<path class="st0" d="M519.7,58.1c0-3.3,2.1-6,5.5-6c3.4,0,5.5,2.7,5.5,6s-2.1,6-5.5,6C521.8,64.1,519.7,61.4,519.7,58.1z
		 M528.9,58.1c0-2.5-1.2-4.5-3.7-4.5c-2.4,0-3.7,2-3.7,4.5s1.3,4.5,3.7,4.5C527.6,62.6,528.9,60.6,528.9,58.1z"/>
	<path class="st0" d="M538.9,62.2L538.9,62.2c-0.7,0.9-1.9,1.8-3.8,1.8c-2.2,0-3.8-1-3.8-3.2c0-2.7,2.1-3.2,5-3.7
		c1.6-0.2,2.7-0.4,2.7-1.6c0-1.3-0.9-2-2.6-2c-1.8,0-2.8,0.8-2.8,2.5h-1.7c0.1-2.2,1.5-3.9,4.5-3.9c2.4,0,4.2,0.9,4.2,3.6v5.4
		c0,0.9,0.2,1.4,1.2,1.2h0.1v1.3c-0.2,0.1-0.5,0.2-1,0.2C539.6,63.9,539,63.4,538.9,62.2z M538.9,59.6v-1.9
		c-0.6,0.4-1.6,0.7-2.6,0.8c-1.8,0.3-3.2,0.6-3.2,2.3c0,1.5,1.2,1.8,2.4,1.8C537.8,62.6,538.9,60.9,538.9,59.6z"/>
	<path class="st0" d="M541.8,58.1c0-3.8,2.2-6,5-6c1.6,0,2.8,0.8,3.6,1.9h0v-6h1.8v15.7h-1.8v-1.4h0c-0.9,1.1-1.9,1.7-3.5,1.7
		C543.8,64.1,541.8,61.8,541.8,58.1z M550.6,58.1c0-2.6-1.3-4.5-3.6-4.5c-2.2,0-3.3,1.9-3.3,4.5c0,2.6,1.1,4.5,3.3,4.5
		C549.5,62.6,550.6,60.7,550.6,58.1z"/>
	<path class="st0" d="M553.4,60.1h1.8c0.2,2,1.6,2.5,3.3,2.5c1.9,0,2.6-0.8,2.6-1.9c0-1.3-0.9-1.6-3-2c-2.2-0.5-4.2-0.9-4.2-3.4
		c0-1.9,1.5-3.1,4.1-3.1c2.8,0,4.2,1.3,4.5,3.6h-1.8c-0.2-1.5-1-2.2-2.7-2.2c-1.6,0-2.3,0.7-2.3,1.6c0,1.2,1.1,1.5,3.1,1.9
		c2.3,0.5,4.2,1,4.2,3.6c0,2.3-1.9,3.5-4.5,3.5C555.3,64.1,553.6,62.6,553.4,60.1z"/>
</g>
<g>
	<path class="st0" d="M23.2,35v-0.2h1.4V35c0,2,0.6,2.5,1.9,2.5c1.1,0,1.8-0.6,1.8-2v-8.1h1.4v8.2c0,1.8-1.1,3-3.2,3
		C24.4,38.7,23.2,37.6,23.2,35z"/>
	<path class="st0" d="M36.2,38.5v-1.1h0c-0.6,0.8-1.2,1.3-2.4,1.3c-1.6,0-2.7-1-2.7-2.6v-5.5h1.2V36c0,1,0.7,1.6,1.8,1.6
		c1.3,0,2.1-1,2.1-2.2v-4.9h1.2v8H36.2z"/>
	<path class="st0" d="M38.8,27.4H40v11h-1.2V27.4z"/>
	<path class="st0" d="M41.2,40.9v-1.1h0.1c0.2,0.1,0.4,0.2,0.8,0.2c0.5,0,0.9-0.2,1.2-1l0.3-0.8l-3.1-7.7h1.4l1.9,5
		c0.2,0.7,0.5,1.6,0.5,1.6h0c0,0,0.3-0.9,0.5-1.6l1.8-5H48l-3.4,8.6c-0.6,1.6-1.3,2-2.2,2C41.9,41.1,41.6,41.1,41.2,40.9z"/>
	<path class="st0" d="M51.6,27.4h1.3l-4.4,11h-1.3L51.6,27.4z"/>
	<path class="st0" d="M55.9,27.4h1.6l4.1,11H60l-1.2-3.4h-4.4l-1.2,3.4h-1.4L55.9,27.4z M54.8,34h3.6l-1.3-3.7
		c-0.2-0.6-0.5-1.6-0.5-1.6h0c0,0-0.3,0.9-0.5,1.6L54.8,34z"/>
	<path class="st0" d="M67.1,38.5v-1.1h0c-0.6,0.8-1.2,1.3-2.4,1.3c-1.6,0-2.7-1-2.7-2.6v-5.5h1.2V36c0,1,0.7,1.6,1.8,1.6
		c1.3,0,2.1-1,2.1-2.2v-4.9h1.2v8H67.1z"/>
	<path class="st0" d="M69.5,38.9h1.2c0.1,0.9,1,1.2,2.2,1.2c1.5,0,2.3-0.7,2.3-2v-1.1h0c-0.6,0.8-1.2,1.2-2.4,1.2
		c-2.1,0-3.5-1.6-3.5-3.9c0-2.5,1.6-3.9,3.4-3.9c1.2,0,1.9,0.4,2.4,1.2h0v-1h1.2V38c0,2.1-1.4,3.1-3.5,3.1
		C70.8,41.1,69.6,40.3,69.5,38.9z M75.2,34.2c0-1.7-0.7-2.8-2.4-2.8c-1.5,0-2.2,1.2-2.2,2.9c0,1.7,0.8,2.9,2.3,2.9
		C74.6,37.1,75.2,35.9,75.2,34.2z"/>
	<path class="st0" d="M82.8,38.5v-1.1h0c-0.6,0.8-1.2,1.3-2.4,1.3c-1.6,0-2.7-1-2.7-2.6v-5.5h1.2V36c0,1,0.7,1.6,1.8,1.6
		c1.3,0,2.1-1,2.1-2.2v-4.9H84v8H82.8z"/>
	<path class="st0" d="M84.8,35.9h1.3c0.2,1.4,1.1,1.8,2.3,1.8c1.3,0,1.8-0.6,1.8-1.3c0-0.9-0.6-1.1-2.1-1.4c-1.6-0.3-3-0.6-3-2.4
		c0-1.3,1-2.2,2.9-2.2c2,0,2.9,0.9,3.1,2.5h-1.3c-0.1-1-0.7-1.5-1.9-1.5c-1.1,0-1.6,0.5-1.6,1.1c0,0.9,0.8,1,2.1,1.3
		c1.6,0.3,2.9,0.7,2.9,2.5c0,1.6-1.3,2.4-3.1,2.4C86.2,38.7,85,37.7,84.8,35.9z"/>
	<path class="st0" d="M91.6,30.5h1.2V28H94v2.5h1.5v1H94v5.2c0,0.6,0.3,0.7,0.8,0.7c0.2,0,0.5-0.1,0.7-0.1h0v1.1
		c-0.3,0.1-0.6,0.1-1,0.1c-1,0-1.8-0.4-1.8-1.5v-5.5h-1.2V30.5z"/>
	<path class="st0" d="M96.4,39.7c0.3-0.1,0.7-0.4,0.7-1.3h-0.7v-1.5h1.5v1.6c0,1.1-0.6,1.8-1.5,1.9V39.7z"/>
	<path class="st0" d="M103.3,30.8H101v-0.9c1.3,0,2.4-0.5,2.6-2.1h1v10.6h-1.3V30.8z"/>
	<path class="st0" d="M106.2,35.6h1.3c0.1,1.2,0.9,2,2.3,2c0.8,0,1.4-0.2,1.8-0.7c0.6-0.7,0.9-1.9,0.9-3.4h0
		c-0.7,0.8-1.6,1.3-2.9,1.3c-1.9,0-3.5-1.6-3.5-3.5c0-2,1.6-3.6,3.7-3.6c1,0,1.8,0.3,2.4,0.8c1.2,0.9,1.6,2.4,1.6,4.8
		c0,2.1-0.4,3.7-1.5,4.6c-0.6,0.6-1.5,0.8-2.5,0.8C107.8,38.7,106.3,37.5,106.2,35.6z M112.3,31.2c0-1.5-1.2-2.5-2.6-2.5
		c-1.5,0-2.5,1-2.5,2.5c0,1.5,1.1,2.5,2.5,2.5C111.3,33.7,112.3,32.7,112.3,31.2z"/>
	<path class="st0" d="M120.2,29.1L120.2,29.1l-6,0v-1.2h7.4V29c-2.2,1.9-4.3,5.3-4.5,9.5h-1.4C115.9,34.8,117.8,31,120.2,29.1z"/>
	<path class="st0" d="M123.2,37.7c-1.1-1-1.5-2.5-1.5-4.6c0-3.3,1.4-5.5,4.1-5.5c2.1,0,3.2,1.4,3.3,2.9h-1.3c-0.1-1-0.8-1.8-2-1.8
		c-2.1,0-2.8,1.7-2.8,4.2h0c0.7-0.9,1.6-1.5,2.9-1.5c1.9,0,3.5,1.6,3.5,3.5c0,2-1.6,3.6-3.5,3.6C124.7,38.7,123.9,38.3,123.2,37.7z
		 M128.2,35.1c0-1.5-1-2.5-2.4-2.5c-1.5,0-2.6,1-2.6,2.5c0,1.5,1.1,2.5,2.6,2.5C127.2,37.6,128.2,36.6,128.2,35.1z"/>
</g>
<g>
	<path class="st0" d="M44.5,251.5h6.8v1.6h-5v2.1h4.3v1.5h-4.3v2.5h5v1.6h-6.9V251.5z"/>
	<path class="st0" d="M52,257.5c0-2.1,1.2-3.5,2.8-3.5c0.9,0,1.5,0.4,1.9,1h0v-3.4h1.8v9.3h-1.7v-0.9h0c-0.4,0.6-1.1,1.1-2,1.1
		C53.1,261,52,259.6,52,257.5z M56.8,257.5c0-1.3-0.4-2.1-1.5-2.1c-1,0-1.5,0.9-1.5,2.1c0,1.3,0.5,2,1.4,2
		C56.2,259.5,56.8,258.7,56.8,257.5z"/>
	<path class="st0" d="M59.7,251.5h1.8v1.6h-1.8V251.5z M59.7,254.1h1.8v6.7h-1.8V254.1z"/>
	<path class="st0" d="M62.1,254.1H63V252h1.7v2.1h1.1v1.2h-1.1v3.5c0,0.5,0.3,0.7,0.7,0.7c0.2,0,0.5,0,0.5,0v1.3c0,0-0.4,0-1.1,0
		c-0.9,0-1.8-0.3-1.8-1.6v-3.9h-0.9V254.1z"/>
	<path class="st0" d="M66.2,257.4c0-2,1.3-3.5,3.3-3.5c2.1,0,3.3,1.6,3.3,4H68c0.1,1,0.7,1.7,1.7,1.7c0.7,0,1.1-0.3,1.3-0.8h1.7
		c-0.2,1.2-1.3,2.2-3,2.2C67.5,261,66.2,259.4,66.2,257.4z M68,256.7h3c-0.1-0.8-0.6-1.4-1.4-1.4C68.6,255.3,68.1,255.9,68,256.7z"
		/>
	<path class="st0" d="M73.3,257.5c0-2.1,1.2-3.5,2.8-3.5c0.9,0,1.5,0.4,1.9,1h0v-3.4h1.8v9.3h-1.7v-0.9h0c-0.4,0.6-1.1,1.1-2,1.1
		C74.5,261,73.3,259.6,73.3,257.5z M78.1,257.5c0-1.3-0.4-2.1-1.5-2.1c-1,0-1.5,0.9-1.5,2.1c0,1.3,0.5,2,1.4,2
		C77.6,259.5,78.1,258.7,78.1,257.5z"/>
	<path class="st0" d="M87.2,260L87.2,260c-0.4,0.5-0.8,0.9-2,0.9c-1.4,0-2.3-0.7-2.3-2c0-1.5,1.2-1.9,2.7-2.1
		c1.1-0.2,1.6-0.2,1.6-0.8c0-0.5-0.4-0.8-1.1-0.8c-0.8,0-1.2,0.3-1.3,0.9h-1.6c0.1-1.2,0.9-2.2,2.9-2.2c2,0,2.8,0.9,2.8,2.5v3.4
		c0,0.5,0.1,0.8,0.2,0.9v0.1h-1.7C87.3,260.7,87.2,260.3,87.2,260z M87.2,258.4v-1c-0.3,0.2-0.8,0.3-1.2,0.4c-0.9,0.2-1.4,0.4-1.4,1
		s0.4,0.8,1,0.8C86.6,259.7,87.2,259.1,87.2,258.4z"/>
	<path class="st0" d="M89.4,254.1h0.9V252h1.7v2.1h1.1v1.2h-1.1v3.5c0,0.5,0.3,0.7,0.7,0.7c0.2,0,0.5,0,0.5,0v1.3c0,0-0.4,0-1.1,0
		c-0.9,0-1.8-0.3-1.8-1.6v-3.9h-0.9V254.1z"/>
	<path class="st0" d="M95.9,254.1h0.9V252h1.7v2.1h1.1v1.2h-1.1v3.5c0,0.5,0.3,0.7,0.7,0.7c0.2,0,0.5,0,0.5,0v1.3c0,0-0.4,0-1.1,0
		c-0.9,0-1.8-0.3-1.8-1.6v-3.9h-0.9V254.1z"/>
	<path class="st0" d="M102.3,255L102.3,255c0.5-0.7,1.1-1.1,2-1.1c1.4,0,2.3,1,2.3,2.5v4.4h-1.8v-4.1c0-0.7-0.4-1.2-1.2-1.2
		c-0.8,0-1.4,0.6-1.4,1.5v3.8h-1.8v-9.3h1.8V255z"/>
	<path class="st0" d="M107.4,257.4c0-2,1.3-3.5,3.3-3.5c2.1,0,3.3,1.6,3.3,4h-4.8c0.1,1,0.7,1.7,1.7,1.7c0.7,0,1.1-0.3,1.3-0.8h1.7
		c-0.2,1.2-1.3,2.2-3,2.2C108.6,261,107.4,259.4,107.4,257.4z M109.1,256.7h3c-0.1-0.8-0.6-1.4-1.4-1.4
		C109.7,255.3,109.3,255.9,109.1,256.7z"/>
	<path class="st0" d="M117.1,251.5h2.7l1.3,4.7c0.3,1.2,0.6,2.5,0.6,2.5h0c0,0,0.2-1.3,0.6-2.5l1.3-4.7h2.7v9.3h-1.8v-5.3
		c0-0.8,0.1-1.9,0.1-1.9h0c0,0-0.2,1.1-0.4,1.8l-1.6,5.5h-1.8l-1.6-5.5c-0.2-0.7-0.4-1.8-0.4-1.8h0c0,0,0.1,1.2,0.1,1.9v5.3h-1.7
		V251.5z"/>
	<path class="st0" d="M131.6,260L131.6,260c-0.4,0.5-0.8,0.9-2,0.9c-1.4,0-2.3-0.7-2.3-2c0-1.5,1.2-1.9,2.7-2.1
		c1.1-0.2,1.6-0.2,1.6-0.8c0-0.5-0.4-0.8-1.1-0.8c-0.8,0-1.2,0.3-1.3,0.9h-1.6c0.1-1.2,0.9-2.2,2.9-2.2c2,0,2.8,0.9,2.8,2.5v3.4
		c0,0.5,0.1,0.8,0.2,0.9v0.1h-1.7C131.7,260.7,131.6,260.3,131.6,260z M131.6,258.4v-1c-0.3,0.2-0.8,0.3-1.2,0.4
		c-0.9,0.2-1.4,0.4-1.4,1s0.4,0.8,1,0.8C131,259.7,131.6,259.1,131.6,258.4z"/>
	<path class="st0" d="M134,258.6h1.6c0.1,0.8,0.7,1.1,1.5,1.1c0.8,0,1.2-0.3,1.2-0.8c0-0.6-0.8-0.7-1.8-0.9c-1.2-0.2-2.4-0.6-2.4-2
		c0-1.4,1.2-2.1,2.7-2.1c1.8,0,2.7,0.9,2.9,2.2h-1.6c-0.1-0.7-0.5-1-1.3-1c-0.7,0-1.1,0.3-1.1,0.7c0,0.6,0.9,0.6,1.8,0.8
		c1.1,0.2,2.4,0.5,2.4,2.1c0,1.3-1.1,2.1-2.8,2.1C135.1,261,134.1,260,134,258.6z"/>
	<path class="st0" d="M140.3,258.6h1.6c0.1,0.8,0.7,1.1,1.5,1.1c0.8,0,1.2-0.3,1.2-0.8c0-0.6-0.8-0.7-1.8-0.9
		c-1.2-0.2-2.4-0.6-2.4-2c0-1.4,1.2-2.1,2.7-2.1c1.8,0,2.7,0.9,2.9,2.2h-1.6c-0.1-0.7-0.5-1-1.3-1c-0.7,0-1.1,0.3-1.1,0.7
		c0,0.6,0.9,0.6,1.8,0.8c1.1,0.2,2.4,0.5,2.4,2.1c0,1.3-1.1,2.1-2.8,2.1C141.5,261,140.4,260,140.3,258.6z"/>
	<path class="st0" d="M151.1,260L151.1,260c-0.4,0.5-0.8,0.9-2,0.9c-1.4,0-2.3-0.7-2.3-2c0-1.5,1.2-1.9,2.7-2.1
		c1.1-0.2,1.6-0.2,1.6-0.8c0-0.5-0.4-0.8-1.1-0.8c-0.8,0-1.2,0.3-1.3,0.9h-1.6c0.1-1.2,0.9-2.2,2.9-2.2c2,0,2.8,0.9,2.8,2.5v3.4
		c0,0.5,0.1,0.8,0.2,0.9v0.1h-1.7C151.2,260.7,151.1,260.3,151.1,260z M151.1,258.4v-1c-0.3,0.2-0.8,0.3-1.2,0.4
		c-0.9,0.2-1.4,0.4-1.4,1s0.4,0.8,1,0.8C150.5,259.7,151.1,259.1,151.1,258.4z"/>
	<path class="st0" d="M153.5,257.5c0-2,1.3-3.5,3.3-3.5c1.7,0,2.8,1,3,2.4h-1.7c-0.1-0.6-0.6-1-1.2-1c-1.1,0-1.6,0.8-1.6,2.1
		c0,1.3,0.5,2.1,1.6,2.1c0.7,0,1.2-0.4,1.3-1.1h1.7c-0.1,1.4-1.2,2.5-3,2.5C154.8,261,153.5,259.4,153.5,257.5z"/>
	<path class="st0" d="M162.5,255L162.5,255c0.5-0.7,1.1-1.1,2-1.1c1.4,0,2.3,1,2.3,2.5v4.4H165v-4.1c0-0.7-0.4-1.2-1.2-1.2
		c-0.8,0-1.4,0.6-1.4,1.5v3.8h-1.8v-9.3h1.8V255z"/>
	<path class="st0" d="M172.1,260.8V260h0c-0.5,0.6-1,1-1.9,1c-1.5,0-2.3-0.9-2.3-2.4v-4.4h1.8v4.1c0,0.8,0.4,1.2,1.1,1.2
		c0.8,0,1.3-0.6,1.3-1.5v-3.8h1.8v6.7H172.1z"/>
	<path class="st0" d="M174.5,258.6h1.6c0.1,0.8,0.7,1.1,1.5,1.1c0.8,0,1.2-0.3,1.2-0.8c0-0.6-0.8-0.7-1.8-0.9
		c-1.2-0.2-2.4-0.6-2.4-2c0-1.4,1.2-2.1,2.7-2.1c1.8,0,2.7,0.9,2.9,2.2h-1.6c-0.1-0.7-0.5-1-1.3-1c-0.7,0-1.1,0.3-1.1,0.7
		c0,0.6,0.9,0.6,1.8,0.8c1.1,0.2,2.4,0.5,2.4,2.1c0,1.3-1.1,2.1-2.8,2.1C175.7,261,174.6,260,174.5,258.6z"/>
	<path class="st0" d="M180.9,257.4c0-2,1.3-3.5,3.3-3.5c2.1,0,3.3,1.6,3.3,4h-4.8c0.1,1,0.7,1.7,1.7,1.7c0.7,0,1.1-0.3,1.3-0.8h1.7
		c-0.2,1.2-1.3,2.2-3,2.2C182.2,261,180.9,259.4,180.9,257.4z M182.7,256.7h3c-0.1-0.8-0.6-1.4-1.4-1.4
		C183.3,255.3,182.8,255.9,182.7,256.7z"/>
	<path class="st0" d="M187.7,254.1h0.9V252h1.7v2.1h1.1v1.2h-1.1v3.5c0,0.5,0.3,0.7,0.7,0.7c0.2,0,0.5,0,0.5,0v1.3c0,0-0.4,0-1.1,0
		c-0.9,0-1.8-0.3-1.8-1.6v-3.9h-0.9V254.1z"/>
	<path class="st0" d="M192,254.1h0.9V252h1.7v2.1h1.1v1.2h-1.1v3.5c0,0.5,0.3,0.7,0.7,0.7c0.2,0,0.5,0,0.5,0v1.3c0,0-0.4,0-1.1,0
		c-0.9,0-1.8-0.3-1.8-1.6v-3.9H192V254.1z"/>
	<path class="st0" d="M196.2,258.6h1.6c0.1,0.8,0.7,1.1,1.5,1.1c0.8,0,1.2-0.3,1.2-0.8c0-0.6-0.8-0.7-1.8-0.9
		c-1.2-0.2-2.4-0.6-2.4-2c0-1.4,1.2-2.1,2.7-2.1c1.8,0,2.7,0.9,2.9,2.2h-1.6c-0.1-0.7-0.5-1-1.3-1c-0.7,0-1.1,0.3-1.1,0.7
		c0,0.6,0.9,0.6,1.8,0.8c1.1,0.2,2.4,0.5,2.4,2.1c0,1.3-1.1,2.1-2.8,2.1C197.4,261,196.3,260,196.2,258.6z"/>
	<path class="st0" d="M205.3,251.5h1.9v9.3h-1.9V251.5z"/>
	<path class="st0" d="M210.2,255L210.2,255c0.5-0.7,1.1-1.1,2-1.1c1.4,0,2.3,1,2.3,2.5v4.4h-1.8v-4.1c0-0.7-0.4-1.2-1.2-1.2
		c-0.8,0-1.4,0.6-1.4,1.5v3.8h-1.8v-6.7h1.7V255z"/>
	<path class="st0" d="M215.2,258.6h1.6c0.1,0.8,0.7,1.1,1.5,1.1c0.8,0,1.2-0.3,1.2-0.8c0-0.6-0.8-0.7-1.8-0.9
		c-1.2-0.2-2.4-0.6-2.4-2c0-1.4,1.2-2.1,2.7-2.1c1.8,0,2.7,0.9,2.9,2.2h-1.6c-0.1-0.7-0.5-1-1.3-1c-0.7,0-1.1,0.3-1.1,0.7
		c0,0.6,0.9,0.6,1.8,0.8c1.1,0.2,2.4,0.5,2.4,2.1c0,1.3-1.1,2.1-2.8,2.1C216.4,261,215.3,260,215.2,258.6z"/>
	<path class="st0" d="M221.5,254.1h0.9V252h1.7v2.1h1.1v1.2h-1.1v3.5c0,0.5,0.3,0.7,0.7,0.7c0.2,0,0.5,0,0.5,0v1.3c0,0-0.4,0-1.1,0
		c-0.9,0-1.8-0.3-1.8-1.6v-3.9h-0.9V254.1z"/>
	<path class="st0" d="M226.1,251.5h1.8v1.6h-1.8V251.5z M226.1,254.1h1.8v6.7h-1.8V254.1z"/>
	<path class="st0" d="M228.5,254.1h0.9V252h1.7v2.1h1.1v1.2h-1.1v3.5c0,0.5,0.3,0.7,0.7,0.7c0.2,0,0.5,0,0.5,0v1.3c0,0-0.4,0-1.1,0
		c-0.9,0-1.8-0.3-1.8-1.6v-3.9h-0.9V254.1z"/>
	<path class="st0" d="M237.3,260.8V260h0c-0.5,0.6-1,1-1.9,1c-1.5,0-2.3-0.9-2.3-2.4v-4.4h1.8v4.1c0,0.8,0.4,1.2,1.1,1.2
		c0.8,0,1.3-0.6,1.3-1.5v-3.8h1.8v6.7H237.3z"/>
	<path class="st0" d="M239.6,254.1h0.9V252h1.7v2.1h1.1v1.2h-1.1v3.5c0,0.5,0.3,0.7,0.7,0.7c0.2,0,0.5,0,0.5,0v1.3c0,0-0.4,0-1.1,0
		c-0.9,0-1.8-0.3-1.8-1.6v-3.9h-0.9V254.1z"/>
	<path class="st0" d="M243.8,257.4c0-2,1.3-3.5,3.3-3.5c2.1,0,3.3,1.6,3.3,4h-4.8c0.1,1,0.7,1.7,1.7,1.7c0.7,0,1.1-0.3,1.3-0.8h1.7
		c-0.2,1.2-1.3,2.2-3,2.2C245,261,243.8,259.4,243.8,257.4z M245.6,256.7h3c-0.1-0.8-0.6-1.4-1.4-1.4
		C246.2,255.3,245.7,255.9,245.6,256.7z"/>
	<path class="st0" d="M253,257.5c0-2,1.4-3.5,3.5-3.5c2.1,0,3.5,1.5,3.5,3.5c0,2-1.4,3.5-3.5,3.5C254.5,261,253,259.4,253,257.5z
		 M258.2,257.5c0-1.3-0.6-2.2-1.7-2.2c-1.1,0-1.7,0.9-1.7,2.2s0.6,2.2,1.7,2.2C257.6,259.6,258.2,258.8,258.2,257.5z"/>
	<path class="st0" d="M260.2,254.1h0.9v-0.6c0-1.6,1.3-2.2,3-2v1.4c-0.8,0-1.2,0.1-1.2,0.8v0.5h1.2v1.2h-1.2v5.4h-1.8v-5.4h-0.9
		V254.1z"/>
	<path class="st0" d="M266.8,251.5h7.5v1.6h-2.8v7.7h-1.9v-7.7h-2.8V251.5z"/>
	<path class="st0" d="M273.5,257.4c0-2,1.3-3.5,3.3-3.5c2.1,0,3.3,1.6,3.3,4h-4.8c0.1,1,0.7,1.7,1.7,1.7c0.7,0,1.1-0.3,1.3-0.8h1.7
		c-0.2,1.2-1.3,2.2-3,2.2C274.8,261,273.5,259.4,273.5,257.4z M275.3,256.7h3c-0.1-0.8-0.6-1.4-1.4-1.4
		C275.9,255.3,275.4,255.9,275.3,256.7z"/>
	<path class="st0" d="M280.6,257.5c0-2,1.3-3.5,3.3-3.5c1.7,0,2.8,1,3,2.4h-1.7c-0.1-0.6-0.6-1-1.2-1c-1.1,0-1.6,0.8-1.6,2.1
		c0,1.3,0.5,2.1,1.6,2.1c0.7,0,1.2-0.4,1.3-1.1h1.7c-0.1,1.4-1.2,2.5-3,2.5C281.9,261,280.6,259.4,280.6,257.5z"/>
	<path class="st0" d="M289.6,255L289.6,255c0.5-0.7,1.1-1.1,2-1.1c1.4,0,2.3,1,2.3,2.5v4.4h-1.8v-4.1c0-0.7-0.4-1.2-1.2-1.2
		c-0.8,0-1.4,0.6-1.4,1.5v3.8h-1.8v-9.3h1.8V255z"/>
	<path class="st0" d="M296.7,255L296.7,255c0.5-0.7,1.1-1.1,2-1.1c1.4,0,2.3,1,2.3,2.5v4.4h-1.8v-4.1c0-0.7-0.4-1.2-1.2-1.2
		c-0.8,0-1.4,0.6-1.4,1.5v3.8H295v-6.7h1.7V255z"/>
	<path class="st0" d="M301.8,257.5c0-2,1.4-3.5,3.5-3.5c2.1,0,3.5,1.5,3.5,3.5c0,2-1.4,3.5-3.5,3.5
		C303.2,261,301.8,259.4,301.8,257.5z M306.9,257.5c0-1.3-0.6-2.2-1.7-2.2c-1.1,0-1.7,0.9-1.7,2.2s0.6,2.2,1.7,2.2
		C306.3,259.6,306.9,258.8,306.9,257.5z"/>
	<path class="st0" d="M309.6,251.5h1.8v9.3h-1.8V251.5z"/>
	<path class="st0" d="M312.2,257.5c0-2,1.4-3.5,3.5-3.5c2.1,0,3.5,1.5,3.5,3.5c0,2-1.4,3.5-3.5,3.5
		C313.6,261,312.2,259.4,312.2,257.5z M317.4,257.5c0-1.3-0.6-2.2-1.7-2.2c-1.1,0-1.7,0.9-1.7,2.2s0.6,2.2,1.7,2.2
		C316.8,259.6,317.4,258.8,317.4,257.5z"/>
	<path class="st0" d="M319.8,261h1.8c0.1,0.4,0.5,0.7,1.3,0.7c1,0,1.5-0.5,1.5-1.4v-0.7h0c-0.4,0.4-0.9,0.8-1.7,0.8
		c-1.5,0-2.9-1.2-2.9-3.2c0-2,1.2-3.3,2.9-3.3c0.8,0,1.4,0.3,1.8,0.9h0v-0.7h1.7v6.2c0,0.9-0.3,1.6-0.8,2c-0.6,0.5-1.4,0.8-2.4,0.8
		C321.1,263.1,320,262.3,319.8,261z M324.5,257.2c0-1-0.5-1.8-1.6-1.8c-0.9,0-1.5,0.7-1.5,1.8c0,1.1,0.6,1.8,1.5,1.8
		C324,259,324.5,258.1,324.5,257.2z"/>
	<path class="st0" d="M327.3,261.6h0.6c0.7,0,1-0.4,1-0.9c0-0.4-0.1-0.8-0.5-1.8l-1.8-4.7h1.9l1,3c0.2,0.6,0.4,1.5,0.4,1.5h0
		c0,0,0.2-0.8,0.4-1.5l0.9-3h1.8l-2.3,6.8c-0.5,1.5-1,2-2.4,2h-1V261.6z"/>
</g>
<g>
	<path class="st0" d="M158.4,27.4h4.6c1.2,0,2,0.4,2.6,1.1c0.5,0.5,0.7,1.3,0.7,2.1c0,2-1.2,3.2-3.6,3.2h-3v4.6h-1.4V27.4z
		 M159.8,32.7h2.9c1.6,0,2.3-0.8,2.3-2c0-1.3-0.8-2-2.2-2h-3V32.7z"/>
	<path class="st0" d="M168.4,31.8L168.4,31.8c0.5-0.8,1.3-1.4,2.4-1.4c0.2,0,0.4,0,0.5,0.1v1.2h0c-0.2-0.1-0.3-0.1-0.6-0.1
		c-1.2,0-2.3,0.9-2.3,2.4v4.4h-1.2v-8h1.2V31.8z"/>
	<path class="st0" d="M171.9,27.4h1.2V29h-1.2V27.4z M171.9,30.5h1.2v8h-1.2V30.5z"/>
	<path class="st0" d="M174.1,34.5c0-2.3,1.5-4.2,3.8-4.2c1.9,0,3.1,1.1,3.4,2.8h-1.3c-0.2-1.1-0.9-1.7-2.1-1.7
		c-1.7,0-2.6,1.4-2.6,3.2s0.9,3.1,2.6,3.1c1.3,0,2.1-0.7,2.2-2h1.2c-0.2,1.9-1.4,3-3.4,3C175.6,38.7,174.1,36.8,174.1,34.5z"/>
	<path class="st0" d="M181.8,34.5c0-2.3,1.5-4.2,3.8-4.2c2.4,0,3.7,1.8,3.7,4.5H183c0.1,1.6,1,2.8,2.6,2.8c1.2,0,1.9-0.6,2.2-1.6
		h1.2c-0.4,1.7-1.6,2.7-3.4,2.7C183.2,38.7,181.8,36.8,181.8,34.5z M183.1,33.8h4.8c-0.1-1.6-0.9-2.6-2.3-2.6
		C184,31.3,183.2,32.4,183.1,33.8z"/>
	<path class="st0" d="M195.4,38.5c-2.7-0.2-3.7-1.8-3.8-3.6h1.3c0.1,1.5,0.8,2.4,2.5,2.5v-4c-1.9-0.4-3.3-0.9-3.3-2.9
		c0-1.7,1.3-2.8,3.3-2.9v-0.8h0.9v0.8c2.1,0.2,3.1,1.2,3.3,2.8h-1.2c-0.1-1-0.8-1.6-2-1.8v3.7c2,0.4,3.5,0.9,3.5,3
		c0,1.8-1.5,3-3.5,3.1v1.3h-0.9V38.5z M195.4,32.2v-3.6c-1.2,0.1-2.1,0.7-2.1,1.8C193.3,31.4,194,31.9,195.4,32.2z M196.3,33.6v3.8
		c1.2-0.1,2.3-0.8,2.3-2C198.6,34.3,197.8,34,196.3,33.6z"/>
	<path class="st0" d="M204.3,33.5c1.4-0.8,2.2-1.3,2.2-2.6c0-1.3-0.9-2.2-2.3-2.2c-0.7,0-1.3,0.2-1.7,0.7c-0.4,0.4-0.6,1-0.6,2.1
		h-1.4c0-1.4,0.4-2.2,1-2.9c0.7-0.7,1.7-1,2.7-1c2.1,0,3.5,1.4,3.5,3.2c0,2-1.4,2.7-3.1,3.6c-1.1,0.6-2.6,1.5-2.9,2.7h5.8v1.2h-7.3
		C200.5,35.6,202.5,34.6,204.3,33.5z"/>
	<path class="st0" d="M208.8,36.9h1.5v1.5h-1.5V36.9z"/>
	<path class="st0" d="M211.3,33.2c0-3.4,1.6-5.5,4.1-5.5s4.1,2.1,4.1,5.5c0,3.4-1.5,5.5-4.1,5.5C212.8,38.7,211.3,36.5,211.3,33.2z
		 M218.1,33.2c0-2.7-0.9-4.4-2.7-4.4c-1.9,0-2.8,1.7-2.8,4.4c0,2.7,0.9,4.4,2.8,4.4C217.3,37.6,218.1,35.9,218.1,33.2z"/>
	<path class="st0" d="M220.5,33.2c0-3.4,1.6-5.5,4.1-5.5s4.1,2.1,4.1,5.5c0,3.4-1.5,5.5-4.1,5.5C222,38.7,220.5,36.5,220.5,33.2z
		 M227.4,33.2c0-2.7-0.9-4.4-2.7-4.4c-1.9,0-2.8,1.7-2.8,4.4c0,2.7,0.9,4.4,2.8,4.4C226.5,37.6,227.4,35.9,227.4,33.2z"/>
</g>
</svg>
