<?xml version="1.0" encoding="utf-8"?>
<!-- Generator: Adobe Illustrator 20.0.0, SVG Export Plug-In . SVG Version: 6.00 Build 0)  -->
<!DOCTYPE svg PUBLIC "-//W3C//DTD SVG 1.1//EN" "http://www.w3.org/Graphics/SVG/1.1/DTD/svg11.dtd">
<svg version="1.1" id="Layer_1" xmlns="http://www.w3.org/2000/svg" xmlns:xlink="http://www.w3.org/1999/xlink" x="0px" y="0px"
	 viewBox="0 0 825 1167" style="enable-background:new 0 0 825 1167;" xml:space="preserve">
<style type="text/css">
	.st0{fill:#FFFFFF;}
</style>
<g>
	<g>
		<path class="st0" d="M14.9,212.6h56.4v7.9H47.6v63.4h-9v-63.4H14.9V212.6z"/>
		<path class="st0" d="M63.5,258.1c0-15,9.8-27.1,24.4-27.1c15.5,0,23.7,12,23.7,29H71.8c0.6,10.5,6.3,18.4,16.7,18.4
			c7.5,0,12.5-3.6,14.3-10.6h7.9c-2.4,11.1-10.5,17.3-22.1,17.3C72.7,285.3,63.5,273.1,63.5,258.1z M72,254h31
			c-0.5-10.3-5.8-16.6-15.1-16.6C78.4,237.4,73.2,244.6,72,254z"/>
		<path class="st0" d="M115.3,258.1c0-15,9.6-27.1,24.9-27.1c12.2,0,20.2,7,22,17.9h-8.2c-1.2-7-6.1-11.3-13.9-11.3
			c-11,0-16.7,9.1-16.7,20.4c0,11.4,5.7,20.3,16.7,20.3c8.4,0,13.4-4.8,14.1-12.8h8c-1.1,12.4-9.2,19.5-22,19.5
			C124.9,285.3,115.3,273.1,115.3,258.1z"/>
		<path class="st0" d="M176.6,239.1h0.2c3.7-4.9,8.9-8,16.4-8c10.8,0,17.3,5.9,17.3,16.6v36.2h-8.1v-35.5c0-6.7-4.4-10.5-11.7-10.5
			c-8.2,0-14.2,5.8-14.2,14.3v31.7h-8.1v-71.3h8.1V239.1z"/>
		<path class="st0" d="M227.6,239.1h0.2c3.7-4.9,8.9-8,16.4-8c10.8,0,17.3,5.9,17.3,16.6v36.2h-8.1v-35.5c0-6.7-4.4-10.5-11.7-10.5
			c-8.2,0-14.2,5.8-14.2,14.3v31.7h-8.1v-51.5h8.1V239.1z"/>
		<path class="st0" d="M267.7,258.1c0-15,9.6-27.1,24.9-27.1c15.5,0,24.8,12.2,24.8,27.1c0,15-9.4,27.1-24.8,27.1
			C277.3,285.3,267.7,273.1,267.7,258.1z M309.2,258.1c0-11.4-5.6-20.4-16.6-20.4c-11,0-16.7,9.1-16.7,20.4
			c0,11.4,5.7,20.3,16.7,20.3C303.6,278.5,309.2,269.5,309.2,258.1z"/>
		<path class="st0" d="M324.2,212.6h8.1v71.3h-8.1V212.6z"/>
		<path class="st0" d="M338.8,258.1c0-15,9.6-27.1,24.9-27.1c15.5,0,24.8,12.2,24.8,27.1c0,15-9.4,27.1-24.8,27.1
			C348.4,285.3,338.8,273.1,338.8,258.1z M380.3,258.1c0-11.4-5.6-20.4-16.6-20.4c-11,0-16.7,9.1-16.7,20.4
			c0,11.4,5.7,20.3,16.7,20.3C374.7,278.5,380.3,269.5,380.3,258.1z"/>
		<path class="st0" d="M393.9,286.8h7.5c0.8,5.7,6.2,7.9,14.2,7.9c9.5,0,14.8-4.3,14.8-13.3v-7.3h-0.2c-3.8,4.9-7.9,8-15.3,8
			c-13.4,0-22.5-10.7-22.5-25.5c0-16.1,10.1-25.4,22-25.4c7.5,0,12.3,2.9,15.8,7.8h0.2v-6.6h8.1v48.8c0,13.6-9,19.9-22.6,19.9
			C402.3,301,394.8,295.6,393.9,286.8z M430.9,256.1c0-11.3-4.8-18.2-15.8-18.2c-9.7,0-14.6,7.6-14.6,18.7
			c0,11.3,5.1,18.6,14.7,18.6C427.1,275.3,430.9,267,430.9,256.1z"/>
		<path class="st0" d="M446.8,299.8v-7.2h0.4c1.1,0.6,2.8,1.1,5.5,1.1c3.4,0,5.7-1.3,7.7-6.3l2-5.1l-20.1-50h8.8l12.2,32.1
			c1.6,4.3,3.5,10.1,3.5,10.1h0.2c0,0,1.8-5.8,3.4-10.1l11.8-32.1h8.6l-22,55.7c-4.2,10.7-8.2,12.9-14.5,12.9
			C451,300.9,449,300.7,446.8,299.8z"/>
		<path class="st0" d="M513.3,212.6h33.3c12.6,0,21,7.9,21,19.5c0,8.7-3.8,14.9-12.4,17.6v0.3c7.3,2.6,9.6,7.6,10.3,18.1
			c0.8,11.5,2,14.4,3.3,15.3v0.4h-9.7c-1.5-1.3-1.8-4-2.6-16c-0.7-10.5-4.9-14.2-14.5-14.2h-19.8v30.1h-9V212.6z M522.3,246.5h21.1
			c10,0,15-5,15-13.1c0-8.7-4-13.1-14.5-13.1h-21.6V246.5z"/>
		<path class="st0" d="M572.8,258.1c0-15,9.8-27.1,24.4-27.1c15.5,0,23.7,12,23.7,29h-39.9c0.6,10.5,6.3,18.4,16.7,18.4
			c7.5,0,12.5-3.6,14.3-10.6h7.9c-2.4,11.1-10.5,17.3-22.1,17.3C582,285.3,572.8,273.1,572.8,258.1z M581.3,254h31
			c-0.5-10.3-5.8-16.6-15.1-16.6C587.7,237.4,582.5,244.6,581.3,254z"/>
		<path class="st0" d="M620.1,232.3h8.7l10.7,32.7c1.5,4.6,3.4,10.9,3.4,10.9h0.2c0,0,1.9-6.4,3.4-10.9l10.9-32.7h8.4l-18.5,51.5h-9
			L620.1,232.3z"/>
		<path class="st0" d="M669.5,212.6h8.1v10h-8.1V212.6z M669.5,232.3h8.1v51.5h-8.1V232.3z"/>
		<path class="st0" d="M684,258.1c0-15,9.8-27.1,24.4-27.1c15.5,0,23.7,12,23.7,29h-39.9c0.6,10.5,6.3,18.4,16.7,18.4
			c7.5,0,12.5-3.6,14.3-10.6h7.9c-2.4,11.1-10.5,17.3-22.1,17.3C693.2,285.3,684,273.1,684,258.1z M692.5,254h31
			c-0.5-10.3-5.8-16.6-15.1-16.6C698.9,237.4,693.7,244.6,692.5,254z"/>
		<path class="st0" d="M731.7,232.3h8.7l9.1,31.8c1.2,4.3,2.8,11.1,2.8,11.1h0.2c0,0,1.5-6.8,2.6-10.9l8.7-32h8.5l8.4,32
			c1.1,4.2,2.5,10.9,2.5,10.9h0.2c0,0,1.6-6.8,2.9-11.1l9.6-31.8h8.4l-16.8,51.5H779l-8.6-31.2c-1.2-4.3-2.5-10.8-2.5-10.8h-0.2
			c0,0-1.4,6.5-2.6,10.8l-8.7,31.2h-8.4L731.7,232.3z"/>
	</g>
	<g>
		<path class="st0" d="M14.9,212.6h56.4v7.9H47.6v63.4h-9v-63.4H14.9V212.6z"/>
		<path class="st0" d="M63.5,258.1c0-15,9.8-27.1,24.4-27.1c15.5,0,23.7,12,23.7,29H71.8c0.6,10.5,6.3,18.4,16.7,18.4
			c7.5,0,12.5-3.6,14.3-10.6h7.9c-2.4,11.1-10.5,17.3-22.1,17.3C72.7,285.3,63.5,273.1,63.5,258.1z M72,254h31
			c-0.5-10.3-5.8-16.6-15.1-16.6C78.4,237.4,73.2,244.6,72,254z"/>
		<path class="st0" d="M115.3,258.1c0-15,9.6-27.1,24.9-27.1c12.2,0,20.2,7,22,17.9h-8.2c-1.2-7-6.1-11.3-13.9-11.3
			c-11,0-16.7,9.1-16.7,20.4c0,11.4,5.7,20.3,16.7,20.3c8.4,0,13.4-4.8,14.1-12.8h8c-1.1,12.4-9.2,19.5-22,19.5
			C124.9,285.3,115.3,273.1,115.3,258.1z"/>
		<path class="st0" d="M176.6,239.1h0.2c3.7-4.9,8.9-8,16.4-8c10.8,0,17.3,5.9,17.3,16.6v36.2h-8.1v-35.5c0-6.7-4.4-10.5-11.7-10.5
			c-8.2,0-14.2,5.8-14.2,14.3v31.7h-8.1v-71.3h8.1V239.1z"/>
		<path class="st0" d="M227.6,239.1h0.2c3.7-4.9,8.9-8,16.4-8c10.8,0,17.3,5.9,17.3,16.6v36.2h-8.1v-35.5c0-6.7-4.4-10.5-11.7-10.5
			c-8.2,0-14.2,5.8-14.2,14.3v31.7h-8.1v-51.5h8.1V239.1z"/>
		<path class="st0" d="M267.7,258.1c0-15,9.6-27.1,24.9-27.1c15.5,0,24.8,12.2,24.8,27.1c0,15-9.4,27.1-24.8,27.1
			C277.3,285.3,267.7,273.1,267.7,258.1z M309.2,258.1c0-11.4-5.6-20.4-16.6-20.4c-11,0-16.7,9.1-16.7,20.4
			c0,11.4,5.7,20.3,16.7,20.3C303.6,278.5,309.2,269.5,309.2,258.1z"/>
		<path class="st0" d="M324.2,212.6h8.1v71.3h-8.1V212.6z"/>
		<path class="st0" d="M338.8,258.1c0-15,9.6-27.1,24.9-27.1c15.5,0,24.8,12.2,24.8,27.1c0,15-9.4,27.1-24.8,27.1
			C348.4,285.3,338.8,273.1,338.8,258.1z M380.3,258.1c0-11.4-5.6-20.4-16.6-20.4c-11,0-16.7,9.1-16.7,20.4
			c0,11.4,5.7,20.3,16.7,20.3C374.7,278.5,380.3,269.5,380.3,258.1z"/>
		<path class="st0" d="M393.9,286.8h7.5c0.8,5.7,6.2,7.9,14.2,7.9c9.5,0,14.8-4.3,14.8-13.3v-7.3h-0.2c-3.8,4.9-7.9,8-15.3,8
			c-13.4,0-22.5-10.7-22.5-25.5c0-16.1,10.1-25.4,22-25.4c7.5,0,12.3,2.9,15.8,7.8h0.2v-6.6h8.1v48.8c0,13.6-9,19.9-22.6,19.9
			C402.3,301,394.8,295.6,393.9,286.8z M430.9,256.1c0-11.3-4.8-18.2-15.8-18.2c-9.7,0-14.6,7.6-14.6,18.7
			c0,11.3,5.1,18.6,14.7,18.6C427.1,275.3,430.9,267,430.9,256.1z"/>
		<path class="st0" d="M446.8,299.8v-7.2h0.4c1.1,0.6,2.8,1.1,5.5,1.1c3.4,0,5.7-1.3,7.7-6.3l2-5.1l-20.1-50h8.8l12.2,32.1
			c1.6,4.3,3.5,10.1,3.5,10.1h0.2c0,0,1.8-5.8,3.4-10.1l11.8-32.1h8.6l-22,55.7c-4.2,10.7-8.2,12.9-14.5,12.9
			C451,300.9,449,300.7,446.8,299.8z"/>
		<path class="st0" d="M513.3,212.6h33.3c12.6,0,21,7.9,21,19.5c0,8.7-3.8,14.9-12.4,17.6v0.3c7.3,2.6,9.6,7.6,10.3,18.1
			c0.8,11.5,2,14.4,3.3,15.3v0.4h-9.7c-1.5-1.3-1.8-4-2.6-16c-0.7-10.5-4.9-14.2-14.5-14.2h-19.8v30.1h-9V212.6z M522.3,246.5h21.1
			c10,0,15-5,15-13.1c0-8.7-4-13.1-14.5-13.1h-21.6V246.5z"/>
		<path class="st0" d="M572.8,258.1c0-15,9.8-27.1,24.4-27.1c15.5,0,23.7,12,23.7,29h-39.9c0.6,10.5,6.3,18.4,16.7,18.4
			c7.5,0,12.5-3.6,14.3-10.6h7.9c-2.4,11.1-10.5,17.3-22.1,17.3C582,285.3,572.8,273.1,572.8,258.1z M581.3,254h31
			c-0.5-10.3-5.8-16.6-15.1-16.6C587.7,237.4,582.5,244.6,581.3,254z"/>
		<path class="st0" d="M620.1,232.3h8.7l10.7,32.7c1.5,4.6,3.4,10.9,3.4,10.9h0.2c0,0,1.9-6.4,3.4-10.9l10.9-32.7h8.4l-18.5,51.5h-9
			L620.1,232.3z"/>
		<path class="st0" d="M669.5,212.6h8.1v10h-8.1V212.6z M669.5,232.3h8.1v51.5h-8.1V232.3z"/>
		<path class="st0" d="M684,258.1c0-15,9.8-27.1,24.4-27.1c15.5,0,23.7,12,23.7,29h-39.9c0.6,10.5,6.3,18.4,16.7,18.4
			c7.5,0,12.5-3.6,14.3-10.6h7.9c-2.4,11.1-10.5,17.3-22.1,17.3C693.2,285.3,684,273.1,684,258.1z M692.5,254h31
			c-0.5-10.3-5.8-16.6-15.1-16.6C698.9,237.4,693.7,244.6,692.5,254z"/>
		<path class="st0" d="M731.7,232.3h8.7l9.1,31.8c1.2,4.3,2.8,11.1,2.8,11.1h0.2c0,0,1.5-6.8,2.6-10.9l8.7-32h8.5l8.4,32
			c1.1,4.2,2.5,10.9,2.5,10.9h0.2c0,0,1.6-6.8,2.9-11.1l9.6-31.8h8.4l-16.8,51.5H779l-8.6-31.2c-1.2-4.3-2.5-10.8-2.5-10.8h-0.2
			c0,0-1.4,6.5-2.6,10.8l-8.7,31.2h-8.4L731.7,232.3z"/>
	</g>
</g>
<g>
	<path class="st0" d="M280.7,296.9h8.7v1.9h-6.5v2.9h5.7v1.8h-5.7v3.4h6.6v1.9h-8.9V296.9z"/>
	<path class="st0" d="M290.2,304.6c0-2.7,1.5-4.5,3.7-4.5c1.2,0,2.1,0.6,2.6,1.5h0c0-0.5-0.1-1.1-0.1-1.8v-2.8h2v11.9h-2v-1.2h0
		c-0.5,1-1.5,1.5-2.6,1.5C291.7,309.1,290.2,307.3,290.2,304.6z M296.6,304.6c0-1.7-0.8-2.9-2.3-2.9c-1.4,0-2.1,1.2-2.1,2.9
		c0,1.7,0.7,2.9,2.1,2.9C295.8,307.4,296.6,306.2,296.6,304.6z"/>
	<path class="st0" d="M300.1,296.9h2.1v2h-2.1V296.9z M300.1,300.3h2v8.5h-2V300.3z"/>
	<path class="st0" d="M302.9,300.3h1.3v-2.7h2v2.7h1.7v1.4h-1.7v4.8c0,0.6,0.3,0.8,0.9,0.8c0.2,0,0.5,0,0.7-0.1h0.1v1.6
		c-0.3,0.1-0.8,0.1-1.3,0.1c-1.4,0-2.3-0.5-2.3-2v-5.2h-1.3V300.3z"/>
	<path class="st0" d="M308.3,304.6c0-2.5,1.7-4.5,4.2-4.5c1.2,0,2.2,0.4,2.9,1.2c0.8,0.9,1.2,2.2,1.2,3.8h-6.4
		c0.1,1.5,0.9,2.5,2.4,2.5c1,0,1.6-0.4,1.9-1.1h2c-0.4,1.5-1.8,2.7-3.9,2.7C309.9,309.1,308.3,307.1,308.3,304.6z M310.3,303.8h4.3
		c-0.1-1.4-0.8-2.3-2.1-2.3C311.2,301.5,310.5,302.4,310.3,303.8z"/>
	<path class="st0" d="M317.4,304.6c0-2.7,1.5-4.5,3.7-4.5c1.2,0,2.1,0.6,2.6,1.5h0c0-0.5-0.1-1.1-0.1-1.8v-2.8h2v11.9h-2v-1.2h0
		c-0.5,1-1.5,1.5-2.6,1.5C318.8,309.1,317.4,307.3,317.4,304.6z M323.8,304.6c0-1.7-0.8-2.9-2.3-2.9c-1.4,0-2.1,1.2-2.1,2.9
		c0,1.7,0.7,2.9,2.1,2.9C323,307.4,323.8,306.2,323.8,304.6z"/>
	<path class="st0" d="M336.2,307.7L336.2,307.7c-0.6,0.8-1.4,1.3-2.7,1.3c-1.7,0-2.9-0.9-2.9-2.5c0-1.9,1.5-2.4,3.5-2.6
		c1.4-0.2,2.1-0.4,2.1-1.2c0-0.7-0.5-1.2-1.5-1.2c-1.1,0-1.7,0.5-1.7,1.4H331c0.1-1.5,1.2-2.8,3.6-2.8c1,0,1.7,0.1,2.3,0.5
		c0.8,0.5,1.2,1.3,1.2,2.4v4.5c0,0.7,0.1,1.1,0.3,1.2v0.1h-2C336.4,308.6,336.2,308.3,336.2,307.7z M336.2,305.7v-1.3
		c-0.4,0.3-1,0.4-1.7,0.6c-1.2,0.2-2,0.5-2,1.4c0,0.9,0.7,1.2,1.5,1.2C335.5,307.6,336.2,306.7,336.2,305.7z"/>
	<path class="st0" d="M338.9,300.3h1.3v-2.7h2v2.7h1.7v1.4h-1.7v4.8c0,0.6,0.3,0.8,0.9,0.8c0.2,0,0.5,0,0.7-0.1h0.1v1.6
		c-0.3,0.1-0.8,0.1-1.3,0.1c-1.4,0-2.3-0.5-2.3-2v-5.2h-1.3V300.3z"/>
	<path class="st0" d="M348.2,300.3h1.3v-2.7h2v2.7h1.7v1.4h-1.7v4.8c0,0.6,0.3,0.8,0.9,0.8c0.2,0,0.5,0,0.7-0.1h0.1v1.6
		c-0.3,0.1-0.8,0.1-1.3,0.1c-1.4,0-2.3-0.5-2.3-2v-5.2h-1.3V300.3z"/>
	<path class="st0" d="M356.2,301.5L356.2,301.5c0.6-0.9,1.5-1.5,2.7-1.5c1.8,0,2.9,1.1,2.9,3v5.8h-2v-5.5c0-1-0.6-1.6-1.6-1.6
		c-1.1,0-1.9,0.9-1.9,2.1v5h-2v-11.9h2v3.2C356.3,300.3,356.2,301,356.2,301.5z"/>
	<path class="st0" d="M362.9,304.6c0-2.5,1.7-4.5,4.2-4.5c1.2,0,2.2,0.4,2.9,1.2c0.8,0.9,1.2,2.2,1.2,3.8h-6.4
		c0.1,1.5,0.9,2.5,2.4,2.5c1,0,1.6-0.4,1.9-1.1h2c-0.4,1.5-1.8,2.7-3.9,2.7C364.5,309.1,362.9,307.1,362.9,304.6z M365,303.8h4.3
		c-0.1-1.4-0.8-2.3-2.1-2.3C365.8,301.5,365.1,302.4,365,303.8z"/>
</g>
<g>
	<path class="st0" d="M11.9,35.4v-0.6h2v0.5c0,1.5,0.5,2,1.6,2c1,0,1.5-0.5,1.5-1.6v-8H19v8.1c0,0.9-0.2,1.7-0.8,2.2
		c-0.6,0.7-1.5,1.1-2.7,1.1C13.2,39,11.9,37.8,11.9,35.4z"/>
	<path class="st0" d="M25.4,37.8L25.4,37.8c-0.6,0.7-1.3,1.2-2.5,1.2c-1.6,0-2.7-0.8-2.7-2.4c0-1.8,1.4-2.2,3.3-2.5
		c1.3-0.2,2-0.4,2-1.1c0-0.7-0.5-1.2-1.4-1.2c-1.1,0-1.6,0.5-1.6,1.3h-1.8c0.1-1.4,1.1-2.6,3.4-2.6c0.9,0,1.6,0.1,2.1,0.5
		c0.8,0.5,1.1,1.2,1.1,2.3v4.2c0,0.7,0.1,1,0.3,1.1v0.1h-1.8C25.5,38.7,25.4,38.3,25.4,37.8z M25.4,35.9v-1.2
		c-0.4,0.2-1,0.4-1.6,0.5c-1.2,0.2-1.8,0.5-1.8,1.4c0,0.9,0.6,1.1,1.4,1.1C24.7,37.7,25.4,36.8,25.4,35.9z"/>
	<path class="st0" d="M30.5,32L30.5,32c0.6-0.9,1.4-1.4,2.5-1.4c1.7,0,2.8,1.1,2.8,2.8v5.4h-1.9v-5.1c0-0.9-0.6-1.5-1.5-1.5
		c-1.1,0-1.8,0.8-1.8,2v4.7h-1.9v-8h1.9V32z"/>
	<path class="st0" d="M42.4,38.8v-1.1h0C41.7,38.6,41,39,39.9,39c-1.8,0-2.8-1.1-2.8-2.8v-5.4H39V36c0,0.9,0.5,1.5,1.5,1.5
		c1.1,0,1.8-0.8,1.8-1.9v-4.7h1.9v8H42.4z"/>
	<path class="st0" d="M50.5,37.8L50.5,37.8C50,38.5,49.3,39,48,39c-1.6,0-2.7-0.8-2.7-2.4c0-1.8,1.4-2.2,3.3-2.5
		c1.3-0.2,2-0.4,2-1.1c0-0.7-0.5-1.2-1.4-1.2c-1.1,0-1.6,0.5-1.6,1.3h-1.8c0.1-1.4,1.1-2.6,3.4-2.6c0.9,0,1.6,0.1,2.1,0.5
		c0.8,0.5,1.1,1.2,1.1,2.3v4.2c0,0.7,0.1,1,0.3,1.1v0.1h-1.8C50.7,38.7,50.6,38.3,50.5,37.8z M50.6,35.9v-1.2
		c-0.4,0.2-1,0.4-1.6,0.5c-1.2,0.2-1.8,0.5-1.8,1.4c0,0.9,0.6,1.1,1.4,1.1C49.8,37.7,50.6,36.8,50.6,35.9z"/>
	<path class="st0" d="M55.6,32.3L55.6,32.3c0.6-1,1.3-1.6,2.3-1.6c0.2,0,0.4,0,0.5,0.1v1.7h-0.1c-0.2,0-0.3-0.1-0.5-0.1
		c-1.3,0-2.2,0.8-2.2,2.4v4h-1.9v-8h1.8V32.3z"/>
	<path class="st0" d="M59.6,41.5v-1.5h0.1c0.1,0,0.6,0.1,0.8,0.1c0.6,0,1-0.2,1.2-0.9c0-0.2,0.1-0.9-0.1-1.3l-2.8-7h2l1.3,3.7
		c0.3,1,0.7,2.5,0.7,2.5h0c0,0,0.4-1.5,0.7-2.5l1.3-3.7h1.9l-3.1,8.5c-0.7,1.8-1.4,2.3-2.7,2.3C60.8,41.6,59.8,41.5,59.6,41.5z"/>
	<path class="st0" d="M66.6,40.4c0.6-0.2,1-0.6,1-1.5v-0.1h-1v-2.1h2.1v2.1c0,1.6-0.8,2.4-2.1,2.5V40.4z"/>
	<path class="st0" d="M14.2,48.8h-2.5v-1.3c1.5,0,2.7-0.6,2.9-2.1h1.5v10.8h-2V48.8z"/>
	<path class="st0" d="M17.9,53.5h1.9c0.1,0.7,0.7,1.3,1.9,1.3c0.8,0,1.3-0.3,1.7-0.8c0.4-0.6,0.7-1.5,0.7-2.8h0
		c-0.7,0.9-1.5,1.4-2.7,1.4c-2.1,0-3.7-1.6-3.7-3.7c0-2.1,1.7-3.7,4-3.7c1.2,0,2.1,0.4,2.8,0.9c1.1,0.9,1.5,2.4,1.5,4.6
		c0,2-0.4,3.5-1.4,4.5C24,56,23,56.4,21.8,56.4C19.6,56.4,18.1,55.1,17.9,53.5z M24,48.9c0-1.3-1-2.2-2.2-2.2
		c-1.3,0-2.2,0.9-2.2,2.2c0,1.3,0.9,2.2,2.2,2.2C23.1,51.1,24,50.2,24,48.9z"/>
	<path class="st0" d="M32.3,47.1L32.3,47.1c0,0-1.1,0-2.3,0h-3.5v-1.7h7.7V47c-2,1.9-4,5.2-4.1,9.1H28
		C28.2,52.3,30.2,48.8,32.3,47.1z"/>
	<path class="st0" d="M35.8,53.2c0.9-1,2.2-1.8,3.2-2.4c1-0.6,1.6-1.1,1.6-2.1c0-1.1-0.7-1.8-1.8-1.8c-0.6,0-1.1,0.2-1.4,0.6
		c-0.4,0.4-0.5,1-0.5,1.7h-1.9c0-1.1,0.3-2,0.8-2.6c0.6-0.8,1.7-1.3,3.2-1.3c2.3,0,3.7,1.4,3.7,3.3c0,1.6-0.9,2.3-2.1,3.1
		c-1.1,0.9-2.7,1.6-3.3,2.7v0.1h5.3v1.7h-7.9C34.7,54.8,35.1,53.9,35.8,53.2z"/>
	<path class="st0" d="M12.3,62.2h4.8c1.3,0,2.2,0.4,2.8,1c0.6,0.6,0.9,1.5,0.9,2.4c0,2.1-1.3,3.5-3.7,3.5h-2.8v4.2h-2.1V62.2z
		 M14.4,67.5h2.5c1.3,0,1.9-0.7,1.9-1.8c0-1.1-0.7-1.7-1.9-1.7h-2.5V67.5z"/>
	<path class="st0" d="M23.5,66.8L23.5,66.8c0.6-1,1.3-1.6,2.3-1.6c0.2,0,0.4,0,0.5,0.1V67h-0.1C26.2,67,26,67,25.8,67
		c-1.3,0-2.2,0.8-2.2,2.4v4h-1.9v-8h1.8V66.8z"/>
	<path class="st0" d="M27.1,62.2h2v1.8h-2V62.2z M27.2,65.4h1.9v8h-1.9V65.4z"/>
	<path class="st0" d="M30.1,69.4c0-2.4,1.6-4.2,4-4.2c2,0,3.3,1.2,3.6,2.9h-1.9c-0.2-0.9-0.8-1.4-1.7-1.4c-1.4,0-2.1,1.2-2.1,2.8
		c0,1.6,0.7,2.7,2.1,2.7c1.1,0,1.7-0.6,1.8-1.7h1.9c-0.1,1.9-1.5,3.2-3.6,3.2C31.7,73.6,30.1,71.8,30.1,69.4z"/>
	<path class="st0" d="M38.3,69.4c0-2.4,1.6-4.2,4-4.2c1.2,0,2.1,0.4,2.8,1.1c0.8,0.8,1.2,2.1,1.1,3.6h-6c0.1,1.4,0.9,2.3,2.2,2.3
		c0.9,0,1.5-0.4,1.8-1H46c-0.4,1.4-1.7,2.5-3.6,2.5C39.8,73.6,38.3,71.8,38.3,69.4z M40.2,68.7h4c-0.1-1.3-0.8-2.1-1.9-2.1
		C41,66.5,40.4,67.4,40.2,68.7z"/>
	<path class="st0" d="M47.1,75c0.6-0.2,1-0.6,1-1.5v-0.1h-1v-2.1h2.1v2.1c0,1.6-0.8,2.4-2.1,2.5V75z"/>
	<path class="st0" d="M57.6,73.5c-2.7-0.2-4-1.6-4-3.5h2c0.1,1.1,0.8,1.8,2.1,2v-3.3c0,0,0,0,0,0c-2-0.5-3.6-1-3.6-3.1
		c0-1.8,1.5-2.9,3.6-3v-1.2h0.9v1.2c2.1,0.2,3.4,1.2,3.5,3h-1.9c-0.1-0.8-0.7-1.3-1.6-1.5v3c2.1,0.5,3.8,1,3.8,3.2
		c0,2-1.6,3.1-3.8,3.2v1.6h-0.9V73.5z M57.6,66.9V64c-1,0.1-1.7,0.6-1.7,1.4C55.9,66.2,56.4,66.6,57.6,66.9z M58.5,68.9V72
		c1-0.1,1.8-0.7,1.8-1.6C60.3,69.5,59.7,69.2,58.5,68.9z"/>
	<path class="st0" d="M65.5,66.1H63v-1.3c1.5,0,2.7-0.6,2.9-2.1h1.5v10.8h-2V66.1z"/>
	<path class="st0" d="M69.2,71.3h2.1v2.1h-2.1V71.3z"/>
	<path class="st0" d="M73.8,70.4c0.9-1,2.2-1.8,3.2-2.4c1-0.6,1.6-1.1,1.6-2.1c0-1.1-0.7-1.8-1.8-1.8c-0.6,0-1.1,0.2-1.4,0.6
		c-0.4,0.4-0.5,1-0.5,1.7h-1.9c0-1.1,0.3-2,0.8-2.6c0.6-0.8,1.7-1.3,3.2-1.3c2.3,0,3.7,1.4,3.7,3.3c0,1.6-0.9,2.3-2.1,3.1
		c-1.1,0.9-2.7,1.6-3.3,2.7v0.1h5.3v1.7h-7.9C72.7,72.1,73.1,71.2,73.8,70.4z"/>
	<path class="st0" d="M81.2,70.4h2c0.2,0.9,0.9,1.6,2.1,1.6c1.3,0,2.1-0.9,2.1-2.2c0-1.3-0.9-2.1-2.1-2.1c-1,0-1.6,0.4-2,0.8h-1.9
		l1.1-5.8h6.1v1.6h-4.7l-0.6,2.7h0c0.6-0.6,1.3-0.9,2.3-0.9c1.9,0,3.6,1.4,3.6,3.7c0,2.3-1.7,3.8-4.1,3.8
		C83,73.6,81.4,72.3,81.2,70.4z"/>
</g>
<g>
	<path class="st0" d="M276.9,24.8h2.7l1.8,5.3c0.4,1.3,1,3.8,1,3.8h0c0,0,0.5-2.4,1-3.8l1.8-5.3h2.8V36h-1.9v-5.8
		c0-1.2,0.1-3.5,0.1-3.5h0c0,0-0.5,2.1-0.8,3.2l-2.1,6.1h-1.7l-2.1-6.1c-0.4-1.1-0.8-3.2-0.8-3.2h0c0,0,0.1,2.3,0.1,3.5V36h-1.9
		V24.8z"/>
	<path class="st0" d="M294.9,34.9L294.9,34.9c-0.6,0.7-1.3,1.2-2.5,1.2c-1.6,0-2.7-0.8-2.7-2.4c0-1.8,1.4-2.3,3.3-2.5
		c1.3-0.2,2-0.4,2-1.1c0-0.7-0.5-1.2-1.4-1.2c-1.1,0-1.6,0.5-1.6,1.3H290c0.1-1.4,1.1-2.6,3.4-2.6c0.9,0,1.6,0.1,2.1,0.5
		c0.8,0.5,1.1,1.2,1.1,2.3v4.2c0,0.7,0.1,1,0.3,1.1V36h-1.8C295.1,35.8,294.9,35.5,294.9,34.9z M294.9,33v-1.2
		c-0.4,0.2-1,0.4-1.6,0.5c-1.2,0.2-1.8,0.5-1.8,1.4c0,0.9,0.6,1.1,1.4,1.1C294.2,34.8,294.9,34,294.9,33z"/>
	<path class="st0" d="M300.3,29.1L300.3,29.1c0.6-0.9,1.4-1.4,2.5-1.4c1.7,0,2.8,1.1,2.8,2.8V36h-1.9v-5.1c0-0.9-0.6-1.5-1.5-1.5
		c-1.1,0-1.8,0.8-1.8,2V36h-1.9v-8h1.9V29.1z"/>
	<path class="st0" d="M312.2,34.9L312.2,34.9c-0.6,0.7-1.3,1.2-2.5,1.2c-1.6,0-2.7-0.8-2.7-2.4c0-1.8,1.4-2.3,3.3-2.5
		c1.3-0.2,2-0.4,2-1.1c0-0.7-0.5-1.2-1.4-1.2c-1.1,0-1.6,0.5-1.6,1.3h-1.8c0.1-1.4,1.1-2.6,3.4-2.6c0.9,0,1.6,0.1,2.1,0.5
		c0.8,0.5,1.1,1.2,1.1,2.3v4.2c0,0.7,0.1,1,0.3,1.1V36h-1.8C312.3,35.8,312.2,35.5,312.2,34.9z M312.2,33v-1.2
		c-0.4,0.2-1,0.4-1.6,0.5c-1.2,0.2-1.8,0.5-1.8,1.4c0,0.9,0.6,1.1,1.4,1.1C311.5,34.8,312.2,34,312.2,33z"/>
	<path class="st0" d="M315.6,36.4h1.8c0.1,0.7,0.8,1,1.8,1c1.3,0,1.9-0.6,1.9-1.8v-0.2c0-0.4,0-0.8,0-1.1h0
		c-0.5,0.8-1.2,1.2-2.3,1.2c-1.9,0-3.5-1.5-3.5-3.9c0-2.4,1.5-3.9,3.4-3.9c1.1,0,1.9,0.4,2.4,1.2h0v-1h1.8v7.5c0,1.1-0.4,2-1,2.5
		c-0.7,0.6-1.6,0.8-2.8,0.8C317.1,38.7,315.7,37.9,315.6,36.4z M321.2,31.6c0-1.4-0.7-2.4-2-2.4c-1.2,0-1.9,0.9-1.9,2.4
		c0,1.5,0.7,2.4,2,2.4C320.6,34.1,321.2,33,321.2,31.6z"/>
	<path class="st0" d="M324.3,32c0-2.4,1.6-4.2,4-4.2c1.2,0,2.1,0.4,2.8,1.1c0.8,0.8,1.2,2.1,1.1,3.6h-6c0.1,1.4,0.9,2.3,2.2,2.3
		c0.9,0,1.5-0.4,1.8-1h1.9c-0.4,1.4-1.7,2.5-3.6,2.5C325.9,36.2,324.3,34.3,324.3,32z M326.3,31.2h4c-0.1-1.3-0.8-2.1-1.9-2.1
		C327.1,29.1,326.4,30,326.3,31.2z"/>
	<path class="st0" d="M333.5,28h1.8v1.2h0c0.5-0.9,1.3-1.4,2.4-1.4c1,0,1.8,0.5,2.1,1.5h0c0.6-1,1.5-1.5,2.5-1.5
		c1.6,0,2.6,1.1,2.6,2.8V36h-1.9v-5.2c0-0.9-0.5-1.5-1.3-1.5c-0.9,0-1.6,0.8-1.6,1.9V36h-1.9v-5.2c0-0.9-0.5-1.5-1.3-1.5
		c-0.9,0-1.7,0.8-1.7,1.9V36h-1.9V28z"/>
	<path class="st0" d="M346.4,32c0-2.4,1.6-4.2,4-4.2c1.2,0,2.1,0.4,2.8,1.1c0.8,0.8,1.2,2.1,1.1,3.6h-6c0.1,1.4,0.9,2.3,2.2,2.3
		c0.9,0,1.5-0.4,1.8-1h1.9c-0.4,1.4-1.7,2.5-3.6,2.5C348,36.2,346.4,34.3,346.4,32z M348.3,31.2h4c-0.1-1.3-0.8-2.1-1.9-2.1
		C349.2,29.1,348.5,30,348.3,31.2z"/>
	<path class="st0" d="M357.5,29.1L357.5,29.1c0.6-0.9,1.4-1.4,2.5-1.4c1.7,0,2.8,1.1,2.8,2.8V36h-1.9v-5.1c0-0.9-0.6-1.5-1.5-1.5
		c-1.1,0-1.8,0.8-1.8,2V36h-1.9v-8h1.9V29.1z"/>
	<path class="st0" d="M363.8,28h1.2v-2.5h1.9V28h1.6v1.3h-1.6v4.5c0,0.6,0.3,0.8,0.9,0.8c0.2,0,0.5,0,0.6-0.1h0.1v1.5
		c-0.3,0.1-0.8,0.1-1.3,0.1c-1.3,0-2.2-0.5-2.2-1.9v-4.9h-1.2V28z"/>
	<path class="st0" d="M372.8,28h2l1.2,3.7c0.3,1.1,0.7,2.7,0.7,2.7h0c0,0,0.3-1.6,0.7-2.7l1.2-3.7h1.9l-2.8,8h-2.1L372.8,28z"/>
	<path class="st0" d="M380.8,33.5h1.8c0.2,1,0.9,1.4,1.9,1.4c1,0,1.5-0.5,1.5-1.1c0-0.8-0.8-0.9-2.1-1.2c-1.5-0.3-2.9-0.6-2.9-2.5
		c0-1.5,1.3-2.4,3.2-2.4c2.1,0,3.2,1,3.4,2.4h-1.8c-0.1-0.7-0.6-1.1-1.6-1.1c-0.9,0-1.3,0.4-1.3,1c0,0.7,0.8,0.8,2,1.1
		c1.5,0.3,3,0.6,3,2.6c0,1.7-1.4,2.6-3.4,2.6C382.2,36.2,380.9,35.1,380.8,33.5z"/>
	<path class="st0" d="M389.3,33.9h2.1V36h-2.1V33.9z"/>
	<path class="st0" d="M396.5,30.4c0-3.3,2.1-5.8,5.4-5.8c1.3,0,2.3,0.3,3.1,0.9c0.9,0.7,1.4,1.7,1.6,2.9h-2.1c-0.2-1.2-1.1-2-2.6-2
		c-2.1,0-3.3,1.7-3.3,4.1c0,2.4,1.3,4,3.3,4c1.7,0,2.6-1.1,2.7-2.5h2.1c0,1.1-0.6,2.2-1.3,3c-0.8,0.8-2,1.2-3.5,1.2
		C398.6,36.2,396.5,33.8,396.5,30.4z"/>
	<path class="st0" d="M407.7,32c0-2.4,1.6-4.2,4.1-4.2c2.5,0,4.1,1.8,4.1,4.2c0,2.4-1.6,4.2-4.1,4.2C409.3,36.2,407.7,34.3,407.7,32
		z M413.9,32c0-1.6-0.8-2.8-2.1-2.8c-1.4,0-2.1,1.2-2.1,2.8c0,1.6,0.7,2.8,2.1,2.8C413.2,34.8,413.9,33.6,413.9,32z"/>
	<path class="st0" d="M419,29.1L419,29.1c0.6-0.9,1.4-1.4,2.5-1.4c1.7,0,2.8,1.1,2.8,2.8V36h-1.9v-5.1c0-0.9-0.6-1.5-1.5-1.5
		c-1.1,0-1.8,0.8-1.8,2V36h-1.9v-8h1.9V29.1z"/>
	<path class="st0" d="M425.3,28h1.2v-2.5h1.9V28h1.6v1.3h-1.6v4.5c0,0.6,0.3,0.8,0.9,0.8c0.2,0,0.5,0,0.6-0.1h0.1v1.5
		c-0.3,0.1-0.8,0.1-1.3,0.1c-1.3,0-2.2-0.5-2.2-1.9v-4.9h-1.2V28z"/>
	<path class="st0" d="M433.1,29.4L433.1,29.4c0.6-1,1.3-1.6,2.3-1.6c0.2,0,0.4,0,0.5,0.1v1.7h-0.1c-0.2,0-0.3-0.1-0.5-0.1
		c-1.3,0-2.2,0.8-2.2,2.4v4h-1.9v-8h1.8V29.4z"/>
	<path class="st0" d="M436.5,32c0-2.4,1.6-4.2,4.1-4.2c2.5,0,4.1,1.8,4.1,4.2c0,2.4-1.6,4.2-4.1,4.2C438.1,36.2,436.5,34.3,436.5,32
		z M442.7,32c0-1.6-0.8-2.8-2.1-2.8c-1.4,0-2.1,1.2-2.1,2.8c0,1.6,0.7,2.8,2.1,2.8C442,34.8,442.7,33.6,442.7,32z"/>
	<path class="st0" d="M446,24.8h1.9V36H446V24.8z"/>
	<path class="st0" d="M453.5,24.8h2v1.8h-2V24.8z M453.5,28h1.9v8h-1.9V28z"/>
	<path class="st0" d="M459,29.1L459,29.1c0.6-0.9,1.4-1.4,2.5-1.4c1.7,0,2.8,1.1,2.8,2.8V36h-1.9v-5.1c0-0.9-0.6-1.5-1.5-1.5
		c-1.1,0-1.8,0.8-1.8,2V36h-1.9v-8h1.9V29.1z"/>
	<path class="st0" d="M469.3,28h1.2v-2.5h1.9V28h1.6v1.3h-1.6v4.5c0,0.6,0.3,0.8,0.9,0.8c0.2,0,0.5,0,0.6-0.1h0.1v1.5
		c-0.3,0.1-0.8,0.1-1.3,0.1c-1.3,0-2.2-0.5-2.2-1.9v-4.9h-1.2V28z"/>
	<path class="st0" d="M477.1,29.1L477.1,29.1c0.6-0.9,1.4-1.4,2.5-1.4c1.7,0,2.8,1.1,2.8,2.8V36h-1.9v-5.1c0-0.9-0.6-1.5-1.5-1.5
		c-1.1,0-1.8,0.8-1.8,2V36h-1.9V24.8h1.9v3C477.1,28,477.1,28.6,477.1,29.1z"/>
	<path class="st0" d="M483.7,32c0-2.4,1.6-4.2,4-4.2c1.2,0,2.1,0.4,2.8,1.1c0.8,0.8,1.2,2.1,1.1,3.6h-6c0.1,1.4,0.9,2.3,2.2,2.3
		c0.9,0,1.5-0.4,1.8-1h1.9c-0.4,1.4-1.7,2.5-3.6,2.5C485.2,36.2,483.7,34.3,483.7,32z M485.6,31.2h4c-0.1-1.3-0.8-2.1-1.9-2.1
		C486.4,29.1,485.7,30,485.6,31.2z"/>
	<path class="st0" d="M276.5,47.7c0-3.3,2.1-5.8,5.4-5.8c1.3,0,2.3,0.3,3.1,0.9c0.9,0.7,1.4,1.7,1.6,2.9h-2.1c-0.2-1.2-1.1-2-2.6-2
		c-2.1,0-3.3,1.7-3.3,4.1c0,2.4,1.3,4,3.3,4c1.7,0,2.6-1.1,2.7-2.5h2.1c0,1.1-0.6,2.2-1.4,3c-0.8,0.8-1.9,1.2-3.4,1.2
		C278.6,53.5,276.5,51,276.5,47.7z"/>
	<path class="st0" d="M287.7,49.2c0-2.4,1.6-4.2,4.1-4.2c2.5,0,4.1,1.8,4.1,4.2c0,2.4-1.6,4.2-4.1,4.2
		C289.3,53.5,287.7,51.6,287.7,49.2z M293.9,49.2c0-1.6-0.8-2.8-2.1-2.8c-1.4,0-2.1,1.2-2.1,2.8c0,1.6,0.7,2.8,2.1,2.8
		C293.1,52,293.9,50.8,293.9,49.2z"/>
	<path class="st0" d="M299,46.4L299,46.4c0.6-0.9,1.4-1.4,2.5-1.4c1.7,0,2.8,1.1,2.8,2.8v5.4h-1.9v-5.1c0-0.9-0.6-1.5-1.5-1.5
		c-1.1,0-1.8,0.8-1.8,2v4.7h-1.9v-8h1.9V46.4z"/>
	<path class="st0" d="M305.5,50.8h1.8c0.1,1,0.9,1.4,1.9,1.4c1.1,0,1.5-0.5,1.5-1.1c0-0.8-0.8-0.9-2.1-1.2c-1.5-0.3-2.9-0.6-2.9-2.5
		c0-1.5,1.3-2.4,3.2-2.4c2.1,0,3.2,1,3.4,2.4h-1.8c-0.1-0.7-0.6-1.1-1.6-1.1c-0.9,0-1.4,0.4-1.4,1c0,0.7,0.8,0.8,2,1.1
		c1.5,0.3,3,0.6,3,2.6c0,1.7-1.4,2.6-3.4,2.6C306.9,53.5,305.6,52.4,305.5,50.8z"/>
	<path class="st0" d="M313.3,45.2h1.2v-2.5h1.9v2.5h1.6v1.3h-1.6V51c0,0.6,0.3,0.8,0.9,0.8c0.2,0,0.5,0,0.6-0.1h0.1v1.5
		c-0.3,0.1-0.8,0.1-1.3,0.1c-1.3,0-2.2-0.5-2.2-1.9v-4.9h-1.2V45.2z"/>
	<path class="st0" d="M321,46.7L321,46.7c0.6-1,1.3-1.6,2.3-1.6c0.2,0,0.4,0,0.5,0.1v1.7h-0.1c-0.2,0-0.3-0.1-0.5-0.1
		c-1.3,0-2.2,0.8-2.2,2.4v4h-1.9v-8h1.8V46.7z"/>
	<path class="st0" d="M330.1,53.2v-1.1h0c-0.6,0.9-1.3,1.3-2.4,1.3c-1.8,0-2.8-1.1-2.8-2.8v-5.4h1.9v5.1c0,0.9,0.5,1.5,1.5,1.5
		c1.1,0,1.8-0.8,1.8-1.9v-4.7h1.9v8H330.1z"/>
	<path class="st0" d="M333.3,49.2c0-2.4,1.6-4.2,4-4.2c2,0,3.3,1.2,3.6,2.9h-1.9c-0.2-0.9-0.8-1.4-1.7-1.4c-1.4,0-2.1,1.2-2.1,2.8
		c0,1.6,0.7,2.7,2.1,2.7c1.1,0,1.7-0.6,1.8-1.7h1.9c-0.1,1.9-1.5,3.2-3.6,3.2C334.9,53.5,333.3,51.6,333.3,49.2z"/>
	<path class="st0" d="M341.6,45.2h1.2v-2.5h1.9v2.5h1.6v1.3h-1.6V51c0,0.6,0.3,0.8,0.9,0.8c0.2,0,0.5,0,0.6-0.1h0.1v1.5
		c-0.3,0.1-0.8,0.1-1.3,0.1c-1.3,0-2.2-0.5-2.2-1.9v-4.9h-1.2V45.2z"/>
	<path class="st0" d="M347.5,42.1h2v1.8h-2V42.1z M347.5,45.2h1.9v8h-1.9V45.2z"/>
	<path class="st0" d="M350.7,49.2c0-2.4,1.6-4.2,4.1-4.2c2.5,0,4.1,1.8,4.1,4.2c0,2.4-1.6,4.2-4.1,4.2
		C352.3,53.5,350.7,51.6,350.7,49.2z M356.9,49.2c0-1.6-0.8-2.8-2.1-2.8c-1.4,0-2.1,1.2-2.1,2.8c0,1.6,0.7,2.8,2.1,2.8
		C356.2,52,356.9,50.8,356.9,49.2z"/>
	<path class="st0" d="M362.1,46.4L362.1,46.4c0.6-0.9,1.4-1.4,2.5-1.4c1.7,0,2.8,1.1,2.8,2.8v5.4h-1.9v-5.1c0-0.9-0.6-1.5-1.5-1.5
		c-1.1,0-1.8,0.8-1.8,2v4.7h-1.9v-8h1.9V46.4z"/>
	<path class="st0" d="M372.4,49.2c0-2.4,1.6-4.2,4.1-4.2c2.5,0,4.1,1.8,4.1,4.2c0,2.4-1.6,4.2-4.1,4.2
		C374,53.5,372.4,51.6,372.4,49.2z M378.7,49.2c0-1.6-0.8-2.8-2.1-2.8c-1.4,0-2.1,1.2-2.1,2.8c0,1.6,0.7,2.8,2.1,2.8
		C377.9,52,378.7,50.8,378.7,49.2z"/>
	<path class="st0" d="M381.1,45.2h1.2v-0.9c0-0.8,0.2-1.4,0.6-1.7c0.5-0.4,1.2-0.6,2.1-0.6c0.3,0,0.6,0,0.9,0v1.4
		c-1.3-0.1-1.7,0.1-1.7,0.9v0.8h1.7v1.3h-1.7v6.7h-1.9v-6.7h-1.2V45.2z"/>
	<path class="st0" d="M391.2,42.1h4.8c1.3,0,2.2,0.4,2.8,1c0.6,0.6,0.9,1.5,0.9,2.4c0,2.1-1.3,3.5-3.7,3.5h-2.8v4.2h-2.1V42.1z
		 M393.3,47.4h2.5c1.3,0,1.9-0.7,1.9-1.8c0-1.1-0.7-1.7-1.9-1.7h-2.5V47.4z"/>
	<path class="st0" d="M400.4,49.2c0-2.4,1.6-4.2,4.1-4.2c2.5,0,4.1,1.8,4.1,4.2c0,2.4-1.6,4.2-4.1,4.2
		C402,53.5,400.4,51.6,400.4,49.2z M406.7,49.2c0-1.6-0.8-2.8-2.1-2.8c-1.4,0-2.1,1.2-2.1,2.8c0,1.6,0.7,2.8,2.1,2.8
		C405.9,52,406.7,50.8,406.7,49.2z"/>
	<path class="st0" d="M408.9,45.2h2l1,3.7c0.3,0.9,0.5,2.4,0.5,2.4h0c0,0,0.3-1.5,0.5-2.4l1-3.7h1.7l1,3.7c0.2,0.9,0.5,2.4,0.5,2.4
		h0c0,0,0.2-1.5,0.5-2.4l1.1-3.7h1.9l-2.5,8h-1.8l-1-3.8c-0.2-0.8-0.5-2.4-0.5-2.4h0c0,0-0.3,1.5-0.5,2.4l-1,3.8h-1.8L408.9,45.2z"
		/>
	<path class="st0" d="M421,49.2c0-2.4,1.6-4.2,4-4.2c1.2,0,2.1,0.4,2.8,1.1c0.8,0.8,1.2,2.1,1.1,3.6h-6c0.1,1.4,0.9,2.3,2.2,2.3
		c0.9,0,1.5-0.4,1.8-1h1.9c-0.4,1.4-1.7,2.5-3.6,2.5C422.5,53.5,421,51.6,421,49.2z M422.9,48.5h4c-0.1-1.3-0.8-2.1-1.9-2.1
		C423.7,46.4,423.1,47.2,422.9,48.5z"/>
	<path class="st0" d="M432.1,46.7L432.1,46.7c0.6-1,1.3-1.6,2.3-1.6c0.2,0,0.4,0,0.5,0.1v1.7h-0.1c-0.2,0-0.3-0.1-0.5-0.1
		c-1.3,0-2.2,0.8-2.2,2.4v4h-1.9v-8h1.8V46.7z"/>
	<path class="st0" d="M440.1,42.1h4.8c1.3,0,2.2,0.4,2.8,1c0.6,0.6,0.9,1.5,0.9,2.4c0,2.1-1.3,3.5-3.7,3.5h-2.8v4.2h-2.1V42.1z
		 M442.2,47.4h2.5c1.3,0,1.9-0.7,1.9-1.8c0-1.1-0.7-1.7-1.9-1.7h-2.5V47.4z"/>
	<path class="st0" d="M449.9,42.1h1.9v11.2h-1.9V42.1z"/>
	<path class="st0" d="M458.5,52.2L458.5,52.2c-0.6,0.7-1.3,1.2-2.5,1.2c-1.6,0-2.7-0.8-2.7-2.4c0-1.8,1.4-2.2,3.3-2.5
		c1.3-0.2,2-0.4,2-1.1c0-0.7-0.5-1.2-1.4-1.2c-1.1,0-1.6,0.5-1.6,1.3h-1.8c0.1-1.4,1.1-2.6,3.4-2.6c0.9,0,1.6,0.1,2.1,0.5
		c0.8,0.5,1.1,1.2,1.1,2.3V52c0,0.7,0.1,1,0.3,1.1v0.1h-1.8C458.6,53.1,458.5,52.7,458.5,52.2z M458.5,50.3v-1.2
		c-0.4,0.2-1,0.4-1.6,0.5c-1.2,0.2-1.8,0.5-1.8,1.4c0,0.9,0.6,1.1,1.4,1.1C457.8,52.1,458.5,51.2,458.5,50.3z"/>
	<path class="st0" d="M463.9,46.4L463.9,46.4c0.6-0.9,1.4-1.4,2.5-1.4c1.7,0,2.8,1.1,2.8,2.8v5.4h-1.9v-5.1c0-0.9-0.6-1.5-1.5-1.5
		c-1.1,0-1.8,0.8-1.8,2v4.7H462v-8h1.9V46.4z"/>
	<path class="st0" d="M470.1,45.2h1.2v-2.5h1.9v2.5h1.6v1.3h-1.6V51c0,0.6,0.3,0.8,0.9,0.8c0.2,0,0.5,0,0.6-0.1h0.1v1.5
		c-0.3,0.1-0.8,0.1-1.3,0.1c-1.3,0-2.2-0.5-2.2-1.9v-4.9h-1.2V45.2z"/>
	<path class="st0" d="M475.6,50.8h1.8c0.2,1,0.9,1.4,1.9,1.4c1,0,1.5-0.5,1.5-1.1c0-0.8-0.8-0.9-2.1-1.2c-1.5-0.3-2.9-0.6-2.9-2.5
		c0-1.5,1.3-2.4,3.2-2.4c2.1,0,3.2,1,3.4,2.4h-1.8c-0.1-0.7-0.6-1.1-1.6-1.1c-0.9,0-1.3,0.4-1.3,1c0,0.7,0.8,0.8,2,1.1
		c1.5,0.3,3,0.6,3,2.6c0,1.7-1.4,2.6-3.4,2.6C477.1,53.5,475.7,52.4,475.6,50.8z"/>
	<path class="st0" d="M276.9,77.3h8.2v1.8H279v2.8h5.4v1.7H279v3.2h6.2v1.8h-8.3V77.3z"/>
	<path class="st0" d="M285.5,80.5h2l1.2,3.7c0.3,1.1,0.7,2.7,0.7,2.7h0c0,0,0.3-1.6,0.7-2.7l1.2-3.7h1.9l-2.8,8h-2.1L285.5,80.5z"/>
	<path class="st0" d="M298.7,87.5L298.7,87.5c-0.6,0.7-1.3,1.2-2.5,1.2c-1.6,0-2.7-0.8-2.7-2.4c0-1.8,1.4-2.2,3.3-2.5
		c1.3-0.2,2-0.4,2-1.1c0-0.7-0.5-1.2-1.4-1.2c-1.1,0-1.6,0.5-1.6,1.3h-1.8c0.1-1.4,1.1-2.6,3.4-2.6c0.9,0,1.6,0.1,2.1,0.5
		c0.8,0.5,1.1,1.2,1.1,2.3v4.2c0,0.7,0.1,1,0.3,1.1v0.1H299C298.9,88.3,298.7,88,298.7,87.5z M298.7,85.6v-1.2
		c-0.4,0.2-1,0.4-1.6,0.5c-1.2,0.2-1.8,0.5-1.8,1.4c0,0.9,0.6,1.1,1.4,1.1C298,87.4,298.7,86.5,298.7,85.6z"/>
	<path class="st0" d="M302.3,77.3h1.9v11.2h-1.9V77.3z"/>
	<path class="st0" d="M311.1,88.5v-1.1h0c-0.6,0.9-1.3,1.3-2.4,1.3c-1.8,0-2.8-1.1-2.8-2.8v-5.4h1.9v5.1c0,0.9,0.5,1.5,1.5,1.5
		c1.1,0,1.8-0.8,1.8-1.9v-4.7h1.9v8H311.1z"/>
	<path class="st0" d="M319.6,87.5L319.6,87.5c-0.6,0.7-1.3,1.2-2.5,1.2c-1.6,0-2.7-0.8-2.7-2.4c0-1.8,1.4-2.2,3.3-2.5
		c1.3-0.2,2-0.4,2-1.1c0-0.7-0.5-1.2-1.4-1.2c-1.1,0-1.6,0.5-1.6,1.3h-1.8c0.1-1.4,1.1-2.6,3.4-2.6c0.9,0,1.6,0.1,2.1,0.5
		c0.8,0.5,1.1,1.2,1.1,2.3v4.2c0,0.7,0.1,1,0.3,1.1v0.1h-1.8C319.7,88.3,319.6,88,319.6,87.5z M319.6,85.6v-1.2
		c-0.4,0.2-1,0.4-1.6,0.5c-1.2,0.2-1.8,0.5-1.8,1.4c0,0.9,0.6,1.1,1.4,1.1C318.9,87.4,319.6,86.5,319.6,85.6z"/>
	<path class="st0" d="M322.4,80.5h1.2v-2.5h1.9v2.5h1.6v1.3h-1.6v4.5c0,0.6,0.3,0.8,0.9,0.8c0.2,0,0.5,0,0.6-0.1h0.1v1.5
		c-0.3,0.1-0.8,0.1-1.3,0.1c-1.3,0-2.2-0.5-2.2-1.9v-4.9h-1.2V80.5z"/>
	<path class="st0" d="M328.3,77.3h2v1.8h-2V77.3z M328.3,80.5h1.9v8h-1.9V80.5z"/>
	<path class="st0" d="M333.8,81.7L333.8,81.7c0.6-0.9,1.4-1.4,2.5-1.4c1.7,0,2.8,1.1,2.8,2.8v5.4h-1.9v-5.1c0-0.9-0.6-1.5-1.5-1.5
		c-1.1,0-1.8,0.8-1.8,2v4.7h-1.9v-8h1.9V81.7z"/>
	<path class="st0" d="M340.6,88.9h1.8c0.1,0.7,0.8,1,1.8,1c1.3,0,1.9-0.6,1.9-1.8v-0.2c0-0.4,0-0.8,0-1.1h0
		c-0.5,0.8-1.2,1.2-2.3,1.2c-1.9,0-3.5-1.5-3.5-3.9c0-2.4,1.5-3.9,3.4-3.9c1.1,0,1.9,0.4,2.4,1.2h0v-1h1.8V88c0,1.1-0.4,2-1,2.5
		c-0.7,0.6-1.6,0.8-2.8,0.8C342.1,91.3,340.8,90.4,340.6,88.9z M346.3,84.2c0-1.4-0.7-2.4-2-2.4c-1.2,0-1.9,0.9-1.9,2.4
		c0,1.5,0.7,2.4,2,2.4C345.7,86.6,346.3,85.5,346.3,84.2z"/>
	<path class="st0" d="M353.2,77.3h9.1v1.8h-3.5v9.4h-2.1v-9.4h-3.5V77.3z"/>
	<path class="st0" d="M364,81.9L364,81.9c0.6-1,1.3-1.6,2.3-1.6c0.2,0,0.4,0,0.5,0.1v1.7h-0.1c-0.2,0-0.3-0.1-0.5-0.1
		c-1.3,0-2.2,0.8-2.2,2.4v4h-1.9v-8h1.8V81.9z"/>
	<path class="st0" d="M372.7,87.5L372.7,87.5c-0.6,0.7-1.3,1.2-2.5,1.2c-1.6,0-2.7-0.8-2.7-2.4c0-1.8,1.4-2.2,3.3-2.5
		c1.3-0.2,2-0.4,2-1.1c0-0.7-0.5-1.2-1.4-1.2c-1.1,0-1.6,0.5-1.6,1.3h-1.8c0.1-1.4,1.1-2.6,3.4-2.6c0.9,0,1.6,0.1,2.1,0.5
		c0.8,0.5,1.1,1.2,1.1,2.3v4.2c0,0.7,0.1,1,0.3,1.1v0.1H373C372.9,88.3,372.8,88,372.7,87.5z M372.8,85.6v-1.2
		c-0.4,0.2-1,0.4-1.6,0.5c-1.2,0.2-1.8,0.5-1.8,1.4c0,0.9,0.6,1.1,1.4,1.1C372,87.4,372.8,86.5,372.8,85.6z"/>
	<path class="st0" d="M378.2,81.7L378.2,81.7c0.6-0.9,1.4-1.4,2.5-1.4c1.7,0,2.8,1.1,2.8,2.8v5.4h-1.9v-5.1c0-0.9-0.6-1.5-1.5-1.5
		c-1.1,0-1.8,0.8-1.8,2v4.7h-1.9v-8h1.9V81.7z"/>
	<path class="st0" d="M384.7,86h1.8c0.2,1,0.9,1.4,1.9,1.4c1,0,1.5-0.5,1.5-1.1c0-0.8-0.8-0.9-2.1-1.2c-1.5-0.3-2.9-0.6-2.9-2.5
		c0-1.5,1.3-2.4,3.2-2.4c2.1,0,3.2,1,3.4,2.4h-1.8c-0.1-0.7-0.6-1.1-1.6-1.1c-0.9,0-1.3,0.4-1.3,1c0,0.7,0.8,0.8,2,1.1
		c1.5,0.3,3,0.6,3,2.6c0,1.7-1.4,2.6-3.4,2.6C386.1,88.8,384.8,87.7,384.7,86z"/>
	<path class="st0" d="M393.2,80.5h1.8v1.2h0c0.6-0.9,1.4-1.4,2.5-1.4c2.1,0,3.4,1.7,3.4,4.2c0,2.6-1.3,4.2-3.5,4.2
		c-1.1,0-1.9-0.5-2.4-1.3h0c0,0.3,0.1,0.8,0.1,1.6v2.1h-1.9V80.5z M399,84.6c0-1.6-0.6-2.7-2-2.7c-1.4,0-2.1,1.2-2.1,2.7
		c0,1.5,0.7,2.7,2.1,2.7C398.4,87.2,399,86.1,399,84.6z"/>
	<path class="st0" d="M401.9,84.5c0-2.4,1.6-4.2,4.1-4.2c2.5,0,4.1,1.8,4.1,4.2c0,2.4-1.6,4.2-4.1,4.2
		C403.5,88.7,401.9,86.9,401.9,84.5z M408.2,84.5c0-1.6-0.8-2.8-2.1-2.8c-1.4,0-2.1,1.2-2.1,2.8c0,1.6,0.7,2.8,2.1,2.8
		C407.4,87.3,408.2,86.1,408.2,84.5z"/>
	<path class="st0" d="M413.3,81.9L413.3,81.9c0.6-1,1.3-1.6,2.3-1.6c0.2,0,0.4,0,0.5,0.1v1.7h-0.1c-0.2,0-0.3-0.1-0.5-0.1
		c-1.3,0-2.2,0.8-2.2,2.4v4h-1.9v-8h1.8V81.9z"/>
	<path class="st0" d="M416.9,80.5h1.2v-2.5h1.9v2.5h1.6v1.3H420v4.5c0,0.6,0.3,0.8,0.9,0.8c0.2,0,0.5,0,0.6-0.1h0.1v1.5
		c-0.3,0.1-0.8,0.1-1.3,0.1c-1.3,0-2.2-0.5-2.2-1.9v-4.9h-1.2V80.5z"/>
	<path class="st0" d="M426.3,84.9h2.1c0.2,1.4,1.1,2.2,2.8,2.2c1.2,0,2.2-0.5,2.2-1.6c0-1.2-1.1-1.5-2.9-1.9c-2.1-0.5-3.8-1-3.8-3.3
		c0-2.1,1.7-3.2,4.1-3.2c2.6,0,4.1,1.2,4.3,3.3h-2c-0.2-1.1-1-1.7-2.3-1.7c-1.2,0-2.1,0.5-2.1,1.4c0,1,1.1,1.3,2.8,1.7
		c2.1,0.5,4,1.1,4,3.5c0,2.2-1.9,3.5-4.3,3.5C428.1,88.8,426.4,87.2,426.3,84.9z"/>
	<path class="st0" d="M436.9,91.1v-1.5h0.1c0.1,0,0.6,0.1,0.8,0.1c0.6,0,1-0.2,1.2-0.9c0-0.2,0.1-0.9-0.1-1.3l-2.8-7h2l1.3,3.7
		c0.3,1,0.7,2.5,0.7,2.5h0c0,0,0.4-1.5,0.7-2.5l1.3-3.7h1.9L441,89c-0.7,1.8-1.4,2.3-2.7,2.3C438.1,91.2,437.1,91.2,436.9,91.1z"/>
	<path class="st0" d="M444.3,86h1.8c0.2,1,0.9,1.4,1.9,1.4c1,0,1.5-0.5,1.5-1.1c0-0.8-0.8-0.9-2.1-1.2c-1.5-0.3-2.9-0.6-2.9-2.5
		c0-1.5,1.3-2.4,3.2-2.4c2.1,0,3.2,1,3.4,2.4h-1.8c-0.1-0.7-0.6-1.1-1.6-1.1c-0.9,0-1.3,0.4-1.3,1c0,0.7,0.8,0.8,2,1.1
		c1.5,0.3,3,0.6,3,2.6c0,1.7-1.4,2.6-3.4,2.6C445.8,88.8,444.4,87.7,444.3,86z"/>
	<path class="st0" d="M452.1,80.5h1.2v-2.5h1.9v2.5h1.6v1.3h-1.6v4.5c0,0.6,0.3,0.8,0.9,0.8c0.2,0,0.5,0,0.6-0.1h0.1v1.5
		c-0.3,0.1-0.8,0.1-1.3,0.1c-1.3,0-2.2-0.5-2.2-1.9v-4.9h-1.2V80.5z"/>
	<path class="st0" d="M457.4,84.5c0-2.4,1.6-4.2,4-4.2c1.2,0,2.1,0.4,2.8,1.1c0.8,0.8,1.2,2.1,1.1,3.6h-6c0.1,1.4,0.9,2.3,2.2,2.3
		c0.9,0,1.5-0.4,1.8-1h1.9c-0.4,1.4-1.7,2.5-3.6,2.5C459,88.7,457.4,86.9,457.4,84.5z M459.3,83.8h4c-0.1-1.3-0.8-2.1-1.9-2.1
		C460.2,81.7,459.5,82.5,459.3,83.8z"/>
	<path class="st0" d="M466.6,80.5h1.8v1.2h0c0.5-0.9,1.3-1.4,2.4-1.4c1,0,1.8,0.5,2.1,1.5h0c0.6-1,1.5-1.5,2.5-1.5
		c1.6,0,2.6,1.1,2.6,2.8v5.4h-1.9v-5.2c0-0.9-0.5-1.5-1.3-1.5c-0.9,0-1.6,0.8-1.6,1.9v4.7h-1.9v-5.2c0-0.9-0.5-1.5-1.3-1.5
		c-0.9,0-1.7,0.8-1.7,1.9v4.7h-1.9V80.5z"/>
	<path class="st0" d="M479.4,86h1.8c0.2,1,0.9,1.4,1.9,1.4c1,0,1.5-0.5,1.5-1.1c0-0.8-0.8-0.9-2.1-1.2c-1.5-0.3-2.9-0.6-2.9-2.5
		c0-1.5,1.3-2.4,3.2-2.4c2.1,0,3.2,1,3.4,2.4h-1.8c-0.1-0.7-0.6-1.1-1.6-1.1c-0.9,0-1.3,0.4-1.3,1c0,0.7,0.8,0.8,2,1.1
		c1.5,0.3,3,0.6,3,2.6c0,1.7-1.4,2.6-3.4,2.6C480.8,88.8,479.5,87.7,479.4,86z"/>
	<path class="st0" d="M281.7,104.7L281.7,104.7c-0.6,0.7-1.3,1.2-2.5,1.2c-1.6,0-2.7-0.8-2.7-2.4c0-1.8,1.4-2.2,3.3-2.5
		c1.3-0.2,2-0.4,2-1.1c0-0.7-0.5-1.2-1.4-1.2c-1.1,0-1.6,0.5-1.6,1.3h-1.8c0.1-1.4,1.1-2.6,3.4-2.6c0.9,0,1.6,0.1,2.1,0.5
		c0.8,0.5,1.1,1.2,1.1,2.3v4.2c0,0.7,0.1,1,0.3,1.1v0.1h-1.8C281.8,105.6,281.7,105.3,281.7,104.7z M281.7,102.9v-1.2
		c-0.4,0.2-1,0.4-1.6,0.5c-1.2,0.2-1.8,0.5-1.8,1.4c0,0.9,0.6,1.1,1.4,1.1C281,104.7,281.7,103.8,281.7,102.9z"/>
	<path class="st0" d="M284.7,103.3h1.8c0.1,1,0.9,1.4,1.9,1.4c1.1,0,1.5-0.5,1.5-1.1c0-0.8-0.8-0.9-2.1-1.2
		c-1.5-0.3-2.9-0.6-2.9-2.5c0-1.5,1.3-2.4,3.2-2.4c2.1,0,3.2,1,3.4,2.4h-1.8c-0.1-0.7-0.6-1.1-1.6-1.1c-0.9,0-1.4,0.4-1.4,1
		c0,0.7,0.8,0.8,2,1.1c1.5,0.3,3,0.6,3,2.6c0,1.7-1.4,2.6-3.4,2.6C286.1,106,284.8,104.9,284.7,103.3z"/>
	<path class="st0" d="M297.2,94.6h8.2v1.8h-6.1v2.8h5.4v1.7h-5.4v3.2h6.2v1.8h-8.3V94.6z"/>
	<path class="st0" d="M308.8,98.9L308.8,98.9c0.6-0.9,1.4-1.4,2.5-1.4c1.7,0,2.8,1.1,2.8,2.8v5.4h-1.9v-5.1c0-0.9-0.6-1.5-1.5-1.5
		c-1.1,0-1.8,0.8-1.8,2v4.7h-1.9v-8h1.9V98.9z"/>
	<path class="st0" d="M315.4,101.8c0-2.4,1.6-4.2,4-4.2c1.2,0,2.1,0.4,2.8,1.1c0.8,0.8,1.2,2.1,1.1,3.6h-6c0.1,1.4,0.9,2.3,2.2,2.3
		c0.9,0,1.5-0.4,1.8-1h1.9c-0.4,1.4-1.7,2.5-3.6,2.5C316.9,106,315.4,104.2,315.4,101.8z M317.3,101h4c-0.1-1.3-0.8-2.1-1.9-2.1
		C318.1,98.9,317.5,99.8,317.3,101z"/>
	<path class="st0" d="M326.4,99.2L326.4,99.2c0.6-1,1.3-1.6,2.3-1.6c0.2,0,0.4,0,0.5,0.1v1.7h-0.1c-0.2,0-0.3-0.1-0.5-0.1
		c-1.3,0-2.2,0.8-2.2,2.4v4h-1.9v-8h1.8V99.2z"/>
	<path class="st0" d="M330.2,106.2h1.8c0.1,0.7,0.8,1,1.8,1c1.3,0,1.9-0.6,1.9-1.8v-0.2c0-0.4,0-0.8,0-1.1h0
		c-0.5,0.8-1.2,1.2-2.3,1.2c-1.9,0-3.5-1.5-3.5-3.9c0-2.4,1.5-3.9,3.4-3.9c1.1,0,1.9,0.4,2.4,1.2h0v-1h1.8v7.5c0,1.1-0.4,2-1,2.5
		c-0.7,0.6-1.6,0.8-2.8,0.8C331.7,108.6,330.4,107.7,330.2,106.2z M335.9,101.4c0-1.4-0.7-2.4-2-2.4c-1.2,0-1.9,0.9-1.9,2.4
		c0,1.5,0.7,2.4,2,2.4C335.3,103.9,335.9,102.8,335.9,101.4z"/>
	<path class="st0" d="M339.4,108.4v-1.5h0.1c0.1,0,0.6,0.1,0.8,0.1c0.6,0,1-0.2,1.2-0.9c0-0.2,0.1-0.9-0.1-1.3l-2.8-7h2l1.3,3.7
		c0.3,1,0.7,2.5,0.7,2.5h0c0,0,0.4-1.5,0.7-2.5l1.3-3.7h1.9l-3.1,8.5c-0.7,1.8-1.4,2.3-2.7,2.3C340.5,108.5,339.5,108.5,339.4,108.4
		z"/>
	<path class="st0" d="M351,100.2c0-3.3,2.1-5.8,5.4-5.8c1.3,0,2.3,0.3,3.1,0.9c0.9,0.7,1.4,1.7,1.6,2.9H359c-0.2-1.2-1.1-2-2.6-2
		c-2.1,0-3.3,1.7-3.3,4.1c0,2.4,1.3,4,3.3,4c1.7,0,2.6-1.1,2.7-2.5h2.1c0,1.1-0.6,2.2-1.4,3c-0.8,0.8-1.9,1.2-3.4,1.2
		C353.1,106,351,103.6,351,100.2z"/>
	<path class="st0" d="M362.2,101.8c0-2.4,1.6-4.2,4.1-4.2c2.5,0,4.1,1.8,4.1,4.2c0,2.4-1.6,4.2-4.1,4.2
		C363.8,106,362.2,104.2,362.2,101.8z M368.4,101.8c0-1.6-0.8-2.8-2.1-2.8c-1.4,0-2.1,1.2-2.1,2.8c0,1.6,0.7,2.8,2.1,2.8
		C367.6,104.6,368.4,103.4,368.4,101.8z"/>
	<path class="st0" d="M373.5,98.9L373.5,98.9c0.6-0.9,1.4-1.4,2.5-1.4c1.7,0,2.8,1.1,2.8,2.8v5.4h-1.9v-5.1c0-0.9-0.6-1.5-1.5-1.5
		c-1.1,0-1.8,0.8-1.8,2v4.7h-1.9v-8h1.9V98.9z"/>
	<path class="st0" d="M380,103.3h1.8c0.2,1,0.9,1.4,1.9,1.4c1,0,1.5-0.5,1.5-1.1c0-0.8-0.8-0.9-2.1-1.2c-1.5-0.3-2.9-0.6-2.9-2.5
		c0-1.5,1.3-2.4,3.2-2.4c2.1,0,3.2,1,3.4,2.4H385c-0.1-0.7-0.6-1.1-1.6-1.1c-0.9,0-1.3,0.4-1.3,1c0,0.7,0.8,0.8,2,1.1
		c1.5,0.3,3,0.6,3,2.6c0,1.7-1.4,2.6-3.4,2.6C381.4,106,380.1,104.9,380,103.3z"/>
	<path class="st0" d="M393.6,105.8v-1.1h0c-0.6,0.9-1.3,1.3-2.4,1.3c-1.8,0-2.8-1.1-2.8-2.8v-5.4h1.9v5.1c0,0.9,0.5,1.5,1.5,1.5
		c1.1,0,1.8-0.8,1.8-1.9v-4.7h1.9v8H393.6z"/>
	<path class="st0" d="M397.2,97.8h1.8V99h0c0.5-0.9,1.3-1.4,2.4-1.4c1,0,1.8,0.5,2.1,1.5h0c0.6-1,1.5-1.5,2.5-1.5
		c1.6,0,2.6,1.1,2.6,2.8v5.4h-1.9v-5.2c0-0.9-0.5-1.5-1.3-1.5c-0.9,0-1.6,0.8-1.6,1.9v4.7h-1.9v-5.2c0-0.9-0.5-1.5-1.3-1.5
		c-0.9,0-1.7,0.8-1.7,1.9v4.7h-1.9V97.8z"/>
	<path class="st0" d="M410.1,101.8c0-2.4,1.6-4.2,4-4.2c1.2,0,2.1,0.4,2.8,1.1c0.8,0.8,1.2,2.1,1.1,3.6h-6c0.1,1.4,0.9,2.3,2.2,2.3
		c0.9,0,1.5-0.4,1.8-1h1.9c-0.4,1.4-1.7,2.5-3.6,2.5C411.6,106,410.1,104.2,410.1,101.8z M412,101h4c-0.1-1.3-0.8-2.1-1.9-2.1
		C412.8,98.9,412.2,99.8,412,101z"/>
	<path class="st0" d="M421.2,99.2L421.2,99.2c0.6-1,1.3-1.6,2.3-1.6c0.2,0,0.4,0,0.5,0.1v1.7H424c-0.2,0-0.3-0.1-0.5-0.1
		c-1.3,0-2.2,0.8-2.2,2.4v4h-1.9v-8h1.8V99.2z"/>
	<path class="st0" d="M424.7,103.3h1.8c0.2,1,0.9,1.4,1.9,1.4c1,0,1.5-0.5,1.5-1.1c0-0.8-0.8-0.9-2.1-1.2c-1.5-0.3-2.9-0.6-2.9-2.5
		c0-1.5,1.3-2.4,3.2-2.4c2.1,0,3.2,1,3.4,2.4h-1.8c-0.1-0.7-0.6-1.1-1.6-1.1c-0.9,0-1.3,0.4-1.3,1c0,0.7,0.8,0.8,2,1.1
		c1.5,0.3,3,0.6,3,2.6c0,1.7-1.4,2.6-3.4,2.6C426.1,106,424.8,104.9,424.7,103.3z"/>
	<path class="st0" d="M276.9,129.9h8.2v1.8H279v2.8h5.4v1.7H279v3.2h6.2v1.8h-8.3V129.9z"/>
	<path class="st0" d="M288.6,134.2L288.6,134.2c0.6-0.9,1.4-1.4,2.5-1.4c1.7,0,2.8,1.1,2.8,2.8v5.4H292v-5.1c0-0.9-0.6-1.5-1.5-1.5
		c-1.1,0-1.8,0.8-1.8,2v4.7h-1.9v-8h1.9V134.2z"/>
	<path class="st0" d="M295.2,137.1c0-2.4,1.6-4.2,4-4.2c1.2,0,2.1,0.4,2.8,1.1c0.8,0.8,1.2,2.1,1.1,3.6h-6c0.1,1.4,0.9,2.3,2.2,2.3
		c0.9,0,1.5-0.4,1.8-1h1.9c-0.4,1.4-1.7,2.5-3.6,2.5C296.7,141.3,295.2,139.4,295.2,137.1z M297.1,136.3h4c-0.1-1.3-0.8-2.1-1.9-2.1
		C297.9,134.2,297.2,135.1,297.1,136.3z"/>
	<path class="st0" d="M306.2,134.5L306.2,134.5c0.6-1,1.3-1.6,2.3-1.6c0.2,0,0.4,0,0.5,0.1v1.7H309c-0.2,0-0.3-0.1-0.5-0.1
		c-1.3,0-2.2,0.8-2.2,2.4v4h-1.9v-8h1.8V134.5z"/>
	<path class="st0" d="M310,141.5h1.8c0.1,0.7,0.8,1,1.8,1c1.3,0,1.9-0.6,1.9-1.8v-0.2c0-0.4,0-0.8,0-1.1h0c-0.5,0.8-1.2,1.2-2.3,1.2
		c-1.9,0-3.5-1.5-3.5-3.9c0-2.4,1.5-3.9,3.4-3.9c1.1,0,1.9,0.4,2.4,1.2h0v-1h1.8v7.5c0,1.1-0.4,2-1,2.5c-0.7,0.6-1.6,0.8-2.8,0.8
		C311.5,143.8,310.2,143,310,141.5z M315.7,136.7c0-1.4-0.7-2.4-2-2.4c-1.2,0-1.9,0.9-1.9,2.4c0,1.5,0.7,2.4,2,2.4
		C315.1,139.1,315.7,138.1,315.7,136.7z"/>
	<path class="st0" d="M319.1,143.7v-1.5h0.1c0.1,0,0.6,0.1,0.8,0.1c0.6,0,1-0.2,1.2-0.9c0-0.2,0.1-0.9-0.1-1.3l-2.8-7h2l1.3,3.7
		c0.3,1,0.7,2.5,0.7,2.5h0c0,0,0.4-1.5,0.7-2.5l1.3-3.7h1.9l-3.1,8.5c-0.7,1.8-1.4,2.3-2.7,2.3C320.3,143.8,319.3,143.7,319.1,143.7
		z"/>
	<path class="st0" d="M330.5,133h1.2v-0.9c0-0.8,0.2-1.4,0.6-1.7c0.5-0.4,1.2-0.6,2.1-0.6c0.3,0,0.6,0,0.9,0v1.4
		c-1.3-0.1-1.7,0.1-1.7,0.9v0.8h1.6v1.3h-1.6v6.7h-1.9v-6.7h-1.2V133z"/>
	<path class="st0" d="M335.9,137.1c0-2.4,1.6-4.2,4.1-4.2c2.5,0,4.1,1.8,4.1,4.2c0,2.4-1.6,4.2-4.1,4.2
		C337.5,141.3,335.9,139.4,335.9,137.1z M342.1,137.1c0-1.6-0.8-2.8-2.1-2.8c-1.4,0-2.1,1.2-2.1,2.8c0,1.6,0.7,2.8,2.1,2.8
		C341.4,139.8,342.1,138.7,342.1,137.1z"/>
	<path class="st0" d="M347.2,134.5L347.2,134.5c0.6-1,1.3-1.6,2.3-1.6c0.2,0,0.4,0,0.5,0.1v1.7H350c-0.2,0-0.3-0.1-0.5-0.1
		c-1.3,0-2.2,0.8-2.2,2.4v4h-1.9v-8h1.8V134.5z"/>
	<path class="st0" d="M354.6,133h1.2v-2.5h1.9v2.5h1.6v1.3h-1.6v4.5c0,0.6,0.3,0.8,0.9,0.8c0.2,0,0.5,0,0.6-0.1h0.1v1.5
		c-0.3,0.1-0.8,0.1-1.3,0.1c-1.3,0-2.2-0.5-2.2-1.9v-4.9h-1.2V133z"/>
	<path class="st0" d="M362.4,134.2L362.4,134.2c0.6-0.9,1.4-1.4,2.5-1.4c1.7,0,2.8,1.1,2.8,2.8v5.4h-1.9v-5.1c0-0.9-0.6-1.5-1.5-1.5
		c-1.1,0-1.8,0.8-1.8,2v4.7h-1.9v-11.2h1.9v3C362.5,133.1,362.4,133.7,362.4,134.2z"/>
	<path class="st0" d="M369,137.1c0-2.4,1.6-4.2,4-4.2c1.2,0,2.1,0.4,2.8,1.1c0.8,0.8,1.2,2.1,1.1,3.6h-6c0.1,1.4,0.9,2.3,2.2,2.3
		c0.9,0,1.5-0.4,1.8-1h1.9c-0.4,1.4-1.7,2.5-3.6,2.5C370.5,141.3,369,139.4,369,137.1z M370.9,136.3h4c-0.1-1.3-0.8-2.1-1.9-2.1
		C371.7,134.2,371.1,135.1,370.9,136.3z"/>
	<path class="st0" d="M382.2,129.9h7.9v1.8h-5.8v2.9h4.9v1.7h-4.9v4.8h-2.1V129.9z"/>
	<path class="st0" d="M396,141v-1.1h0c-0.6,0.9-1.3,1.3-2.4,1.3c-1.8,0-2.8-1.1-2.8-2.8V133h1.9v5.1c0,0.9,0.5,1.5,1.5,1.5
		c1.1,0,1.8-0.8,1.8-1.9V133h1.9v8H396z"/>
	<path class="st0" d="M398.9,133h1.2v-2.5h1.9v2.5h1.6v1.3H402v4.5c0,0.6,0.3,0.8,0.9,0.8c0.2,0,0.5,0,0.6-0.1h0.1v1.5
		c-0.3,0.1-0.8,0.1-1.3,0.1c-1.3,0-2.2-0.5-2.2-1.9v-4.9h-1.2V133z"/>
	<path class="st0" d="M409.9,141v-1.1h0c-0.6,0.9-1.3,1.3-2.4,1.3c-1.8,0-2.8-1.1-2.8-2.8V133h1.9v5.1c0,0.9,0.5,1.5,1.5,1.5
		c1.1,0,1.8-0.8,1.8-1.9V133h1.9v8H409.9z"/>
	<path class="st0" d="M415.4,134.5L415.4,134.5c0.6-1,1.3-1.6,2.3-1.6c0.2,0,0.4,0,0.5,0.1v1.7h-0.1c-0.2,0-0.3-0.1-0.5-0.1
		c-1.3,0-2.2,0.8-2.2,2.4v4h-1.9v-8h1.8V134.5z"/>
	<path class="st0" d="M418.8,137.1c0-2.4,1.6-4.2,4-4.2c1.2,0,2.1,0.4,2.8,1.1c0.8,0.8,1.2,2.1,1.1,3.6h-6c0.1,1.4,0.9,2.3,2.2,2.3
		c0.9,0,1.5-0.4,1.8-1h1.9c-0.4,1.4-1.7,2.5-3.6,2.5C420.4,141.3,418.8,139.4,418.8,137.1z M420.7,136.3h4c-0.1-1.3-0.8-2.1-1.9-2.1
		C421.6,134.2,420.9,135.1,420.7,136.3z"/>
	<path class="st0" d="M428,134.2h2.1v2.1H428V134.2z M428,139h2.1v2.1H428V139z"/>
	<path class="st0" d="M435.7,129.9h2.1v4.5h4.9v-4.5h2.1V141h-2.1v-5h-4.9v5h-2.1V129.9z"/>
	<path class="st0" d="M446.3,137.1c0-2.4,1.6-4.2,4.1-4.2c2.5,0,4.1,1.8,4.1,4.2c0,2.4-1.6,4.2-4.1,4.2
		C447.9,141.3,446.3,139.4,446.3,137.1z M452.5,137.1c0-1.6-0.8-2.8-2.1-2.8c-1.4,0-2.1,1.2-2.1,2.8c0,1.6,0.7,2.8,2.1,2.8
		C451.8,139.8,452.5,138.7,452.5,137.1z"/>
	<path class="st0" d="M454.8,133h2l1,3.7c0.3,0.9,0.5,2.4,0.5,2.4h0c0,0,0.3-1.5,0.5-2.4l1-3.7h1.7l1,3.7c0.2,0.9,0.5,2.4,0.5,2.4h0
		c0,0,0.2-1.5,0.5-2.4l1.1-3.7h1.9l-2.5,8h-1.8l-1-3.8c-0.2-0.8-0.5-2.4-0.5-2.4h0c0,0-0.3,1.5-0.5,2.4l-1,3.8h-1.8L454.8,133z"/>
	<path class="st0" d="M276.9,147.2h2.1l3.7,5.8c0.6,1,1.4,2.6,1.4,2.6h0c0,0-0.1-1.7-0.1-2.8v-5.6h2v11.2h-2.1l-3.7-5.8
		c-0.6-1-1.4-2.6-1.4-2.6h0c0,0,0.1,1.7,0.1,2.8v5.6h-2V147.2z"/>
	<path class="st0" d="M287.6,154.3c0-2.4,1.6-4.2,4-4.2c1.2,0,2.1,0.4,2.8,1.1c0.8,0.8,1.2,2.1,1.1,3.6h-6c0.1,1.4,0.9,2.3,2.2,2.3
		c0.9,0,1.5-0.4,1.8-1h1.9c-0.4,1.4-1.7,2.5-3.6,2.5C289.1,158.6,287.6,156.7,287.6,154.3z M289.5,153.6h4c-0.1-1.3-0.8-2.1-1.9-2.1
		C290.3,151.5,289.7,152.3,289.5,153.6z"/>
	<path class="st0" d="M295.8,150.3h2l1,3.7c0.3,0.9,0.5,2.4,0.5,2.4h0c0,0,0.3-1.5,0.5-2.4l1-3.7h1.7l1,3.7c0.2,0.9,0.5,2.4,0.5,2.4
		h0c0,0,0.2-1.5,0.5-2.4l1.1-3.7h1.9l-2.5,8h-1.8l-1-3.8c-0.2-0.8-0.5-2.4-0.5-2.4h0c0,0-0.3,1.5-0.5,2.4l-1,3.8h-1.8L295.8,150.3z"
		/>
	<path class="st0" d="M311.9,147.2h9.1v1.8h-3.5v9.4h-2.1v-9.4h-3.5V147.2z"/>
	<path class="st0" d="M320.4,154.3c0-2.4,1.6-4.2,4-4.2c1.2,0,2.1,0.4,2.8,1.1c0.8,0.8,1.2,2.1,1.1,3.6h-6c0.1,1.4,0.9,2.3,2.2,2.3
		c0.9,0,1.5-0.4,1.8-1h1.9c-0.4,1.4-1.7,2.5-3.6,2.5C321.9,158.6,320.4,156.7,320.4,154.3z M322.3,153.6h4c-0.1-1.3-0.8-2.1-1.9-2.1
		C323.1,151.5,322.5,152.3,322.3,153.6z"/>
	<path class="st0" d="M329.2,154.3c0-2.4,1.6-4.2,4-4.2c2,0,3.3,1.2,3.6,2.9H335c-0.2-0.9-0.8-1.4-1.7-1.4c-1.4,0-2.1,1.2-2.1,2.8
		c0,1.6,0.7,2.7,2.1,2.7c1.1,0,1.7-0.6,1.8-1.7h1.9c-0.1,1.9-1.5,3.2-3.6,3.2C330.8,158.6,329.2,156.7,329.2,154.3z"/>
	<path class="st0" d="M340,151.5L340,151.5c0.6-0.9,1.4-1.4,2.5-1.4c1.7,0,2.8,1.1,2.8,2.8v5.4h-1.9v-5.1c0-0.9-0.6-1.5-1.5-1.5
		c-1.1,0-1.8,0.8-1.8,2v4.7h-1.9v-11.2h1.9v3C340.1,150.4,340,151,340,151.5z"/>
	<path class="st0" d="M348.9,151.5L348.9,151.5c0.6-0.9,1.4-1.4,2.5-1.4c1.7,0,2.8,1.1,2.8,2.8v5.4h-1.9v-5.1c0-0.9-0.6-1.5-1.5-1.5
		c-1.1,0-1.8,0.8-1.8,2v4.7H347v-8h1.9V151.5z"/>
	<path class="st0" d="M355.5,154.3c0-2.4,1.6-4.2,4.1-4.2c2.5,0,4.1,1.8,4.1,4.2c0,2.4-1.6,4.2-4.1,4.2
		C357.1,158.6,355.5,156.7,355.5,154.3z M361.7,154.3c0-1.6-0.8-2.8-2.1-2.8c-1.4,0-2.1,1.2-2.1,2.8c0,1.6,0.7,2.8,2.1,2.8
		C360.9,157.1,361.7,155.9,361.7,154.3z"/>
	<path class="st0" d="M365,147.2h1.9v11.2H365V147.2z"/>
	<path class="st0" d="M368.2,154.3c0-2.4,1.6-4.2,4.1-4.2c2.5,0,4.1,1.8,4.1,4.2c0,2.4-1.6,4.2-4.1,4.2
		C369.9,158.6,368.2,156.7,368.2,154.3z M374.5,154.3c0-1.6-0.8-2.8-2.1-2.8c-1.4,0-2.1,1.2-2.1,2.8c0,1.6,0.7,2.8,2.1,2.8
		C373.7,157.1,374.5,155.9,374.5,154.3z"/>
	<path class="st0" d="M377.6,158.7h1.8c0.1,0.7,0.8,1,1.8,1c1.3,0,1.9-0.6,1.9-1.8v-0.2c0-0.4,0-0.8,0-1.1h0
		c-0.5,0.8-1.2,1.2-2.3,1.2c-1.9,0-3.5-1.5-3.5-3.9c0-2.4,1.5-3.9,3.4-3.9c1.1,0,1.9,0.4,2.4,1.2h0v-1h1.8v7.5c0,1.1-0.4,2-1,2.5
		c-0.7,0.6-1.6,0.8-2.8,0.8C379.1,161.1,377.8,160.2,377.6,158.7z M383.2,154c0-1.4-0.7-2.4-2-2.4c-1.2,0-1.9,0.9-1.9,2.4
		c0,1.5,0.7,2.4,2,2.4C382.7,156.4,383.2,155.4,383.2,154z"/>
	<path class="st0" d="M386.7,161v-1.5h0.1c0.1,0,0.6,0.1,0.8,0.1c0.6,0,1-0.2,1.2-0.9c0-0.2,0.1-0.9-0.1-1.3l-2.8-7h2l1.3,3.7
		c0.3,1,0.7,2.5,0.7,2.5h0c0,0,0.4-1.5,0.7-2.5l1.3-3.7h1.9l-3.1,8.5c-0.7,1.8-1.4,2.3-2.7,2.3C387.9,161,386.8,161,386.7,161z"/>
	<path class="st0" d="M398.3,152.8c0-3.3,2.1-5.8,5.4-5.8c1.3,0,2.3,0.3,3.1,0.9c0.9,0.7,1.4,1.7,1.6,2.9h-2.1c-0.2-1.2-1.1-2-2.6-2
		c-2.1,0-3.3,1.7-3.3,4.1c0,2.4,1.3,4,3.3,4c1.7,0,2.6-1.1,2.7-2.5h2.1c0,1.1-0.6,2.2-1.3,3c-0.8,0.8-2,1.2-3.5,1.2
		C400.5,158.6,398.3,156.1,398.3,152.8z"/>
	<path class="st0" d="M414.7,157.3L414.7,157.3c-0.6,0.7-1.3,1.2-2.5,1.2c-1.6,0-2.7-0.8-2.7-2.4c0-1.8,1.4-2.2,3.3-2.5
		c1.3-0.2,2-0.4,2-1.1c0-0.7-0.5-1.2-1.4-1.2c-1.1,0-1.6,0.5-1.6,1.3h-1.8c0.1-1.4,1.1-2.6,3.4-2.6c0.9,0,1.6,0.1,2.1,0.5
		c0.8,0.5,1.1,1.2,1.1,2.3v4.2c0,0.7,0.1,1,0.3,1.1v0.1H415C414.9,158.1,414.7,157.8,414.7,157.3z M414.7,155.4v-1.2
		c-0.4,0.2-1,0.4-1.6,0.5c-1.2,0.2-1.8,0.5-1.8,1.4c0,0.9,0.6,1.1,1.4,1.1C414,157.2,414.7,156.3,414.7,155.4z"/>
	<path class="st0" d="M420.1,151.5L420.1,151.5c0.6-0.9,1.4-1.4,2.5-1.4c1.7,0,2.8,1.1,2.8,2.8v5.4h-1.9v-5.1c0-0.9-0.6-1.5-1.5-1.5
		c-1.1,0-1.8,0.8-1.8,2v4.7h-1.9v-8h1.9V151.5z"/>
	<path class="st0" d="M431.1,147.2h2.1v4.5h4.9v-4.5h2.1v11.2h-2.1v-5h-4.9v5h-2.1V147.2z"/>
	<path class="st0" d="M441.7,154.3c0-2.4,1.6-4.2,4-4.2c1.2,0,2.1,0.4,2.8,1.1c0.8,0.8,1.2,2.1,1.1,3.6h-6c0.1,1.4,0.9,2.3,2.2,2.3
		c0.9,0,1.5-0.4,1.8-1h1.9c-0.4,1.4-1.7,2.5-3.6,2.5C443.3,158.6,441.7,156.7,441.7,154.3z M443.6,153.6h4c-0.1-1.3-0.8-2.1-1.9-2.1
		C444.5,151.5,443.8,152.3,443.6,153.6z"/>
	<path class="st0" d="M451,147.2h1.9v11.2H451V147.2z"/>
	<path class="st0" d="M454.6,150.3h1.8v1.2h0c0.6-0.9,1.4-1.4,2.5-1.4c2.1,0,3.4,1.7,3.4,4.2c0,2.6-1.3,4.2-3.5,4.2
		c-1.1,0-1.9-0.5-2.4-1.3h0c0,0.3,0.1,0.8,0.1,1.6v2.1h-1.9V150.3z M460.5,154.4c0-1.6-0.6-2.7-2-2.7c-1.4,0-2.1,1.2-2.1,2.7
		c0,1.5,0.7,2.7,2.1,2.7C459.8,157.1,460.5,155.9,460.5,154.4z"/>
</g>
<g>
	<path class="st0" d="M551.3,32.4h2.1c0.2,1.4,1.1,2.2,2.8,2.2c1.2,0,2.2-0.5,2.2-1.6c0-1.2-1.1-1.5-2.9-1.9c-2.1-0.5-3.8-1-3.8-3.3
		c0-2.1,1.7-3.2,4.1-3.2c2.6,0,4.1,1.2,4.3,3.3h-2c-0.2-1.1-1-1.7-2.3-1.7c-1.2,0-2.1,0.5-2.1,1.4c0,1,1.1,1.3,2.8,1.7
		c2.1,0.5,4,1.1,4,3.5c0,2.2-1.9,3.5-4.3,3.5C553.1,36.2,551.4,34.7,551.3,32.4z"/>
	<path class="st0" d="M561.9,24.8h2v1.8h-2V24.8z M562,28h1.9v8H562V28z"/>
	<path class="st0" d="M565.6,28h1.8v1.2h0c0.5-0.9,1.3-1.4,2.4-1.4c1,0,1.8,0.5,2.1,1.5h0c0.6-1,1.5-1.5,2.5-1.5
		c1.6,0,2.6,1.1,2.6,2.8V36h-1.9v-5.2c0-0.9-0.5-1.5-1.3-1.5c-0.9,0-1.6,0.8-1.6,1.9V36h-1.9v-5.2c0-0.9-0.5-1.5-1.3-1.5
		c-0.9,0-1.7,0.8-1.7,1.9V36h-1.9V28z"/>
	<path class="st0" d="M578.9,28h1.8v1.2h0c0.6-0.9,1.4-1.4,2.5-1.4c2.1,0,3.4,1.7,3.4,4.2c0,2.6-1.3,4.2-3.5,4.2
		c-1.1,0-1.9-0.5-2.4-1.3h0c0,0.3,0.1,0.8,0.1,1.6v2.1h-1.9V28z M584.8,32c0-1.6-0.6-2.7-2-2.7c-1.4,0-2.1,1.2-2.1,2.7
		c0,1.5,0.7,2.7,2.1,2.7C584.1,34.7,584.8,33.6,584.8,32z"/>
	<path class="st0" d="M588.1,24.8h1.9V36h-1.9V24.8z"/>
	<path class="st0" d="M591.4,32c0-2.4,1.6-4.2,4-4.2c1.2,0,2.1,0.4,2.8,1.1c0.8,0.8,1.2,2.1,1.1,3.6h-6c0.1,1.4,0.9,2.3,2.2,2.3
		c0.9,0,1.5-0.4,1.8-1h1.9c-0.4,1.4-1.7,2.5-3.6,2.5C592.9,36.2,591.4,34.3,591.4,32z M593.3,31.2h4c-0.1-1.3-0.8-2.1-1.9-2.1
		C594.1,29.1,593.5,30,593.3,31.2z"/>
	<path class="st0" d="M604,24.8h9.1v1.8h-3.5V36h-2.1v-9.4H604V24.8z"/>
	<path class="st0" d="M612.4,32c0-2.4,1.6-4.2,4-4.2c1.2,0,2.1,0.4,2.8,1.1c0.8,0.8,1.2,2.1,1.1,3.6h-6c0.1,1.4,0.9,2.3,2.2,2.3
		c0.9,0,1.5-0.4,1.8-1h1.9c-0.4,1.4-1.7,2.5-3.6,2.5C614,36.2,612.4,34.3,612.4,32z M614.4,31.2h4c-0.1-1.3-0.8-2.1-1.9-2.1
		C615.2,29.1,614.5,30,614.4,31.2z"/>
	<path class="st0" d="M621.2,32c0-2.4,1.6-4.2,4-4.2c1.2,0,2.1,0.4,2.8,1.1c0.8,0.8,1.2,2.1,1.1,3.6h-6c0.1,1.4,0.9,2.3,2.2,2.3
		c0.9,0,1.5-0.4,1.8-1h1.9c-0.4,1.4-1.7,2.5-3.6,2.5C622.8,36.2,621.2,34.3,621.2,32z M623.1,31.2h4c-0.1-1.3-0.8-2.1-1.9-2.1
		C624,29.1,623.3,30,623.1,31.2z"/>
	<path class="st0" d="M630,32c0-2.4,1.6-4.2,4-4.2c2,0,3.3,1.2,3.6,2.9h-1.9c-0.2-0.9-0.8-1.4-1.7-1.4c-1.4,0-2.1,1.2-2.1,2.8
		c0,1.6,0.7,2.7,2.1,2.7c1.1,0,1.7-0.6,1.8-1.7h1.9c-0.1,1.9-1.5,3.2-3.6,3.2C631.6,36.2,630,34.3,630,32z"/>
	<path class="st0" d="M640.9,29.1L640.9,29.1c0.6-0.9,1.4-1.4,2.5-1.4c1.7,0,2.8,1.1,2.8,2.8V36h-1.9v-5.1c0-0.9-0.6-1.5-1.5-1.5
		c-1.1,0-1.8,0.8-1.8,2V36H639V24.8h1.9v3C640.9,28,640.9,28.6,640.9,29.1z"/>
	<path class="st0" d="M649.7,29.1L649.7,29.1c0.6-0.9,1.4-1.4,2.5-1.4c1.7,0,2.8,1.1,2.8,2.8V36h-1.9v-5.1c0-0.9-0.6-1.5-1.5-1.5
		c-1.1,0-1.8,0.8-1.8,2V36h-1.9v-8h1.9V29.1z"/>
	<path class="st0" d="M656.3,32c0-2.4,1.6-4.2,4.1-4.2c2.5,0,4.1,1.8,4.1,4.2c0,2.4-1.6,4.2-4.1,4.2C657.9,36.2,656.3,34.3,656.3,32
		z M662.5,32c0-1.6-0.8-2.8-2.1-2.8c-1.4,0-2.1,1.2-2.1,2.8c0,1.6,0.7,2.8,2.1,2.8C661.8,34.8,662.5,33.6,662.5,32z"/>
	<path class="st0" d="M665.8,24.8h1.9V36h-1.9V24.8z"/>
	<path class="st0" d="M669.1,32c0-2.4,1.6-4.2,4.1-4.2c2.5,0,4.1,1.8,4.1,4.2c0,2.4-1.6,4.2-4.1,4.2C670.7,36.2,669.1,34.3,669.1,32
		z M675.3,32c0-1.6-0.8-2.8-2.1-2.8c-1.4,0-2.1,1.2-2.1,2.8c0,1.6,0.7,2.8,2.1,2.8C674.6,34.8,675.3,33.6,675.3,32z"/>
	<path class="st0" d="M678.4,36.4h1.8c0.1,0.7,0.8,1,1.8,1c1.3,0,1.9-0.6,1.9-1.8v-0.2c0-0.4,0-0.8,0-1.1h0
		c-0.5,0.8-1.2,1.2-2.3,1.2c-2,0-3.5-1.5-3.5-3.9c0-2.4,1.5-3.9,3.4-3.9c1.1,0,1.9,0.4,2.4,1.2h0v-1h1.8v7.5c0,1.1-0.4,2-1,2.5
		c-0.7,0.6-1.6,0.8-2.8,0.8C679.9,38.7,678.6,37.9,678.4,36.4z M684.1,31.6c0-1.4-0.7-2.4-2-2.4c-1.2,0-1.9,0.9-1.9,2.4
		c0,1.5,0.7,2.4,1.9,2.4C683.5,34.1,684.1,33,684.1,31.6z"/>
	<path class="st0" d="M687.6,38.6v-1.5h0.1c0.1,0,0.6,0.1,0.8,0.1c0.6,0,1-0.2,1.2-0.9c0-0.2,0.1-0.9-0.1-1.3l-2.8-7h2l1.3,3.7
		c0.3,1,0.7,2.5,0.7,2.5h0c0,0,0.4-1.5,0.7-2.5l1.3-3.7h1.9l-3.1,8.5c-0.7,1.8-1.4,2.3-2.7,2.3C688.7,38.7,687.7,38.6,687.6,38.6z"
		/>
	<path class="st0" d="M699.4,24.8h2v1.8h-2V24.8z M699.4,28h1.9v8h-1.9V28z"/>
	<path class="st0" d="M704.9,29.1L704.9,29.1c0.6-0.9,1.4-1.4,2.5-1.4c1.7,0,2.8,1.1,2.8,2.8V36h-1.9v-5.1c0-0.9-0.6-1.5-1.5-1.5
		c-1.1,0-1.8,0.8-1.8,2V36h-1.9v-8h1.9V29.1z"/>
	<path class="st0" d="M715.2,28h1.2v-2.5h1.9V28h1.6v1.3h-1.6v4.5c0,0.6,0.3,0.8,0.9,0.8c0.2,0,0.5,0,0.6-0.1h0.1v1.5
		c-0.3,0.1-0.8,0.1-1.3,0.1c-1.3,0-2.2-0.5-2.2-1.9v-4.9h-1.2V28z"/>
	<path class="st0" d="M723,29.1L723,29.1c0.6-0.9,1.4-1.4,2.5-1.4c1.7,0,2.8,1.1,2.8,2.8V36h-1.9v-5.1c0-0.9-0.6-1.5-1.5-1.5
		c-1.1,0-1.8,0.8-1.8,2V36h-1.9V24.8h1.9v3C723,28,723,28.6,723,29.1z"/>
	<path class="st0" d="M729.6,32c0-2.4,1.6-4.2,4-4.2c1.2,0,2.1,0.4,2.8,1.1c0.8,0.8,1.2,2.1,1.1,3.6h-6c0.1,1.4,0.9,2.3,2.2,2.3
		c0.9,0,1.5-0.4,1.8-1h1.9c-0.4,1.4-1.7,2.5-3.6,2.5C731.1,36.2,729.6,34.3,729.6,32z M731.5,31.2h4c-0.1-1.3-0.8-2.1-1.9-2.1
		C732.3,29.1,731.7,30,731.5,31.2z"/>
	<path class="st0" d="M551.3,49.7h2.1c0.2,1.4,1.1,2.2,2.8,2.2c1.2,0,2.2-0.5,2.2-1.6c0-1.2-1.1-1.5-2.9-1.9c-2.1-0.5-3.8-1-3.8-3.3
		c0-2.1,1.7-3.2,4.1-3.2c2.6,0,4.1,1.2,4.3,3.3h-2c-0.2-1.1-1-1.7-2.3-1.7c-1.2,0-2.1,0.5-2.1,1.4c0,1,1.1,1.3,2.8,1.7
		c2.1,0.5,4,1.1,4,3.5c0,2.2-1.9,3.5-4.3,3.5C553.1,53.5,551.4,51.9,551.3,49.7z"/>
	<path class="st0" d="M561.6,49.2c0-2.4,1.6-4.2,4-4.2c1.2,0,2.1,0.4,2.8,1.1c0.8,0.8,1.2,2.1,1.1,3.6h-6c0.1,1.4,0.9,2.3,2.2,2.3
		c0.9,0,1.5-0.4,1.8-1h1.9c-0.4,1.4-1.7,2.5-3.6,2.5C563.1,53.5,561.6,51.6,561.6,49.2z M563.5,48.5h4c-0.1-1.3-0.8-2.1-1.9-2.1
		C564.3,46.4,563.6,47.2,563.5,48.5z"/>
	<path class="st0" d="M572.6,46.7L572.6,46.7c0.6-1,1.3-1.6,2.3-1.6c0.2,0,0.4,0,0.5,0.1v1.7h-0.1c-0.2,0-0.3-0.1-0.5-0.1
		c-1.3,0-2.2,0.8-2.2,2.4v4h-1.9v-8h1.8V46.7z"/>
	<path class="st0" d="M576.1,45.2h2l1.2,3.7c0.3,1.1,0.7,2.7,0.7,2.7h0c0,0,0.3-1.6,0.7-2.7l1.2-3.7h1.9l-2.8,8h-2.1L576.1,45.2z"/>
	<path class="st0" d="M584.7,42.1h2v1.8h-2V42.1z M584.7,45.2h1.9v8h-1.9V45.2z"/>
	<path class="st0" d="M588,49.2c0-2.4,1.6-4.2,4-4.2c2,0,3.3,1.2,3.6,2.9h-1.9c-0.2-0.9-0.8-1.4-1.7-1.4c-1.4,0-2.1,1.2-2.1,2.8
		c0,1.6,0.7,2.7,2.1,2.7c1.1,0,1.7-0.6,1.8-1.7h1.9c-0.1,1.9-1.5,3.2-3.6,3.2C589.5,53.5,588,51.6,588,49.2z"/>
	<path class="st0" d="M596.5,49.2c0-2.4,1.6-4.2,4-4.2c1.2,0,2.1,0.4,2.8,1.1c0.8,0.8,1.2,2.1,1.1,3.6h-6c0.1,1.4,0.9,2.3,2.2,2.3
		c0.9,0,1.5-0.4,1.8-1h1.9c-0.4,1.4-1.7,2.5-3.6,2.5C598,53.5,596.5,51.6,596.5,49.2z M598.4,48.5h4c-0.1-1.3-0.8-2.1-1.9-2.1
		C599.2,46.4,598.6,47.2,598.4,48.5z"/>
	<path class="st0" d="M609.1,49.2c0-2.4,1.6-4.2,4.1-4.2s4.1,1.8,4.1,4.2c0,2.4-1.6,4.2-4.1,4.2S609.1,51.6,609.1,49.2z M615.3,49.2
		c0-1.6-0.8-2.8-2.1-2.8c-1.4,0-2.1,1.2-2.1,2.8c0,1.6,0.7,2.8,2.1,2.8C614.6,52,615.3,50.8,615.3,49.2z"/>
	<path class="st0" d="M617.8,45.2h1.2v-0.9c0-0.8,0.2-1.4,0.6-1.7c0.5-0.4,1.2-0.6,2.1-0.6c0.3,0,0.6,0,0.9,0v1.4
		c-1.3-0.1-1.7,0.1-1.7,0.9v0.8h1.6v1.3h-1.6v6.7H619v-6.7h-1.2V45.2z"/>
	<path class="st0" d="M627.2,49.7h2.1c0.2,1.4,1.1,2.2,2.8,2.2c1.2,0,2.2-0.5,2.2-1.6c0-1.2-1.1-1.5-2.9-1.9c-2.1-0.5-3.8-1-3.8-3.3
		c0-2.1,1.7-3.2,4.1-3.2c2.6,0,4.1,1.2,4.3,3.3h-2c-0.2-1.1-1-1.7-2.3-1.7c-1.2,0-2.1,0.5-2.1,1.4c0,1,1.1,1.3,2.8,1.7
		c2.1,0.5,4,1.1,4,3.5c0,2.2-1.9,3.5-4.3,3.5C629,53.5,627.3,51.9,627.2,49.7z"/>
	<path class="st0" d="M637.3,45.2h1.2v-2.5h1.9v2.5h1.6v1.3h-1.6V51c0,0.6,0.3,0.8,0.9,0.8c0.2,0,0.5,0,0.6-0.1h0.1v1.5
		c-0.3,0.1-0.8,0.1-1.3,0.1c-1.3,0-2.2-0.5-2.2-1.9v-4.9h-1.2V45.2z"/>
	<path class="st0" d="M648.3,53.2v-1.1h0c-0.6,0.9-1.3,1.3-2.4,1.3c-1.8,0-2.8-1.1-2.8-2.8v-5.4h1.9v5.1c0,0.9,0.5,1.5,1.5,1.5
		c1.1,0,1.8-0.8,1.8-1.9v-4.7h1.9v8H648.3z"/>
	<path class="st0" d="M651.5,49.2c0-2.5,1.4-4.2,3.5-4.2c1.1,0,1.9,0.5,2.5,1.4h0c0-0.4-0.1-1.1-0.1-1.7v-2.6h1.9v11.2h-1.8v-1.2h0
		c-0.5,0.9-1.4,1.4-2.5,1.4C652.8,53.5,651.5,51.9,651.5,49.2z M657.5,49.2c0-1.6-0.7-2.7-2.1-2.7c-1.3,0-1.9,1.2-1.9,2.7
		c0,1.6,0.6,2.7,1.9,2.7C656.8,51.9,657.5,50.8,657.5,49.2z"/>
	<path class="st0" d="M660.6,49.2c0-2.4,1.6-4.2,4-4.2c1.2,0,2.1,0.4,2.8,1.1c0.8,0.8,1.2,2.1,1.1,3.6h-6c0.1,1.4,0.9,2.3,2.2,2.3
		c0.9,0,1.5-0.4,1.8-1h1.9c-0.4,1.4-1.7,2.5-3.6,2.5C662.2,53.5,660.6,51.6,660.6,49.2z M662.6,48.5h4c-0.1-1.3-0.8-2.1-1.9-2.1
		C663.4,46.4,662.7,47.2,662.6,48.5z"/>
	<path class="st0" d="M671.7,46.4L671.7,46.4c0.6-0.9,1.4-1.4,2.5-1.4c1.7,0,2.8,1.1,2.8,2.8v5.4h-1.9v-5.1c0-0.9-0.6-1.5-1.5-1.5
		c-1.1,0-1.8,0.8-1.8,2v4.7h-1.9v-8h1.9V46.4z"/>
	<path class="st0" d="M678,45.2h1.2v-2.5h1.9v2.5h1.6v1.3h-1.6V51c0,0.6,0.3,0.8,0.9,0.8c0.2,0,0.5,0,0.6-0.1h0.1v1.5
		c-0.3,0.1-0.8,0.1-1.3,0.1c-1.3,0-2.2-0.5-2.2-1.9v-4.9H678V45.2z"/>
	<path class="st0" d="M683.5,50.8h1.8c0.2,1,0.9,1.4,1.9,1.4c1,0,1.5-0.5,1.5-1.1c0-0.8-0.8-0.9-2.1-1.2c-1.5-0.3-2.9-0.6-2.9-2.5
		c0-1.5,1.3-2.4,3.2-2.4c2.1,0,3.2,1,3.4,2.4h-1.8c-0.1-0.7-0.6-1.1-1.6-1.1c-0.9,0-1.3,0.4-1.3,1c0,0.7,0.8,0.8,2,1.1
		c1.5,0.3,3,0.6,3,2.6c0,1.7-1.4,2.6-3.4,2.6C684.9,53.5,683.6,52.4,683.5,50.8z"/>
	<path class="st0" d="M700.6,52.2L700.6,52.2c-0.6,0.7-1.3,1.2-2.5,1.2c-1.6,0-2.7-0.8-2.7-2.4c0-1.8,1.4-2.2,3.3-2.5
		c1.3-0.2,2-0.4,2-1.1c0-0.7-0.5-1.2-1.4-1.2c-1.1,0-1.6,0.5-1.6,1.3h-1.8c0.1-1.4,1.1-2.6,3.4-2.6c0.9,0,1.6,0.1,2.1,0.5
		c0.8,0.5,1.1,1.2,1.1,2.3V52c0,0.7,0.1,1,0.3,1.1v0.1h-1.8C700.8,53.1,700.7,52.7,700.6,52.2z M700.7,50.3v-1.2
		c-0.4,0.2-1,0.4-1.6,0.5c-1.2,0.2-1.8,0.5-1.8,1.4c0,0.9,0.6,1.1,1.4,1.1C699.9,52.1,700.7,51.2,700.7,50.3z"/>
	<path class="st0" d="M706.1,46.4L706.1,46.4c0.6-0.9,1.4-1.4,2.5-1.4c1.7,0,2.8,1.1,2.8,2.8v5.4h-1.9v-5.1c0-0.9-0.6-1.5-1.5-1.5
		c-1.1,0-1.8,0.8-1.8,2v4.7h-1.9v-8h1.9V46.4z"/>
	<path class="st0" d="M712.7,49.2c0-2.5,1.4-4.2,3.5-4.2c1.1,0,1.9,0.5,2.5,1.4h0c0-0.4-0.1-1.1-0.1-1.7v-2.6h1.9v11.2h-1.8v-1.2h0
		c-0.5,0.9-1.4,1.4-2.5,1.4C714.1,53.5,712.7,51.9,712.7,49.2z M718.7,49.2c0-1.6-0.7-2.7-2.1-2.7c-1.3,0-1.9,1.2-1.9,2.7
		c0,1.6,0.6,2.7,1.9,2.7C718,51.9,718.7,50.8,718.7,49.2z"/>
	<path class="st0" d="M725.6,42.1h9.1v1.8h-3.5v9.4h-2.1v-9.4h-3.5V42.1z"/>
	<path class="st0" d="M734.1,49.2c0-2.4,1.6-4.2,4-4.2c1.2,0,2.1,0.4,2.8,1.1c0.8,0.8,1.2,2.1,1.1,3.6h-6c0.1,1.4,0.9,2.3,2.2,2.3
		c0.9,0,1.5-0.4,1.8-1h1.9c-0.4,1.4-1.7,2.5-3.6,2.5C735.6,53.5,734.1,51.6,734.1,49.2z M736,48.5h4c-0.1-1.3-0.8-2.1-1.9-2.1
		C736.8,46.4,736.1,47.2,736,48.5z"/>
	<path class="st0" d="M748.1,52.2L748.1,52.2c-0.6,0.7-1.3,1.2-2.5,1.2c-1.6,0-2.7-0.8-2.7-2.4c0-1.8,1.4-2.2,3.3-2.5
		c1.3-0.2,2-0.4,2-1.1c0-0.7-0.5-1.2-1.4-1.2c-1.1,0-1.6,0.5-1.6,1.3h-1.8c0.1-1.4,1.1-2.6,3.4-2.6c0.9,0,1.6,0.1,2.1,0.5
		c0.8,0.5,1.1,1.2,1.1,2.3V52c0,0.7,0.1,1,0.3,1.1v0.1h-1.8C748.2,53.1,748.1,52.7,748.1,52.2z M748.1,50.3v-1.2
		c-0.4,0.2-1,0.4-1.6,0.5c-1.2,0.2-1.8,0.5-1.8,1.4c0,0.9,0.6,1.1,1.4,1.1C747.4,52.1,748.1,51.2,748.1,50.3z"/>
	<path class="st0" d="M751.2,49.2c0-2.4,1.6-4.2,4-4.2c2,0,3.3,1.2,3.6,2.9H757c-0.2-0.9-0.8-1.4-1.7-1.4c-1.4,0-2.1,1.2-2.1,2.8
		c0,1.6,0.7,2.7,2.1,2.7c1,0,1.7-0.6,1.8-1.7h1.9c-0.1,1.9-1.5,3.2-3.6,3.2C752.8,53.5,751.2,51.6,751.2,49.2z"/>
	<path class="st0" d="M762.1,46.4L762.1,46.4c0.6-0.9,1.4-1.4,2.5-1.4c1.7,0,2.8,1.1,2.8,2.8v5.4h-1.9v-5.1c0-0.9-0.6-1.5-1.5-1.5
		c-1.1,0-1.8,0.8-1.8,2v4.7h-1.9V42.1h1.9v3C762.1,45.3,762.1,45.9,762.1,46.4z"/>
	<path class="st0" d="M768.7,49.2c0-2.4,1.6-4.2,4-4.2c1.2,0,2.1,0.4,2.8,1.1c0.8,0.8,1.2,2.1,1.1,3.6h-6c0.1,1.4,0.9,2.3,2.2,2.3
		c0.9,0,1.5-0.4,1.8-1h1.9c-0.4,1.4-1.7,2.5-3.6,2.5C770.2,53.5,768.7,51.6,768.7,49.2z M770.6,48.5h4c-0.1-1.3-0.8-2.1-1.9-2.1
		C771.4,46.4,770.7,47.2,770.6,48.5z"/>
	<path class="st0" d="M779.7,46.7L779.7,46.7c0.6-1,1.3-1.6,2.3-1.6c0.2,0,0.4,0,0.5,0.1v1.7h-0.1c-0.2,0-0.3-0.1-0.5-0.1
		c-1.3,0-2.2,0.8-2.2,2.4v4h-1.9v-8h1.8V46.7z"/>
	<path class="st0" d="M783.2,50.8h1.8c0.2,1,0.9,1.4,1.9,1.4c1,0,1.5-0.5,1.5-1.1c0-0.8-0.8-0.9-2.1-1.2c-1.5-0.3-2.9-0.6-2.9-2.5
		c0-1.5,1.3-2.4,3.2-2.4c2.1,0,3.2,1,3.4,2.4h-1.8c-0.1-0.7-0.6-1.1-1.6-1.1c-0.9,0-1.3,0.4-1.3,1c0,0.7,0.8,0.8,2,1.1
		c1.5,0.3,3,0.6,3,2.6c0,1.7-1.4,2.6-3.4,2.6C784.7,53.5,783.3,52.4,783.2,50.8z"/>
	<path class="st0" d="M551.9,77.3h8.2v1.8H554v2.8h5.4v1.7H554v3.2h6.2v1.8h-8.3V77.3z"/>
	<path class="st0" d="M563.6,81.7L563.6,81.7c0.6-0.9,1.4-1.4,2.5-1.4c1.7,0,2.8,1.1,2.8,2.8v5.4H567v-5.1c0-0.9-0.6-1.5-1.5-1.5
		c-1.1,0-1.8,0.8-1.8,2v4.7h-1.9v-8h1.9V81.7z"/>
	<path class="st0" d="M569.5,80.5h2l1.2,3.7c0.3,1.1,0.7,2.7,0.7,2.7h0c0,0,0.3-1.6,0.7-2.7l1.2-3.7h1.9l-2.8,8h-2.1L569.5,80.5z"/>
	<path class="st0" d="M578.1,77.3h2v1.8h-2V77.3z M578.1,80.5h1.9v8h-1.9V80.5z"/>
	<path class="st0" d="M583.6,81.9L583.6,81.9c0.6-1,1.3-1.6,2.3-1.6c0.2,0,0.4,0,0.5,0.1v1.7h-0.1c-0.2,0-0.3-0.1-0.5-0.1
		c-1.3,0-2.2,0.8-2.2,2.4v4h-1.9v-8h1.8V81.9z"/>
	<path class="st0" d="M587.1,84.5c0-2.4,1.6-4.2,4.1-4.2c2.5,0,4.1,1.8,4.1,4.2c0,2.4-1.6,4.2-4.1,4.2
		C588.7,88.7,587.1,86.9,587.1,84.5z M593.3,84.5c0-1.6-0.8-2.8-2.1-2.8c-1.4,0-2.1,1.2-2.1,2.8c0,1.6,0.7,2.8,2.1,2.8
		C592.5,87.3,593.3,86.1,593.3,84.5z"/>
	<path class="st0" d="M598.4,81.7L598.4,81.7c0.6-0.9,1.4-1.4,2.5-1.4c1.7,0,2.8,1.1,2.8,2.8v5.4h-1.9v-5.1c0-0.9-0.6-1.5-1.5-1.5
		c-1.1,0-1.8,0.8-1.8,2v4.7h-1.9v-8h1.9V81.7z"/>
	<path class="st0" d="M605.4,80.5h1.8v1.2h0c0.5-0.9,1.3-1.4,2.4-1.4c1,0,1.8,0.5,2.1,1.5h0c0.6-1,1.5-1.5,2.5-1.5
		c1.6,0,2.6,1.1,2.6,2.8v5.4h-1.9v-5.2c0-0.9-0.5-1.5-1.3-1.5c-0.9,0-1.6,0.8-1.6,1.9v4.7h-1.9v-5.2c0-0.9-0.5-1.5-1.3-1.5
		c-0.9,0-1.7,0.8-1.7,1.9v4.7h-1.9V80.5z"/>
	<path class="st0" d="M618.3,84.5c0-2.4,1.6-4.2,4-4.2c1.2,0,2.1,0.4,2.8,1.1c0.8,0.8,1.2,2.1,1.1,3.6h-6c0.1,1.4,0.9,2.3,2.2,2.3
		c0.9,0,1.5-0.4,1.8-1h1.9c-0.4,1.4-1.7,2.5-3.6,2.5C619.8,88.7,618.3,86.9,618.3,84.5z M620.2,83.8h4c-0.1-1.3-0.8-2.1-1.9-2.1
		C621,81.7,620.4,82.5,620.2,83.8z"/>
	<path class="st0" d="M629.4,81.7L629.4,81.7c0.6-0.9,1.4-1.4,2.5-1.4c1.7,0,2.8,1.1,2.8,2.8v5.4h-1.9v-5.1c0-0.9-0.6-1.5-1.5-1.5
		c-1.1,0-1.8,0.8-1.8,2v4.7h-1.9v-8h1.9V81.7z"/>
	<path class="st0" d="M635.6,80.5h1.2v-2.5h1.9v2.5h1.6v1.3h-1.6v4.5c0,0.6,0.3,0.8,0.9,0.8c0.2,0,0.5,0,0.6-0.1h0.1v1.5
		c-0.3,0.1-0.8,0.1-1.3,0.1c-1.3,0-2.2-0.5-2.2-1.9v-4.9h-1.2V80.5z"/>
	<path class="st0" d="M646.5,87.5L646.5,87.5c-0.6,0.7-1.3,1.2-2.5,1.2c-1.6,0-2.7-0.8-2.7-2.4c0-1.8,1.4-2.2,3.3-2.5
		c1.3-0.2,2-0.4,2-1.1c0-0.7-0.5-1.2-1.4-1.2c-1.1,0-1.6,0.5-1.6,1.3h-1.8c0.1-1.4,1.1-2.6,3.4-2.6c0.9,0,1.6,0.1,2.1,0.5
		c0.8,0.5,1.1,1.2,1.1,2.3v4.2c0,0.7,0.1,1,0.3,1.1v0.1h-1.8C646.6,88.3,646.5,88,646.5,87.5z M646.5,85.6v-1.2
		c-0.4,0.2-1,0.4-1.6,0.5c-1.2,0.2-1.8,0.5-1.8,1.4c0,0.9,0.6,1.1,1.4,1.1C645.8,87.4,646.5,86.5,646.5,85.6z"/>
	<path class="st0" d="M650.1,77.3h1.9v11.2h-1.9V77.3z"/>
	<path class="st0" d="M657.7,77.3h2.1v11.2h-2.1V77.3z"/>
	<path class="st0" d="M661.7,80.5h1.8v1.2h0c0.5-0.9,1.3-1.4,2.4-1.4c1,0,1.8,0.5,2.1,1.5h0c0.6-1,1.5-1.5,2.5-1.5
		c1.6,0,2.6,1.1,2.6,2.8v5.4h-1.9v-5.2c0-0.9-0.5-1.5-1.3-1.5c-0.9,0-1.6,0.8-1.6,1.9v4.7h-1.9v-5.2c0-0.9-0.5-1.5-1.3-1.5
		c-0.9,0-1.7,0.8-1.7,1.9v4.7h-1.9V80.5z"/>
	<path class="st0" d="M675,80.5h1.8v1.2h0c0.6-0.9,1.4-1.4,2.5-1.4c2.1,0,3.4,1.7,3.4,4.2c0,2.6-1.3,4.2-3.5,4.2
		c-1.1,0-1.9-0.5-2.4-1.3h0c0,0.3,0.1,0.8,0.1,1.6v2.1H675V80.5z M680.9,84.6c0-1.6-0.6-2.7-2-2.7c-1.4,0-2.1,1.2-2.1,2.7
		c0,1.5,0.7,2.7,2.1,2.7C680.3,87.2,680.9,86.1,680.9,84.6z"/>
	<path class="st0" d="M686.1,81.9L686.1,81.9c0.6-1,1.3-1.6,2.3-1.6c0.2,0,0.4,0,0.5,0.1v1.7h-0.1c-0.2,0-0.3-0.1-0.5-0.1
		c-1.3,0-2.2,0.8-2.2,2.4v4h-1.9v-8h1.8V81.9z"/>
	<path class="st0" d="M689.6,84.5c0-2.4,1.6-4.2,4.1-4.2c2.5,0,4.1,1.8,4.1,4.2c0,2.4-1.6,4.2-4.1,4.2
		C691.2,88.7,689.6,86.9,689.6,84.5z M695.8,84.5c0-1.6-0.8-2.8-2.1-2.8c-1.4,0-2.1,1.2-2.1,2.8c0,1.6,0.7,2.8,2.1,2.8
		C695,87.3,695.8,86.1,695.8,84.5z"/>
	<path class="st0" d="M698,80.5h2l1.2,3.7c0.3,1.1,0.7,2.7,0.7,2.7h0c0,0,0.3-1.6,0.7-2.7l1.2-3.7h1.9l-2.8,8h-2.1L698,80.5z"/>
	<path class="st0" d="M705.9,84.5c0-2.4,1.6-4.2,4-4.2c1.2,0,2.1,0.4,2.8,1.1c0.8,0.8,1.2,2.1,1.1,3.6h-6c0.1,1.4,0.9,2.3,2.2,2.3
		c0.9,0,1.5-0.4,1.8-1h1.9c-0.4,1.4-1.7,2.5-3.6,2.5C707.4,88.7,705.9,86.9,705.9,84.5z M707.8,83.8h4c-0.1-1.3-0.8-2.1-1.9-2.1
		C708.6,81.7,708,82.5,707.8,83.8z"/>
	<path class="st0" d="M715.1,80.5h1.8v1.2h0c0.5-0.9,1.3-1.4,2.4-1.4c1,0,1.8,0.5,2.1,1.5h0c0.6-1,1.5-1.5,2.5-1.5
		c1.6,0,2.6,1.1,2.6,2.8v5.4h-1.9v-5.2c0-0.9-0.5-1.5-1.3-1.5c-0.9,0-1.6,0.8-1.6,1.9v4.7h-1.9v-5.2c0-0.9-0.5-1.5-1.3-1.5
		c-0.9,0-1.7,0.8-1.7,1.9v4.7h-1.9V80.5z"/>
	<path class="st0" d="M728,84.5c0-2.4,1.6-4.2,4-4.2c1.2,0,2.1,0.4,2.8,1.1c0.8,0.8,1.2,2.1,1.1,3.6h-6c0.1,1.4,0.9,2.3,2.2,2.3
		c0.9,0,1.5-0.4,1.8-1h1.9c-0.4,1.4-1.7,2.5-3.6,2.5C729.5,88.7,728,86.9,728,84.5z M729.9,83.8h4c-0.1-1.3-0.8-2.1-1.9-2.1
		C730.7,81.7,730,82.5,729.9,83.8z"/>
	<path class="st0" d="M739,81.7L739,81.7c0.6-0.9,1.4-1.4,2.5-1.4c1.7,0,2.8,1.1,2.8,2.8v5.4h-1.9v-5.1c0-0.9-0.6-1.5-1.5-1.5
		c-1.1,0-1.8,0.8-1.8,2v4.7h-1.9v-8h1.9V81.7z"/>
	<path class="st0" d="M745.3,80.5h1.2v-2.5h1.9v2.5h1.6v1.3h-1.6v4.5c0,0.6,0.3,0.8,0.9,0.8c0.2,0,0.5,0,0.6-0.1h0.1v1.5
		c-0.3,0.1-0.8,0.1-1.3,0.1c-1.3,0-2.2-0.5-2.2-1.9v-4.9h-1.2V80.5z"/>
	<path class="st0" d="M551.9,94.6h4.4c3.2,0,5.1,2.2,5.1,5.6c0,3.3-1.8,5.5-5.2,5.5h-4.3V94.6z M556.1,104c2.2,0,3.2-1.4,3.2-3.8
		c0-2.3-0.9-3.9-3.1-3.9H554v7.6H556.1z"/>
	<path class="st0" d="M562.5,101.8c0-2.4,1.6-4.2,4-4.2c1.2,0,2.1,0.4,2.8,1.1c0.8,0.8,1.2,2.1,1.1,3.6h-6c0.1,1.4,0.9,2.3,2.2,2.3
		c0.9,0,1.5-0.4,1.8-1h1.9c-0.4,1.4-1.7,2.5-3.6,2.5C564,106,562.5,104.2,562.5,101.8z M564.4,101h4c-0.1-1.3-0.8-2.1-1.9-2.1
		C565.2,98.9,564.6,99.8,564.4,101z"/>
	<path class="st0" d="M571.7,97.8h1.8v1.2h0c0.6-0.9,1.4-1.4,2.5-1.4c2.1,0,3.4,1.7,3.4,4.2c0,2.6-1.3,4.2-3.5,4.2
		c-1.1,0-1.9-0.5-2.4-1.3h0c0,0.3,0.1,0.8,0.1,1.6v2.1h-1.9V97.8z M577.6,101.8c0-1.6-0.6-2.7-2-2.7c-1.4,0-2.1,1.2-2.1,2.7
		c0,1.5,0.7,2.7,2.1,2.7C576.9,104.5,577.6,103.4,577.6,101.8z"/>
	<path class="st0" d="M580.5,101.8c0-2.4,1.6-4.2,4-4.2c1.2,0,2.1,0.4,2.8,1.1c0.8,0.8,1.2,2.1,1.1,3.6h-6c0.1,1.4,0.9,2.3,2.2,2.3
		c0.9,0,1.5-0.4,1.8-1h1.9c-0.4,1.4-1.7,2.5-3.6,2.5C582,106,580.5,104.2,580.5,101.8z M582.4,101h4c-0.1-1.3-0.8-2.1-1.9-2.1
		C583.2,98.9,582.6,99.8,582.4,101z"/>
	<path class="st0" d="M591.6,98.9L591.6,98.9c0.6-0.9,1.4-1.4,2.5-1.4c1.7,0,2.8,1.1,2.8,2.8v5.4H595v-5.1c0-0.9-0.6-1.5-1.5-1.5
		c-1.1,0-1.8,0.8-1.8,2v4.7h-1.9v-8h1.9V98.9z"/>
	<path class="st0" d="M598.2,101.8c0-2.5,1.4-4.2,3.5-4.2c1.1,0,1.9,0.5,2.5,1.4h0c0-0.4-0.1-1.1-0.1-1.7v-2.6h1.9v11.2h-1.8v-1.2h0
		c-0.5,0.9-1.4,1.4-2.5,1.4C599.6,106,598.2,104.4,598.2,101.8z M604.2,101.8c0-1.6-0.7-2.7-2.1-2.7c-1.3,0-1.9,1.2-1.9,2.7
		c0,1.6,0.6,2.7,1.9,2.7C603.5,104.5,604.2,103.4,604.2,101.8z"/>
	<path class="st0" d="M607.3,103.3h1.8c0.1,1,0.9,1.4,1.9,1.4c1.1,0,1.5-0.5,1.5-1.1c0-0.8-0.8-0.9-2.1-1.2
		c-1.5-0.3-2.9-0.6-2.9-2.5c0-1.5,1.3-2.4,3.2-2.4c2.1,0,3.2,1,3.4,2.4h-1.8c-0.1-0.7-0.6-1.1-1.6-1.1c-0.9,0-1.3,0.4-1.3,1
		c0,0.7,0.8,0.8,2,1.1c1.5,0.3,3,0.6,3,2.6c0,1.7-1.4,2.6-3.4,2.6C608.7,106,607.4,104.9,607.3,103.3z"/>
	<path class="st0" d="M619.1,101.8c0-2.4,1.6-4.2,4.1-4.2s4.1,1.8,4.1,4.2c0,2.4-1.6,4.2-4.1,4.2S619.1,104.2,619.1,101.8z
		 M625.4,101.8c0-1.6-0.8-2.8-2.1-2.8c-1.4,0-2.1,1.2-2.1,2.8c0,1.6,0.7,2.8,2.1,2.8C624.6,104.6,625.4,103.4,625.4,101.8z"/>
	<path class="st0" d="M630.5,98.9L630.5,98.9c0.6-0.9,1.4-1.4,2.5-1.4c1.7,0,2.8,1.1,2.8,2.8v5.4h-1.9v-5.1c0-0.9-0.6-1.5-1.5-1.5
		c-1.1,0-1.8,0.8-1.8,2v4.7h-1.9v-8h1.9V98.9z"/>
	<path class="st0" d="M641.4,94.6h7.9v1.8h-5.8v2.9h4.9v1.7h-4.9v4.8h-2.1V94.6z"/>
	<path class="st0" d="M650.6,94.6h1.9v11.2h-1.9V94.6z"/>
	<path class="st0" d="M653.9,101.8c0-2.4,1.6-4.2,4-4.2c1.2,0,2.1,0.4,2.8,1.1c0.8,0.8,1.2,2.1,1.1,3.6h-6c0.1,1.4,0.9,2.3,2.2,2.3
		c0.9,0,1.5-0.4,1.8-1h1.9c-0.4,1.4-1.7,2.5-3.6,2.5C655.4,106,653.9,104.2,653.9,101.8z M655.8,101h4c-0.1-1.3-0.8-2.1-1.9-2.1
		C656.6,98.9,655.9,99.8,655.8,101z"/>
	<path class="st0" d="M664.9,101.6l-2.6-3.8h2.2l0.8,1.3c0.3,0.5,0.8,1.4,0.8,1.4h0c0,0,0.4-0.9,0.8-1.4l0.8-1.3h2l-2.5,3.7l2.9,4.3
		h-2.2l-1-1.6c-0.3-0.6-0.8-1.5-0.8-1.5h0c0,0-0.5,0.9-0.8,1.5l-1.1,1.6H662L664.9,101.6z"/>
	<path class="st0" d="M671.1,94.6h2v1.8h-2V94.6z M671.1,97.8h1.9v8h-1.9V97.8z"/>
	<path class="st0" d="M676.6,104.6L676.6,104.6l0,1.2h-1.8V94.6h1.9v2.6c0,0.6,0,1.3-0.1,1.7h0c0.5-0.8,1.3-1.4,2.5-1.4
		c2.1,0,3.4,1.7,3.4,4.2c0,2.6-1.3,4.2-3.5,4.2C678,106,677.1,105.6,676.6,104.6z M680.6,101.8c0-1.6-0.6-2.7-1.9-2.7
		c-1.5,0-2.1,1.2-2.1,2.7c0,1.6,0.7,2.7,2.1,2.7C680,104.5,680.6,103.4,680.6,101.8z"/>
	<path class="st0" d="M683.9,94.6h1.9v11.2h-1.9V94.6z"/>
	<path class="st0" d="M687.2,101.8c0-2.4,1.6-4.2,4-4.2c1.2,0,2.1,0.4,2.8,1.1c0.8,0.8,1.2,2.1,1.1,3.6h-6c0.1,1.4,0.9,2.3,2.2,2.3
		c0.9,0,1.5-0.4,1.8-1h1.9c-0.4,1.4-1.7,2.5-3.6,2.5C688.8,106,687.2,104.2,687.2,101.8z M689.1,101h4c-0.1-1.3-0.8-2.1-1.9-2.1
		C690,98.9,689.3,99.8,689.1,101z"/>
	<path class="st0" d="M700,100.2c0-3.3,2.1-5.8,5.4-5.8c1.3,0,2.3,0.3,3.1,0.9c0.9,0.7,1.4,1.7,1.6,2.9h-2.1c-0.2-1.2-1.1-2-2.6-2
		c-2.1,0-3.3,1.7-3.3,4.1c0,2.4,1.3,4,3.3,4c1.7,0,2.6-1.1,2.7-2.5h2.1c0,1.1-0.6,2.2-1.3,3c-0.8,0.8-2,1.2-3.5,1.2
		C702.1,106,700,103.6,700,100.2z"/>
	<path class="st0" d="M711.1,101.8c0-2.4,1.6-4.2,4.1-4.2c2.5,0,4.1,1.8,4.1,4.2c0,2.4-1.6,4.2-4.1,4.2
		C712.7,106,711.1,104.2,711.1,101.8z M717.4,101.8c0-1.6-0.8-2.8-2.1-2.8c-1.4,0-2.1,1.2-2.1,2.8c0,1.6,0.7,2.8,2.1,2.8
		C716.6,104.6,717.4,103.4,717.4,101.8z"/>
	<path class="st0" d="M722.5,98.9L722.5,98.9c0.6-0.9,1.4-1.4,2.5-1.4c1.7,0,2.8,1.1,2.8,2.8v5.4h-1.9v-5.1c0-0.9-0.6-1.5-1.5-1.5
		c-1.1,0-1.8,0.8-1.8,2v4.7h-1.9v-8h1.9V98.9z"/>
	<path class="st0" d="M729,103.3h1.8c0.2,1,0.9,1.4,1.9,1.4c1,0,1.5-0.5,1.5-1.1c0-0.8-0.8-0.9-2.1-1.2c-1.5-0.3-2.9-0.6-2.9-2.5
		c0-1.5,1.3-2.4,3.2-2.4c2.1,0,3.2,1,3.4,2.4H734c-0.1-0.7-0.6-1.1-1.6-1.1c-0.9,0-1.3,0.4-1.3,1c0,0.7,0.8,0.8,2,1.1
		c1.5,0.3,3,0.6,3,2.6c0,1.7-1.4,2.6-3.4,2.6C730.4,106,729.1,104.9,729,103.3z"/>
	<path class="st0" d="M736.7,97.8h1.2v-2.5h1.9v2.5h1.6v1.3h-1.6v4.5c0,0.6,0.3,0.8,0.9,0.8c0.2,0,0.5,0,0.6-0.1h0.1v1.5
		c-0.3,0.1-0.8,0.1-1.3,0.1c-1.3,0-2.2-0.5-2.2-1.9v-4.9h-1.2V97.8z"/>
	<path class="st0" d="M744.5,99.2L744.5,99.2c0.6-1,1.3-1.6,2.3-1.6c0.2,0,0.4,0,0.5,0.1v1.7h-0.1c-0.2,0-0.3-0.1-0.5-0.1
		c-1.3,0-2.2,0.8-2.2,2.4v4h-1.9v-8h1.8V99.2z"/>
	<path class="st0" d="M753.3,104.7L753.3,104.7c-0.6,0.7-1.3,1.2-2.5,1.2c-1.6,0-2.7-0.8-2.7-2.4c0-1.8,1.4-2.2,3.3-2.5
		c1.3-0.2,2-0.4,2-1.1c0-0.7-0.5-1.2-1.4-1.2c-1.1,0-1.6,0.5-1.6,1.3h-1.8c0.1-1.4,1.1-2.6,3.4-2.6c0.9,0,1.6,0.1,2.1,0.5
		c0.8,0.5,1.1,1.2,1.1,2.3v4.2c0,0.7,0.1,1,0.3,1.1v0.1h-1.8C753.4,105.6,753.3,105.3,753.3,104.7z M753.3,102.9v-1.2
		c-0.4,0.2-1,0.4-1.6,0.5c-1.2,0.2-1.8,0.5-1.8,1.4c0,0.9,0.6,1.1,1.4,1.1C752.6,104.7,753.3,103.8,753.3,102.9z"/>
	<path class="st0" d="M756.8,94.6h2v1.8h-2V94.6z M756.8,97.8h1.9v8h-1.9V97.8z"/>
	<path class="st0" d="M762.3,98.9L762.3,98.9c0.6-0.9,1.4-1.4,2.5-1.4c1.7,0,2.8,1.1,2.8,2.8v5.4h-1.9v-5.1c0-0.9-0.6-1.5-1.5-1.5
		c-1.1,0-1.8,0.8-1.8,2v4.7h-1.9v-8h1.9V98.9z"/>
	<path class="st0" d="M768.6,97.8h1.2v-2.5h1.9v2.5h1.6v1.3h-1.6v4.5c0,0.6,0.3,0.8,0.9,0.8c0.2,0,0.5,0,0.6-0.1h0.1v1.5
		c-0.3,0.1-0.8,0.1-1.3,0.1c-1.3,0-2.2-0.5-2.2-1.9v-4.9h-1.2V97.8z"/>
	<path class="st0" d="M774.1,103.3h1.8c0.2,1,0.9,1.4,1.9,1.4c1,0,1.5-0.5,1.5-1.1c0-0.8-0.8-0.9-2.1-1.2c-1.5-0.3-2.9-0.6-2.9-2.5
		c0-1.5,1.3-2.4,3.2-2.4c2.1,0,3.2,1,3.4,2.4h-1.8c-0.1-0.7-0.6-1.1-1.6-1.1c-0.9,0-1.3,0.4-1.3,1c0,0.7,0.8,0.8,2,1.1
		c1.5,0.3,3,0.6,3,2.6c0,1.7-1.4,2.6-3.4,2.6C775.5,106,774.2,104.9,774.1,103.3z"/>
</g>
<g>
	<g>
		<path class="st0" d="M547.8,295.1h2.9l2,5.7c0.5,1.4,1,4,1,4h0c0,0,0.6-2.6,1-4l1.9-5.7h3V307h-2.1v-6.2c0-1.3,0.1-3.7,0.1-3.7h0
			c0,0-0.5,2.2-0.9,3.4l-2.3,6.5h-1.8l-2.3-6.5c-0.4-1.2-0.9-3.4-0.9-3.4h0c0,0,0.1,2.4,0.1,3.7v6.2h-2V295.1z"/>
		<path class="st0" d="M566.7,305.9L566.7,305.9c-0.6,0.8-1.4,1.3-2.7,1.3c-1.7,0-2.9-0.9-2.9-2.5c0-1.9,1.5-2.4,3.5-2.6
			c1.4-0.2,2.1-0.4,2.1-1.2c0-0.7-0.5-1.2-1.5-1.2c-1.1,0-1.7,0.5-1.7,1.4h-1.9c0.1-1.5,1.2-2.8,3.6-2.8c1,0,1.7,0.1,2.3,0.5
			c0.8,0.5,1.2,1.3,1.2,2.4v4.5c0,0.7,0.1,1.1,0.3,1.2v0.1h-2C566.8,306.8,566.7,306.5,566.7,305.9z M566.7,303.9v-1.3
			c-0.4,0.3-1,0.4-1.7,0.6c-1.2,0.2-2,0.5-2,1.4c0,0.9,0.7,1.2,1.5,1.2C566,305.8,566.7,304.9,566.7,303.9z"/>
		<path class="st0" d="M569.6,304.4h2c0.2,1,0.9,1.5,2,1.5c1.1,0,1.6-0.5,1.6-1.2c0-0.8-0.9-1-2.2-1.3c-1.6-0.3-3.1-0.7-3.1-2.6
			c0-1.6,1.4-2.5,3.4-2.5c2.3,0,3.4,1,3.6,2.5H575c-0.1-0.7-0.7-1.1-1.7-1.1c-0.9,0-1.4,0.4-1.4,1c0,0.8,0.9,0.9,2.2,1.1
			c1.6,0.3,3.2,0.7,3.2,2.8c0,1.8-1.5,2.7-3.6,2.7C571.1,307.3,569.7,306.1,569.6,304.4z"/>
		<path class="st0" d="M577.8,304.4h2c0.2,1,0.9,1.5,2,1.5c1.1,0,1.6-0.5,1.6-1.2c0-0.8-0.9-1-2.2-1.3c-1.6-0.3-3.1-0.7-3.1-2.6
			c0-1.6,1.4-2.5,3.4-2.5c2.3,0,3.4,1,3.6,2.5h-1.9c-0.1-0.7-0.7-1.1-1.7-1.1c-0.9,0-1.4,0.4-1.4,1c0,0.8,0.9,0.9,2.2,1.1
			c1.6,0.3,3.2,0.7,3.2,2.8c0,1.8-1.5,2.7-3.7,2.7C579.4,307.3,577.9,306.1,577.8,304.4z"/>
		<path class="st0" d="M591.7,305.9L591.7,305.9c-0.6,0.8-1.4,1.3-2.7,1.3c-1.7,0-2.9-0.9-2.9-2.5c0-1.9,1.5-2.4,3.5-2.6
			c1.4-0.2,2.1-0.4,2.1-1.2c0-0.7-0.5-1.2-1.5-1.2c-1.1,0-1.7,0.5-1.7,1.4h-1.9c0.1-1.5,1.2-2.8,3.6-2.8c1,0,1.7,0.1,2.3,0.5
			c0.8,0.5,1.2,1.3,1.2,2.4v4.5c0,0.7,0.1,1.1,0.3,1.2v0.1h-2C591.9,306.8,591.8,306.5,591.7,305.9z M591.8,303.9v-1.3
			c-0.4,0.3-1,0.4-1.7,0.6c-1.2,0.2-2,0.5-2,1.4c0,0.9,0.7,1.2,1.5,1.2C591,305.8,591.8,304.9,591.8,303.9z"/>
		<path class="st0" d="M594.7,302.7c0-2.5,1.7-4.5,4.3-4.5c2.2,0,3.6,1.2,3.9,3.1h-2c-0.2-0.9-0.8-1.5-1.9-1.5c-1.5,0-2.3,1.2-2.3,3
			c0,1.7,0.8,2.9,2.3,2.9c1.1,0,1.8-0.7,1.9-1.8h2c-0.1,2-1.6,3.4-3.9,3.4C596.4,307.3,594.7,305.3,594.7,302.7z"/>
		<path class="st0" d="M606,299.7L606,299.7c0.6-0.9,1.5-1.5,2.7-1.5c1.8,0,2.9,1.1,2.9,3v5.8h-2v-5.5c0-1-0.6-1.6-1.6-1.6
			c-1.1,0-1.9,0.9-1.9,2.1v5h-2v-11.9h2v3.2C606,298.5,606,299.2,606,299.7z"/>
		<path class="st0" d="M618.6,307v-1.2h0c-0.6,0.9-1.4,1.4-2.6,1.4c-1.9,0-3-1.2-3-3v-5.8h2v5.5c0,1,0.6,1.6,1.6,1.6
			c1.2,0,1.9-0.9,1.9-2.1v-5h2v8.5H618.6z"/>
		<path class="st0" d="M621.6,304.4h2c0.2,1,0.9,1.5,2,1.5c1.1,0,1.6-0.5,1.6-1.2c0-0.8-0.9-1-2.2-1.3c-1.6-0.3-3.1-0.7-3.1-2.6
			c0-1.6,1.4-2.5,3.4-2.5c2.3,0,3.4,1,3.6,2.5H627c-0.1-0.7-0.7-1.1-1.7-1.1c-0.9,0-1.4,0.4-1.4,1c0,0.8,0.9,0.9,2.2,1.1
			c1.6,0.3,3.2,0.7,3.2,2.8c0,1.8-1.5,2.7-3.7,2.7C623.1,307.3,621.7,306.1,621.6,304.4z"/>
		<path class="st0" d="M629.8,302.7c0-2.5,1.7-4.5,4.2-4.5c1.2,0,2.2,0.4,2.9,1.2c0.8,0.9,1.2,2.2,1.2,3.8h-6.4
			c0.1,1.5,0.9,2.5,2.4,2.5c1,0,1.6-0.4,1.9-1.1h2c-0.4,1.5-1.8,2.7-3.9,2.7C631.4,307.3,629.8,305.3,629.8,302.7z M631.9,302h4.3
			c-0.1-1.4-0.8-2.3-2.1-2.3C632.7,299.7,632,300.6,631.9,302z"/>
		<path class="st0" d="M638.4,298.5h1.3v-2.7h2v2.7h1.7v1.4h-1.7v4.8c0,0.6,0.3,0.8,0.9,0.8c0.2,0,0.5,0,0.7-0.1h0.1v1.6
			c-0.3,0.1-0.8,0.1-1.3,0.1c-1.4,0-2.3-0.5-2.3-2v-5.2h-1.3V298.5z"/>
		<path class="st0" d="M644.1,298.5h1.3v-2.7h2v2.7h1.7v1.4h-1.7v4.8c0,0.6,0.3,0.8,0.9,0.8c0.2,0,0.5,0,0.7-0.1h0.1v1.6
			c-0.3,0.1-0.8,0.1-1.3,0.1c-1.4,0-2.3-0.5-2.3-2v-5.2h-1.3V298.5z"/>
		<path class="st0" d="M649.6,304.4h2c0.2,1,0.9,1.5,2,1.5c1.1,0,1.6-0.5,1.6-1.2c0-0.8-0.9-1-2.2-1.3c-1.6-0.3-3.1-0.7-3.1-2.6
			c0-1.6,1.4-2.5,3.4-2.5c2.3,0,3.4,1,3.6,2.5h-1.9c-0.1-0.7-0.7-1.1-1.7-1.1c-0.9,0-1.4,0.4-1.4,1c0,0.8,0.9,0.9,2.2,1.1
			c1.6,0.3,3.2,0.7,3.2,2.8c0,1.8-1.5,2.7-3.6,2.7C651.1,307.3,649.7,306.1,649.6,304.4z"/>
		<path class="st0" d="M662.2,295.1h2.2V307h-2.2V295.1z"/>
		<path class="st0" d="M668.2,299.7L668.2,299.7c0.6-0.9,1.5-1.5,2.7-1.5c1.8,0,2.9,1.1,2.9,3v5.8h-2v-5.5c0-1-0.6-1.6-1.6-1.6
			c-1.1,0-1.9,0.9-1.9,2.1v5h-2v-8.5h2V299.7z"/>
		<path class="st0" d="M674.7,304.4h2c0.2,1,0.9,1.5,2,1.5c1.1,0,1.6-0.5,1.6-1.2c0-0.8-0.9-1-2.2-1.3c-1.6-0.3-3.1-0.7-3.1-2.6
			c0-1.6,1.4-2.5,3.4-2.5c2.3,0,3.4,1,3.6,2.5h-1.9c-0.1-0.7-0.7-1.1-1.7-1.1c-0.9,0-1.4,0.4-1.4,1c0,0.8,0.9,0.9,2.2,1.1
			c1.6,0.3,3.2,0.7,3.2,2.8c0,1.8-1.5,2.7-3.6,2.7C676.3,307.3,674.9,306.1,674.7,304.4z"/>
		<path class="st0" d="M682.7,298.5h1.3v-2.7h2v2.7h1.7v1.4H686v4.8c0,0.6,0.3,0.8,0.9,0.8c0.2,0,0.5,0,0.7-0.1h0.1v1.6
			c-0.3,0.1-0.8,0.1-1.3,0.1c-1.4,0-2.3-0.5-2.3-2v-5.2h-1.3V298.5z"/>
		<path class="st0" d="M688.6,295.1h2.1v2h-2.1V295.1z M688.7,298.5h2v8.5h-2V298.5z"/>
		<path class="st0" d="M691.5,298.5h1.3v-2.7h2v2.7h1.7v1.4h-1.7v4.8c0,0.6,0.3,0.8,0.9,0.8c0.2,0,0.5,0,0.7-0.1h0.1v1.6
			c-0.3,0.1-0.8,0.1-1.3,0.1c-1.4,0-2.3-0.5-2.3-2v-5.2h-1.3V298.5z"/>
		<path class="st0" d="M702.9,307v-1.2h0c-0.6,0.9-1.4,1.4-2.6,1.4c-1.9,0-3-1.2-3-3v-5.8h2v5.5c0,1,0.6,1.6,1.6,1.6
			c1.2,0,1.9-0.9,1.9-2.1v-5h2v8.5H702.9z"/>
		<path class="st0" d="M705.7,298.5h1.3v-2.7h2v2.7h1.7v1.4H709v4.8c0,0.6,0.3,0.8,0.9,0.8c0.2,0,0.5,0,0.7-0.1h0.1v1.6
			c-0.3,0.1-0.8,0.1-1.3,0.1c-1.4,0-2.3-0.5-2.3-2v-5.2h-1.3V298.5z"/>
		<path class="st0" d="M711.1,302.7c0-2.5,1.7-4.5,4.2-4.5c1.2,0,2.2,0.4,2.9,1.2c0.8,0.9,1.2,2.2,1.2,3.8h-6.4
			c0.1,1.5,0.9,2.5,2.4,2.5c1,0,1.6-0.4,1.9-1.1h2c-0.4,1.5-1.8,2.7-3.9,2.7C712.7,307.3,711.1,305.3,711.1,302.7z M713.1,302h4.3
			c-0.1-1.4-0.8-2.3-2.1-2.3C714,299.7,713.3,300.6,713.1,302z"/>
		<path class="st0" d="M547.2,321.7c0-2.5,1.7-4.5,4.4-4.5c2.7,0,4.3,2,4.3,4.5c0,2.5-1.7,4.5-4.3,4.5
			C548.9,326.3,547.2,324.3,547.2,321.7z M553.9,321.7c0-1.7-0.8-3-2.3-3c-1.5,0-2.3,1.3-2.3,3c0,1.7,0.8,3,2.3,3
			C553.1,324.7,553.9,323.5,553.9,321.7z"/>
		<path class="st0" d="M556.2,317.5h1.3v-0.9c0-0.9,0.2-1.5,0.7-1.9c0.5-0.4,1.3-0.6,2.2-0.6c0.3,0,0.6,0,0.9,0v1.5
			c-1.3-0.1-1.8,0.1-1.8,1v0.8h1.8v1.4h-1.8v7.1h-2v-7.1h-1.3V317.5z"/>
		<path class="st0" d="M565.6,314.1h9.7v1.9h-3.7v10h-2.2v-10h-3.7V314.1z"/>
		<path class="st0" d="M574.3,321.7c0-2.5,1.7-4.5,4.2-4.5c1.2,0,2.2,0.4,2.9,1.2c0.8,0.9,1.2,2.2,1.2,3.8h-6.4
			c0.1,1.5,0.9,2.5,2.4,2.5c1,0,1.6-0.4,1.9-1.1h2c-0.4,1.5-1.8,2.7-3.9,2.7C575.9,326.3,574.3,324.3,574.3,321.7z M576.4,321h4.3
			c-0.1-1.4-0.8-2.3-2.1-2.3C577.2,318.7,576.5,319.6,576.4,321z"/>
		<path class="st0" d="M583.4,321.7c0-2.5,1.7-4.5,4.3-4.5c2.2,0,3.6,1.2,3.9,3.1h-2c-0.2-0.9-0.8-1.5-1.9-1.5c-1.5,0-2.3,1.2-2.3,3
			c0,1.7,0.8,2.9,2.3,2.9c1.1,0,1.8-0.7,1.9-1.8h2c-0.1,2-1.6,3.4-3.9,3.4C585.1,326.3,583.4,324.3,583.4,321.7z"/>
		<path class="st0" d="M594.6,318.7L594.6,318.7c0.6-0.9,1.5-1.5,2.7-1.5c1.8,0,2.9,1.1,2.9,3v5.8h-2v-5.5c0-1-0.6-1.6-1.6-1.6
			c-1.1,0-1.9,0.9-1.9,2.1v5h-2v-11.9h2v3.2C594.6,317.5,594.6,318.2,594.6,318.7z"/>
		<path class="st0" d="M603.7,318.7L603.7,318.7c0.6-0.9,1.5-1.5,2.7-1.5c1.8,0,2.9,1.1,2.9,3v5.8h-2v-5.5c0-1-0.6-1.6-1.6-1.6
			c-1.1,0-1.9,0.9-1.9,2.1v5h-2v-8.5h2V318.7z"/>
		<path class="st0" d="M610.4,321.7c0-2.5,1.7-4.5,4.4-4.5c2.7,0,4.3,2,4.3,4.5c0,2.5-1.7,4.5-4.3,4.5
			C612.2,326.3,610.4,324.3,610.4,321.7z M617.1,321.7c0-1.7-0.8-3-2.3-3c-1.5,0-2.3,1.3-2.3,3c0,1.7,0.8,3,2.3,3
			C616.3,324.7,617.1,323.5,617.1,321.7z"/>
		<path class="st0" d="M620.3,314.1h2V326h-2V314.1z"/>
		<path class="st0" d="M623.4,321.7c0-2.5,1.7-4.5,4.4-4.5c2.7,0,4.3,2,4.3,4.5c0,2.5-1.7,4.5-4.3,4.5
			C625.1,326.3,623.4,324.3,623.4,321.7z M630.1,321.7c0-1.7-0.8-3-2.3-3c-1.5,0-2.3,1.3-2.3,3c0,1.7,0.8,3,2.3,3
			C629.3,324.7,630.1,323.5,630.1,321.7z"/>
		<path class="st0" d="M633.1,326.4h2c0.1,0.7,0.8,1.1,1.9,1.1c1.4,0,2.1-0.6,2.1-1.9v-0.2c0-0.5,0-0.9,0-1.2h0
			c-0.5,0.8-1.3,1.3-2.4,1.3c-2.1,0-3.7-1.6-3.7-4.1c0-2.6,1.6-4.2,3.6-4.2c1.2,0,2,0.4,2.5,1.3h0v-1.1h2v8c0,1.2-0.4,2.1-1.1,2.7
			c-0.7,0.6-1.7,0.9-2.9,0.9C634.7,329,633.3,328,633.1,326.4z M639.1,321.4c0-1.5-0.7-2.5-2.2-2.5c-1.3,0-2.1,1-2.1,2.6
			c0,1.6,0.8,2.6,2.1,2.6C638.5,324,639.1,322.8,639.1,321.4z"/>
		<path class="st0" d="M642.5,328.8v-1.6h0.1c0.1,0,0.6,0.1,0.8,0.1c0.7,0,1.1-0.3,1.2-0.9c0-0.2,0.1-1-0.1-1.4l-2.9-7.4h2.2l1.4,4
			c0.4,1.1,0.7,2.7,0.7,2.7h0c0,0,0.4-1.6,0.7-2.7l1.4-4h2l-3.3,9c-0.7,1.9-1.4,2.4-2.8,2.4C643.7,328.9,642.6,328.9,642.5,328.8z"
			/>
	</g>
</g>
<g>
	<path class="st0" d="M284.1,1097.7h18.4v3h-15v8.5H300v2.9h-12.5v12.8h-3.4V1097.7z"/>
	<path class="st0" d="M316.2,1124.8v-2.7h-0.1c-1.4,1.9-3.1,3.2-5.9,3.2c-4,0-6.6-2.4-6.6-6.5v-13.6h3.1v13.5c0,2.5,1.6,4,4.4,4
		c3.1,0,5.1-2.4,5.1-5.5v-12.1h3.1v19.6H316.2z"/>
	<path class="st0" d="M321.9,1118.4h3.2c0.4,3.4,2.7,4.4,5.6,4.4c3.2,0,4.6-1.4,4.6-3.2c0-2.2-1.5-2.8-5.1-3.5
		c-3.9-0.8-7.3-1.6-7.3-5.9c0-3.3,2.5-5.4,7.1-5.4c4.9,0,7.3,2.3,7.7,6.2h-3.2c-0.3-2.6-1.7-3.7-4.6-3.7c-2.8,0-4,1.3-4,2.8
		c0,2.1,1.9,2.5,5.3,3.2c4,0.8,7.3,1.7,7.3,6.2c0,4-3.2,6-7.8,6C325.2,1125.4,322.2,1122.8,321.9,1118.4z"/>
	<path class="st0" d="M341.1,1097.7h3.1v3.8h-3.1V1097.7z M341.1,1105.2h3.1v19.6h-3.1V1105.2z"/>
	<path class="st0" d="M346.9,1115c0-5.7,3.6-10.3,9.5-10.3c5.9,0,9.5,4.6,9.5,10.3s-3.6,10.3-9.5,10.3
		C350.6,1125.3,346.9,1120.7,346.9,1115z M362.7,1115c0-4.3-2.1-7.8-6.3-7.8c-4.2,0-6.3,3.5-6.3,7.8c0,4.3,2.2,7.8,6.3,7.8
		C360.6,1122.8,362.7,1119.3,362.7,1115z"/>
	<path class="st0" d="M371.7,1107.8L371.7,1107.8c1.5-1.9,3.5-3,6.3-3c4.1,0,6.6,2.2,6.6,6.3v13.8h-3.1v-13.5c0-2.5-1.7-4-4.4-4
		c-3.1,0-5.4,2.2-5.4,5.4v12.1h-3.1v-19.6h3.1V1107.8z"/>
	<path class="st0" d="M388.2,1109.5h3.7v3.8h-3.7V1109.5z M388.2,1121.1h3.7v3.8h-3.7V1121.1z"/>
</g>
<g>
	<path class="st0" d="M553.4,1101.3h2.3c0.2,1.4,0.9,1.9,2.6,1.9c1.2,0,2.2-0.4,2.2-1.5c0-1.1-1.1-1.3-2.8-1.7c-2-0.5-3.9-1-3.9-3.4
		c0-2.3,1.8-3.4,4.4-3.4c2.6,0,4.2,1.3,4.4,3.6h-2.2c-0.1-1.2-1-1.7-2.2-1.7c-1.2,0-2.1,0.5-2.1,1.3c0,0.9,0.8,1.2,2.5,1.6
		c2.4,0.5,4.3,1.1,4.3,3.5c0,2.3-1.9,3.6-4.5,3.6C555.2,1105.1,553.5,1103.7,553.4,1101.3z"/>
	<path class="st0" d="M563.6,1100.7c0-2.4,1.6-4.3,4-4.3c2.6,0,4,2,4,4.9h-6c0.2,1.3,0.9,2,2.1,2c0.8,0,1.3-0.4,1.6-1h2.1
		c-0.3,1.5-1.6,2.7-3.7,2.7C565.1,1105.1,563.6,1103.2,563.6,1100.7z M565.8,1099.8h3.6c-0.1-1-0.8-1.8-1.7-1.8
		C566.5,1098.1,565.9,1098.8,565.8,1099.8z"/>
	<path class="st0" d="M577.5,1103.9L577.5,1103.9c-0.4,0.6-1,1.1-2.4,1.1c-1.7,0-2.9-0.9-2.9-2.5c0-1.8,1.5-2.4,3.3-2.6
		c1.4-0.2,2-0.3,2-0.9c0-0.6-0.5-1-1.4-1c-1,0-1.5,0.4-1.6,1.2h-1.9c0.1-1.4,1.1-2.7,3.5-2.7c2.5,0,3.5,1.1,3.5,3v4.2
		c0,0.6,0.1,1,0.3,1.1v0.1h-2.1C577.7,1104.7,577.6,1104.3,577.5,1103.9z M577.6,1101.9v-1.2c-0.4,0.2-1,0.4-1.5,0.5
		c-1.1,0.3-1.7,0.5-1.7,1.3s0.5,1,1.3,1C576.9,1103.5,577.6,1102.7,577.6,1101.9z"/>
	<path class="st0" d="M583.1,1097.9L583.1,1097.9c0.5-0.9,1.1-1.4,2.1-1.4c0.2,0,0.4,0,0.5,0.1v1.9h0c-1.4-0.1-2.4,0.6-2.4,2.3v4
		H581v-8.2h2.1V1097.9z"/>
	<path class="st0" d="M586,1100.7c0-2.4,1.6-4.3,4.1-4.3c2.1,0,3.4,1.2,3.7,3h-2.1c-0.1-0.7-0.7-1.3-1.5-1.3c-1.3,0-2,1-2,2.6
		c0,1.6,0.6,2.6,2,2.6c0.9,0,1.5-0.5,1.6-1.4h2.1c-0.1,1.7-1.5,3.1-3.7,3.1C587.6,1105.1,586,1103.2,586,1100.7z"/>
	<path class="st0" d="M597.1,1097.7L597.1,1097.7c0.6-0.9,1.3-1.3,2.4-1.3c1.7,0,2.8,1.3,2.8,3.1v5.4h-2.2v-5c0-0.9-0.5-1.5-1.4-1.5
		c-1,0-1.7,0.8-1.7,1.9v4.7h-2.2v-11.4h2.2V1097.7z"/>
	<path class="st0" d="M603.7,1093.4h2.2v2h-2.2V1093.4z M603.7,1096.6h2.2v8.2h-2.2V1096.6z"/>
	<path class="st0" d="M609.4,1097.7L609.4,1097.7c0.6-0.9,1.4-1.3,2.5-1.3c1.7,0,2.8,1.3,2.8,3.1v5.4h-2.2v-5c0-0.9-0.5-1.5-1.4-1.5
		c-1,0-1.7,0.8-1.7,1.9v4.7h-2.2v-8.2h2.1V1097.7z"/>
	<path class="st0" d="M615.8,1105.1h2.2c0.2,0.5,0.6,0.9,1.6,0.9c1.2,0,1.8-0.6,1.8-1.7v-0.9h0c-0.5,0.5-1.1,1-2.1,1
		c-1.8,0-3.6-1.4-3.6-3.9c0-2.4,1.5-4,3.6-4c1,0,1.8,0.4,2.3,1.1h0v-0.9h2.1v7.6c0,1.2-0.4,1.9-1,2.5c-0.7,0.6-1.7,0.9-3,0.9
		C617.4,1107.6,616,1106.7,615.8,1105.1z M621.6,1100.4c0-1.2-0.6-2.2-2-2.2c-1.1,0-1.8,0.9-1.8,2.2c0,1.4,0.7,2.2,1.9,2.2
		C621,1102.6,621.6,1101.6,621.6,1100.4z"/>
	<path class="st0" d="M627.2,1096.6h1.1v-0.7c0-2,1.6-2.7,3.6-2.5v1.7c-1,0-1.5,0.1-1.5,0.9v0.6h1.5v1.5h-1.5v6.7h-2.2v-6.7h-1.1
		V1096.6z"/>
	<path class="st0" d="M632.2,1100.7c0-2.4,1.7-4.3,4.3-4.3s4.3,1.9,4.3,4.3s-1.7,4.3-4.3,4.3S632.2,1103.2,632.2,1100.7z
		 M638.6,1100.7c0-1.6-0.8-2.7-2.1-2.7c-1.3,0-2.1,1.1-2.1,2.7s0.7,2.7,2.1,2.7C637.8,1103.4,638.6,1102.3,638.6,1100.7z"/>
	<path class="st0" d="M643.9,1097.9L643.9,1097.9c0.5-0.9,1.1-1.4,2.1-1.4c0.2,0,0.4,0,0.5,0.1v1.9h0c-1.4-0.1-2.4,0.6-2.4,2.3v4
		h-2.2v-8.2h2.1V1097.9z"/>
	<path class="st0" d="M649.6,1096.6h1.1v-2.6h2.1v2.6h1.4v1.4h-1.4v4.4c0,0.6,0.3,0.8,0.8,0.8c0.3,0,0.6,0,0.6,0v1.6
		c0,0-0.5,0-1.4,0c-1.1,0-2.2-0.4-2.2-2v-4.8h-1.1V1096.6z"/>
	<path class="st0" d="M657.5,1097.7L657.5,1097.7c0.6-0.9,1.3-1.3,2.4-1.3c1.7,0,2.8,1.3,2.8,3.1v5.4h-2.2v-5c0-0.9-0.5-1.5-1.4-1.5
		c-1,0-1.7,0.8-1.7,1.9v4.7h-2.2v-11.4h2.2V1097.7z"/>
	<path class="st0" d="M663.7,1100.7c0-2.4,1.6-4.3,4-4.3c2.6,0,4,2,4,4.9h-6c0.2,1.3,0.9,2,2.1,2c0.8,0,1.3-0.4,1.6-1h2.1
		c-0.3,1.5-1.6,2.7-3.7,2.7C665.2,1105.1,663.7,1103.2,663.7,1100.7z M665.9,1099.8h3.6c-0.1-1-0.8-1.8-1.7-1.8
		C666.6,1098.1,666.1,1098.8,665.9,1099.8z"/>
	<path class="st0" d="M675.3,1095.7c0-1.5,1.1-2.2,2.2-2.4v0.8c-0.5,0.2-1.1,0.7-1.1,1.5h1.1v2.1h-2.2V1095.7z M678.5,1095.7
		c0-1.5,1.1-2.2,2.2-2.4v0.8c-0.5,0.2-1.1,0.7-1.1,1.5h1.1v2.1h-2.2V1095.7z"/>
	<path class="st0" d="M682.2,1093.4h2.3v9.5h5.4v1.9h-7.7V1093.4z"/>
	<path class="st0" d="M690.4,1100.7c0-2.4,1.7-4.3,4.3-4.3s4.3,1.9,4.3,4.3s-1.7,4.3-4.3,4.3S690.4,1103.2,690.4,1100.7z
		 M696.8,1100.7c0-1.6-0.8-2.7-2.1-2.7c-1.3,0-2.1,1.1-2.1,2.7s0.7,2.7,2.1,2.7C696,1103.4,696.8,1102.3,696.8,1100.7z"/>
	<path class="st0" d="M699.4,1102.2h2c0.1,0.9,0.8,1.4,1.8,1.4c1,0,1.5-0.4,1.5-0.9c0-0.8-1-0.9-2.2-1.1c-1.5-0.3-2.9-0.7-2.9-2.5
		c0-1.8,1.5-2.6,3.3-2.6c2.2,0,3.4,1.1,3.5,2.7h-2c-0.1-0.9-0.7-1.2-1.6-1.2c-0.8,0-1.4,0.3-1.4,0.9c0,0.7,1.1,0.8,2.3,1
		c1.4,0.3,2.9,0.7,2.9,2.6c0,1.6-1.4,2.6-3.5,2.6C700.9,1105.1,699.6,1103.9,699.4,1102.2z"/>
	<path class="st0" d="M707.1,1096.6h1.1v-2.6h2.1v2.6h1.4v1.4h-1.4v4.4c0,0.6,0.3,0.8,0.8,0.8c0.3,0,0.6,0,0.6,0v1.6
		c0,0-0.5,0-1.4,0c-1.1,0-2.2-0.4-2.2-2v-4.8h-1.1V1096.6z"/>
	<path class="st0" d="M553.9,1110.4h4.5c3.1,0,5,2.5,5,5.8c0,1.9-0.6,3.5-1.8,4.5c-0.8,0.7-2,1.1-3.4,1.1h-4.3V1110.4z M558,1119.8
		c2.2,0,3-1.3,3-3.6c0-2.3-1-3.9-3-3.9h-1.9v7.5H558z"/>
	<path class="st0" d="M569.8,1121.8v-1h0c-0.6,0.8-1.2,1.2-2.4,1.2c-1.8,0-2.8-1.2-2.8-3v-5.5h2.2v5.1c0,1,0.4,1.5,1.4,1.5
		c1,0,1.6-0.8,1.6-1.9v-4.7h2.2v8.2H569.8z"/>
	<path class="st0" d="M572.7,1113.6h1.1v-2.6h2.1v2.6h1.4v1.4h-1.4v4.4c0,0.6,0.3,0.8,0.8,0.8c0.3,0,0.6,0,0.6,0v1.6
		c0,0-0.5,0-1.4,0c-1.1,0-2.2-0.4-2.2-2v-4.8h-1.1V1113.6z"/>
	<path class="st0" d="M577.7,1117.7c0-2.4,1.6-4.3,4.1-4.3c2.1,0,3.4,1.2,3.7,3h-2.1c-0.1-0.7-0.7-1.3-1.5-1.3c-1.3,0-2,1-2,2.6
		c0,1.6,0.6,2.6,2,2.6c0.9,0,1.5-0.5,1.6-1.4h2.1c-0.1,1.7-1.5,3.1-3.7,3.1C579.4,1122.1,577.7,1120.2,577.7,1117.7z"/>
	<path class="st0" d="M588.8,1114.7L588.8,1114.7c0.6-0.9,1.3-1.3,2.4-1.3c1.7,0,2.8,1.3,2.8,3.1v5.4h-2.2v-5c0-0.9-0.5-1.5-1.4-1.5
		c-1,0-1.7,0.8-1.7,1.9v4.7h-2.2v-11.4h2.2V1114.7z"/>
	<path class="st0" d="M595.4,1113.6h2.1v1.1h0c0.4-0.8,1.2-1.3,2.4-1.3c1,0,1.9,0.6,2.3,1.4h0c0.6-0.9,1.4-1.4,2.5-1.4
		c1.7,0,2.7,1.1,2.7,2.9v5.5h-2.2v-5.2c0-0.9-0.5-1.4-1.3-1.4c-0.9,0-1.5,0.7-1.5,1.8v4.8h-2.2v-5.2c0-0.9-0.5-1.4-1.3-1.4
		c-0.9,0-1.5,0.7-1.5,1.8v4.8h-2.2V1113.6z"/>
	<path class="st0" d="M613.7,1120.9L613.7,1120.9c-0.4,0.6-1,1.1-2.4,1.1c-1.7,0-2.9-0.9-2.9-2.5c0-1.8,1.5-2.4,3.3-2.6
		c1.4-0.2,2-0.3,2-0.9c0-0.6-0.5-1-1.4-1c-1,0-1.5,0.4-1.6,1.2h-1.9c0.1-1.4,1.1-2.7,3.5-2.7c2.5,0,3.5,1.1,3.5,3v4.2
		c0,0.6,0.1,1,0.3,1.1v0.1h-2.1C613.8,1121.7,613.7,1121.3,613.7,1120.9z M613.7,1118.9v-1.2c-0.4,0.2-1,0.4-1.5,0.5
		c-1.1,0.3-1.7,0.5-1.7,1.3s0.5,1,1.3,1C613,1120.5,613.7,1119.7,613.7,1118.9z"/>
	<path class="st0" d="M619.3,1114.7L619.3,1114.7c0.6-0.9,1.4-1.3,2.5-1.3c1.7,0,2.8,1.3,2.8,3.1v5.4h-2.2v-5c0-0.9-0.5-1.5-1.4-1.5
		c-1,0-1.7,0.8-1.7,1.9v4.7h-2.2v-8.2h2.1V1114.7z"/>
	<path class="st0" d="M625.5,1113.9c0.5-0.2,1.1-0.7,1.1-1.5h-1.1v-2.1h2.2v1.9c0,1.5-1.1,2.2-2.2,2.4V1113.9z M628.7,1113.9
		c0.5-0.2,1.1-0.7,1.1-1.5h-1.1v-2.1h2.2v1.9c0,1.5-1.1,2.2-2.2,2.4V1113.9z"/>
	<path class="st0" d="M635,1110.4h3.3l1.6,5.7c0.4,1.4,0.7,3.1,0.7,3.1h0c0,0,0.3-1.6,0.7-3.1l1.6-5.7h3.3v11.4h-2.2v-6.6
		c0-0.9,0.1-2.4,0.1-2.4h0c0,0-0.3,1.3-0.5,2.2l-2,6.8h-2.2l-1.9-6.8c-0.2-0.8-0.5-2.2-0.5-2.2h0c0,0,0.1,1.4,0.1,2.4v6.6H635
		V1110.4z"/>
	<path class="st0" d="M647.9,1110.4h2.2v2h-2.2V1110.4z M647.9,1113.6h2.2v8.2h-2.2V1113.6z"/>
	<path class="st0" d="M653.6,1114.7L653.6,1114.7c0.6-0.9,1.4-1.3,2.5-1.3c1.7,0,2.8,1.3,2.8,3.1v5.4h-2.2v-5c0-0.9-0.5-1.5-1.4-1.5
		c-1,0-1.7,0.8-1.7,1.9v4.7h-2.2v-8.2h2.1V1114.7z"/>
	<path class="st0" d="M659.8,1117.7c0-2.4,1.6-4.3,4-4.3c2.6,0,4,2,4,4.9h-6c0.2,1.3,0.9,2,2.1,2c0.8,0,1.3-0.4,1.6-1h2.1
		c-0.3,1.5-1.6,2.7-3.7,2.7C661.4,1122.1,659.8,1120.2,659.8,1117.7z M662,1116.8h3.6c-0.1-1-0.8-1.8-1.7-1.8
		C662.8,1115.1,662.2,1115.8,662,1116.8z"/>
</g>
</svg>
