<?xml version="1.0" standalone="no"?>
<!DOCTYPE svg PUBLIC "-//W3C//DTD SVG 1.1//EN" "http://www.w3.org/Graphics/SVG/1.1/DTD/svg11.dtd" >
<svg xmlns="http://www.w3.org/2000/svg">
<metadata></metadata>
<defs>
<font id="itc_feniceregular_oblique" horiz-adv-x="569" >
<font-face units-per-em="2048" ascent="1638" descent="-410" />
<missing-glyph horiz-adv-x="500" />
<glyph horiz-adv-x="0" />
<glyph horiz-adv-x="682" />
<glyph unicode=" " />
<glyph unicode="!" d="M174 78q0 46 32.5 78t78.5 32t78 -32t32 -78t-32 -78.5t-78 -32.5t-78.5 32.5t-32.5 78.5zM174 1335q0 49 28.5 82t82.5 33t82 -33t28 -82q0 -57 -10 -149l-78 -735h-45l-78 735q-10 92 -10 149z" />
<glyph unicode="&#x22;" horiz-adv-x="681" d="M113 1323q-5 53 14.5 90t60.5 37t61 -37t15 -90l-37 -430q-4 -50 -13.5 -68t-25.5 -18t-25 18t-13 68zM416 1323q-5 53 15 90t61 37t60.5 -37t14.5 -90l-37 -430q-4 -50 -13 -68t-25 -18t-25.5 18t-13.5 68z" />
<glyph unicode="#" horiz-adv-x="1138" d="M70 444v111h233l41 307h-217v111h233l62 444h127l-62 -444h258l62 444h127l-62 -444h197v-111h-213l-41 -307h197v-111h-213l-62 -444h-127l62 444h-258l-62 -444h-127l62 444h-217zM430 555h258l41 307h-258z" />
<glyph unicode="$" horiz-adv-x="1138" d="M143 1044q0 158 111 259.5t299 113.5v168h78v-168q88 -5 179 -27t148 -55v-381h-45q-31 132 -61.5 215t-66 126t-69.5 58.5t-85 18.5v-528q126 -43 206.5 -86t126 -94.5t63 -106.5t17.5 -131q0 -66 -22 -130t-68 -125.5t-129 -107t-194 -63.5v-188h-78v188 q-221 0 -389 102v435h45q30 -114 52.5 -188t47.5 -131t46 -87t53 -50t63 -26.5t82 -9.5v606q-236 78 -323 161.5t-87 231.5zM274 1126q0 -100 61.5 -153t217.5 -105v504q-132 -4 -205.5 -74.5t-73.5 -171.5zM631 45q254 50 254 305q0 74 -20 119.5t-74.5 83t-159.5 74.5 v-582z" />
<glyph unicode="%" horiz-adv-x="1820" d="M88 983q0 218 97 342.5t247 124.5t247 -124.5t97 -342.5t-97 -342.5t-247 -124.5t-247 124.5t-97 342.5zM248 983q0 -240 37 -331t147 -91t147 91t37 331t-37 331t-147 91t-147 -91t-37 -331zM426 -33l852 1483h111l-852 -1483h-111zM1042 434q0 218 97 342.5t247 124.5 t247.5 -124.5t97.5 -342.5t-97.5 -342.5t-247.5 -124.5t-247 124.5t-97 342.5zM1202 434q0 -240 37 -331t147 -91t147.5 91t37.5 331t-37.5 331t-147.5 91t-147 -91t-37 -331z" />
<glyph unicode="&#x26;" horiz-adv-x="1402" d="M90 401q0 106 94.5 222.5t284.5 201.5q-44 57 -84.5 152.5t-40.5 165.5q0 134 98 220.5t248 86.5q143 0 230.5 -66t87.5 -176q0 -32 -9 -62t-21.5 -52.5t-37 -46.5t-43 -39.5t-52.5 -36.5t-53.5 -31.5t-58 -30.5t-53.5 -28l389 -549q43 68 71.5 171t28.5 197h-206v45h368 v-45h-104q-3 -100 -39 -224.5t-86 -192.5l176 -238h98v-45h-323l-78 109q-145 -142 -377 -142q-237 0 -372.5 121t-135.5 313zM303 463q0 -168 113.5 -295t251.5 -127q164 0 274 115l-442 622q-106 -56 -151.5 -130.5t-45.5 -184.5zM516 1245q0 -57 24 -121t48.5 -103.5 t64.5 -96.5q81 42 127.5 114t46.5 162q0 99 -40.5 152t-116.5 53q-75 0 -114.5 -42.5t-39.5 -117.5z" />
<glyph unicode="'" horiz-adv-x="454" d="M152 1323q-5 53 14.5 90t60.5 37t61 -37t15 -90l-37 -430q-4 -50 -13.5 -68t-25.5 -18t-25.5 18t-13.5 68z" />
<glyph unicode="(" horiz-adv-x="757" d="M209 530q0 200 37 370t125 317.5t223 232.5l31 -25q-211 -246 -211 -895t211 -895l-31 -24q-135 85 -223 232t-125 317t-37 370z" />
<glyph unicode=")" horiz-adv-x="757" d="M133 -365q211 246 211 895t-211 895l31 25q135 -85 223 -232.5t125 -317.5t37 -370t-37 -370t-125 -317t-223 -232z" />
<glyph unicode="*" horiz-adv-x="1138" d="M193 856q0 20 13 36.5t44.5 32.5t62 27.5t88 33t99.5 38.5q-42 17 -99.5 38.5t-88 33t-62 27.5t-44.5 32.5t-13 36.5q0 33 22.5 57.5t50.5 24.5q34 0 64 -22t85.5 -74t116.5 -93q-3 41 -19.5 138t-16.5 149q0 78 73 78q35 0 54.5 -19.5t19.5 -58.5q0 -52 -17 -148.5 t-20 -138.5q61 41 116.5 93t85.5 74t64 22q28 0 51 -24.5t23 -57.5q0 -20 -13 -36.5t-44.5 -32.5t-62 -27.5t-88 -33t-99.5 -38.5q42 -17 99.5 -38.5t88 -33t62 -27.5t44.5 -32.5t13 -36.5q0 -33 -23 -57.5t-51 -24.5q-34 0 -64 22t-85.5 74t-116.5 93q3 -42 20 -138.5 t17 -148.5q0 -39 -19.5 -58.5t-54.5 -19.5q-73 0 -73 78q0 52 16.5 149t19.5 138q-61 -41 -116.5 -93t-85.5 -74t-64 -22q-28 0 -50.5 24.5t-22.5 57.5z" />
<glyph unicode="+" horiz-adv-x="1228" d="M94 455v131h455v454h131v-454h455v-131h-455v-455h-131v455h-455z" />
<glyph unicode="," d="M174 78q0 46 32.5 78t78.5 32q51 0 80.5 -34t29.5 -97q0 -37 -12 -72.5t-27.5 -61t-44.5 -56t-48 -47.5t-52 -45l-37 37q108 79 141 155q-66 0 -103.5 31.5t-37.5 79.5z" />
<glyph unicode="-" horiz-adv-x="681" d="M86 428v184h508v-184h-508z" />
<glyph unicode="." d="M174 78q0 46 32.5 78t78.5 32t78 -32t32 -78t-32 -78.5t-78 -32.5t-78.5 32.5t-32.5 78.5z" />
<glyph unicode="/" d="M-66 -33l570 1483h131l-569 -1483h-132z" />
<glyph unicode="0" horiz-adv-x="1138" d="M94 709q0 340 129.5 540.5t345.5 200.5t345.5 -200.5t129.5 -540.5t-129.5 -541t-345.5 -201t-345.5 201t-129.5 541zM328 709q0 -210 15 -348.5t47.5 -214t74.5 -105t104 -29.5q41 0 72.5 12t59.5 42t47.5 81.5t34 128t21.5 184.5t7 249q0 169 -10.5 291t-29.5 200 t-50 124t-67 63.5t-85 17.5q-62 0 -104 -29.5t-74.5 -104.5t-47.5 -213.5t-15 -348.5z" />
<glyph unicode="1" horiz-adv-x="1138" d="M225 1118q122 63 225.5 145.5t167.5 170.5h78v-1389h115v-45h-467v45h148v1192q-81 -77 -250 -172z" />
<glyph unicode="2" horiz-adv-x="1138" d="M119 0v180q36 36 126.5 122t148 142t136.5 147t125.5 164.5t80.5 165.5t34 177q0 153 -66.5 230t-166.5 77q-110 0 -156 -67.5t-125 -301.5q-20 -58 -31 -90h-57v438q84 30 188 48t183 18q115 0 203.5 -30.5t142 -85t80 -124.5t26.5 -153q0 -61 -21 -123.5t-53.5 -116 t-87 -113.5t-106 -107t-125.5 -106t-131 -101.5t-138 -102.5t-132 -99v-4h741v166h45v-350h-864z" />
<glyph unicode="3" horiz-adv-x="1138" d="M133 74v418h57q38 -128 63.5 -202t52.5 -135t54.5 -88.5t60 -41t79.5 -13.5q70 0 118.5 16t88 56.5t58.5 116.5t19 188q0 101 -21.5 165.5t-71.5 102t-120 52t-180 16.5v45q75 0 123.5 4t92.5 16.5t68.5 34t43.5 58t26 87.5t7 124q0 311 -230 311q-89 0 -139.5 -50.5 t-91.5 -178.5l-72 -218h-57v385q170 107 368 107q104 0 189.5 -30t140 -81t84 -115t29.5 -134q0 -136 -94.5 -226.5t-233.5 -113.5v-5q175 -25 268 -119.5t93 -246.5q0 -180 -133.5 -296t-372.5 -116q-98 0 -199 29t-168 78z" />
<glyph unicode="4" horiz-adv-x="1138" d="M90 442v90l688 918h99v-918h172v-90h-172v-397h118v-45h-454v45h131v397h-582zM156 532h516v701h-4z" />
<glyph unicode="5" horiz-adv-x="1138" d="M172 76v375h57q54 -196 96 -286.5t89.5 -121.5t132.5 -31q132 0 196 103t64 327q0 234 -71 342.5t-214 108.5q-110 0 -179.5 -61.5t-92.5 -147.5h-57v733h753v-184h-708v-459h4q31 74 119 125t188 51q210 0 344.5 -135t134.5 -342q0 -160 -69.5 -276.5t-183 -173 t-255.5 -56.5q-174 0 -348 109z" />
<glyph unicode="6" horiz-adv-x="1138" d="M98 733q0 155 42.5 289.5t114 227.5t167.5 146.5t201 53.5q143 0 295 -74v-364h-58q-27 93 -44 148.5t-36.5 104.5t-34.5 72.5t-36.5 41t-43.5 22t-55 4.5q-132 0 -205 -155.5t-73 -440.5v-96h4q38 92 114 142t173 50q179 0 298 -127t119 -323q0 -113 -36.5 -207 t-97.5 -154.5t-138.5 -93.5t-161.5 -33q-234 0 -371 201t-137 565zM352 426q0 -192 65 -303t175 -111q48 0 87 21t71.5 67t50.5 129t18 197q0 214 -58 314t-173 100q-124 0 -180 -99t-56 -315z" />
<glyph unicode="7" horiz-adv-x="1138" d="M156 1024v393h893q-83 -180 -138.5 -316t-118.5 -321t-97 -370t-38 -365h88v-45h-413v45h104q3 153 27.5 288t58.5 231t85.5 194.5t96 164t104.5 155.5t97 155h-704v-209h-45z" />
<glyph unicode="8" horiz-adv-x="1138" d="M92 385q0 143 86.5 239.5t241.5 120.5v5q-141 35 -218 118.5t-77 214.5q0 162 122 264.5t322 102.5t322.5 -102.5t122.5 -264.5q0 -131 -77 -214.5t-218 -118.5v-5q155 -24 241.5 -120.5t86.5 -239.5q0 -189 -136 -303.5t-342 -114.5t-341.5 114.5t-135.5 303.5zM313 369 q0 -189 66 -273t190 -84t190 84t66 273t-65.5 272.5t-190.5 83.5t-190.5 -83.5t-65.5 -272.5zM346 1087q0 -168 56.5 -242.5t166.5 -74.5t167 74.5t57 242.5t-57 243t-167 75t-166.5 -75t-56.5 -243z" />
<glyph unicode="9" horiz-adv-x="1138" d="M98 963q0 113 36.5 207t97.5 154t138.5 93t161.5 33q232 0 370 -196t138 -537q0 -340 -157 -545t-414 -205q-69 0 -136.5 17t-172.5 57v365h57q27 -93 44.5 -148.5t38 -104.5t37.5 -73t42 -41.5t51 -22t66 -4.5q311 0 311 596v97h-4q-38 -92 -114 -142.5t-173 -50.5 q-179 0 -298.5 127.5t-119.5 323.5zM319 991q0 -214 58.5 -313.5t173.5 -99.5q124 0 179.5 98.5t55.5 314.5q0 192 -65 303t-174 111q-48 0 -87 -21t-72 -67t-51 -129t-18 -197z" />
<glyph unicode=":" d="M174 78q0 46 32.5 78t78.5 32t78 -32t32 -78t-32 -78.5t-78 -32.5t-78.5 32.5t-32.5 78.5zM174 741q0 46 32.5 78.5t78.5 32.5t78 -32.5t32 -78.5t-32 -78t-78 -32t-78.5 32t-32.5 78z" />
<glyph unicode=";" d="M174 78q0 46 32.5 78t78.5 32q51 0 80.5 -34t29.5 -97q0 -37 -12 -72.5t-27.5 -61t-44.5 -56t-48 -47.5t-52 -45l-37 37q108 79 141 155q-66 0 -103.5 31.5t-37.5 79.5zM174 741q0 46 32.5 78.5t78.5 32.5t78 -32.5t32 -78.5t-32 -78t-78 -32t-78.5 32t-32.5 78z" />
<glyph unicode="&#x3c;" horiz-adv-x="1228" d="M94 455v131l1041 471v-139l-869 -398l869 -397v-139z" />
<glyph unicode="=" horiz-adv-x="1228" d="M94 250v131h1041v-131h-1041zM94 659v132h1041v-132h-1041z" />
<glyph unicode="&#x3e;" horiz-adv-x="1228" d="M94 -16v139l869 397l-869 398v139l1041 -471v-131z" />
<glyph unicode="?" horiz-adv-x="872" d="M98 940v408q101 54 184.5 78t178.5 24q158 0 268.5 -90t110.5 -236q0 -66 -15.5 -117t-57 -104.5t-90.5 -99t-140 -119.5q-66 -55 -80.5 -96t-14.5 -154h-45v96q0 62 23 112.5t55.5 90t64.5 85t55 120.5t23 174q0 150 -50 221.5t-134 71.5q-68 0 -115 -41t-88 -140 t-88 -284h-45zM326 78q0 46 32 78t78 32t78.5 -32t32.5 -78t-32.5 -78.5t-78.5 -32.5t-78 32.5t-32 78.5z" />
<glyph unicode="@" horiz-adv-x="1638" d="M74 688q0 176 64 322t172.5 241t250 147t299.5 52q141 0 270 -46.5t225 -128.5t153 -201.5t57 -256.5q0 -67 -16.5 -137.5t-51 -137t-81 -119t-112 -84.5t-139.5 -32q-50 0 -90 19.5t-60.5 45.5t-31 49t-8.5 34h-4q-42 -46 -59 -63t-50 -42.5t-65.5 -34t-75.5 -8.5 q-96 0 -150.5 66t-54.5 200q0 127 57.5 246.5t155.5 195t207 75.5q59 0 92 -24t64 -87h4l14 82h152q-32 -129 -61.5 -241t-43.5 -165t-25 -96t-14.5 -60.5t-3.5 -31.5q0 -48 25 -71t59 -23q81 0 146.5 73t98 175.5t32.5 205.5q0 97 -46 196t-125 179.5t-196.5 131 t-249.5 50.5q-93 0 -181 -28t-165 -86t-134.5 -139.5t-90.5 -195.5t-33 -247q0 -176 77.5 -319t222.5 -227.5t331 -84.5q127 0 218.5 24t201.5 73l26 -64q-128 -59 -232.5 -91t-217.5 -32q-136 0 -258.5 32t-222.5 94t-173 148.5t-113 201t-40 245.5zM664 580q0 -91 36 -137 t95 -46q63 0 124 74t98.5 189t37.5 229q0 48 -27 79t-65 31q-32 0 -71 -18t-79 -55t-73.5 -86t-54.5 -117.5t-21 -142.5z" />
<glyph unicode="A" horiz-adv-x="1251" d="M-33 0v45h119l475 1389h131l451 -1389h82v-45h-455v45h152l-168 524h-432l-179 -524h197v-45h-373zM336 614h403l-194 600h-4z" />
<glyph unicode="B" horiz-adv-x="1290" d="M86 0v45h123v1327h-123v45h586q194 0 312 -90t118 -233q0 -77 -29 -138.5t-80 -100.5t-109 -62.5t-126 -34.5v-4q214 -20 330 -114t116 -237q0 -87 -37.5 -159t-111 -127t-193 -86t-274.5 -31h-502zM430 45h96q224 0 324 80.5t100 273.5q0 174 -80 248t-258 74h-182v-676 zM430 766h117q162 0 241.5 73t79.5 240q0 152 -63.5 222.5t-186.5 70.5h-188v-606z" />
<glyph unicode="C" horiz-adv-x="1251" d="M111 709q0 167 48.5 307t132 234.5t197.5 147t244 52.5q186 0 352 -78v-409h-45q-34 105 -57 170t-48 118.5t-45 80.5t-48 45t-56 23t-71 5q-83 0 -145 -34.5t-109.5 -113t-71.5 -216t-24 -332.5q0 -263 41 -417.5t119.5 -217t207.5 -62.5q44 1 77 11t62 36.5t51 62 t44.5 95.5t41.5 128.5t44 170.5h45v-463q-168 -86 -365 -86q-130 0 -244 52.5t-197.5 147t-132 235t-48.5 307.5z" />
<glyph unicode="D" horiz-adv-x="1402" d="M86 0v45h123v1327h-123v45h487q140 0 258 -37t202 -102.5t142.5 -155t86.5 -194t28 -219.5q0 -145 -45.5 -272t-132.5 -225t-226 -155t-313 -57h-487zM430 45h127q256 0 367.5 157t111.5 507t-111.5 506.5t-367.5 156.5h-127v-1327z" />
<glyph unicode="E" horiz-adv-x="1251" d="M86 0v45h123v1327h-123v45h1040v-454h-45q-29 98 -49.5 163.5t-41 112.5t-35.5 72t-35.5 39.5t-37.5 18t-46 3.5h-406v-614h160q78 0 120 60t72 222h45v-610h-45q-30 162 -72 222.5t-120 60.5h-160v-668h361q39 0 65 5.5t52.5 25t46 49.5t43.5 86.5t47 129t55 183.5h45 v-524h-1059z" />
<glyph unicode="F" horiz-adv-x="1175" d="M86 0v45h123v1327h-123v45h1040v-454h-45q-30 97 -53 163t-45.5 113t-39.5 72.5t-39.5 39.5t-42 17.5t-50.5 3.5h-381v-614h160q78 0 120 60t72 222h45v-610h-45q-30 162 -72 222.5t-120 60.5h-160v-668h188v-45h-532z" />
<glyph unicode="G" horiz-adv-x="1366" d="M111 709q0 217 84 386t234 262t341 93q96 0 180 -21t189 -65v-406h-45q-30 97 -54.5 162t-55 123.5t-64.5 91.5t-78 51.5t-99 18.5q-202 0 -290 -160.5t-88 -535.5q0 -168 14.5 -288t41.5 -199.5t72 -126t100.5 -65t133.5 -18.5q98 0 162.5 52.5t64.5 119.5v389h-217v45 h529v-45h-90v-497q-76 -46 -193.5 -77.5t-243.5 -31.5q-107 0 -199.5 25.5t-172.5 82.5t-136 142.5t-88 210.5t-32 281z" />
<glyph unicode="H" horiz-adv-x="1402" d="M86 0v45h123v1327h-123v45h479v-45h-135v-614h543v614h-135v45h479v-45h-123v-1327h123v-45h-479v45h135v668h-543v-668h135v-45h-479z" />
<glyph unicode="I" horiz-adv-x="645" d="M88 0v45h123v1327h-123v45h467v-45h-123v-1327h123v-45h-467z" />
<glyph unicode="J" horiz-adv-x="985" d="M100 37v508h45l64 -260q28 -115 58 -176t60 -79t76 -18q64 0 106 50.5t42 154.5v1155h-168v45h512v-45h-123v-1026q0 -198 -102.5 -288.5t-284.5 -90.5q-59 0 -142.5 19.5t-142.5 50.5z" />
<glyph unicode="K" horiz-adv-x="1214" d="M45 0v45h123v1327h-123v45h520v-45h-176v-602l574 602h-156v45h373v-45h-144l-475 -495l615 -832h77v-45h-307l-549 754h-8v-709h176v-45h-520z" />
<glyph unicode="L" horiz-adv-x="1175" d="M86 0v45h123v1327h-123v45h549v-45h-205v-1327h303q39 0 61 4t48.5 21.5t44 49t41.5 92t47 145t55 212.5h45v-569h-989z" />
<glyph unicode="M" horiz-adv-x="1630" d="M49 0v45h148v1327h-148v45h400l354 -1114h8l371 1114h383v-45h-131v-1327h131v-45h-549v45h196v1307h-4l-450 -1352h-70l-430 1352h-4v-1307h160v-45h-365z" />
<glyph unicode="N" horiz-adv-x="1327" d="M86 0v45h135v1327h-135v45h393l602 -1024h4v979h-163v45h356v-45h-135v-1372h-70l-790 1331h-4v-1286h172v-45h-365z" />
<glyph unicode="O" horiz-adv-x="1402" d="M111 709q0 164 48.5 305t130 235.5t188 147.5t222.5 53t222.5 -53t188.5 -147.5t130.5 -235.5t48.5 -305t-49 -305t-130.5 -235.5t-188 -148t-222.5 -53.5t-222.5 53.5t-188 148t-130 235.5t-48.5 305zM365 709q0 -265 37.5 -419.5t108.5 -216t189 -61.5q88 0 148.5 33.5 t104 113.5t63.5 215t20 335t-20 335t-63.5 214.5t-104 113t-148.5 33.5q-118 0 -189 -61.5t-108.5 -215.5t-37.5 -419z" />
<glyph unicode="P" horiz-adv-x="1251" d="M123 0v45h123v1327h-123v45h588q238 0 369.5 -102t131.5 -268t-127 -262.5t-372 -96.5h-246v-643h188v-45h-532zM467 733h192q172 0 246 67.5t74 246.5q0 152 -73.5 238.5t-227.5 86.5h-211v-639z" />
<glyph unicode="Q" horiz-adv-x="1402" d="M111 709q0 164 48.5 305t130 235.5t188 147.5t222.5 53t222.5 -53t188.5 -147.5t130.5 -235.5t48.5 -305q0 -195 -67 -355t-176 -255.5t-244 -123.5v-53q0 -94 23 -129t71 -35h25v-45q-78 -12 -109 -12q-114 0 -164.5 55t-50.5 178v41q-135 28 -244 123.5t-176 255.5 t-67 355zM365 709q0 -265 37.5 -419.5t108.5 -216t189 -61.5q88 0 148.5 33.5t104 113.5t63.5 215t20 335t-20 335t-63.5 214.5t-104 113t-148.5 33.5q-118 0 -189 -61.5t-108.5 -215.5t-37.5 -419z" />
<glyph unicode="R" horiz-adv-x="1251" d="M86 0v45h123v1327h-123v45h596q124 0 217 -28t145.5 -77t77.5 -108t25 -129q0 -152 -116.5 -246.5t-334.5 -107.5l488 -676h100v-45h-326l-520 721h-8v-676h156v-45h-500zM430 754h121q180 0 271 83t91 238q0 45 -9 86t-31 80t-55 67.5t-85 46t-117 17.5h-186v-618z" />
<glyph unicode="S" horiz-adv-x="1138" d="M111 1044q0 182 129 294t338 112q204 0 385 -82v-410h-45l-74 238q-36 115 -107 162t-178 47q-134 0 -221.5 -78t-87.5 -192q0 -29 4 -52.5t18 -45t26 -37t42.5 -34t50.5 -30t68.5 -31.5t78.5 -32t97 -37q122 -46 193.5 -82.5t123.5 -85t72 -107t20 -143.5 q0 -195 -149 -323t-383 -128q-88 0 -200.5 34.5t-180.5 80.5v450h45q66 -294 142 -407t221 -113q141 0 237 84.5t96 214.5q0 65 -26 116t-70 85t-101 61.5t-120 51t-126.5 47.5t-120.5 57t-101 73.5t-70 102t-26 139.5z" />
<glyph unicode="T" horiz-adv-x="1062" d="M43 967v450h975v-450h-45q-26 120 -44.5 190.5t-34.5 117.5t-35 66t-36.5 25t-48.5 6h-133v-1327h154v-45h-529v45h154v1327h-133q-31 0 -48.5 -6t-36.5 -25t-35 -66t-34.5 -117.5t-44.5 -190.5h-45z" />
<glyph unicode="U" horiz-adv-x="1251" d="M61 1372v45h492v-45h-147v-1030q0 -90 23.5 -156.5t63.5 -103t85.5 -53.5t97.5 -17q148 0 240 93t92 251v1016h-185v45h365v-45h-123v-1018q0 -178 -108 -282.5t-289 -104.5q-248 0 -366 104.5t-118 317.5v983h-123z" />
<glyph unicode="V" horiz-adv-x="1175" d="M-10 1372v45h508v-45h-176l352 -1112h4l360 1112h-168v45h316v-45h-94l-435 -1372h-122l-439 1372h-106z" />
<glyph unicode="W" horiz-adv-x="1744" d="M4 1372v45h492v-45h-160l291 -1061h4l221 717l-94 344h-135v45h548v-45h-192l295 -1061h4l311 1061h-164v45h316v-45h-94l-410 -1372h-90l-262 936h-4l-295 -936h-90l-394 1372h-98z" />
<glyph unicode="X" horiz-adv-x="1214" d="M6 0v45h107l413 682l-344 645h-119v45h512v-45h-151l242 -459l274 459h-168v45h348v-45h-119l-307 -512l426 -815h86v-45h-499v45h176l-330 631l-379 -631h213v-45h-381z" />
<glyph unicode="Y" horiz-adv-x="1138" d="M-20 1372v45h532v-45h-168l297 -627l332 627h-154v45h340v-45h-129l-358 -680v-647h164v-45h-549v45h164v602l-353 725h-118z" />
<glyph unicode="Z" horiz-adv-x="1138" d="M98 0v33l676 1339h-332q-39 0 -63.5 -4t-50.5 -19t-43 -41.5t-36.5 -73t-36 -111.5t-36.5 -160h-45v454h909l-700 -1372h379q44 0 70.5 7.5t54.5 33t49.5 78.5t45.5 139t52 221h45v-524h-938z" />
<glyph unicode="[" horiz-adv-x="757" d="M258 -356v1773h365v-45h-172v-1683h172v-45h-365z" />
<glyph unicode="\" d="M-66 1450h132l569 -1483h-131z" />
<glyph unicode="]" horiz-adv-x="757" d="M135 -311h172v1683h-172v45h365v-1773h-365v45z" />
<glyph unicode="^" horiz-adv-x="1228" d="M188 680l365 737h121l366 -737h-151l-275 565l-274 -565h-152z" />
<glyph unicode="_" horiz-adv-x="1024" d="M0 -154h1024v-102h-1024v102z" />
<glyph unicode="`" d="M-12 1462q0 30 21.5 52t53.5 22q50 0 111 -70l252 -286h-88l-291 198q-36 24 -47.5 41t-11.5 43z" />
<glyph unicode="a" horiz-adv-x="1062" d="M94 252q0 85 33 143.5t83.5 86t120.5 47t135.5 28t137 27.5t117.5 47v215q0 182 -178 182q-44 0 -75.5 -11t-56.5 -32t-49.5 -67.5t-46 -101t-53.5 -148.5h-45v331q182 74 313 74q179 0 275 -78t96 -184v-766h98v-45h-278v180h-4q-37 -97 -120.5 -155t-190.5 -58 q-140 0 -226 76.5t-86 208.5zM299 252q0 -113 41 -162t125 -49q115 3 185.5 107.5t70.5 273.5v156q-50 -24 -110.5 -41.5t-102 -26t-84 -25.5t-68 -41.5t-41.5 -72.5t-16 -119z" />
<glyph unicode="b" horiz-adv-x="1099" d="M86 1372v45h291v-491h4q26 67 84.5 107t142.5 40q183 0 294.5 -150t111.5 -386q0 -154 -56 -284.5t-154 -208t-216 -77.5q-185 0 -277 180l-73 -147h-54v1372h-98zM373 496q0 -118 10.5 -206t28 -140.5t44 -84t54 -42.5t61.5 -11q104 0 167 128.5t63 379.5q0 240 -61 368 t-165 128q-202 0 -202 -520z" />
<glyph unicode="c" horiz-adv-x="985" d="M94 520q0 249 133.5 401t362.5 152q86 0 263 -59q13 -4 19 -6v-373h-57q-30 109 -54 179.5t-45 114t-46 65t-47.5 28t-57.5 6.5q-50 0 -94.5 -26.5t-82 -81t-59.5 -152t-22 -227.5q0 -273 67.5 -394.5t198.5 -121.5q122 0 192.5 89.5t74.5 270.5h45q-1 -208 -94.5 -313 t-245.5 -105q-204 0 -327.5 153t-123.5 400z" />
<glyph unicode="d" horiz-adv-x="1062" d="M104 518q0 258 110 406.5t275 148.5q76 0 137.5 -41.5t96.5 -116.5h4v457h-98v45h291v-1372h98v-45h-279v125h-4q-64 -158 -250 -158q-73 0 -141 37t-122 104.5t-86 174t-32 235.5zM317 500q0 -137 14 -233t42 -151.5t65 -79.5t88 -24q104 0 158.5 122.5t54.5 365.5 q0 516 -219 516q-48 0 -83 -23t-63.5 -78.5t-42.5 -159t-14 -255.5z" />
<glyph unicode="e" horiz-adv-x="1024" d="M96 520q0 242 128 397.5t313 155.5q177 0 280 -119.5t103 -335.5h-609q-2 -20 -2 -61q0 -192 32 -312.5t86.5 -170t135.5 -49.5q136 0 221 90t99 274h45q-7 -204 -114 -313t-271 -109q-196 0 -321.5 154t-125.5 399zM313 664h394v79q0 285 -175 285q-95 0 -151 -93 t-68 -271z" />
<glyph unicode="f" horiz-adv-x="606" d="M78 0v45h98v950h-98v45h98v113q0 297 324 297q88 0 180 -29v-270h-45q-37 116 -63 170t-47.5 69t-57.5 15q-42 0 -70 -32t-28 -103v-230h245v-45h-245v-950h147v-45h-438z" />
<glyph unicode="g" horiz-adv-x="1024" d="M61 242q0 105 59 168.5t154 89.5q-34 37 -55.5 99.5t-21.5 137.5q0 147 105 241.5t263 94.5q98 0 162 -33h252v-57h-156v-4q53 -37 82 -106.5t29 -145.5q0 -147 -103.5 -246.5t-261.5 -99.5q-66 0 -116.5 11.5t-72.5 25.5t-39.5 25.5t-25.5 11.5q-48 0 -95.5 -40.5 t-47.5 -90.5q0 -56 35.5 -88t93.5 -40t133 -11q37 -1 75 -1t77 1q18 1 37 1q58 0 115 -8q74 -9 132 -30t93.5 -73.5t35.5 -133.5q0 -62 -32.5 -121.5t-89 -106t-141.5 -74.5t-183 -28q-110 0 -197.5 22.5t-139.5 59t-78.5 79t-26.5 85.5q0 52 41.5 93.5t89.5 57.5v4 q-89 21 -135 83.5t-46 146.5zM242 -150q0 -74 82 -134t213 -60q153 0 252.5 64.5t99.5 148.5q0 62 -39.5 91t-149.5 32l-385 8q-35 -21 -54 -62t-19 -88zM401 727q0 -177 35 -239t129 -62q85 0 124.5 64.5t39.5 236.5t-39.5 236.5t-124.5 64.5t-124.5 -64.5t-39.5 -236.5z " />
<glyph unicode="h" horiz-adv-x="1099" d="M66 0v45h110v1327h-110v45h303v-489h4q39 58 107.5 101.5t164.5 43.5q277 0 277 -301v-727h110v-45h-422v45h119v752q0 111 -34.5 156.5t-108.5 45.5q-92 0 -154.5 -80t-62.5 -231v-643h118v-45h-421z" />
<glyph unicode="i" d="M90 0v45h98v950h-98v45h291v-995h98v-45h-389zM168 1272q0 52 33.5 84.5t83.5 32.5t83 -32.5t33 -84.5t-33 -84.5t-83 -32.5t-83.5 32.5t-33.5 84.5z" />
<glyph unicode="j" d="M37 -299h49q64 0 83 29.5t19 109.5v1155h-110v45h303v-1089q0 -171 -69 -239t-218 -68h-57v57zM168 1272q0 52 33.5 84.5t83.5 32.5t83 -32.5t33 -84.5t-33 -84.5t-83 -32.5t-83.5 32.5t-33.5 84.5z" />
<glyph unicode="k" horiz-adv-x="1024" d="M78 0v45h110v1327h-110v45h303v-856l385 434h-131v45h295v-45h-99l-292 -338l419 -612h58v-45h-254l-377 545h-4v-500h131v-45h-434z" />
<glyph unicode="l" d="M90 0v45h98v1327h-98v45h291v-1372h98v-45h-389z" />
<glyph unicode="m" horiz-adv-x="1630" d="M76 0v45h106v950h-86v45h271v-131h4q83 164 266 164q85 0 158 -47t100 -117q83 164 266 164q130 0 208.5 -71.5t78.5 -215.5v-741h106v-45h-405v45h106v754q0 200 -135 200q-95 0 -152 -81t-57 -234v-639h107v-45h-406v45h107v754q0 200 -135 200q-95 0 -152 -81 t-57 -234v-639h106v-45h-405z" />
<glyph unicode="n" horiz-adv-x="1099" d="M66 0v45h110v950h-110v45h286v-139h4q41 74 115 123t174 49q277 0 277 -301v-727h110v-45h-422v45h119v752q0 111 -34.5 156.5t-108.5 45.5q-92 0 -154.5 -80t-62.5 -231v-643h118v-45h-421z" />
<glyph unicode="o" horiz-adv-x="1062" d="M84 520q0 244 127 398.5t319 154.5t319.5 -154.5t127.5 -398.5t-127.5 -398.5t-319.5 -154.5t-319 154.5t-127 398.5zM297 520q0 -195 27 -308t76 -156.5t130 -43.5t130 43.5t76.5 156.5t27.5 308t-27.5 308t-76.5 156.5t-130 43.5t-130 -43.5t-76 -156.5t-27 -308z" />
<glyph unicode="p" horiz-adv-x="1099" d="M86 -311h98v1306h-98v45h283v-120h4q67 153 243 153q122 0 213.5 -74.5t138 -199t46.5 -279.5q0 -131 -33 -237.5t-89.5 -174.5t-127.5 -104.5t-150 -36.5q-159 0 -233 148h-4v-426h115v-45h-406v45zM377 520q0 -260 53.5 -377.5t159.5 -117.5q72 0 116.5 41.5 t69.5 152.5t25 301q0 496 -219 496q-49 0 -84.5 -21.5t-64 -75t-42.5 -153t-14 -246.5z" />
<glyph unicode="q" horiz-adv-x="1062" d="M104 520q0 238 119.5 395.5t300.5 157.5q186 0 283 -172l61 139h52v-1351h98v-45h-406v45h115v413h-4q-30 -64 -91 -99.5t-134 -35.5q-181 0 -287.5 144t-106.5 409zM317 520q0 -142 14.5 -240.5t42.5 -153.5t63.5 -78t84.5 -23q50 0 88.5 27.5t68 88t45 166t15.5 254.5 q0 141 -13.5 234.5t-42 143.5t-64 69.5t-87.5 19.5q-49 0 -86 -23.5t-67 -79t-46 -157.5t-16 -248z" />
<glyph unicode="r" horiz-adv-x="833" d="M82 0v45h111v950h-111v45h299v-151h4q33 92 92.5 138t155.5 46q59 0 141 -37v-401h-45l-72 211q-30 89 -50.5 121t-55.5 32q-64 0 -115 -99.5t-51 -235.5v-619h135v-45h-438z" />
<glyph unicode="s" horiz-adv-x="948" d="M90 57v361h57q20 -91 35 -150t34.5 -108t38.5 -75t48 -44t62 -23.5t81 -5.5q124 0 201.5 61t77.5 171q0 40 -35 72t-91 54.5t-123.5 45t-135.5 50.5t-124 63t-91 90.5t-35 125.5q0 152 111 240t291 88q157 0 294 -72v-329h-57q-25 86 -39.5 132.5t-33.5 93.5t-33.5 67 t-38 37t-48.5 21.5t-63 4.5q-101 0 -176.5 -51t-75.5 -133q0 -52 35 -91t91 -64.5t123.5 -48t135.5 -49t124 -60t91 -88.5t35 -128q0 -155 -120 -251.5t-306 -96.5q-82 0 -173 23.5t-167 66.5z" />
<glyph unicode="t" horiz-adv-x="681" d="M45 995v45h129v246h193v-246h237v-45h-237v-843q0 -59 26 -85t84 -26q69 0 104 47.5t35 157.5v164h46v-152q0 -158 -64 -224.5t-195 -66.5q-229 0 -229 246v782h-129z" />
<glyph unicode="u" horiz-adv-x="1099" d="M68 995v45h303v-811q0 -102 33.5 -145t113.5 -43q91 0 152 79.5t61 231.5v643h-119v45h312v-995h110v-45h-303v135h-4q-26 -71 -99.5 -119.5t-166.5 -48.5q-143 0 -213 71t-70 226v731h-110z" />
<glyph unicode="v" horiz-adv-x="909" d="M-35 995v45h447v-45h-160l270 -766h4l275 766h-164v45h307v-45h-84l-362 -1003h-84l-365 1003h-84z" />
<glyph unicode="w" horiz-adv-x="1441" d="M-10 995v45h409v-45h-131l275 -786h4l160 467l-107 319h-123v45h508v-45h-192l270 -786h4l279 786h-168v45h274v-45h-45l-360 -1003h-107l-205 606h-4l-213 -606h-102l-348 1003h-78z" />
<glyph unicode="x" horiz-adv-x="948" d="M-43 0v45h98l320 451l-299 499h-90v45h458v-45h-143l205 -344l246 344h-136v45h283v-45h-86l-278 -389l335 -561h74v-45h-459v45h156l-238 401l-286 -401h168v-45h-328z" />
<glyph unicode="y" horiz-adv-x="909" d="M0 995v45h438v-45h-153l299 -714l245 714h-178v45h328v-45h-92l-375 -1079q-29 -85 -56 -138t-58.5 -83t-64 -40.5t-79.5 -10.5q-110 0 -156 49v319h45l56 -198q20 -73 42.5 -99t51.5 -26q108 0 196 317l-411 989h-78z" />
<glyph unicode="z" horiz-adv-x="948" d="M72 0l561 995h-250q-58 0 -92.5 -26t-62 -91.5t-58.5 -197.5h-45v360h749l-565 -995h279q51 0 81.5 22.5t64.5 100t79 238.5h45v-406h-786z" />
<glyph unicode="{" horiz-adv-x="757" d="M127 530q91 32 123.5 80.5t32.5 163.5v367q0 125 32 190t108.5 92t223.5 27v-45q-91 -3 -131.5 -57.5t-40.5 -180.5v-360q0 -93 -16 -144.5t-50 -79.5t-102 -51v-4q100 -33 134 -86t34 -188v-360q0 -126 40.5 -180.5t131.5 -57.5v-45q-147 0 -223.5 27t-108.5 92t-32 190 v367q0 115 -32.5 163t-123.5 80z" />
<glyph unicode="|" horiz-adv-x="454" d="M162 0v1417h131v-1417h-131z" />
<glyph unicode="}" horiz-adv-x="757" d="M111 -344q91 3 131.5 57.5t40.5 180.5v360q0 135 34 188t134 86v4q-68 23 -102 51t-50 79.5t-16 144.5v360q0 126 -40.5 180.5t-131.5 57.5v45q147 0 223.5 -27t108.5 -92t32 -190v-367q0 -115 32.5 -163.5t123.5 -80.5q-91 -32 -123.5 -80t-32.5 -163v-367 q0 -125 -32 -190t-108.5 -92t-223.5 -27v45z" />
<glyph unicode="~" horiz-adv-x="1228" d="M147 485q93 177 254 177q79 0 226 -66q13 -6 43.5 -20t46.5 -21t39.5 -16t41.5 -13t33 -4q55 0 95.5 39.5t81.5 108.5l73 -115q-57 -85 -100 -121q-65 -55 -152 -55q-50 0 -96 17t-108 50q-128 72 -234 72q-61 0 -100.5 -40t-69.5 -107z" />
<glyph unicode="&#xa0;" />
<glyph unicode="&#xa1;" d="M174 -274q0 57 10 149l78 735h45l78 -735q10 -92 10 -149q0 -49 -28 -82t-82 -33t-82.5 33t-28.5 82zM174 983q0 46 32.5 78.5t78.5 32.5t78 -32.5t32 -78.5t-32 -78.5t-78 -32.5t-78.5 32.5t-32.5 78.5z" />
<glyph unicode="&#xa2;" horiz-adv-x="1138" d="M86 709q0 229 115 376.5t317 169.5v195h66v-188q16 0 34.5 -2t33 -4t36.5 -7t33.5 -8t37.5 -11t33.5 -10.5t37 -12t34.5 -11.5v-373h-57q-45 166 -79.5 249.5t-65.5 112.5t-78 32v-1002q114 5 178.5 94t68.5 264h46q-1 -192 -80.5 -295.5t-212.5 -117.5v-221h-66v219 q-197 7 -314.5 158.5t-117.5 392.5zM299 729q0 -247 55.5 -369t163.5 -141v995q-96 -21 -157.5 -139t-61.5 -346z" />
<glyph unicode="&#xa3;" horiz-adv-x="1138" d="M90 594v45h189q-41 75 -80 190t-39 195q0 116 58 213t166 155t245 58q92 0 192.5 -36t153.5 -87v-393h-57q-34 149 -67 242t-72 143.5t-79 68t-98 17.5q-130 0 -206.5 -78.5t-76.5 -202.5q0 -53 30 -128t75 -175.5t68 -181.5h352v-45h-344q8 -33 8 -86q0 -77 -58.5 -167 t-154.5 -153v-4h672v222h45v-406h-877v184q86 3 149.5 64.5t63.5 146.5q0 79 -53 199h-205z" />
<glyph unicode="&#xa4;" horiz-adv-x="1138" d="M53 283l119 118q-111 114 -111 308q0 193 111 307l-119 119l90 90l117 -117q62 53 143.5 81t165.5 28t166 -28t144 -81l116 117l90 -90l-118 -119q110 -113 110 -307q0 -195 -110 -308l118 -118l-90 -90l-116 116q-61 -53 -143.5 -80.5t-166.5 -27.5t-166 27.5t-143 80.5 l-117 -116zM201 709q0 -154 106.5 -265.5t261.5 -111.5t262 111.5t107 265.5t-107 265t-262 111t-261.5 -111t-106.5 -265z" />
<glyph unicode="&#xa5;" horiz-adv-x="1138" d="M-12 1372v45h516v-45h-168l297 -627l332 627h-154v45h340v-45h-129l-299 -569h248v-45h-273l-34 -66v-102h307v-45h-307v-500h163v-45h-532v45h164v500h-332v45h332v57l-53 111h-271v45h248l-277 569h-118z" />
<glyph unicode="&#xa6;" horiz-adv-x="454" d="M162 0v528h131v-528h-131zM162 889v528h131v-528h-131z" />
<glyph unicode="&#xa7;" horiz-adv-x="1138" d="M123 614q0 98 50 175.5t134 125.5q-36 30 -57 79t-21 98q0 71 21.5 133.5t63.5 113.5t113.5 81t164.5 30q158 0 280 -90v-336h-45q-31 117 -64 194t-69 117t-70.5 55t-78.5 15q-99 0 -158 -56.5t-59 -166.5q0 -49 40.5 -94t105 -81t142.5 -72.5t156.5 -75.5t143 -82 t105 -100t40.5 -122q0 -80 -25 -140t-62.5 -94.5t-94.5 -64.5q104 -91 104 -258q0 -65 -23 -126t-68 -113t-120.5 -83.5t-171.5 -31.5q-172 0 -326 69v410h45q67 -243 131 -338.5t168 -95.5q242 0 242 248q0 55 -31.5 102t-83.5 80.5t-118 67t-135.5 62t-135.5 65.5t-118 77 t-83.5 97.5t-31.5 125.5zM213 705q0 -35 15.5 -62t43 -48t84 -51t118.5 -59.5t167.5 -85.5t210.5 -118q43 19 81 68t38 100q0 47 -34 85.5t-99.5 74.5t-138.5 70t-174.5 89t-184.5 115q-62 -44 -94.5 -83.5t-32.5 -94.5z" />
<glyph unicode="&#xa8;" d="M-12 1315q0 46 32 78t78 32t78.5 -32t32.5 -78t-32.5 -78.5t-78.5 -32.5t-78 32.5t-32 78.5zM360 1315q0 46 32.5 78t78.5 32t78.5 -32t32.5 -78t-32.5 -78.5t-78.5 -32.5t-78.5 32.5t-32.5 78.5z" />
<glyph unicode="&#xa9;" horiz-adv-x="1638" d="M94 709q0 151 57 288t154 236.5t231.5 158t282.5 58.5t282.5 -58.5t231.5 -158t154 -236.5t57 -288q0 -202 -96.5 -372.5t-263.5 -270t-365 -99.5t-365 99.5t-263.5 270t-96.5 372.5zM225 709q0 -166 78.5 -313t216 -236.5t299.5 -89.5t299.5 89.5t216 236.5t78.5 313 t-78.5 313t-216 236.5t-299.5 89.5t-299.5 -89.5t-216 -236.5t-78.5 -313zM410 727q0 55 17 111.5t54 111.5t90 98t132.5 69t173.5 26q100 0 189 -25.5t89 -48.5v-164h-45q-11 81 -68 137t-172 56q-132 0 -210 -89.5t-78 -273.5q0 -193 78.5 -292t222.5 -99q183 0 260 184 h41l-33 -157q-3 -19 -98 -45.5t-191 -26.5t-176 25t-142.5 75t-98 134t-35.5 194z" />
<glyph unicode="&#xaa;" horiz-adv-x="636" d="M37 958q0 63 28.5 102t76.5 56t97.5 25.5t104.5 20.5t86 32v117q0 54 -25 78t-83 24q-51 0 -82.5 -40.5t-79.5 -164.5h-45v199q124 43 204 43q118 0 180 -46.5t62 -109.5v-450h64v-37h-181v88h-4q-24 -49 -77.5 -79t-122.5 -30q-91 0 -147 46.5t-56 125.5zM184 958 q0 -114 95 -114q60 1 105.5 68.5t45.5 148.5v84q-32 -17 -73 -28.5t-68.5 -18t-53 -20.5t-38.5 -43t-13 -77z" />
<glyph unicode="&#xab;" horiz-adv-x="872" d="M92 520l318 279q29 26 49 26q18 0 18 -18t-43 -76l-153 -211l153 -211q43 -58 43 -76t-18 -18q-19 0 -49 27zM395 520l318 279q29 26 49 26q18 0 18 -18t-43 -76l-153 -211l153 -211q43 -58 43 -76t-18 -18q-19 0 -49 27z" />
<glyph unicode="&#xac;" horiz-adv-x="1228" d="M94 659v132h1041v-541h-131v409h-910z" />
<glyph unicode="&#xad;" horiz-adv-x="681" d="M86 428v184h508v-184h-508z" />
<glyph unicode="&#xae;" horiz-adv-x="1638" d="M94 709q0 151 57 288t154 236.5t231.5 158t282.5 58.5t282.5 -58.5t231.5 -158t154 -236.5t57 -288q0 -202 -96.5 -372.5t-263.5 -270t-365 -99.5t-365 99.5t-263.5 270t-96.5 372.5zM225 709q0 -166 78.5 -313t216 -236.5t299.5 -89.5t299.5 89.5t216 236.5t78.5 313 t-78.5 313t-216 236.5t-299.5 89.5t-299.5 -89.5t-216 -236.5t-78.5 -313zM475 332v37q70 3 86.5 16t16.5 66v557q0 53 -16.5 66t-86.5 16v36h379q103 0 175.5 -51t72.5 -147q0 -80 -47.5 -140.5t-124.5 -87.5l123 -168q97 -132 164 -180v-20h-138q-20 0 -40 15.5t-43.5 50 t-45.5 72t-59 98.5t-72 112h-102v-229q0 -53 16 -66t86 -16v-37h-344zM717 725h92q145 0 145 193q0 85 -36.5 124t-112.5 39h-88v-356z" />
<glyph unicode="&#xaf;" d="M-4 1262v110h577v-110h-577z" />
<glyph unicode="&#xb0;" horiz-adv-x="819" d="M119 1159q0 120 85.5 205.5t205.5 85.5t205 -85.5t85 -205.5t-85 -205.5t-205 -85.5t-205.5 85.5t-85.5 205.5zM221 1159q0 -84 55.5 -142.5t133.5 -58.5t133 58.5t55 142.5q0 83 -55 142t-133 59t-133.5 -59t-55.5 -142z" />
<glyph unicode="&#xb1;" horiz-adv-x="1228" d="M94 0v131h1041v-131h-1041zM94 561v131h455v348h131v-348h455v-131h-455v-348h-131v348h-455z" />
<glyph unicode="&#xb2;" horiz-adv-x="681" d="M74 582v120q21 20 79.5 71t93 82.5t84.5 85t78.5 96.5t50 98t21.5 106q0 88 -39 130t-98 42q-17 0 -30.5 -2.5t-25 -4.5t-21.5 -11t-17.5 -14.5t-16.5 -22.5t-14.5 -26.5t-15.5 -35t-16 -40t-19 -50t-21 -57.5h-45v264q115 37 244 37q148 0 223.5 -65t75.5 -168 q0 -69 -33.5 -133t-118 -136t-131 -105.5t-167.5 -112.5q-21 -14 -31 -21v-4h434v100h37v-223h-561z" />
<glyph unicode="&#xb3;" horiz-adv-x="681" d="M68 627v250h45q47 -153 88 -216t112 -63q95 0 131.5 58t36.5 161q0 110 -56 152.5t-181 42.5v37q68 0 104.5 5.5t63.5 25.5t36 56.5t9 100.5q0 89 -32 132.5t-101 43.5t-102 -46t-89 -210h-45v232q110 61 242 61q130 0 210.5 -61.5t80.5 -153.5q0 -81 -56 -135.5 t-129 -67.5v-4q95 -14 148 -71t53 -148q0 -107 -87.5 -177.5t-234.5 -70.5q-65 0 -133.5 18t-113.5 48z" />
<glyph unicode="&#xb4;" d="M143 1180l252 286q61 70 111 70q32 0 54 -22t22 -52q0 -25 -12 -42.5t-48 -41.5l-291 -198h-88z" />
<glyph unicode="&#xb5;" horiz-adv-x="1099" d="M68 -311h110v1306h-110v45h303v-811q0 -102 33.5 -145t113.5 -43q91 0 152 79.5t61 231.5v643h-119v45h312v-995h110v-45h-303v135h-4q-26 -71 -99.5 -119.5t-166.5 -48.5q-54 0 -90 8v-331h-303v45z" />
<glyph unicode="&#xb6;" horiz-adv-x="1228" d="M168 1004q0 209 101.5 311t324.5 102h520v-45q-95 0 -131.5 -23t-36.5 -75v-1630h-131v1708h-119v-1708h-131v942q-195 0 -296 114t-101 304z" />
<glyph unicode="&#xb7;" d="M174 520q0 46 32.5 78.5t78.5 32.5t78 -32.5t32 -78.5t-32 -78t-78 -32t-78.5 32t-32.5 78z" />
<glyph unicode="&#xb8;" d="M47 -397l27 57q71 -29 133 -29q55 0 92 26t37 71q0 38 -25 63t-67 25q-30 0 -72 -21l-25 12l86 193h66l-57 -131q5 1 27.5 4.5t35.5 3.5q66 0 110 -41.5t44 -105.5q0 -164 -236 -164q-92 0 -176 37z" />
<glyph unicode="&#xb9;" horiz-adv-x="681" d="M102 1253q173 83 254 189h66v-824h70v-36h-308v36h90v685q-37 -31 -151 -95z" />
<glyph unicode="&#xba;" horiz-adv-x="636" d="M29 1118q0 156 81.5 244t206.5 88t207 -88t82 -244q0 -155 -82 -243.5t-207 -88.5t-206.5 88.5t-81.5 243.5zM188 1118q0 -122 13.5 -187t40 -88.5t75.5 -23.5t75.5 23.5t40 88.5t13.5 187q0 123 -14 188t-40 88t-75 23t-75 -23t-40 -88t-14 -188z" />
<glyph unicode="&#xbb;" horiz-adv-x="872" d="M92 233q0 18 43 76l154 211l-154 211q-43 58 -43 76t19 18q20 0 49 -26l317 -279l-317 -278q-30 -27 -49 -27t-19 18zM395 233q0 18 43 76l154 211l-154 211q-43 58 -43 76t19 18q20 0 49 -26l317 -279l-317 -278q-30 -27 -49 -27t-19 18z" />
<glyph unicode="&#xbc;" horiz-adv-x="1708" d="M61 1253q173 83 254 189h66v-824h70v-36h-308v36h90v685q-37 -31 -151 -95zM334 -33l883 1483h143l-883 -1483h-143zM971 266v53l442 549h86v-524h111v-78h-111v-229h74v-37h-311v37h90v229h-381zM1061 344h291v356h-4z" />
<glyph unicode="&#xbd;" horiz-adv-x="1708" d="M53 1253q173 83 254 189h66v-824h69v-36h-307v36h90v685q-37 -31 -151 -95zM309 -33l883 1483h143l-882 -1483h-144zM1075 0v121q22 20 79.5 70.5t93 82.5t85.5 85t78.5 96t50 98t21.5 106q0 88 -39 130t-98 42q-17 0 -30.5 -2.5t-25 -4.5t-21.5 -11t-17.5 -14.5 t-16.5 -22.5t-14.5 -26.5t-15.5 -35t-16 -40t-19 -50t-21 -57.5h-45v264q115 37 244 37q148 0 223.5 -65t75.5 -168q0 -69 -34.5 -133.5t-116 -134.5t-132.5 -106.5t-166 -111.5q-22 -15 -33 -22v-4h434v100h37v-223h-561z" />
<glyph unicode="&#xbe;" horiz-adv-x="1708" d="M84 627v250h45q19 -61 33.5 -100.5t32.5 -76.5t37 -57.5t43.5 -32.5t54.5 -12q52 0 88 16.5t54.5 48t26 68.5t7.5 86q0 110 -57.5 152.5t-188.5 42.5v37q71 0 110 5.5t68.5 25.5t40 56.5t10.5 100.5q0 176 -149 176q-30 0 -50.5 -7.5t-36.5 -21t-33 -48t-31.5 -71.5 t-38.5 -108h-46v232q110 61 242 61q130 0 210.5 -61.5t80.5 -153.5q0 -82 -63 -136t-154 -67v-4q113 -13 173 -70.5t60 -148.5q0 -107 -87 -177.5t-234 -70.5q-65 0 -134 18t-114 48zM375 -33l882 1483h144l-883 -1483h-143zM995 266v53l443 549h86v-524h110v-78h-110v-229 h73v-37h-311v37h90v229h-381zM1085 344h291v356h-4z" />
<glyph unicode="&#xbf;" horiz-adv-x="872" d="M33 -63q0 66 15.5 117t57 104.5t90.5 99t140 119.5q66 55 80 95.5t14 154.5h45v-97q0 -62 -23 -112.5t-55.5 -90t-64.5 -84.5t-55 -120t-23 -174q0 -150 50 -221.5t134 -71.5q68 0 115 41t88 140t88 284h45v-408q-101 -54 -184 -78t-178 -24q-158 0 -268.5 90t-110.5 236 zM326 983q0 46 32 78.5t78 32.5t78.5 -32.5t32.5 -78.5t-32.5 -78.5t-78.5 -32.5t-78 32.5t-32 78.5z" />
<glyph unicode="&#xc0;" horiz-adv-x="1251" d="M-33 0v45h119l475 1389h131l451 -1389h82v-45h-455v45h152l-168 524h-432l-179 -524h197v-45h-373zM330 1790q0 30 22 52t54 22q49 0 110 -70l252 -287h-88l-291 199q-36 24 -47.5 41t-11.5 43zM336 614h403l-194 600h-4z" />
<glyph unicode="&#xc1;" horiz-adv-x="1251" d="M-33 0v45h119l475 1389h131l451 -1389h82v-45h-455v45h152l-168 524h-432l-179 -524h197v-45h-373zM336 614h403l-194 600h-4zM485 1507l252 287q61 70 111 70q32 0 54 -22t22 -52q0 -25 -12 -42.5t-48 -41.5l-291 -199h-88z" />
<glyph unicode="&#xc2;" horiz-adv-x="1251" d="M-33 0v45h119l475 1389h131l451 -1389h82v-45h-455v45h152l-168 524h-432l-179 -524h197v-45h-373zM326 1507l227 348h147l228 -348h-86l-215 230l-215 -230h-86zM336 614h403l-194 600h-4z" />
<glyph unicode="&#xc3;" horiz-adv-x="1251" d="M-33 0v45h119l475 1389h131l451 -1389h82v-45h-455v45h152l-168 524h-432l-179 -524h197v-45h-373zM313 1556q30 129 75 175.5t130 46.5q49 0 98 -24t91 -47.5t73 -23.5q29 0 52.5 23t50.5 80h57q-26 -124 -76.5 -172.5t-124.5 -48.5q-51 0 -143 47q-81 47 -123 47 q-37 0 -60 -23.5t-42 -79.5h-58zM336 614h403l-194 600h-4z" />
<glyph unicode="&#xc4;" horiz-adv-x="1251" d="M-33 0v45h119l475 1389h131l451 -1389h82v-45h-455v45h152l-168 524h-432l-179 -524h197v-45h-373zM330 1642q0 46 32 78.5t78 32.5t78.5 -32.5t32.5 -78.5t-32.5 -78t-78.5 -32t-78 32t-32 78zM336 614h403l-194 600h-4zM702 1642q0 46 32.5 78.5t78.5 32.5t78.5 -32.5 t32.5 -78.5t-32.5 -78t-78.5 -32t-78.5 32t-32.5 78z" />
<glyph unicode="&#xc5;" horiz-adv-x="1251" d="M-33 0v45h119l475 1389h131l451 -1389h82v-45h-455v45h152l-168 524h-432l-179 -524h197v-45h-373zM336 614h403l-194 600h-4zM414 1716q0 88 62 150.5t151 62.5t151 -62.5t62 -150.5t-62 -150.5t-151 -62.5t-151 62.5t-62 150.5zM504 1716q0 -51 35.5 -87t87.5 -36 t87.5 36t35.5 87t-35.5 87t-87.5 36t-87.5 -36t-35.5 -87z" />
<glyph unicode="&#xc6;" horiz-adv-x="1705" d="M-166 0v45h103l696 1327h-90v45h1038v-454h-45q-28 98 -49 163.5t-41.5 112.5t-35.5 72.5t-35.5 39.5t-38 17.5t-46.5 3.5h-405v-614h159q78 0 120.5 60t72.5 222h45v-610h-45q-30 162 -72.5 222.5t-120.5 60.5h-159v-668h360q39 0 65 5.5t52.5 25t46 49.5t43.5 86.5 t47 129t55 183.5h45v-524h-1056v45h121v524h-400l-274 -524h184v-45h-340zM289 614h375v729h-5z" />
<glyph unicode="&#xc7;" horiz-adv-x="1251" d="M111 709q0 167 48.5 307t132 234.5t197.5 147t244 52.5q186 0 352 -78v-409h-45q-34 105 -57 170t-48 118.5t-45 80.5t-48 45t-56 23t-71 5q-83 0 -145 -34.5t-109.5 -113t-71.5 -216t-24 -332.5q0 -263 41 -417.5t119.5 -217t207.5 -62.5q44 1 77 11t62 36.5t51 62 t44.5 95.5t41.5 128.5t44 170.5h45v-463q-168 -86 -365 -86l-43 -98q5 1 28 4.5t36 3.5q66 0 109.5 -41.5t43.5 -105.5q0 -164 -235 -164q-92 0 -176 37l26 57q71 -29 133 -29q55 0 92 26t37 71q0 38 -25 63t-67 25q-29 0 -71 -21l-25 12l72 164q-242 25 -399.5 225.5 t-157.5 512.5z" />
<glyph unicode="&#xc8;" horiz-adv-x="1251" d="M86 0v45h123v1327h-123v45h1040v-454h-45q-29 98 -49.5 163.5t-41 112.5t-35.5 72t-35.5 39.5t-37.5 18t-46 3.5h-406v-614h160q78 0 120 60t72 222h45v-610h-45q-30 162 -72 222.5t-120 60.5h-160v-668h361q39 0 65 5.5t52.5 25t46 49.5t43.5 86.5t47 129t55 183.5h45 v-524h-1059zM354 1790q0 30 22 52t54 22q50 0 111 -70l252 -287h-88l-291 199q-36 24 -48 41.5t-12 42.5z" />
<glyph unicode="&#xc9;" horiz-adv-x="1251" d="M86 0v45h123v1327h-123v45h1040v-454h-45q-29 98 -49.5 163.5t-41 112.5t-35.5 72t-35.5 39.5t-37.5 18t-46 3.5h-406v-614h160q78 0 120 60t72 222h45v-610h-45q-30 162 -72 222.5t-120 60.5h-160v-668h361q39 0 65 5.5t52.5 25t46 49.5t43.5 86.5t47 129t55 183.5h45 v-524h-1059zM510 1507l252 287q61 70 110 70q32 0 54 -22t22 -52q0 -26 -11.5 -43t-47.5 -41l-291 -199h-88z" />
<glyph unicode="&#xca;" horiz-adv-x="1251" d="M86 0v45h123v1327h-123v45h1040v-454h-45q-29 98 -49.5 163.5t-41 112.5t-35.5 72t-35.5 39.5t-37.5 18t-46 3.5h-406v-614h160q78 0 120 60t72 222h45v-610h-45q-30 162 -72 222.5t-120 60.5h-160v-668h361q39 0 65 5.5t52.5 25t46 49.5t43.5 86.5t47 129t55 183.5h45 v-524h-1059zM350 1507l228 348h147l227 -348h-86l-215 230l-215 -230h-86z" />
<glyph unicode="&#xcb;" horiz-adv-x="1251" d="M86 0v45h123v1327h-123v45h1040v-454h-45q-29 98 -49.5 163.5t-41 112.5t-35.5 72t-35.5 39.5t-37.5 18t-46 3.5h-406v-614h160q78 0 120 60t72 222h45v-610h-45q-30 162 -72 222.5t-120 60.5h-160v-668h361q39 0 65 5.5t52.5 25t46 49.5t43.5 86.5t47 129t55 183.5h45 v-524h-1059zM354 1642q0 46 32.5 78.5t78.5 32.5t78 -32.5t32 -78.5t-32 -78t-78 -32t-78.5 32t-32.5 78zM727 1642q0 46 32.5 78.5t78.5 32.5t78 -32.5t32 -78.5t-32 -78t-78 -32t-78.5 32t-32.5 78z" />
<glyph unicode="&#xcc;" horiz-adv-x="645" d="M27 1790q0 30 21.5 52t53.5 22q50 0 111 -70l252 -287h-88l-291 199q-36 24 -47.5 41t-11.5 43zM88 0v45h123v1327h-123v45h467v-45h-123v-1327h123v-45h-467z" />
<glyph unicode="&#xcd;" horiz-adv-x="645" d="M88 0v45h123v1327h-123v45h467v-45h-123v-1327h123v-45h-467zM182 1507l252 287q61 70 111 70q32 0 54 -22t22 -52q0 -25 -12 -42.5t-48 -41.5l-291 -199h-88z" />
<glyph unicode="&#xce;" horiz-adv-x="645" d="M23 1507l227 348h147l228 -348h-86l-215 230l-215 -230h-86zM88 0v45h123v1327h-123v45h467v-45h-123v-1327h123v-45h-467z" />
<glyph unicode="&#xcf;" horiz-adv-x="645" d="M27 1642q0 46 32 78.5t78 32.5t78.5 -32.5t32.5 -78.5t-32.5 -78t-78.5 -32t-78 32t-32 78zM88 0v45h123v1327h-123v45h467v-45h-123v-1327h123v-45h-467zM399 1642q0 46 32.5 78.5t78.5 32.5t78.5 -32.5t32.5 -78.5t-32.5 -78t-78.5 -32t-78.5 32t-32.5 78z" />
<glyph unicode="&#xd0;" horiz-adv-x="1402" d="M41 713v45h168v614h-123v45h487q140 0 258 -37t202 -102.5t142.5 -155t86.5 -194t28 -219.5q0 -145 -45.5 -272t-132.5 -225t-226 -155t-313 -57h-487v45h123v668h-168zM430 45h127q256 0 367.5 157t111.5 507t-111.5 506.5t-367.5 156.5h-127v-614h309v-45h-309v-668z " />
<glyph unicode="&#xd1;" horiz-adv-x="1327" d="M86 0v45h135v1327h-135v45h393l602 -1024h4v979h-163v45h356v-45h-135v-1372h-70l-790 1331h-4v-1286h172v-45h-365zM362 1556q30 129 75 175.5t130 46.5q49 0 98 -24t91 -47.5t73 -23.5q29 0 52.5 23t50.5 80h57q-26 -124 -76.5 -172.5t-124.5 -48.5q-51 0 -143 47 q-81 47 -123 47q-37 0 -60 -23.5t-42 -79.5h-58z" />
<glyph unicode="&#xd2;" horiz-adv-x="1402" d="M111 709q0 164 48.5 305t130 235.5t188 147.5t222.5 53t222.5 -53t188.5 -147.5t130.5 -235.5t48.5 -305t-49 -305t-130.5 -235.5t-188 -148t-222.5 -53.5t-222.5 53.5t-188 148t-130 235.5t-48.5 305zM365 709q0 -265 37.5 -419.5t108.5 -216t189 -61.5q88 0 148.5 33.5 t104 113.5t63.5 215t20 335t-20 335t-63.5 214.5t-104 113t-148.5 33.5q-118 0 -189 -61.5t-108.5 -215.5t-37.5 -419zM418 1790q0 30 22 52t54 22q49 0 110 -70l252 -287h-88l-291 199q-36 24 -47.5 41t-11.5 43z" />
<glyph unicode="&#xd3;" horiz-adv-x="1402" d="M111 709q0 164 48.5 305t130 235.5t188 147.5t222.5 53t222.5 -53t188.5 -147.5t130.5 -235.5t48.5 -305t-49 -305t-130.5 -235.5t-188 -148t-222.5 -53.5t-222.5 53.5t-188 148t-130 235.5t-48.5 305zM365 709q0 -265 37.5 -419.5t108.5 -216t189 -61.5q88 0 148.5 33.5 t104 113.5t63.5 215t20 335t-20 335t-63.5 214.5t-104 113t-148.5 33.5q-118 0 -189 -61.5t-108.5 -215.5t-37.5 -419zM573 1507l252 287q61 70 111 70q32 0 54 -22t22 -52q0 -25 -12 -42.5t-48 -41.5l-290 -199h-89z" />
<glyph unicode="&#xd4;" horiz-adv-x="1402" d="M111 709q0 164 48.5 305t130 235.5t188 147.5t222.5 53t222.5 -53t188.5 -147.5t130.5 -235.5t48.5 -305t-49 -305t-130.5 -235.5t-188 -148t-222.5 -53.5t-222.5 53.5t-188 148t-130 235.5t-48.5 305zM365 709q0 -265 37.5 -419.5t108.5 -216t189 -61.5q88 0 148.5 33.5 t104 113.5t63.5 215t20 335t-20 335t-63.5 214.5t-104 113t-148.5 33.5q-118 0 -189 -61.5t-108.5 -215.5t-37.5 -419zM414 1507l227 348h147l228 -348h-86l-215 230l-215 -230h-86z" />
<glyph unicode="&#xd5;" horiz-adv-x="1402" d="M111 709q0 164 48.5 305t130 235.5t188 147.5t222.5 53t222.5 -53t188.5 -147.5t130.5 -235.5t48.5 -305t-49 -305t-130.5 -235.5t-188 -148t-222.5 -53.5t-222.5 53.5t-188 148t-130 235.5t-48.5 305zM365 709q0 -265 37.5 -419.5t108.5 -216t189 -61.5q88 0 148.5 33.5 t104 113.5t63.5 215t20 335t-20 335t-63.5 214.5t-104 113t-148.5 33.5q-118 0 -189 -61.5t-108.5 -215.5t-37.5 -419zM401 1556q30 129 75 175.5t130 46.5q49 0 98 -24t91 -47.5t73 -23.5q29 0 52.5 23t50.5 80h57q-26 -124 -76.5 -172.5t-124.5 -48.5q-51 0 -143 47 q-81 47 -123 47q-37 0 -60 -23.5t-42 -79.5h-58z" />
<glyph unicode="&#xd6;" horiz-adv-x="1402" d="M111 709q0 164 48.5 305t130 235.5t188 147.5t222.5 53t222.5 -53t188.5 -147.5t130.5 -235.5t48.5 -305t-49 -305t-130.5 -235.5t-188 -148t-222.5 -53.5t-222.5 53.5t-188 148t-130 235.5t-48.5 305zM365 709q0 -265 37.5 -419.5t108.5 -216t189 -61.5q88 0 148.5 33.5 t104 113.5t63.5 215t20 335t-20 335t-63.5 214.5t-104 113t-148.5 33.5q-118 0 -189 -61.5t-108.5 -215.5t-37.5 -419zM418 1642q0 46 32 78.5t78 32.5t78.5 -32.5t32.5 -78.5t-32.5 -78t-78.5 -32t-78 32t-32 78zM791 1642q0 46 32 78.5t78 32.5t78.5 -32.5t32.5 -78.5 t-32.5 -78t-78.5 -32t-78 32t-32 78z" />
<glyph unicode="&#xd7;" horiz-adv-x="1228" d="M94 94l426 426l-426 426l94 94l426 -426l426 426l95 -94l-426 -426l426 -426l-95 -94l-426 426l-426 -426z" />
<glyph unicode="&#xd8;" horiz-adv-x="1402" d="M111 709q0 164 48.5 305t130 235.5t188 147.5t222.5 53q146 0 277 -84l108 215h91l-134 -264q113 -96 180.5 -253.5t67.5 -354.5q0 -164 -49 -305t-130.5 -235.5t-188 -148t-222.5 -53.5q-154 0 -288 92l-113 -223h-90l137 275q-109 99 -172 253t-63 345zM365 709 q0 -309 49 -463l524 1038q-78 121 -238 121q-118 0 -189 -61.5t-108.5 -215.5t-37.5 -419zM455 147q76 -135 245 -135q88 0 148.5 33.5t104 113.5t63.5 215t20 335q0 328 -55 483z" />
<glyph unicode="&#xd9;" horiz-adv-x="1251" d="M61 1372v45h492v-45h-147v-1030q0 -90 23.5 -156.5t63.5 -103t85.5 -53.5t97.5 -17q148 0 240 93t92 251v1016h-185v45h365v-45h-123v-1018q0 -178 -108 -282.5t-289 -104.5q-248 0 -366 104.5t-118 317.5v983h-123zM342 1790q0 30 22 52t54 22q49 0 110 -70l252 -287 h-88l-291 199q-36 24 -47.5 41t-11.5 43z" />
<glyph unicode="&#xda;" horiz-adv-x="1251" d="M61 1372v45h492v-45h-147v-1030q0 -90 23.5 -156.5t63.5 -103t85.5 -53.5t97.5 -17q148 0 240 93t92 251v1016h-185v45h365v-45h-123v-1018q0 -178 -108 -282.5t-289 -104.5q-248 0 -366 104.5t-118 317.5v983h-123zM498 1507l252 287q61 70 110 70q32 0 54 -22t22 -52 q0 -26 -11.5 -43t-47.5 -41l-291 -199h-88z" />
<glyph unicode="&#xdb;" horiz-adv-x="1251" d="M61 1372v45h492v-45h-147v-1030q0 -90 23.5 -156.5t63.5 -103t85.5 -53.5t97.5 -17q148 0 240 93t92 251v1016h-185v45h365v-45h-123v-1018q0 -178 -108 -282.5t-289 -104.5q-248 0 -366 104.5t-118 317.5v983h-123zM338 1507l227 348h148l227 -348h-86l-215 230 l-215 -230h-86z" />
<glyph unicode="&#xdc;" horiz-adv-x="1251" d="M61 1372v45h492v-45h-147v-1030q0 -90 23.5 -156.5t63.5 -103t85.5 -53.5t97.5 -17q148 0 240 93t92 251v1016h-185v45h365v-45h-123v-1018q0 -178 -108 -282.5t-289 -104.5q-248 0 -366 104.5t-118 317.5v983h-123zM342 1642q0 46 32.5 78.5t78.5 32.5t78 -32.5 t32 -78.5t-32 -78t-78 -32t-78.5 32t-32.5 78zM715 1642q0 46 32 78.5t78 32.5t78.5 -32.5t32.5 -78.5t-32.5 -78t-78.5 -32t-78 32t-32 78z" />
<glyph unicode="&#xdd;" horiz-adv-x="1138" d="M-20 1372v45h532v-45h-168l297 -627l332 627h-154v45h340v-45h-129l-358 -680v-647h164v-45h-549v45h164v602l-353 725h-118zM440 1507l252 287q61 70 111 70q32 0 54 -22t22 -52q0 -25 -12 -42.5t-48 -41.5l-291 -199h-88z" />
<glyph unicode="&#xde;" horiz-adv-x="1251" d="M123 0v45h123v1327h-123v45h467v-45h-123v-274h244q238 0 369.5 -102.5t131.5 -268.5t-126.5 -262t-372.5 -96h-246v-324h188v-45h-532zM467 414h192q172 0 246 67t74 246q0 152 -73.5 239t-227.5 87h-211v-639z" />
<glyph unicode="&#xdf;" horiz-adv-x="1138" d="M57 0v45h111v1065q0 167 102.5 253.5t280.5 86.5q177 0 274 -81t97 -208q0 -112 -58 -183t-205 -110v-4q81 -14 149.5 -48t123.5 -87.5t86 -133.5t31 -179q0 -87 -31 -168.5t-85 -143.5t-132 -99.5t-166 -37.5q-123 0 -191 62l27 28q64 -45 147 -45q218 0 218 398 q0 235 -79.5 328t-277.5 102v45q61 2 102 12t77 37t53.5 80.5t17.5 134.5q0 144 -45.5 200t-136.5 56q-97 0 -142 -52.5t-45 -168.5v-1184h-303z" />
<glyph unicode="&#xe0;" horiz-adv-x="1062" d="M94 252q0 85 33 143.5t83.5 86t120.5 47t135.5 28t137 27.5t117.5 47v215q0 182 -178 182q-44 0 -75.5 -11t-56.5 -32t-49.5 -67.5t-46 -101t-53.5 -148.5h-45v331q182 74 313 74q179 0 275 -78t96 -184v-766h98v-45h-278v180h-4q-37 -97 -120.5 -155t-190.5 -58 q-140 0 -226 76.5t-86 208.5zM236 1462q0 30 21.5 52t53.5 22q50 0 111 -70l252 -286h-88l-291 198q-36 24 -47.5 41t-11.5 43zM299 252q0 -113 41 -162t125 -49q115 3 185.5 107.5t70.5 273.5v156q-50 -24 -110.5 -41.5t-102 -26t-84 -25.5t-68 -41.5t-41.5 -72.5t-16 -119 z" />
<glyph unicode="&#xe1;" horiz-adv-x="1062" d="M94 252q0 85 33 143.5t83.5 86t120.5 47t135.5 28t137 27.5t117.5 47v215q0 182 -178 182q-44 0 -75.5 -11t-56.5 -32t-49.5 -67.5t-46 -101t-53.5 -148.5h-45v331q182 74 313 74q179 0 275 -78t96 -184v-766h98v-45h-278v180h-4q-37 -97 -120.5 -155t-190.5 -58 q-140 0 -226 76.5t-86 208.5zM299 252q0 -113 41 -162t125 -49q115 3 185.5 107.5t70.5 273.5v156q-50 -24 -110.5 -41.5t-102 -26t-84 -25.5t-68 -41.5t-41.5 -72.5t-16 -119zM391 1180l252 286q61 70 111 70q32 0 53.5 -22t21.5 -52q0 -26 -11.5 -43t-47.5 -41l-291 -198 h-88z" />
<glyph unicode="&#xe2;" horiz-adv-x="1062" d="M94 252q0 85 33 143.5t83.5 86t120.5 47t135.5 28t137 27.5t117.5 47v215q0 182 -178 182q-44 0 -75.5 -11t-56.5 -32t-49.5 -67.5t-46 -101t-53.5 -148.5h-45v331q182 74 313 74q179 0 275 -78t96 -184v-766h98v-45h-278v180h-4q-37 -97 -120.5 -155t-190.5 -58 q-140 0 -226 76.5t-86 208.5zM231 1180l228 348h147l228 -348h-86l-216 229l-215 -229h-86zM299 252q0 -113 41 -162t125 -49q115 3 185.5 107.5t70.5 273.5v156q-50 -24 -110.5 -41.5t-102 -26t-84 -25.5t-68 -41.5t-41.5 -72.5t-16 -119z" />
<glyph unicode="&#xe3;" horiz-adv-x="1062" d="M94 252q0 85 33 143.5t83.5 86t120.5 47t135.5 28t137 27.5t117.5 47v215q0 182 -178 182q-44 0 -75.5 -11t-56.5 -32t-49.5 -67.5t-46 -101t-53.5 -148.5h-45v331q182 74 313 74q179 0 275 -78t96 -184v-766h98v-45h-278v180h-4q-37 -97 -120.5 -155t-190.5 -58 q-140 0 -226 76.5t-86 208.5zM219 1229q30 129 74.5 175t130.5 46q49 0 98 -23.5t91 -47t73 -23.5q29 0 52 22.5t50 79.5h58q-26 -124 -76.5 -172.5t-124.5 -48.5q-51 0 -143 47q-81 47 -123 47q-37 0 -60.5 -23.5t-42.5 -78.5h-57zM299 252q0 -113 41 -162t125 -49 q115 3 185.5 107.5t70.5 273.5v156q-50 -24 -110.5 -41.5t-102 -26t-84 -25.5t-68 -41.5t-41.5 -72.5t-16 -119z" />
<glyph unicode="&#xe4;" horiz-adv-x="1062" d="M94 252q0 85 33 143.5t83.5 86t120.5 47t135.5 28t137 27.5t117.5 47v215q0 182 -178 182q-44 0 -75.5 -11t-56.5 -32t-49.5 -67.5t-46 -101t-53.5 -148.5h-45v331q182 74 313 74q179 0 275 -78t96 -184v-766h98v-45h-278v180h-4q-37 -97 -120.5 -155t-190.5 -58 q-140 0 -226 76.5t-86 208.5zM236 1315q0 46 32 78t78 32t78.5 -32t32.5 -78t-32.5 -78.5t-78.5 -32.5t-78 32.5t-32 78.5zM299 252q0 -113 41 -162t125 -49q115 3 185.5 107.5t70.5 273.5v156q-50 -24 -110.5 -41.5t-102 -26t-84 -25.5t-68 -41.5t-41.5 -72.5t-16 -119z M608 1315q0 46 32.5 78t78.5 32t78 -32t32 -78t-32 -78.5t-78 -32.5t-78.5 32.5t-32.5 78.5z" />
<glyph unicode="&#xe5;" horiz-adv-x="1062" d="M94 252q0 85 33 143.5t83.5 86t120.5 47t135.5 28t137 27.5t117.5 47v215q0 182 -178 182q-44 0 -75.5 -11t-56.5 -32t-49.5 -67.5t-46 -101t-53.5 -148.5h-45v331q182 74 313 74q179 0 275 -78t96 -184v-766h98v-45h-278v180h-4q-37 -97 -120.5 -155t-190.5 -58 q-140 0 -226 76.5t-86 208.5zM299 252q0 -113 41 -162t125 -49q115 3 185.5 107.5t70.5 273.5v156q-50 -24 -110.5 -41.5t-102 -26t-84 -25.5t-68 -41.5t-41.5 -72.5t-16 -119zM319 1389q0 88 62 150.5t151 62.5t151 -62.5t62 -150.5t-62 -150.5t-151 -62.5t-151 62.5 t-62 150.5zM410 1389q0 -51 35 -87t87 -36t87.5 36t35.5 87t-35.5 86.5t-87.5 35.5t-87 -35.5t-35 -86.5z" />
<glyph unicode="&#xe6;" horiz-adv-x="1593" d="M80 252q0 74 23.5 127t65 83t92 49.5t110.5 31t115 21t111 26.5t93 41v215q0 93 -46 137.5t-128 44.5q-93 0 -141.5 -68.5t-124.5 -291.5h-45v331q182 74 313 74q216 0 326 -127q112 127 262 127q177 0 280 -119.5t103 -335.5h-584q-2 -20 -2 -61q0 -285 58.5 -408.5 t171.5 -123.5q136 0 220.5 90t98.5 274h45q-4 -103 -35 -184.5t-82 -133t-117.5 -78t-142.5 -26.5q-128 0 -233.5 82t-149.5 232h-4q-46 -172 -135 -243t-240 -71q-122 0 -200 77t-78 208zM285 252q0 -113 36.5 -162t112.5 -49q120 0 188 98t68 283v156q-47 -24 -104 -41.5 t-97 -26t-81.5 -25.5t-66 -41.5t-40.5 -72.5t-16 -119zM907 664h369v79q0 285 -174 285q-92 0 -137.5 -89.5t-57.5 -274.5z" />
<glyph unicode="&#xe7;" horiz-adv-x="985" d="M94 520q0 249 133.5 401t362.5 152q86 0 263 -59q13 -4 19 -6v-373h-57q-30 109 -54 179.5t-45 114t-46 65t-47.5 28t-57.5 6.5q-50 0 -94.5 -26.5t-82 -81t-59.5 -152t-22 -227.5q0 -273 67.5 -394.5t198.5 -121.5q122 0 192.5 89.5t74.5 270.5h45q-1 -205 -92 -310 t-240 -108l-43 -98q5 1 27.5 4.5t35.5 3.5q66 0 110 -41.5t44 -105.5q0 -164 -235 -164q-93 0 -177 37l27 57q71 -29 133 -29q55 0 92 26t37 71q0 38 -25 63t-67 25q-30 0 -72 -21l-24 12l73 166q-182 20 -288.5 169t-106.5 378z" />
<glyph unicode="&#xe8;" horiz-adv-x="1024" d="M96 520q0 242 128 397.5t313 155.5q177 0 280 -119.5t103 -335.5h-609q-2 -20 -2 -61q0 -192 32 -312.5t86.5 -170t135.5 -49.5q136 0 221 90t99 274h45q-7 -204 -114 -313t-271 -109q-196 0 -321.5 154t-125.5 399zM240 1462q0 30 21.5 52t53.5 22q50 0 111 -70 l252 -286h-88l-291 198q-36 24 -47.5 41t-11.5 43zM313 664h394v79q0 285 -175 285q-95 0 -151 -93t-68 -271z" />
<glyph unicode="&#xe9;" horiz-adv-x="1024" d="M96 520q0 242 128 397.5t313 155.5q177 0 280 -119.5t103 -335.5h-609q-2 -20 -2 -61q0 -192 32 -312.5t86.5 -170t135.5 -49.5q136 0 221 90t99 274h45q-7 -204 -114 -313t-271 -109q-196 0 -321.5 154t-125.5 399zM313 664h394v79q0 285 -175 285q-95 0 -151 -93 t-68 -271zM395 1180l252 286q61 70 111 70q32 0 54 -22t22 -52q0 -25 -12 -42.5t-48 -41.5l-291 -198h-88z" />
<glyph unicode="&#xea;" horiz-adv-x="1024" d="M96 520q0 242 128 397.5t313 155.5q177 0 280 -119.5t103 -335.5h-609q-2 -20 -2 -61q0 -192 32 -312.5t86.5 -170t135.5 -49.5q136 0 221 90t99 274h45q-7 -204 -114 -313t-271 -109q-196 0 -321.5 154t-125.5 399zM236 1180l227 348h147l228 -348h-86l-215 229 l-215 -229h-86zM313 664h394v79q0 285 -175 285q-95 0 -151 -93t-68 -271z" />
<glyph unicode="&#xeb;" horiz-adv-x="1024" d="M96 520q0 242 128 397.5t313 155.5q177 0 280 -119.5t103 -335.5h-609q-2 -20 -2 -61q0 -192 32 -312.5t86.5 -170t135.5 -49.5q136 0 221 90t99 274h45q-7 -204 -114 -313t-271 -109q-196 0 -321.5 154t-125.5 399zM240 1315q0 46 32 78t78 32t78.5 -32t32.5 -78 t-32.5 -78.5t-78.5 -32.5t-78 32.5t-32 78.5zM313 664h394v79q0 285 -175 285q-95 0 -151 -93t-68 -271zM612 1315q0 46 32.5 78t78.5 32t78.5 -32t32.5 -78t-32.5 -78.5t-78.5 -32.5t-78.5 32.5t-32.5 78.5z" />
<glyph unicode="&#xec;" d="M-12 1462q0 30 21.5 52t53.5 22q50 0 111 -70l252 -286h-88l-291 198q-36 24 -47.5 41t-11.5 43zM90 0v45h98v950h-98v45h291v-995h98v-45h-389z" />
<glyph unicode="&#xed;" d="M90 0v45h98v950h-98v45h291v-995h98v-45h-389zM143 1180l252 286q61 70 111 70q32 0 54 -22t22 -52q0 -25 -12 -42.5t-48 -41.5l-291 -198h-88z" />
<glyph unicode="&#xee;" d="M-16 1180l227 348h147l228 -348h-86l-215 229l-215 -229h-86zM90 0v45h98v950h-98v45h291v-995h98v-45h-389z" />
<glyph unicode="&#xef;" d="M-12 1315q0 46 32 78t78 32t78.5 -32t32.5 -78t-32.5 -78.5t-78.5 -32.5t-78 32.5t-32 78.5zM90 0v45h98v950h-98v45h291v-995h98v-45h-389zM360 1315q0 46 32.5 78t78.5 32t78.5 -32t32.5 -78t-32.5 -78.5t-78.5 -32.5t-78.5 32.5t-32.5 78.5z" />
<glyph unicode="&#xf0;" horiz-adv-x="1062" d="M84 479q0 230 127.5 381.5t318.5 151.5q50 0 94 -10t60 -23l4 4q-47 129 -98 205l-240 -148l-37 66l234 143q-68 85 -187 156l33 45q138 -45 246 -145l238 145l45 -61l-228 -138q130 -138 206.5 -334t76.5 -401q0 -259 -125 -404t-322 -145q-193 0 -319.5 142t-126.5 370 zM297 479q0 -140 14 -232t45 -143.5t72 -71.5t102 -20q48 0 83.5 12.5t65 43.5t47.5 83.5t28 134t10 193.5q0 185 -27.5 294t-77 151.5t-129.5 42.5t-129.5 -42.5t-76.5 -151.5t-27 -294z" />
<glyph unicode="&#xf1;" horiz-adv-x="1099" d="M66 0v45h110v950h-110v45h286v-139h4q41 74 115 123t174 49q277 0 277 -301v-727h110v-45h-422v45h119v752q0 111 -34.5 156.5t-108.5 45.5q-92 0 -154.5 -80t-62.5 -231v-643h118v-45h-421zM238 1229q30 129 74.5 175t129.5 46q49 0 98 -23.5t91.5 -47t73.5 -23.5 q29 0 52 22.5t50 79.5h57q-26 -124 -76 -172.5t-124 -48.5q-52 0 -144 47q-81 47 -123 47q-37 0 -60 -23.5t-42 -78.5h-57z" />
<glyph unicode="&#xf2;" horiz-adv-x="1062" d="M84 520q0 244 127 398.5t319 154.5t319.5 -154.5t127.5 -398.5t-127.5 -398.5t-319.5 -154.5t-319 154.5t-127 398.5zM236 1462q0 30 21.5 52t53.5 22q50 0 111 -70l252 -286h-88l-291 198q-36 24 -47.5 41t-11.5 43zM297 520q0 -195 27 -308t76 -156.5t130 -43.5 t130 43.5t76.5 156.5t27.5 308t-27.5 308t-76.5 156.5t-130 43.5t-130 -43.5t-76 -156.5t-27 -308z" />
<glyph unicode="&#xf3;" horiz-adv-x="1062" d="M84 520q0 244 127 398.5t319 154.5t319.5 -154.5t127.5 -398.5t-127.5 -398.5t-319.5 -154.5t-319 154.5t-127 398.5zM297 520q0 -195 27 -308t76 -156.5t130 -43.5t130 43.5t76.5 156.5t27.5 308t-27.5 308t-76.5 156.5t-130 43.5t-130 -43.5t-76 -156.5t-27 -308z M391 1180l252 286q61 70 111 70q32 0 53.5 -22t21.5 -52q0 -26 -11.5 -43t-47.5 -41l-291 -198h-88z" />
<glyph unicode="&#xf4;" horiz-adv-x="1062" d="M84 520q0 244 127 398.5t319 154.5t319.5 -154.5t127.5 -398.5t-127.5 -398.5t-319.5 -154.5t-319 154.5t-127 398.5zM231 1180l228 348h147l228 -348h-86l-216 229l-215 -229h-86zM297 520q0 -195 27 -308t76 -156.5t130 -43.5t130 43.5t76.5 156.5t27.5 308t-27.5 308 t-76.5 156.5t-130 43.5t-130 -43.5t-76 -156.5t-27 -308z" />
<glyph unicode="&#xf5;" horiz-adv-x="1062" d="M84 520q0 244 127 398.5t319 154.5t319.5 -154.5t127.5 -398.5t-127.5 -398.5t-319.5 -154.5t-319 154.5t-127 398.5zM219 1229q30 129 74.5 175t130.5 46q49 0 98 -23.5t91 -47t73 -23.5q29 0 52 22.5t50 79.5h58q-26 -124 -76.5 -172.5t-124.5 -48.5q-51 0 -143 47 q-81 47 -123 47q-37 0 -60.5 -23.5t-42.5 -78.5h-57zM297 520q0 -195 27 -308t76 -156.5t130 -43.5t130 43.5t76.5 156.5t27.5 308t-27.5 308t-76.5 156.5t-130 43.5t-130 -43.5t-76 -156.5t-27 -308z" />
<glyph unicode="&#xf6;" horiz-adv-x="1062" d="M84 520q0 244 127 398.5t319 154.5t319.5 -154.5t127.5 -398.5t-127.5 -398.5t-319.5 -154.5t-319 154.5t-127 398.5zM236 1315q0 46 32 78t78 32t78.5 -32t32.5 -78t-32.5 -78.5t-78.5 -32.5t-78 32.5t-32 78.5zM297 520q0 -195 27 -308t76 -156.5t130 -43.5t130 43.5 t76.5 156.5t27.5 308t-27.5 308t-76.5 156.5t-130 43.5t-130 -43.5t-76 -156.5t-27 -308zM608 1315q0 46 32.5 78t78.5 32t78 -32t32 -78t-32 -78.5t-78 -32.5t-78.5 32.5t-32.5 78.5z" />
<glyph unicode="&#xf7;" horiz-adv-x="1228" d="M94 455v131h1041v-131h-1041zM483 98q0 54 39 92.5t92 38.5t92 -38.5t39 -92.5t-39 -92.5t-92 -38.5t-92 38.5t-39 92.5zM483 942q0 54 39 92.5t92 38.5t92 -38.5t39 -92.5t-39 -92.5t-92 -38.5t-92 38.5t-39 92.5z" />
<glyph unicode="&#xf8;" horiz-adv-x="1062" d="M84 520q0 244 127 398.5t319 154.5q131 0 228 -69l110 221h78l-133 -267q77 -75 120.5 -188.5t43.5 -249.5q0 -244 -127.5 -398.5t-319.5 -154.5q-99 0 -184 45l-96 -196h-78l115 233q-94 69 -148.5 192.5t-54.5 278.5zM297 520q0 -246 43 -362l371 749q-52 121 -181 121 q-81 0 -130 -43.5t-76 -156.5t-27 -308zM379 80q54 -68 151 -68q81 0 130 43.5t76.5 156.5t27.5 308q0 176 -23 291h-4z" />
<glyph unicode="&#xf9;" horiz-adv-x="1099" d="M68 995v45h303v-811q0 -102 33.5 -145t113.5 -43q91 0 152 79.5t61 231.5v643h-119v45h312v-995h110v-45h-303v135h-4q-26 -71 -99.5 -119.5t-166.5 -48.5q-143 0 -213 71t-70 226v731h-110zM254 1462q0 30 22 52t54 22q49 0 110 -70l252 -286h-88l-291 198 q-36 24 -47.5 41t-11.5 43z" />
<glyph unicode="&#xfa;" horiz-adv-x="1099" d="M68 995v45h303v-811q0 -102 33.5 -145t113.5 -43q91 0 152 79.5t61 231.5v643h-119v45h312v-995h110v-45h-303v135h-4q-26 -71 -99.5 -119.5t-166.5 -48.5q-143 0 -213 71t-70 226v731h-110zM410 1180l252 286q61 70 110 70q32 0 54 -22t22 -52q0 -25 -12 -42.5 t-48 -41.5l-290 -198h-88z" />
<glyph unicode="&#xfb;" horiz-adv-x="1099" d="M68 995v45h303v-811q0 -102 33.5 -145t113.5 -43q91 0 152 79.5t61 231.5v643h-119v45h312v-995h110v-45h-303v135h-4q-26 -71 -99.5 -119.5t-166.5 -48.5q-143 0 -213 71t-70 226v731h-110zM250 1180l227 348h148l227 -348h-86l-215 229l-215 -229h-86z" />
<glyph unicode="&#xfc;" horiz-adv-x="1099" d="M68 995v45h303v-811q0 -102 33.5 -145t113.5 -43q91 0 152 79.5t61 231.5v643h-119v45h312v-995h110v-45h-303v135h-4q-26 -71 -99.5 -119.5t-166.5 -48.5q-143 0 -213 71t-70 226v731h-110zM254 1315q0 46 32.5 78t78.5 32t78 -32t32 -78t-32 -78.5t-78 -32.5 t-78.5 32.5t-32.5 78.5zM627 1315q0 46 32 78t78 32t78.5 -32t32.5 -78t-32.5 -78.5t-78.5 -32.5t-78 32.5t-32 78.5z" />
<glyph unicode="&#xfd;" horiz-adv-x="909" d="M0 995v45h438v-45h-153l299 -714l245 714h-178v45h328v-45h-92l-375 -1079q-29 -85 -56 -138t-58.5 -83t-64 -40.5t-79.5 -10.5q-110 0 -156 49v319h45l56 -198q20 -73 42.5 -99t51.5 -26q108 0 196 317l-411 989h-78zM313 1180l252 286q61 70 111 70q32 0 54 -22t22 -52 q0 -25 -12 -42.5t-48 -41.5l-291 -198h-88z" />
<glyph unicode="&#xfe;" horiz-adv-x="1099" d="M86 -311h98v1683h-98v45h291v-481h4q69 137 229 137q123 0 216 -74.5t140.5 -199.5t47.5 -279q0 -131 -33 -237.5t-89.5 -174.5t-127.5 -104.5t-150 -36.5q-159 0 -233 148h-4v-426h115v-45h-406v45zM377 520q0 -263 52 -379t161 -116q72 0 116.5 41.5t69.5 152.5t25 301 q0 496 -221 496q-109 0 -156 -113t-47 -383z" />
<glyph unicode="&#xff;" horiz-adv-x="909" d="M0 995v45h438v-45h-153l299 -714l245 714h-178v45h328v-45h-92l-375 -1079q-29 -85 -56 -138t-58.5 -83t-64 -40.5t-79.5 -10.5q-110 0 -156 49v319h45l56 -198q20 -73 42.5 -99t51.5 -26q108 0 196 317l-411 989h-78zM158 1315q0 46 32 78t78 32t78.5 -32t32.5 -78 t-32.5 -78.5t-78.5 -32.5t-78 32.5t-32 78.5zM530 1315q0 46 32.5 78t78.5 32t78.5 -32t32.5 -78t-32.5 -78.5t-78.5 -32.5t-78.5 32.5t-32.5 78.5z" />
<glyph unicode="&#x152;" horiz-adv-x="2048" d="M127 709q0 164 48.5 305t129.5 235.5t187.5 147.5t222.5 53q77 0 155.5 -33.5t137.5 -89.5v90h917v-454h-45q-28 98 -49 163.5t-41.5 112.5t-35.5 72.5t-35.5 39.5t-38 17.5t-46.5 3.5h-405v-614h160q78 0 120 60t72 222h45v-610h-45q-30 162 -72 222.5t-120 60.5h-160 v-668h358q39 0 65 5.5t52.5 25t46 49.5t43.5 86.5t47 129t55 183.5h46v-524h-934v90q-59 -56 -137.5 -89.5t-155.5 -33.5q-116 0 -222.5 53.5t-187.5 148t-129.5 235.5t-48.5 305zM381 709q0 -266 37.5 -420t108 -215.5t188.5 -61.5q98 0 165.5 47t127.5 134v1032 q-60 87 -127.5 133.5t-165.5 46.5q-88 0 -148.5 -33.5t-103 -113t-62.5 -214.5t-20 -335z" />
<glyph unicode="&#x153;" horiz-adv-x="1669" d="M84 520q0 244 127 398.5t319 154.5q102 0 188 -46t148 -132q60 85 145.5 131.5t182.5 46.5q177 0 280 -119.5t103 -335.5h-606q-2 -20 -2 -61q0 -192 31.5 -312.5t86 -170t134.5 -49.5q136 0 220.5 90t98.5 274h45q-7 -204 -114 -313t-271 -109q-103 0 -190 45.5 t-146 128.5q-59 -84 -145.5 -129t-188.5 -45q-192 0 -319 154.5t-127 398.5zM297 520q0 -195 27 -308t76 -156.5t130 -43.5t130 43.5t76.5 156.5t27.5 308t-27.5 308t-76.5 156.5t-130 43.5t-130 -43.5t-76 -156.5t-27 -308zM973 664h391v79q0 285 -174 285q-95 0 -151 -93 t-66 -271z" />
<glyph unicode="&#x178;" horiz-adv-x="1138" d="M-20 1372v45h532v-45h-168l297 -627l332 627h-154v45h340v-45h-129l-358 -680v-647h164v-45h-549v45h164v602l-353 725h-118zM285 1642q0 46 32 78.5t78 32.5t78.5 -32.5t32.5 -78.5t-32.5 -78t-78.5 -32t-78 32t-32 78zM657 1642q0 46 32.5 78.5t78.5 32.5t78.5 -32.5 t32.5 -78.5t-32.5 -78t-78.5 -32t-78.5 32t-32.5 78z" />
<glyph unicode="&#x2c6;" d="M-16 1180l227 348h147l228 -348h-86l-215 229l-215 -229h-86z" />
<glyph unicode="&#x2dc;" d="M-29 1229q30 129 74.5 175t130.5 46q49 0 98 -23.5t91 -47t73 -23.5q29 0 52.5 22.5t50.5 79.5h57q-26 -124 -76.5 -172.5t-124.5 -48.5q-51 0 -143 47q-81 47 -123 47q-37 0 -60 -23.5t-42 -78.5h-58z" />
<glyph unicode="&#x2000;" horiz-adv-x="964" />
<glyph unicode="&#x2001;" horiz-adv-x="1929" />
<glyph unicode="&#x2002;" horiz-adv-x="964" />
<glyph unicode="&#x2003;" horiz-adv-x="1929" />
<glyph unicode="&#x2004;" horiz-adv-x="643" />
<glyph unicode="&#x2005;" horiz-adv-x="482" />
<glyph unicode="&#x2006;" horiz-adv-x="321" />
<glyph unicode="&#x2007;" horiz-adv-x="321" />
<glyph unicode="&#x2008;" horiz-adv-x="241" />
<glyph unicode="&#x2009;" horiz-adv-x="385" />
<glyph unicode="&#x200a;" horiz-adv-x="107" />
<glyph unicode="&#x2010;" horiz-adv-x="681" d="M86 428v184h508v-184h-508z" />
<glyph unicode="&#x2011;" horiz-adv-x="681" d="M86 428v184h508v-184h-508z" />
<glyph unicode="&#x2012;" horiz-adv-x="681" d="M86 428v184h508v-184h-508z" />
<glyph unicode="&#x2013;" horiz-adv-x="1024" d="M0 455v131h1024v-131h-1024z" />
<glyph unicode="&#x2014;" horiz-adv-x="2048" d="M0 455v131h2048v-131h-2048z" />
<glyph unicode="&#x2018;" horiz-adv-x="454" d="M117 1188q0 37 12 72.5t27.5 61t44.5 56t48 47.5t52 45l37 -36q-107 -78 -141 -156q66 0 103.5 -31.5t37.5 -79.5q0 -46 -32.5 -78t-78.5 -32q-51 0 -80.5 34t-29.5 97z" />
<glyph unicode="&#x2019;" horiz-adv-x="454" d="M117 1073q107 78 141 156q-67 0 -104 31t-37 79q0 46 32 78.5t78 32.5q51 0 81 -34t30 -97q0 -45 -15.5 -86t-47 -78.5t-56 -60.5t-65.5 -58z" />
<glyph unicode="&#x201a;" horiz-adv-x="454" d="M117 78q0 46 32 78t78 32q51 0 81 -34t30 -97q0 -37 -12 -72.5t-27.5 -61t-44.5 -56t-48 -47.5t-52 -45l-37 37q108 79 141 155q-66 0 -103.5 31.5t-37.5 79.5z" />
<glyph unicode="&#x201c;" horiz-adv-x="833" d="M135 1188q0 37 12 72.5t27.5 61t44.5 56t48 47.5t52 45l37 -36q-107 -78 -141 -156q66 0 103.5 -31.5t37.5 -79.5q0 -46 -32 -78t-78 -32q-51 0 -81 34t-30 97zM477 1188q0 45 15.5 86t47.5 78.5t55.5 60t66.5 57.5l36 -36q-107 -78 -141 -156q66 0 103.5 -31.5 t37.5 -79.5q0 -46 -32 -78t-78 -32q-51 0 -81 34t-30 97z" />
<glyph unicode="&#x201d;" horiz-adv-x="833" d="M135 1073q107 78 141 156q-67 0 -104 31t-37 79q0 46 32.5 78.5t78.5 32.5q51 0 80.5 -34t29.5 -97q0 -45 -15.5 -86t-47 -78.5t-56 -60.5t-65.5 -58zM477 1073q107 78 141 156q-67 0 -104 31t-37 79q0 46 32.5 78.5t78.5 32.5q51 0 80.5 -34t29.5 -97q0 -45 -15.5 -86 t-47 -78.5t-56 -60.5t-65.5 -58z" />
<glyph unicode="&#x201e;" horiz-adv-x="833" d="M135 78q0 46 32.5 78t78.5 32q51 0 80.5 -34t29.5 -97q0 -37 -12 -72.5t-27.5 -61t-44.5 -56t-48 -47.5t-52 -45l-37 37q108 79 141 155q-66 0 -103.5 31.5t-37.5 79.5zM477 78q0 46 32.5 78t78.5 32q51 0 80.5 -34t29.5 -97q0 -37 -12 -72.5t-27.5 -61t-44.5 -56 t-48 -47.5t-52 -45l-37 37q108 79 141 155q-66 0 -103.5 31.5t-37.5 79.5z" />
<glyph unicode="&#x2022;" horiz-adv-x="1024" d="M158 709q-2 148 101.5 251t252.5 103q148 0 251 -103t103 -251t-103 -251.5t-251 -103.5t-251 103t-103 252z" />
<glyph unicode="&#x2026;" horiz-adv-x="2048" d="M231 78q0 46 32.5 78t78.5 32t78.5 -32t32.5 -78t-32.5 -78.5t-78.5 -32.5t-78.5 32.5t-32.5 78.5zM913 78q0 46 32.5 78t78.5 32t78.5 -32t32.5 -78t-32.5 -78.5t-78.5 -32.5t-78.5 32.5t-32.5 78.5zM1595 78q0 46 32.5 78t78.5 32t78.5 -32t32.5 -78t-32.5 -78.5 t-78.5 -32.5t-78.5 32.5t-32.5 78.5z" />
<glyph unicode="&#x202f;" horiz-adv-x="385" />
<glyph unicode="&#x2039;" d="M92 520l318 279q29 26 49 26q18 0 18 -18t-43 -76l-153 -211l153 -211q43 -58 43 -76t-18 -18q-19 0 -49 27z" />
<glyph unicode="&#x203a;" d="M92 233q0 18 43 76l154 211l-154 211q-43 58 -43 76t19 18q20 0 49 -26l317 -279l-317 -278q-30 -27 -49 -27t-19 18z" />
<glyph unicode="&#x205f;" horiz-adv-x="482" />
<glyph unicode="&#x2122;" horiz-adv-x="2027" d="M66 1237v180h704v-180h-45q-18 77 -48.5 106t-86.5 29h-90v-655q0 -41 19.5 -56t82.5 -18v-45h-369v45q64 3 83.5 18t19.5 56v655h-88q-56 0 -86.5 -29t-50.5 -106h-45zM848 1372v45h262l303 -622l307 622h226v-45q-63 -3 -83 -18t-20 -56v-581q0 -41 20 -56t83 -18v-45 h-369v45q63 3 82.5 18t19.5 56v491h-4l-299 -610h-24l-299 619h-4v-447q0 -69 20.5 -96.5t85.5 -30.5v-45h-274v45q64 3 83 30t19 97v516q-24 43 -54.5 63t-80.5 23z" />
<glyph unicode="&#x25fc;" horiz-adv-x="1044" d="M0 0v1044h1044v-1044h-1044z" />
<glyph unicode="&#xfb01;" horiz-adv-x="1138" d="M78 0v45h98v950h-98v45h98v113q0 297 324 297q88 0 180 -29v-270h-45q-37 116 -63 170t-47.5 69t-57.5 15q-42 0 -70 -32t-28 -103v-230h233v-45h-233v-950h147v-45h-438zM659 0v45h99v950h-94v45h286v-995h99v-45h-390zM737 1272q0 52 33.5 84.5t83.5 32.5t83.5 -32.5 t33.5 -84.5t-33.5 -84.5t-83.5 -32.5t-83.5 32.5t-33.5 84.5z" />
<glyph unicode="&#xfb02;" horiz-adv-x="1138" d="M78 0v45h98v950h-98v45h98v113q0 297 324 297q72 0 164 -29v-270h-46q-38 118 -61 170.5t-41 68t-49 15.5q-42 0 -70 -32t-28 -103v-230h245v-45h-245v-950h147v-45h-438zM659 0v45h99v1327h-58v45h250v-1372h99v-45h-390z" />
</font>
</defs>
</svg>
